<?xml version="1.0" encoding="utf-8"?>
<!-- Generator: Adobe Illustrator 27.3.1, SVG Export Plug-In . SVG Version: 6.00 Build 0)  -->
<svg version="1.1" id="Layer_1" xmlns="http://www.w3.org/2000/svg" xmlns:xlink="http://www.w3.org/1999/xlink" x="0px" y="0px"
	 viewBox="0 0 360 470.78" style="enable-background:new 0 0 360 470.78;" xml:space="preserve">
<style type="text/css">
	.st0{fill:#010101;}
	.st1{fill:#010101;stroke:#010101;stroke-width:1.011;stroke-miterlimit:10;}
	.st2{fill:none;stroke:#010101;stroke-width:20.5685;stroke-linejoin:bevel;stroke-miterlimit:10;}
</style>
<g>
	<path class="st0" d="M75.12,94.13L43.09,29.41c0,0,22.76,20.02,79.92,22.02s77.41,42.7,77.41,42.7H75.12z"/>
	<polygon class="st0" points="230.77,118.82 221.94,94.59 194.74,85.79 190.95,78.44 138.46,74.4 138.46,74.14 136.79,74.27 
		132.94,73.97 132.94,74.56 80.46,78.61 76.66,85.96 49.47,94.76 40.64,118.99 50.09,127.08 132.94,139.38 132.94,140.03 
		135.14,139.71 138.46,140.2 138.46,139.21 221.32,126.91 	"/>
	<path class="st1" d="M210.24,125.91L135.7,95.7l-74.54,30.21L35.82,431c-0.15,2.53,0.76,4.94,2.28,6.09l24.2,18.25l37.52,12.03
		h71.75l37.52-12.03l24.2-18.25c1.53-1.15,2.43-3.56,2.28-6.09L210.24,125.91z"/>
	<g>
		<polyline class="st2" points="200.43,190.25 256.31,150.88 273.78,326.67 		"/>
		<line class="st2" x1="223.36" y1="331.01" x2="324.19" y2="322.34"/>
	</g>
</g>
</svg>
