<?xml version="1.0" encoding="UTF-8"?><svg id="Layer_2" xmlns="http://www.w3.org/2000/svg" width="411.11" height="551.15" viewBox="0 0 411.11 551.15"><defs><style>.cls-1{fill:none;}.cls-2{fill:#b0d8a4;}.cls-3{fill-rule:evenodd;}</style></defs><path class="cls-2" d="m299.44,401.46l102.26-7.06-1.48-21.4-49.98,3.45-13.88-174.44-17.8-7.18-34.09,30.15-4.15-48.92s-54.62-36.12-60.14-61.06l-1.88-8.47-1.25-2.66,7.27-7.85v-2.86l-11.08-11.96c-2.72-2.93-7.13-2.93-9.85,0l-11.08,11.96v2.86l7.27,7.85-1.25,2.66-1.88,8.47c-5.53,24.94-60.14,61.06-60.14,61.06l-11.83,139.57L58.25,173.47l-30.94-5.74-4.72,23.68,18.19,3.37,1.14,2.44,43.2,168.21,29.68,64.57-1.84,21.66,25.9,15.08-2.13,25.98,71.44,28.23,71.75-28.23-2.13-25.98,25.9-15.08-4.26-50.21Zm17.25-176.33l12.16,152.8-31.22,2.15-10.89-128.46,29.95-26.49Z"/><path class="cls-1" d="m299.44,401.46l102.26-7.06-1.48-21.4-49.98,3.45-13.88-174.44-17.8-7.18-34.09,30.15-4.15-48.92s-54.62-36.12-60.14-61.06l-1.88-8.47-1.25-2.66,7.27-7.85v-2.86l-11.08-11.96c-2.72-2.93-7.13-2.93-9.85,0l-11.08,11.96v2.86l7.27,7.85-1.25,2.66-1.88,8.47c-5.53,24.94-60.14,61.06-60.14,61.06l-11.83,139.57L58.25,173.47l-30.94-5.74-4.72,23.68,18.19,3.37,1.14,2.44,43.2,168.21,29.68,64.57-1.84,21.66,25.9,15.08-2.13,25.98,71.44,28.23,71.75-28.23-2.13-25.98,25.9-15.08-4.26-50.21Zm17.25-176.33l12.16,152.8-31.22,2.15-10.89-128.46,29.95-26.49Z"/><path class="cls-3" d="m295.97,255.38c-.15-.1-.5.15-.47.2.08.1.89.42,1.01.56.15.17-.22.15.04.49.2.27,1.11.67,1.52.95.19.13.04.25.28.42,0,0,.18.15.26.18.05.02.47.07.49.09.13.08-.11.16.02.24.17.09.59.15.74.22.04.02.25.08.25.07.01.03-.29.05-.23.09.04.02.1.05.17.08.07.02.18.23.28.34.21.28.44.59.62.92.36.65.53,1.22.89,1.98.1.2.5.38.52.43.08.26-.26.57-.17.81.22.62,1.21,1.63.69,2.47-.12.2-1.02.33-1.15.57-.02.03.05.31.03.31-.44.1-2.85-.92-3.23-1.15-.45-.27-.79-.77-1.3-1.16-.14-.1-.14-.14-.27-.29,0,.01-.24-.28-.27-.29-.24-.15-.8-.09-.98-.23-.33-.26-.24-.66-.56-.9-.28-.21-.72-.35-1.01-.55-.16-.11-.11-.33-.28-.45-.07-.05-.4.08-.48.04-.09-.05.05-.26-.03-.31-.58-.42-1.11-.83-1.78-1.12-.54.69.23,1.19.62,1.69.62.82,1.14,1.52,1.9,2.53.22.29.48.54.81,1.04.32.49.75.91,1.09,1.49.05.09.3.17.27.29-.08.27-.05.15.29.61.37.49-.26.95-1.37.91-1.27-.05-1.78-1.87-2.55-1.68-1.34.32.72,1.84.9,2.14.34.56.21,1.05.35,1.24.09.12.36.17.5.27.67.52,1.22,1.72,1.9,2.53.79.95,1.64,2.82,2.03,4.1-.37.22-1.11.09-1.66.3-1.27.47-1.81-.57-3.2-.84-.25.06-.25.43-.19.65.09.31.43.28.52.43.21.37.28.79.58,1.22.1.15.4.24.52.43.17.27.16.41.29.61.22.32.63.6.8.88.23.39.13.85.35,1.24.19.33.57.82.83,1.2.29.42.87.92.82,1.2-.11.62-.55.04-.69.38.07.56.66-.1,1.01.55.17.32-.28,1.63-.56,1.95-.09.11-.39.38-.68.53-.69.36-1.87.11-2.6.54-.3.17-.44.48-.65.85-.19.33-.77.89-.36,1.46.21.3.37.03.28.45-.04.2.66,1.15.85,1.51.17.32.14.6.32.92.05.08.47.22.51.27.08.14-.04.33.04.47.33.61.71,1.68,1.18,2.59.04.08.47.22.51.27.16.28.04.67.32.92.27.24.07.54.33,1.08.07.15.47.34.52.43.39.74.34,1.57.7,2.63.07.2.43.38.53.59.58,1.22.51,2.66-1.19,2.95-.33.06-1,.02-1.7-.17-.53-.14-1.15-.85-1.7-.17-.59.72-.31,2.22.04,3.32.09.27.39.37.54.75-.02-.06-.36.12-.23.18.71.3.84,1.92,1.2,2.75.01.03.24,0,.25.14,0,.08-.19.24-.23.18.23.4.68.54.8.88.11.32.04.87.11,1.26.22,1.22.97,2.29.53,3.44-.22.57-.85.69-.58,1.63.06.21.39.38.29.61,0,0-.24.28-.49.57-.25.29-.53.59-.62.63-1.34.64-4.34-.09-3.02,1.36.16.18.58.22.76.41.17.18.15.59.31.77.21.24.71.35.76.41.31.38.33,1,.6,1.37.05.07.45.06.49.12.18.22.08.57.32.92.13.19.38.36.53.59.09.14.07.51.04.47.37.54,1.03.57.81,1.04-.2.14-.52.21-.94.24-.54.85.44-.45.03.31-.11.21-.37.29-.44.51-.35.15-.53-.14-.98-.23-.31-.06-.92.03-1.21-.06-.65-.19-.93-.75-1.26-.68-1.93.41.1,1.92.44,2.34.68.84,1.03,1.59,1.66,2.55.32.48.92.96,1.34,1.63.14.23.18.33.28.45.2.24.61,1.14.86,1.67.11.23.22.52.31.77,0-.03.41.04.25.14-.56.36.02.31.29.61.3.33.05.58.33,1.08.04.07.48.22.5.27.16.32.19.69.33,1.08.12.33.19.72.33,1.08.43,1.06,1.01,1.87,1.24,3.22,0,.05-.27.4-.19.65.24.75.04,2.16-.25,2.71-.32.6-.43.68-.88,1.02-.53.4-2.42.63-3.11.26-.14-.07-.38-.4-.52-.43-.31-.08-.86.13-1.2.1-.18-.02-.57-.33-.74-.25-.98.39-.39,1.56-.05,2.22.36.7.28,1.48,1.13,1.96.24.14.56,1.29.88,1.83.11.18.37.37.53.59.09.13-.06.35.04.47.04.05.47.08.49.12.13.23-.04.65.08.94.11.26.47.37.53.59.09.29-.19.46-.17.81.03.49.54,1.1.62,1.69.08.54-.1,1.22-.1,1.71.01.88.51,1.92-.02,2.63-.18.24-.61.2-.93.41-.33.23-.51.67-1.14.82-.38.09-1.23.04-1.67.18-.06.02-.2.29-.45.32-.19.03-1.28-.19-1.71-.26-.37-.05-.6-.05-.98-.15-.69-.17-1.01-.31-1.87.7-.21.24-.77.9-.87,1.16-.17.47.04,1.52-.06,2.15-.09.58-.36,1.06-.37,1.36-.04,1.24.03,3.22.15,4.63.04.55.33.83.35,1.27.16,3.29.42,7.25,1.33,9.65.97-.24,1.91-.54,2.84-.89.69-.27,1.11-.11,2.2-.39,1.16-.31,2.44-.92,3.48-1.2.82-.23,1.46-.13,2.26-.4.18-.06.37-.29.54-.28.06,0,.22.19.09.23.74-.26,1.1-.7,1.58-.83,1.32-.33,4.65-.76,4.9-.58-.03-.02.15.47.15.47-.04-.05.18.39.19.23-.01.38-.63.62-.57.76.31.69,1.59.75,2.95.56,1.58-.21,2.18-.61,2.73-.95.19-.13.44-.24.74-.32.4-.09.91-.18,1.42-.26,1.03-.16,2.16-.3,3.13-.51,1.81-.39,2.98-1.23,4.13-1.01.72.15,2.09,1.38,2.71,1.5,1.41.27,2.22-.54,3.53-.72.32-.04.91.16,1.28.15.8-.01,2.54-.4,3.89-.27.4.04.86.14,1.36.26.29-.38.68-.71.74-1.36.15-1.55-.33-4.23-.52-6.58-.19-2.27-.22-4.57-.54-6.81-.16-1.08-.57-2.15-.74-3.25-.19-1.22-.2-2.43-.23-3.61-.01-.59-.03-1.17-.08-1.72-.03-.31-.05-.46-.08-.65-.03-.18-.08-.36-.13-.53-.1-.29-.52-.57-.55-.91-.07-.74.51-1.42.28-2.55-.31-1.56-1.01-3.73-1.41-5.59-.09-.42,0-.73-.09-1.1-.14-.53-.52-1.01-.6-1.54-.04-.24.24-.55.18-.8-.19-.77-.75-1.45-.89-2.15-.09-.47-.03-.96-.11-1.42-.2-1.05-.67-2.07-.72-2.95,0-.11-.1-.37-.04-.47.01-.02.46-.21.47-.19-.02-.13-.44-.43-.54-.75-.25-.76-.19-1.95-.2-2.52-.01-.4-.34-1.32-.16-2.04.29-1.19.95-2.12,2.72-2.12-.16,0,.75.11.73.1.16.07.11.38.28.45.47.21,1.02.22,1.24.38.13.1.07.54.3.77.06.06.45.07.49.12.06.08-.05.25.02.31.22.18.66.19,1,.4.21.13.3.45.53.59.86.53,2.17,1.41,2.19.3,0-.14-.33-.32-.29-.61.06-.47.43-.81.39-1.14-.04-.32-.41-.57-.55-.91-.2-.49-.03-.89-.35-1.4-.3-.48-.32-.32-.31-.92,0-.49-.42-.78-.59-1.38-.19-.66-.18-1.36-.4-2.03-.24-.71-.64-1.4-.89-2.15-.27-.83-.35-1.78-.69-2.64-.1-.25-.45-.48-.54-.75-.13-.37.01-.72-.09-1.1-.12-.45-.51-1.17-.86-1.67-.24-.34-.39-.9-.6-1.53-.36-1.04-.5-2.75-1.03-3.88-.14-.29-.46-.49-.54-.75-.11-.31-.01-.74-.09-1.1-.14-.66-.6-1.33-.63-1.85-.02-.45.72-1.86.03-2.69-.37-.45-.24-1.7-.46-2.81-.06-.31-.26-.4-.29-.61-.06-.34.23-.81.15-1.12-.06-.25-.49-.36-.53-.59-.06-.33.22-.66.16-.96-.16-.95-.59-1.81-.69-2.64-.07-.55.1-1.2.09-1.91-.02-1.03-.46-2.28-.25-3.15.13-.52.75-1.35,1.08-1.51.43-.21,1.68-.18,1.9-.31.34-.2.6-.62.88-1.02.54-.76.78-1.08.53-2.42,0-.05-.26-.25-.28-.45-.01-.17.19-.53.2-.49-.08-.26-.47-.36-.53-.59-.09-.32.02-.66-.08-.94-.09-.25-.41-.48-.54-.75-.1-.19.03-.44-.05-.63-.1-.25-.42-.51-.54-.75-.3-.6-.15-1.17-.62-1.69-.08-.09-.48-.23-.5-.28-.13-.23.02-.55-.06-.79-.07-.21-.39-.4-.53-.59-.09-.13.07-.35-.04-.47-.04-.05-.47-.08-.49-.12-.2-.38-.18-.88-.34-1.24-.39-.89-1.65-2.03-.95-2.93.83-.31.19.52.75.41.24-.36-.07-.47.18-.81.26-.36.86-.38.91-.71.04-.32-.49-.76-.57-1.06-.14-.51,0-1.13-.14-1.73-.1-.43-.49-.79-.58-1.22-.3-1.36-.6-3.36-.39-4.88.04-.27.33-.38.43-.67.16-.46-.05-.89.14-1.28.29-.6,1.05-1,1.32-1.53.5-.95.2-2.16.47-3.2.07-.26.39-.58.42-.82.07-.64-.18-1.23-.15-1.89.04-.76.43-1.69.52-2.57.07-.8-.17-1.67.05-2.38.18-.57,1.1-1.18,1.3-1.84.23-.78,0-2.19-.04-3.48,0,.01-.28-.01-.25-.14.29-1.34-.22-3.32-.36-4.56-.03-.28.25-.35.19-.65-.08-.39-.11-.78-.1-1.26,0-.31-.3-.53-.3-.77,0-.73,0-1.23-.16-2.04-.05-.28.22-.48.18-.81-.02-.15-.28-.86-.35-1.4,0,.04-.4-.05-.25-.14.74-.47-.99-1.22-1.11-1.81-.09-.44.4-.88.6-1.47.5-1.46.3-3.64.27-5.72,0-.35-.51-1.1.38-1.3-.11,1.51.44,3.03.6,4.54.02.22-.22.57-.18.81.06.34.45.59.55.91.08.24-.22.47-.18.81.02.15.27.32.29.61.02.33-.21.66-.16.96.16,1.2.86,2.45,1,3.56.02.16.13.48.05.63-.07.14-.44.13-.45.35,0,.19.46.19.5.28.1.2-.23.29-.21.33.42,1.44.2,3.25.65,5.17.13.53.55,1.03.61,1.53.16,1.51-.46,2.95-.17,3.97.07.23.61.83.57,1.06-.01.08-.43.14-.47.2-.22.39.05.59-.4.98-.3.27-.84.53-.88,1.02-.04.44.15.9.11,1.42-.03.38-.33.76-.39,1.14-.17,1.03.28,1.99.24,2.99-.01.34-.34.74-.39,1.14-.07.58.19,1.2.15,1.89-.02.27-.36.7-.4.98-.15.88.35,1.02-.37,1.45-.04.02-.45.17-.47.2-.11.22.23.58.06.79-.06.08-.61.13-.7.21-.05.05-.57.82-.64,1-.1.26.12.66.09,1.1-.06.69-.48,1.01-.33,1.93.02.11.31.15.26.3-.06.19-.22,1.2-.1,1.75.07.3.46.61.55.91.13.41,0,1.02.12,1.57.35,1.6,1.79,2.46.77,3.58-.18.2.06.19-.21.33-.27.14-.28.02-.47.19-.4.36-.38.65-.15,1.12.05.09.31.17.26.3-.01.04-.32.02-.23.18.17.3.66.56.79.89.26.65.09,1.35.39,1.87.15.26.67.51.78.73.21.43.16.95.35,1.4.2.47.58.91.83,1.36.12.22.14.47.3.77.11.21.48.43.53.59.18.58,0,1.19.14,1.73-.73.18-.5-.39-1.22-.22.17.7,1.35.12,1.71.34-.03.98.15,2.02-.01,2.85-.11.55-.44.73-1.1,1.35-.62.58-.71.64-1.84,1.1-.29.12-1.11.35-1.17.41-.24.26.01.81-.13,1.43-.07.3-.4.62-.42.82-.08,1.11.53,2.43.78,3.74.13.68.03,1.35.15,1.89.08.37.54.77.56,1.06.03.37-.37.75-.39,1.14-.03.47.02,1.1.36,1.55.13.17.47.23.51.43.06.3-.47.75-.4.98.17.57.93,1.09,1.09,1.65.43,1.48-.69,3.85.41,5.19.3.36-.1,2.47.72,2.95.48.29.32.02.3.77-.02.73.37,1.22.87,1.83.41.5-.14.33-.18.81,0,.09.38.88.58,1.22.13.22.46.38.53.59.14.42-.05,1.01.11,1.42.18.44.68.79.82,1.2.09.26-.25.5-.16.96.04.25.37.25.53.59.1.22-.03.73.07.94.12.24.35.51.54.75.62.76.76,2.09,1.25,3.54.1.3.39.4.54.75.23.54.21,1.58.44,2.5.11.46.4.99.38,1.71,0,.22.06.61.05.63-.05.18-.39.24-.45.35-.23.46-.06.46-.66.84-.07.05-.42.34-.45.35-.86.3-2.51.2-2.88.07-.15-.05.06-.54-.05-.63-.18-.15-.9-.18-1.23-.38-.16-.09-.14-.35-.28-.45-.14-.1-.34-.16-.5-.28-.59-.44-1-.92-1.55-1.3-.57-.39-1.23-.69-1.76-.97-.49.6,0,1.24-.09,1.91-.04.29-.42.69-.4.98.02.4.45.67.57,1.06.18.63-.14,1.39-.08,2.06.06.58.23,1.4.4,2.03.1.38.5.73.57,1.06.06.35-.27.64-.16.96.07.23.15.52.3.77.11.18.47.36.53.59.11.4-.2.86-.14,1.28.05.34.41.52.55.91.32.89-.13,1.96.45,2.65.14.17.43.23.52.43.2.48,0,1.03.12,1.57.08.38.42.55.55.91.1.25-.22.29-.2.49.01.16.51.62.55.91.04.24-.26.31-.2.49.1.3.49.49.54.75.06.28-.2.48-.18.81.02.22.28.54.3.77.05.53-.16,1.06-.11,1.59.03.33.32.59.31.92,0,.16-.05.3-.09.5-.04.25-.07.5-.05.74.17,1.66.87,3.62.65,5.13-.03.21-.16,1.03-.17.94.05.46.45.83.59,1.32.38,1.38.25,2.44.3,3.71.04,1.18.43,2.62.54,3.83.2,2.21.12,4.31.28,6.55.12,1.65.63,3.24.44,4.4-.15-.02-.31-.04-.48-.06-.98-.14-2.35-.9-3.4-.97-.61-.04-2.94.62-3.86.75-.63.08-1.53.07-2.41.17-1.41.16-2.94.78-3.74.5-.63-.22-1.53-1.86-1.96-2.03-.54-.22-4.01.28-4.35.54-.36.28-1.01.13-1.94.37-.34.09-.63.48-.94.55-.28.06-.58.11-.88.14-.27.03-.54.05-.81.08-.38.04-.75.08-1.09.21-.22.09-.42.25-.62.4-.1.08-.2.15-.29.23-.16.07-.34.14-.51.19-.43.11-.92.01-1.36.09-.71.13-1.28.56-1.67.6-.27.03-1.62,0-1.9-.11-.04,0-1.07-1-1.07-1.13-.1-.76.82-1.15.36-1.47-.28-.19-1.2-.29-2.31-.08-.49.1-.86.6-1.47.82-.3.11-.81-.07-1.56.11-.45.11-.92.47-1.38.58-.86.19-1.63.02-2.88.44-.13.04-.7.51-.79.53-.43.12-.76,0-1.17.08-.5.1-1.1.49-1.54.59-1.44.33-2.66.5-3.97.77-.09-.35-.19-.7-.32-1.03-.21-.56-.56-1.02-.61-1.51-.06-.59.18-1.27.1-1.71-.16-.87-.51-.81-.59-1.34-.07-.48.14-1.2.1-1.69-.04-.47-.28-.82-.35-1.33-.05-.39.15-1.15.1-1.66-.04-.44-.3-.36-.31-.85-.02-.68.29-1.5.29-2.27,0-.4-.3-.72-.33-1.12-.06-.73.27-2.01.23-2.93-.02-.45-.36-.77-.34-1.14.03-.51.25-1.05.35-1.62.13-.8.2-1.68.11-1.51.49-.94,1.91-1.62,2.98-1.78.59-.09,1.01.19,1.71.28.4.05.65-.06.96-.02.76.09.86.09,2.39-.2,1-.19,1.02-.04,1.39-.65.31-.49-.27-.18-.31-.86-.02-.39.21-.8.14-1.24-.06-.35-.35-.76-.33-1.08.02-.33.46-.59.41-.83-.07-.41-.49-1.2-.86-1.67-.12-.15-.2-.22-.28-.45-.13-.43.21-.7.15-1.12-.03-.22-.36-.61-.56-.9-.18-.27-.38-.75-.56-.9-.2-.17-.83-.26-1.01-.55-.55-.91.07-1.6-.69-2.47-.15-.17-.08-.34-.28-.45-.06-.03-.47-.08-.49-.12-.17-.22.28-.31.2-.49-.05-.11-.45-.08-.51-.27-.44-1.54,0-3.28,2.88-2.94.19.02.46.05.73.1,0,0,.66.07.73.1.19.08.46.67.78.73.04,0,.65-.22.94-.24.16,0,.64.24.97.08.31-.16.02-.26.2-.49.03-.04.46-.17.47-.2.13-.42.08-1.51.07-2.06-.01-.34-.31-.74-.35-1.24-.04-.59-.03-1.29-.43-2.18-.1-.22-.18-.54-.31-.77-.11-.19-.45-.4-.53-.59-.55-1.29-.65-2.55-.98-3.08-.32-.51-1.11-.83-1.3-1.16-.03-.05.08-.46-.08-.94-.05-.14-.5-.36-.52-.43-.07-.23.29-.34.2-.49-.13-.21-.41-.1-.76-.41-.25-.23-.06-.53-.31-.77-.21-.2-.5-.39-.77-.57-.15-.1-.66-.3-.76-.41-.14-.16.05-.46-.05-.63-.05-.08-.47-.21-.5-.27-.16-.26-.13-.66-.32-.92-.46-.61-1.2-1.07-1.58-1.61-.55-.77-.99-1.45-.64-1.85.2-.22.6-.08.94-.24.21-.1.12-.29.45-.35,1.36-.27,2.97.28,3.88.3,0-.72-.98-1.14-1.34-1.63-.3-.41-.3-.87-.58-1.22-.41-.51-1.11-.91-1.55-1.29-.17-.15-.13-.32-.28-.45-.11-.1-.4-.18-.51-.27-.13-.11-.12-.34-.28-.45-.36-.27-.38-.1-.8-.88-.37-.7-.4-.66.4-.98.69-.27,3.75-.29,4.26-.84.44-.47-.45-.86-.61-1.53,0-.01.31-.2.21-.33-.1-.14-.4-.24-.05-.63.42-.47.83-.08,1.63-.61-.18-.91,0-1.73-.21-2.52-.06-.23-.42-.36-.53-.59-.21-.44-.17-1-.37-1.55-.36-1-.98-1.99-1.25-3.38,0-.04-.35-.13-.27-.29.03-.06.28,0,.23-.18-.08-.25-.41-.35-.53-.59-.15-.3-.75-2.6-.51-3.12.03-.06.37-.26.45-.36.52-.62,2.29-1.01,4.04-.66.8.16,1.11.15,1.14-.73,0-.13-.32-.22-.28-.45.03-.17.12-.65-.09-1.1-.27-.55-.78-.86-.81-1.04-.17-.98.8-.59-.11-1.26-.69-.51-.85-1.98-1.46-3.04-.33-.57-.76-1.13-1.12-1.81-.15-.28-.15-.68-.32-.92-.15-.21-.59.04-.73-.1.04.03-.13-.6-.32-.92-.28-.46-.73-1-.88-1.83-.07-.35.19-.57.17-.81-.07-.8-.5-1.39.54-2.1.05-.03.45-.17.46-.2.25-.43.21-.19.92-.55.14-.07.37-.32.45-.35.88-.32,1.83-.18,2.11-.65.3-.5-1.09-2.45-1.47-3.2-.42-.81-.21-1.08-.85-1.51-.46-.31-.19-.42-.57-1.06-.07-.11-.38-.21-.52-.43-.14-.23-.45-.32-.52-.43-.14-.23.08-.56-.07-.79-.09-.14-.39-.26-.52-.43-.16-.23-.12-.38-.29-.61-.25-.34-.74-.73-.8-.88-.09-.25.24-.29.2-.49-.06-.36-.64-.83.38-1.14.52-.16.74-.37.93-.4.91-.12,1.27.18,2.47.74.07.03,1.54,1.18,2.01.94.97-.5-.51-1.12-1.13-1.96-.54-.74-.58-2.03-1.65-2.39-.66-.22-.12-.68-.82-1.2-.06-.04-.5-.26-.51-.27-.13-.21.11-.59-.07-.79-.17-.19-.61-.03-.74-.25-.1-.17-.28-.58-.29-.61-.18-.44.02-1.03-.11-1.26-.14-.24-.56.05-.73-.1-.18-.15-.17-.81-.33-1.08-.06-.1-.87-.27-.56-.9,1.07-.49,1.83-.32,2.42.11.14.1.47.11.51.27.01.06-.32.27-.21.33.13.08.58.04.73.1.35.14.78.68,1.5.66,0-.45-.27-.61-.56-.9-.06-.06.05-.27-.03-.31-.22-.12-.58-.09-.74-.25-.19-.19-.09-.57-.31-.77-.5-.46-1.57-.72-1.81-1.43-.1-.3.28-.67.17-.81-.23-.3-.85-.35-1.26-.68-.27-.19-2.05-2.61-1.48-3.28,0,0,.27-.12.58-.23.31-.11.66-.21.82-.21.55-.02.46.17.74.24.34.08-.02.04.24,0,.9-.15.51.31,1.01.54.17.09.93.03,1.22.14.07.03.19.25.27.29.77.42,1.52,1.42,2.34,2.02.37.27.91.45,1.26.68.2.13.38.64.78.73.08.02.43-.08.48-.04.42.33.41.91.82,1.2.51.35,1.01.23,1.49.51.89-.2-.03-.55.41-.83.35,0,.12.46.52.43.41-.22-.09-.55-.52-.43-.94.27-.43-.84-.57-1.06-.11-.16-.41-.08-.5-.27-.11-.24.05-.55-.07-.79-.22-.43-.77-.93-1.09-1.49-.11-.19-.19-.72-.32-1.25l-.05-.2s-.03-.04-.05-.06c-.03-.04-.07-.08-.11-.11-.09-.07-.2-.13-.34-.16-.14-.03-.66,0-.73-.05-.1-.07.09-.22-.03-.38-.12-.15-.86-.37-1.01-.54-.09-.1.32-.23.21-.32-.11-.1-.35-.19-.51-.3-.09-.06-.13-.17-.26-.27-.06-.04-.46-.15-.5-.18-.06-.06.06-.1-.01-.16-.36-.28-.36-.26-.79-.79-.15-.18-.78-.81-1.29-1.52-.1-.64.14-1.32,1.08-1.01,1.14.37,1.32.6,1.84,1.26.12.15-.07.06.11.22.2.16-.04.23.49.53.61-.03-.03-.66-.19-1.12-.08-.21-.23-.5-.26-.72-.07-.49,0-.88-.09-1.52-.03-.23-.2-.62-.17-.81.03-.19.35-.16.39-.34.02-.09-.19-.46-.17-.49.09-.16.17-.2.39-.36.2-.14.4-.28.55-.47.57.58,1.1.87,1.71,1.69.11-.2.22-.34.27-.88.02-.26-.16-.57-.12-.85.04-.29.38-.43.43-.7.05-.23-.15-.64-.12-.85.08-.54.24-.98.31-1.56.07-.6-.05-1.35.03-1.63.06-.19.58-.37.71-.63.01-.02-.41-.78.15-.78.58,0,1,.51,1.35,1.05.55.85-.37,1.65.21,2.38.21.17.19-.04.24-.21.03-.09.15-.31.2-.49.11-.41.06-.85.07-1.35,0-.22.1-.18.08-.39-.08-.68.07-3.13.7-3.5.3-.18.2-.18.79-.06.27.06.43.29.67.05.58-.57,0-1.48.07-2.3.01-.16.22-.61.27-.88.11-.57.04-1,.67-.91.12.02.48.26.55.15.29-.47.11-1.69.15-2.69.02-.47.02-.93.07-1.35.05-.43.23-.81.23-1.17.02-.71-.28-1.74-.25-2.66,0-.22.22-.27.2-.49-.06-.59.15-1.49.07-2.3.57-.36.06.41.79-.06.28-.18.44,0,.15-.78-.32-.41-.49.29-.75.34-.35-.74.13-1.11.15-1.74.02-.44-.42-1.83-.17-2.09.27-.29.25.18.2-.49-.02-.26-.09-.48-.12-.85-.06-.75.26-1.8.26-2.8,0-.25-.16-.66-.12-.85.03-.16.32-.16.35-.31.03-.13-.29-.84.39-.99.37.18.49.79.52.82.1.12.48.16.6.43.21.49-.18,1.42-.23,2.12-.01.17.11.36.08.57-.05.37-.13.97-.19,1.45l-.64-.72c-.58.11.53.76.72,1.29-.11-.3.06,1.2.05,1.24-.04.16-.55.83-.35,1.27.39.84-.11.01-.15.78-.01.2.1.51.12.85.02.38-.11.81-.07,1.35,0,.06-.1.35-.08.39.37.8,0,.05-.15.78-.02.1.21.38.2.46-.05.28-.27.6-.27.88,0,.43.33,1.11.36,1.6.02.29-.25.51-.27.88-.02.23.14.61.12.85-.02.23-.24.26-.24.21-.03.19.2.31.2.46-.03.76-.32,1.59-.31,2.51.01.53.25,1.19.25,1.71,0,.24-.28.41-.31.6-.08.48.06,1.28,0,1.92-.04.45-.3.81-.35,1.27,0,.09.22.4.2.46-.08.34-.3.6-.23,1.17.04.29-.06,1.11-.03,1.63.02.46-.16,1.02-.15,1.74,0,.68.18,1,.04,1.24-.15.26-.89.16-1.15.37-.64.52-.5,2.09-.62,3.11-.02.14-.2.31-.2.49,0,.19.04.6,0,.96-.03.36-.12.92-.19,1.45-.03.23-.18.28-.2.49-.02.28.12,1.18-.19,1.45-.3.26-.88.09-1.31.19-.53-.78.03-1.27-.84-2.14.14.34-.01.78.05,1.24.02.17-.1.53-.23.93l-.1.3-.05.15s.02.05.03.08c.06.1.12.19.18.28.07.08.27.32.31.37.08.11-.05.06.1.24.1.12.65.59.51.51-.02-.01-.34-.28-.38-.31-.05-.05-.28-.16-.24-.11-1.14-.87-1.45-1.32-2.03-2.05-.68-.51-.1.3.09.56.09.14.38.41.48.54.08.12-.06.1.08.25.09.09.27.2.39.29.24.18.5.41.79.59.41.27,1.23.64,1.13.6,0,0-.08-.03-.18-.07-.29-.12-.84-.28-.81-.27-.38-.13-.45-.18-1-.42-.43-.2-.62-.28-.71-.32-.14-.07-.02-.02-.2-.2-.04-.03-.39-.22-.44-.26-.16-.13-.2-.22-.33-.35-.32-.3-.83-.72-1.03-1.01-.2-.28-.06-.43-.25-.74-.07-.12-.33-.37-.45-.56-.1-.15,0-.34-.42-.59-.55-.16-.16.37-.02.66.05.12.12.29.22.45.02.03.07.15.12.21.04.06.37.28.39.3.06.11-.23.04-.17.15.04.06.4.27.41.28.06.13-.05.15.04.29.08.13.2.25.29.38.1.13.1.2.16.29.09.08.21.18.43.32.19.12.63.3.75.37.38.22.22.26.52.41.34.17.8.34,1.24.48.09.03.46.11.49.12.12.04-.14,0,0,.05.33.09,1.29.15,1.21.13-.03-.01-.69.05-.72.06-.46.05-1.44.08-2.17-.05-1.13-.19-1.79-.58-2.75-1.18-.22-.14-.57-.3-.76-.44-.27-.2-.32-.35-.52-.5-.28-.2-1.41-.78-1.3-1.12Z"/><path class="cls-3" d="m197.45,526.27c.39,0-3.01-1.74-3.33-1.83-.71-.21-1.4.37-2.46.06-1.35-.39-2.08-1.07-4.9-1.94-2.2-.68-4.64-.71-7.53-1.43-1.35-.34-3.04-1.18-4.99-1.72-.02,0-.48-.14-.97-.28-.5-.14-1.03-.29-1.22-.33-.23-.04-.71.22-.88.17-1.09-.3-2.42-1.09-3.5-1.38-1.38-.37-2.44-.34-3.77-.71-.33-.09-1.69-.41-1.49-.33-.56-.21-.61-.55-1.31-.78-1.86-.59-4.94-1.24-8.06-2.15-3.14-.91-5.76-1.83-9.37-2.93-.71-.18-1.45-.37-2.07-.53-.76-.18-1.36-.31-1.56-.39-2.25-.83-4.34-2.04-6.39-2.78-3.18-1.15-8-2.66-12.78-4.39.16-3.22.43-6.57.91-9.53.29-1.79,1.25-2.53,1.57-4.52.02-.13.07-.8.12-1.44.02-.32.05-.64.07-.88.02-.24.03-.4.04-.41.25-.31.74,2.1,1.22,4.59.48,2.51.94,5.08,1.04,5.99.09.8.15,1.83.19,2.98,2.12.59,4.51,1.28,6.62,1.79.89.21,1.16.33,2.36.67.08.02,2.19.62,2.32.66,1.32.28,1.55-.23,2.7.04,1.02.24,2.14.63,3.24,1.02.55.19,1.1.38,1.62.56.25.08.55.18.73.22.17.04.34.08.51.1,1.15.17,2.08.08,3.16.21.6.07,1.52.52,2.19.61.26.04-.06-.46.18-.45.27.02,1.1.51,1.4.55,2.29.32,4.48.65,6.22.65-2.62-1.68-5.38-1.98-7.88-2.6-1.01-.25-1.98-.49-2.95-.73-.49-.12-.97-.24-1.46-.37-.26-.07-.45-.11-.78-.2-.32-.09-.65-.18-.97-.28-2.73-.79-5.62-1.63-9.02-2.61-1.86-.54-3.58-.99-6.76-1.98-.01-.12-.02-.39-.02-.67-.01-3.29-.16-6.22-.11-10.44,0-.62-.18-1.33-.06-2.19.25-1.82.15-1.04.12-4.43-.03-.62,0-1.21.07-1.73.04-.26.09-.5.15-.72.06-.2.14-.48.21-.52.29-.34.75-.53,1.29-.32.15.06.29.2.4.4.03.05.06.1.08.17.02.09.05.19.07.29.04.2.08.42.12.66.14.97.25,1.97.29,3.62.1,2.98.17,5.57.61,5.11.75-.79.82-3.47.73-6.42-.03-.64-.08-1.19-.13-1.77-.03-.28-.05-.56-.08-.83-.03-.26-.05-.57-.08-.71-.12-.71-.23-1.24-.25-1.49-.14-1.88.16-3.42.09-4.02-.05-.37-.31-.47-.42-.77-.03-.1-.07-.2-.09-.38-1.07-.3-2.39-.78-3.7-1.25-.63-.22-1.28-.45-1.91-.68-.3-.1-.6-.2-.89-.29-.49-.2-.96-.4-1.41-.58-.99-.4-2.17-.91-3.46-1.49-.64-.29-1.32-.6-2.01-.92-.35-.16-.7-.33-1.05-.49-.51-.26-1.02-.52-1.54-.78-4.31-2.2-9.04-4.68-13.2-6.91.07-1.41.14-2.62.2-3.77.52-1.54,1.16-.45,1.83-1.77,1.13-2.12,1.35,1.15,1.88,3.5,1.2.38,2.35.7,3.25.79.01-.21-.97-.86-1.98-1.45.04-.43.07-.84.08-1.2.09-1.86-.26-1.72-.26-2.66.02-2.3.2-4.92.17-7.72-.01-.94-.22-1.88-.25-2.73-.03-1.34.05-2.01.02-3.02-.03-.81-.11-1.59-.18-2.35-.02-.17-.03-.42-.06-.53l-.07-.34c-.04-.22-.07-.44-.09-.65-.04-.52-.02-1.05.02-1.59-.3-.61-.58-1.22-.94-1.75-.07-.1-.15-.21-.22-.32-.08-.11-.15-.2-.3-.45-.26-.43-.54-.88-.82-1.33-.56-.91-1.14-1.85-1.64-2.65-1.11-1.81-2.69-3.96-3.17-5.18-1.06-2.69.52-.19.02-1.67-1.14-2.43-.52.46-2.13-2.34-.79-1.37-2.8-7.1-3.12-8.51-.11-.48-.31-1.69-.29-2.35.06-1.58,1.8-.57,1.77-2.47-.01-.77-.45-2.12-.92-3.72-.42-1.43-.87-3.91-2.4-6.36-.8-1.29-.46-.12-1.16-1.95-.33-.87-2.9-4.96-3.8-6.55-.8-1.4-1.3-2.62-2.11-4.01-.2-.34-.92-.92-1.07-1.17-.35-.6-.6-1.45-.94-2.05-.6-1.03-1.33-2.36-2.14-3.84-.4-.74-.83-1.51-1.26-2.3-.22-.41-.45-.82-.68-1.24-.29-.54-.57-1.09-.86-1.64-.21-.66-.42-1.32-.63-1.97-.17-.49-.34-.97-.5-1.45-.13-.38-.74-1.07-.84-1.34-.47-1.31-.78-3.1-1.36-4.32-.55-1.14-.67-2.51-1.54-5.05-.25-.72-.87-1.63-1.03-2.07-1.23-3.47-2.1-7.32-3.65-12.28-.3-.94-.87-1.8-1.21-2.8-1.97-5.75-3.48-12.4-1.98-13.49.29-.21,1.05.07,2,1.04.72.74,2.16,4.12,2,1.04-.17-3.27-2.12-10.25-3.7-15.38-.39-1.27-.82-1.76-1.4-3.53.09.27.26-.5.04-.79-1.09-1.5-3.01-8.99-4.3-12.89-.05-.15-.25,0-.42-.67-.09-.36-.06-1.08.05-.79-.69-1.9-1.31-2.58-1.82-4.2-.47-1.49-1-4.04-1.5-5.84-1.58-5.68-3.56-10.74-4.36-15.99-.39-2.58.14-3.06-1.18-7.47-.3-.99-.83-1.8-.98-2.86,0-.03-.06-1.29-.11-2.59-.05-1.3-.08-2.64-.04-2.82.72-2.79,4.72,1.04,1.71-5.88-.37-.86-.87-1.12-1.26-2.01-.38-.86-.81-2.76-1.17-3.59-.49-1.13-1.14-1.73-1.26-2.01-.74-1.78-1.45-4.68-2.15-6.45-.13-.34-.54-.34-.65-.61-.44-1.05-.71-2.63-1.36-4.32-.35-.91-.8-1.73-1.21-2.8-.25-.66-.64-2.38-.56-2.19-.99-2.57-1.72-2.76-2.01-4.93.06-.62.32-.92.74-.97-.36-3.85.03,2.01-.37-1.46-.11-.94.07-1.29-.1-2.31.2-.65.72.75,1.31,1.22.4.33.95,0,1.35.43.9.97,1.83,3.63,2.1,3.35,1.6-1.61-2.23-8.93-3.04-10.86-.81-1.93-1.48-3.66-2.15-5.39-.19-.42-.49-.81-.72-1.22l-.38-.6-.19-.3-.05-.08s-.07,0-.1-.01l-.2-.02c-1.06-.08-2.15-.15-3.32-.24-1.14-.07-2.32-.08-3.54-.08-.6,0-1.22,0-1.88-.01-.16,0-.33,0-.5-.01-.26-.02-.52-.04-.78-.07-.54-.05-1.09-.11-1.66-.16-1.57-.17-2.27-.27-3.16-.34-1.01-.08-3.47-.39-6.2-.74.29-2.05.59-4.16.83-5.79.13-.84.27-1.79.42-2.75.08-.49.16-.98.23-1.47.04-.24.08-.49.12-.72l.03-.18c0-.05.03-.16,0-.07l-.06.26c.02-.08-.1,0-.22.21-.06.1-.12.22-.16.36-.02.07-.04.13-.05.2v.1s.02-.08.04-.11c1.09-2.43.45-2.24.7-4.72.13-1.36.36-2.49.62-3.76.13-.64.26-1.32.41-2.09.03-.2.07-.4.11-.6.03-.19.1-.56.04-.28-.07.26-.15.53-.24.83-.01.04-.03.1-.06.15,0-.1,0-.21,0-.33,0-.24,0-.51,0-.77,0-.53-.02-1.06.01-1.27.42-2.78,1.02-5.77,1.59-9.22.05-.27.09-.55.15-.89,1.87.27,4.09.64,6.14.92,3.43.43,6.48.82,9.75,1.23,1.68.22,3.43.46,5.33.74.74.11,1.51.22,2.32.34.74.12,1.51.24,2.31.37.13.02.56.18,1.1.35.27.09.58.17.89.25.32.08.84.18,1.23.24,2.9.43,7.12,1.28,10.64,2.07,1.14,2.67,2.07,5.02,2.57,6.42.64,1.8.97,2.79,1.19,3.59.11.4.19.74.27,1.11.07.36.08.61.14,1,.21,1.78-1.39,2.86-2.83,1.32-.26-.26-1.23-1.81-1.44-1.96-.49-.32-.63.7-1.04.6-.22-.06-1.21-1.32-1.24-.97-.06.47.06,1.11.3,1.84.12.37.26.74.44,1.17.18.43.39.88.61,1.34.89,1.84,2.02,3.81,2.84,5.24,1.75,3.04,3.17,6.43,5.01,8.47.53.58,3.09,5.57,4.47,7.89.46.78,1.12,1.6,1.71,2.53.34.54.61,1.53.95,2.05.15.22.66.32.75.48.58.98,1.22,2.85,1.91,4.1.62,1.13,1.21,1.58,1.71,2.53.66,1.26.68,2,1.37,3.51.98,2.14,2.7,4.74,3.94,7.31,1.16,2.39,2.17,5.13,3.28,7.61,1.95,4.34,5.07,10.04,5.83,13.07.25,1.01-.51.37-.55,1.09-.04.74.56,2.54-.13,2.56-.43.01-1.79-.92-2.16-.66-.05.04.2.96-.12.88-.24-.06-2.13-1.6-2.8-2.02-.58-.37-.88-.47-1.51-.96-1.15-.88-1.69-1.31-1.42,1.49.06.68.2,2.42.4,3.14.37,1.29,2,4.49,2.65,6.25.3.81.5,1.5.67,2.1.3.86.55,1.6.82,2.24,2.27,5.21,6.11,13.68,8.95,19.76,1.11,2.39,2.12,3.94,2.99,5.84,4.06,8.89,8.63,18.83,13.02,27.92,4.38,9.07,8.55,17.22,11.54,21.94.44.69.95,1.77,1.57,3.08.13-1.6.28-3.46.4-6.15.24-5.55.24-11.71.45-16.68.16-3.94.56-6.97.67-10.8.02-.84-.12-1.77-.02-2.61.04-.31.29-1.03.28-.41.09-3.55-.18-5.28-.08-7.6.27-6.07,1.32-20.68,1.6-21.75-.03.13.52-.42.52-.42-.06.15.46-.61.3-.72.35.24.32,3.04.48,2.84.8-1.01,1.41-6.43,1.81-12.33.2-2.95.34-6,.43-8.71.03-1.34.07-2.62.1-3.77,0-.23,0-.46,0-.68,0-.19,0-.38-.01-.57-.01-.36-.02-.7-.03-1.01-.15-3.85.59-12.09.87-18.83.26-6.19-.04-11.62.56-15.07.39-2.28,1.88-4.15,2.18-5.86.7-3.95.34-8.56.67-13.55.08-1.2.44-2.52.56-3.73.13-1.31.28-3.71.46-6.28.1-1.25.2-2.53.3-3.74.07-.79.16-1.53.27-2.12.18-.88.37-1.72.73-2.4,1.31-.53,2.49-.95,3.57-1.59.21-.13.43-.27.65-.4.23-.15.4-.25.78-.52.67-.47,1.36-.95,2.08-1.45,1.42-1.02,2.9-2.12,4.42-3.28,3.04-2.33,6.23-4.88,9.36-7.41,5.99-4.86,12.16-9.99,17.48-15.39,2.58-2.6,4.75-5.33,7.31-8.31,2.8-3.29,5.68-6.7,8.19-10.34,2.5-3.63,4.66-7.53,5.82-11.6.22-.89.36-1.83.5-2.78.1-.85.13-1.56.31-2.36.08-.33.15-.66.23-.98.06-.44.09-.91.19-1.35.18-.44.36-.88.54-1.32.07-.22.23-.44.22-.67l.04-.35c.02-.12.1-.24.15-.35.45-.96.91-1.94,1.4-2.99.49-1.06,1.06-2.06,1.62-3.22-.07-.29-.14-.59-.21-.9,0-.16-.21-.29-.31-.44-.13-.14-.26-.29-.4-.44-.55-.58-1.13-1.2-1.74-1.85-2.29-2.35-4.87-5.02-7.75-7.98l1.79,4.55c-.03-.88-.07-1.86-.11-2.86l-1.76,4.48c4.01-4.64,5.56-6.65,7.94-9.44.88-1.01,1.83-1.29,2.96-1.47.83-.12,1.66-.05,2.39.21.75.27,1.32.81,1.9,1.4.53.55,1.04,1.53,1.6,2.07l.06.05c.86.83,1.75,1.56,2.66,2.32,1.24,1.12,2.52,2.29,3.68,3.48l.3.31-1.34-3.42c.02.95,0,1.9,0,2.86l1.34-3.42c-.81.85-1.61,1.7-2.38,2.56-1.64,1.85-3.23,3.74-4.69,5.48l-2.22,2.63,1.4,2.63c.41.76.78,1.46,1.14,2.14.15.57.28,1.1.42,1.61.16.67.3,1.32.45,1.94.11.52.46,1.73.49,2.21,0,.08-.29.9-.31.84.07.3.28.81.54,1.45.32.75.68,1.63.97,2.51.4,1,.84,2.12,1.33,3.25.55,1.08,1.04,2.28,1.65,3.32,1.13,2.15,2.34,4.04,3.14,5.26,1.1,1.71,4.2,5.35,6.33,8.13,3.49,4.59,6.07,8.11,4.31,8.87.16-.06-1.1-.08-1.06-.06-.39-.19-1.43-1.33-1.83-1.54-1.17-.59-1.76-.43-2.52-.94-.47-.3-1.88-2.04-2.89-2.87-.27-.22-.69-.11-.9-.3-.31-.29-.76-1.03-1.06-1.28-.83-.69-1.31-.56-2.33-1.34-.64-.5-1.77-1.86-2.46-2.43-2.58-2.11-6.73-6.43-3.3-.93.46.66,1.38,1.46,2.28,2.77.74,1.04,1.3,1.98,1.82,2.82.53.81,1.01,1.55,1.59,2.23,1.14,1.35,2.38,2.19,3.69,3.5.96.91,1.74,1.77,2.56,2.63.82.84,1.67,1.67,2.73,2.56,2.01,1.6,1.46,1.04,3.65,3.21,1.76,1.73,3.23,2.55,5.61,4.52,2.62,2.15,5.21,4.46,7.94,6.5,2.92,2.18,5.89,4.11,9,6.28,3.43,2.4,7.22,5.21,10.89,7.52l.41.24c.09.04.15.06.23.1l.48.16c.37.14.59.17.81.28.56.28.89.68,1.41.98.06.02.03.09.05.13.07.37.22.84.39,1.35.09.26.19.53.28.79.05.14.1.27.15.4l.04.1.05.24c.03.16.07.32.1.48.18.84.35,1.94.53,3.21.09.64.18,1.32.28,2.03.05.36.1.72.15,1.09.06.47.12.94.18,1.42.95,7.92,2.03,20.64,3.15,28.6.29,2.08.69,3.27.91,5.04.26,2.17.41,5.37.67,7.88.25,2.44.59,4.79.89,6.96,1.7-1.64,3.25-3.13,4.52-4.24,1.18-1.03,3.41-2.72,6.05-4.87,2.63-2.14,5.66-4.75,8.05-7.27,1.29-1.37,3.54-3.39,6.22-5.76,2.68-2.37,5.8-5.1,8.74-7.79,1.65-1.51,2.08-2.14,3.16-3.12,1.58-1.44,2.27-1.62,2.91-2.25.46-.46.55-1.09,1.01-1.54.56-.53,1.16-.77,1.67-1.16.11.05.22.1.32.14,1.08.39,2.45.82,3.01.94.2.05.35.08.59.16.49.17.98.35,1.46.52.37.11.75.23,1.11.36.2.08.4.16.6.25.23.11.47.21.71.33.47.23.97.47,1.49.72,0,.6.02,1.24.06,1.89.04.69.11,1.4.18,2.13.09.85.18,1.71.27,2.55.25,2.64.47,5.18.49,7.19.03,2.44-.37,6.18-.66,6.85-.38.86-1.66.35-1.85.9-.29.85-.43,2.78-.6,4.58-.33,3.46-.48,4.89.18,11.32.03.25.34,1.25.42,2.23.06.81-.03,2.48-.06,2.27.16,1.26.59,1.87.72,2.97.18,1.55.17,3.14.36,4.51.16,1.21.56,2.41.78,3.72.15.93.1,2.06.24,3,.18,1.24.58,2.53.78,3.72.49,2.94.5,5.61,1.14,8.22.11.46.56,1.26.6,1.46.2,1.13.14,2.59.3,3.76.14,1.03.52,2.01.72,2.97.13.63.04,1.65.18,2.25.06.24.51.54.54.71.32,1.84.45,4.23.72,5.99.67,4.34,2.3,10.15,1.85,14.21-.76,1.24-.35-2.54-.9-2.19-.14,1.64.21,2.23.06,3.77-.16,1.65-.77,1.55-.72,3.08.05,1.52.72,3.76.9,5.22.29,2.48.33,5.36.66,8.26.23,2.05.73,3.92.96,5.97.71,6.53,1.62,16.15,1.85,23.28.04,1.28-.22,1.7-.24,3.04-.01,1.07.07,2.13.14,3.15.05.7.09,1.38.14,2.04.04.75.07,1.48.07,2.18,0,4.39-.54,7.32-.53,11.51.01,3.84.28,8.3.57,12.84,4.26-.23,8.64-.49,12.6-.6,2.01-.05,4.29.14,6.27.05,2.59-.12,5.15-.32,7.72-.52.94-.08,1.88-.15,2.83-.23.76-.06,1.52-.11,2.3-.14,3.62-.15,7.89.02,12.07-.11l.71-.03c.16,0,.17,0,.19,0h.08s.33,0,.33,0c.22-.01.44-.02.66-.04.43-.02.85-.03,1.13.1.36.15.3.79.25,1.18-.11-.1-.21-.24-.28-.44-.18-.53-.29-1.52-.38-2.63-.09-1.12-.17-2.35-.29-3.56,0,.02.29.12.23-.12-.06-.27-.11-.56-.16-.9-.49-.08-.86-.04-1.26.04-.66.09.28.11-3.62.4-1.35.1-1.6-.17-3.02-.03-1.9.18-3.75.31-6.01.41-1.45.07-2.62.44-3.74.5-3.47.18-5.86.31-9.77.67-1.34.13-2.23-.11-3.77.02-.7.06-4.17.5-6.75.71.19-.02-.34.42-.74.29-2-.64-6.12,1.31-8.95,1.58-2.11.2-4.05-.19-6.81-.25-6.77-.15-17.2.6-27.1,1.15-1.65.09-5.4.79-6.04-.06,7.14-.26,14.53-1.2,21.78-1.74,1.07-.08,2.65.08,3.77-.02,1.65-.15,2.95-.61,4.47-.79,1.18-.14,2.18.11,3.77-.02.74-.06,1.63-.36,2.99-.45,1.56-.1,3.08.05,4.53-.07,5.76-.46,11.93-1.49,17.23-1.91.76-.06,2.3-.25,3.01-.21.65.03.47.42,1.54.37.91-.04,1.02-.51,1.47-.58.98-.15,1.33.16,1.52.13,3.49-.39,7.37-.65,11.54-.92,2.08-.14,4.24-.29,6.45-.44.46-.04.92-.07,1.38-.11.02,0,.04-.02.06-.03.03-.02.07-.05.08-.09.06-.09-.15-.46-.19-.47,0,0,0,0,.05.04.19,1.69.45,3.27.66,4.62.21,1.36.36,2.5.35,3.59,0,.3-.1.91-.17,1.57-.08.65-.14,1.35-.09,1.63.03.19.43-.16.48-.07.02.06.05.11.07.16.08-.17-.07.02.16-.44.16-.33.39-.91.14-.97-.22-.06-.51.12-.77.05-.05-.01-.1-.04-.16-.08-.42-.02-.84-.04-1.25-.05-.88-.04-1.75-.09-2.64-.07-2.42.04-4.8.24-7.17.45-1.19.1-2.37.21-3.55.31l-1.78.13-3.07.19c-3,.17-6.19.03-9.61.18-4.93.22-10.64.83-16.49,1.14-.43.02-.89.04-1.41.04-.06-2.26-.04-5.17-.14-7.13-.38-7.53-.97-8.82-.5-12.38.03-.2.36-1.34.36-1.52,0-1.77-.57-4.92-.52-6.54.02-.63.56-.74.61-1.4,0-.09.01-.52.03-1.15,0-.38.03-.5.05-.75.02-.23.04-.48.06-.73.08-1.01.16-2.1.17-2.52.03-1.22-.32-3.15-.42-5.26-.15-3.25.19-4.64-.24-9.05-.05-.55-.36-.79-.36-1.48,0-.89-.13-5.63-.42-8.28-.16-1.47-.65-3.01-.84-4.47-.26-1.97-.31-4.85-.6-7.51-.84-7.69-2.57-12.24-1.85-17.23.13-.88-.12-.92.12-1.52.23-.59.28-.03.42-.79.31-1.59.2-2.99-.18-5.28-.08-.45-.36-.88-.36-1.48,0-.2.32,0,.18-.77-.26-1.46-.84-2.87-1.08-4.45-.46-3.15-.49-6.45-.96-8.99-.23-1.28-.84-2.6-1.02-3.7-.34-2.09-.45-4.57-.78-6.74-.35-2.27-.86-4.52-1.26-6.7-.19-1.07-.29-2.27-.54-3.74-.17-1.01-.62-2.19-.72-2.97-.36-2.82-.35-5.67-.66-8.26.69-.62.62,2.02,1.32,1.41-.39-3.36-1.42-.95-1.85-2.12-.27-4.65-.75-9.65-.84-13.54-.06-2.6.23-3.34.72-6.1.46-2.59.53-2.84,1.56-4.66.26-.46,1.04-1.33,1.08-1.6.17-1.18-.25-3.85-.3-6.78,0-.67.04-1.46.1-2,.08-.3.16-.58.15-.8-.01-1.21-.2-2.54-.43-3.82-.69-.21-1.4-.42-2.11-.64-.21-.07-.28-.08-.35-.09l-.23-.05-.22-.05h-.05s-.02-.01-.14-.06l-.56-.21c-.36-.14-.72-.28-1.07-.41-.15-.07-.3-.14-.45-.2-.6-.26-1.18-.52-1.69-.68-.08-.03-.16-.05-.25-.07-.51.6-.93,1.42-1.3,1.75-.51.46-1.24.53-1.89,1.03l-.14.11c-.1.09-.21.17-.31.26-.23.2-.46.4-.7.6-.69.62-1.41,1.26-2.13,1.9-1.53,1.39-3.05,2.84-4.34,4.19-.97,1-1.34,1.8-2.53,2.88-1.76,1.6-4.19,3-5.52,4.24-3.25,3.04-6.64,7-10.08,10.2-4.64,4.32-10.34,9-15.78,13.6-.47-7.34-.99-14.13-1.87-18.84-.25-1.33-.59-6.24-1-11.19-.41-4.97-.89-10-1.45-11.98-.66-2.34-.34-.24-.77-6.2-.1-1.47-.23-2.82-.36-4.11-.07-.63-.15-1.25-.22-1.85-.06-.37-.12-.72-.18-1.08-.25-1.42-.57-2.79-.93-4.3-.29-1.24-.28-1.62-.21-1.97.02-.08.04-.19.06-.25.03-.03.05-.06.08-.1.05-.08.09-.19.09-.35,0-.14-.41-1.15-.6-1.46-.03-.03-.02-.07-.08-.07-.33-.05-.69-.01-.89-.09-.59-.29-.28-.34-2.42-1.72-1.89-1.18-3.75-1.96-5.47-3.12-1.11-.76-1.72-1.64-3.59-3.02-.99-.73-1.31-.55-2.77-1.54-.94-.62-2.77-2.3-3.7-2.93-1.05-.7-2.28-1.46-3.36-2.12-3.48-2.13-8.64-6.45-14.43-11.45-1.21-1.03-1.84-1.29-3.27-2.51-2.19-1.92-5.93-5.88-9.34-9.72-.86-.99-1.83-1.98-2.86-3.25-.52-.63-1.06-1.28-1.62-2.01-.55-.76-1.13-1.57-1.71-2.44-.36-.52-.87-1.32-1.3-1.98-.42-.66-.76-1.19-.79-1.23-.54-.95-.31-1.32-.6-1.95-.57-1.3-.9-1.93-1.15-2.54-.23-.64-.39-1.22-.58-2.36-.03-.14-.14-.65-.25-1.13-.11-.48-.18-1.01-.18-1.03.25-1.82,2.33-.88,3.06-.14.29.27,1.32,3.1,1.72,3.52.62.76,1.5.88,2.41,1.85.44.45,1.17,1.66,1.63,2.13.45.47.83.7,1.36,1.19,1.97,1.88,3.9,3.81,5.69,5.16,1.85,1.43,3.49,2.32,4.94,3.19-1.48-2.46-4.03-4.76-5.95-7.58-.43-.59-.81-1.38-1.22-2.13-.4-.76-.81-1.51-1.21-2.18-1.13-1.75-2.29-2.94-3.4-4.87-.42-.8-.82-1.64-1.21-2.5-.35-.9-.67-1.86-.99-2.81-.29-.98-.51-2.03-.76-3.04-.2-.93-.32-1.66-.51-2.48-.21-.88-.45-1.89-.7-2.96-.13-.51-.26-1.04-.39-1.57-.09-.34-.18-.69-.27-1.03-.15-.28-.3-.55-.44-.82-.2-.4-.41-.78-.6-1.15l-1.89-3.66,3-3.48c.1-.12.19-.22.28-.32,1.21-1.41,2.15-2.98,3.23-4.2,1.11-1.25,2.23-1.94,3.25-3.15.09-.11.19-.22.31-.36l-1.8,4.58c-.04-.87-.09-1.89-.18-2.86l1.84,4.7c-.11-.1-.22-.2-.33-.29-.69-.6-1.62-1.1-2.4-1.88-1.65-1.67-1.86-2.4-2.74-3.31-.2-.21-.4-.36-.59-.49-.43-.29-.84-.46-1.35-.9-.44-.36-.82-.82-1.28-1.22-.47-.39-1.03-.7-1.63-.82-1.19-.28-2.39.21-2.99,1.17-.31.48-.33.94-.65,1.38-.73,1.02-1.7,1.73-2.56,2.76-.15.18-.26.35-.36.51-.06.09-.07.14-.16.27-.1.15-.2.29-.3.43-.39.57-.77,1.14-1.33,1.82-.77.94-1.06.79-1.71,1.49-.05.06-.11.13-.22.26l2.31-5.88c.05.62.25,1.79.37,2.86l-2.4-6.13c.53.49,1.03.97,1.42,1.38,1.18,1.25,1.17,1.69,2.08,2.59,1.53,1.54,2.95,2.53,4.25,3.88.71.74,1.21,1.37,1.72,2.02.26.32.53.65.82,1.01.15.18.31.36.48.56l.13.15.07.16c.05.11.09.22.14.34.07.16.15.33.26.57-.3.7-.64,1.54-.97,2.38-.33.82-.71,1.77-1.04,2.48-.23.49-.46.99-.69,1.48l-.35.73c-.11.24-.05.48-.08.73-.16.47-.38.93-.58,1.39l-.3.69c-.05.24-.05.48-.08.72l-.07.72-.12.46-.24.91c-.15.62-.31,1.25-.46,1.88-.28,1.05-.49,2.05-.71,3.05-.26.94-.56,1.85-.94,2.81-.35.89-.85,1.68-1.3,2.52-.45.86-.95,1.62-1.37,2.38-2.98,5.47-6.6,10.85-10.25,14.49-.25.25-.89.88-1.43,1.42-.55.52-1.02.94-.91.83-1.02,1.11-1.42,2.1-2.41,3.24-2.77,3.24-5.48,5.53-8.55,8.25-2.88,2.55-5.82,5.48-8.7,7.88-5.24,4.4-10.94,8.51-16.65,12.68-.98.73-1.89,1.41-2.77,2.07-.34.26-.67.52-1,.77-.22.18-.44.35-.65.52-.65.53-1.25.99-2.01,1.4-.11.23-.14.52-.24.78-.14.44-.44.76-.73,1.18-.15.21-.29.44-.42.72-.06.14-.12.28-.17.44-.01.04-.02.07-.04.13l-.04.25c-.03.17-.05.35-.08.53-.23,1.73-.48,10.59-.67,13.55-.13,2.07-.43,4.67-.64,7.51-.33,4.55-.3,10.36-.78,12.03-.37,1.29-2.06,1.11-2.34,2.07-.36,1.23-1.04,12.32-.91,13.53.14,1.31-.2,3.11-.27,6.02-.03,1.06.25,2.13.22,3.04-.05,1.69-.2,3.49-.34,5.29-.07.9-.13,1.79-.2,2.67-.02.44-.05.88-.07,1.3-.02.48-.04.95-.05,1.41-.13,3.21.06,6.14-.06,9.25-.07,1.85-.38,3.87-.49,5.74-.18,3.07-.01,5.68-.14,7.34-.09,1.15-.69,6.77-.91,7.88,0,.02-.1.29-.23.69-.14.38-.32.89-.5,1.39-.37.99-.74,1.91-.81,1.93-.78.12-.76-3.96-1.26-2.14-.31,1.11-.81,5.07-1.08,9.93-.13,2.21.22,3.74.15,6.7-.03,1.43-.46,3.88-.63,7.43-.11,2.17.04,4.41-.08,6.6-.22,4.11-.75,7.78-.93,13.77-.02.61.18,3.37.16,3.78-.08,2.05-.36,3.61-.47,5.57-.14,2.37-.04,5.29-.14,7.38-.03.63-.06,1.24-.09,1.79-3.03-5.87-5.86-11.82-8.78-17.28-1.41-2.64-2.88-5.06-3.88-7.19-1.23-2.6-2.08-5.13-3.04-7.09-1.9-3.88-2.41-4.11-3.53-6.45-1.03-2.13-2.01-4.87-3.01-7.03-.96-2.05-2.02-3.84-3.1-6.08-.82-1.71-1.91-4.67-2.95-6.91-.9-1.93-1.19-1.91-2.13-4.01-1.31-2.91-2.31-5.94-3.77-9.22-.75-1.69-1.88-3.47-2.68-5.18-.73-1.58-1.57-3.63-2.43-5.76-.83-2.04-1.91-4.66-2.33-5.6-.56-1.25-1.4-2.32-1.81-3.31-.56-1.36-.91-2.74-1.47-4.3-.79-2.16-1.79-4.65-1.69-4.2-.54-2.5.2-4.39,1.24-4.73.57-.19,1.47.8,2.48,1.34.58.31.73.02,1.19.28,1.12.64,1.26.69,2.81.35,1.01-.22,1.37.52.67-1.97-.58-2.06-.74-.98-2.13-3.99-.79-1.71-1.35-3.54-2.33-5.56-.76-1.57-1.86-3.31-2.44-4.68-.62-1.46-.64-2.57-1.16-3.62-.87-1.76-2.85-5.21-4.15-7.21-.42-.65-.65-.95-1.17-1.95-.97-1.86-1.13-3.07-2.01-4.88-.45-.94-1.57-2.63-2.34-3.89-.72-1.18-1.86-3.24-2.34-3.89-.54-.74-1.39-1.07-2.14-2.33-2.35-3.93-3.02-6.95-5.52-10.72-.48-.73-.74-1.46-1.17-1.95-.13-.14-.66-.33-.75-.48-.61-.95-.31-1.38-.74-2.15-.26-.47-.64-.32-1.07-1.16-.58-1.13-1.15-2.28-1.67-3.42-.42-.92-.8-1.83-1.12-2.7-.64-1.74-1.06-3.37-1.08-4.65-.5-.59-.36-1.26,1.12-1.92.13-.06.29-.13.52-.19.13-.04.3-.03.49.02-.02-.01.72,0,.85.12.33.27,1.86,3.04,2.31,3.26.06.03.15-1.26.4-1.41.13-.09,1.22,1.15,1.16.21-.07-.93-.61-1.4-1.01-2.72-.07-.25.02-1.08-.05-1.24-.2-.5-.47-1.17-.99-2.33-2.57-.57-7.28-1.48-9.94-2-1.16-.22-1.9-.3-2.94-.43-1-.12-2.09-.26-3.27-.48-1.7-.32-3.55-.66-5.64-1.05-2.19-.38-4.63-.77-7.32-1.11-1.32-.16-3.22-.46-4.56-.6-1.15-.12-2.29,0-3.35-.13-.1-.01-.2-.03-.3-.04-.39,2.39-.78,4.76-1.14,7.01-.19,1.09-.37,2.16-.55,3.19l-.07.38-.03.15.02-.06.06-.22.06-.21c-.04.23-.08.46-.12.69-.66,3.78-1.2,6.82-1.41,8.62-.02.22-.05.43-.07.64l-.03.31v.15s0-.03.01-.05c.08-.18.18-.37.25-.45-.04.78-.05,1.48-.05,2.12,0,1.28.02,2.31-.09,3.29-.02.21-.44,1.84-.87,4.12.37.06.93.15,1.51.24.87.13,2.74.03,3.11.09,1.31.19,1.52.61,2.49.71,1.3.13.95-.23,2.84-.21,1.25,0,2.41.43,3.64.43,1.06,0,2.15-.08,3.24-.13.61-.03,2.07-.24,2.69-.2.45.03,1,.14,1.51.29.22.53.44,1.07.66,1.45.2.36.92.81.99,1.12.49,1.24.98,3.22,1.49,4.53.3.77.61,1.5.93,2.23.16.36.32.72.48,1.07.15.32.3.64.45.96.59,1.24,1.17,2.43,1.67,3.69,1.44,3.66,2.65,6.85,2.71,8.64.04,1.01-.55.29-.74.97-.12.41.19,1.31-.09,1.58-1.14,1.08-3.47-1.72-4.47-1.96.8,3.34,2.3,5.41,3.22,7.73.77,1.95,1.28,4.07,1.96,5.72,1,2.41,2.18,4.35,3.08,6.21.34.71.48,1.48.79,2.13.23.48.62.91.84,1.34.25.5.5,1.57.79,2.13.68,1.29.51.5,1.82,4.2,1.16,3.28,1.16,3.13.66,4.5-.43,1.17-3.68.79-3.62,3.26.05,2.12,1.43,4.06,2.34,7.18.02.05-.1.89.14,1.52.27.68.69,1.19.75,2.92.07,2.11-.79.25-1.06,2.61,1.2,4.25,1.91,8.01,3,11.67.33,1.09.84,1.72,1.22,2.8.71,2.05,1.28,4.63,2.11,7.24,1.48,4.68,3.24,9.36,5.05,15.81.05.18.51.64.61,1.4.04.29-.29,0-.05.79.36,1.15.83,1.69,1.22,2.8.5,1.42,3.67,12.16,3.98,14.53.03.26-.11,1.15-.09,1.58.12,2.77-1.32,4.34-3.58,2.47-1.03-.85-1.35-.84-.41,3.22.14.59.58,1.08.79,2.13.16.79.59,3.01,1.31,5.11.89,2.59,1.77,4.08,2.01,4.93,1.26,4.55-.21,2.61,1.5,5.84.65,1.23,1.42,3.55,2.26,6.19.42,1.32.86,2.71,1.3,4.1.5,1.51.99,3,1.45,4.39l.02.07.66,1.18.32.57.28.46c.37.61.75,1.23,1.13,1.87.77,1.27,1.56,2.6,2.4,4.06.69,1.22,1.46,2.95,2.11,4.01.57.93.56-.19.97.38-.1-.14,1.29,2.63,2.11,4.01,1.17,1.97,2.69,4.32,4.43,7.91.74,1.53.88,2.48,1.36,3.52,1.6,3.48,3.19,6.01,3.44,9.2.01.15-.16.75-.12.89.56,1.9.14.85.07,2.45-.01.31.22,1.43.19,1.57-.33,1.44-1.63.85-1.02,2.95.64,2.2,5.84,10.6,7.7,13.87.47.82.84,1.51,1.16,2.12.24.44.44.81.62,1.15.35.64.66,1.13,1.2,1.75.03.08.06.18.09.29.17.56.17.94.15,1.46,0,.26-.02.55-.03.93,0,.47,0,1.04,0,1.77,0,.55.26,1.15.29,2.29.02,1.13.28,1.75.29,2.29,0,.29-.01.58-.05.91-.04.38-.09.77-.13,1.17-.1.79-.19,1.58-.19,2.25,0,.82.24,1.61.26,2.59.03,1.29-.09,2.12-.05,3.42.03.9.1,1.83.18,2.63,1.04.42,1.91.77,2.31.97,1.25.65,1.01.89,1.98,1.43,1.75.98,4.42,1.91,4.88,3.39.12.38.39.76.63,1.07.23.3.35.5.33.6-.07.23-.22.36-.45.43-.12.03-.24.06-.43.05-.19-.01-.42-.05-.67-.1-1.03-.2-2.56-.67-4.81-1.31-.14-.05-2.3-.84-4.29-1.57-2.06-.73-4.14-1.4-3.78-.91,1.52,2.05,7.71,4.01,12.75,6.31,1.73.73,3.92,1.89,5.98,2.89.52.24,1.02.48,1.51.71.32.12.63.23.93.32.6.18,1.17.29,1.66.28.61-.01,1.12.26,1.73.6.62.34,1.32.72,2.49,1.03.11.03.5.1.79.14.08.24.16.39.17.41.05.75-.34,2.12-.23,2.79.1.67.59.13.64.98.04.64.05,2.24.05,2.36,0,.44-.02.88-.07,1.38-.06.58-.12,1.15-.17,1.7-.06.57-.12,1.1-.17,1.56-.05.54-.08.99-.08,1.33,0,1.41.56,0,.65.87.09.89-.27,4.52-.25,6,0,.61.73,1.5.08,4.84-.15.31-.29.58-.43.8.13.61-.37.87-1.38.86-.25-.32-.44-1.04-.57-2.04-.08-.6-.4-.67-.35-1.67.02-.38.47-1.62.41-2.02-.08-.5-.55-.32-.66-.73-.26-.92-.35-4.53-1.05-4.8-.29,2.97-.12,4.17-.02,6.14.02.4-.22,1.76-.17,2.06.14.79.52.64.58,1.67.04.64-.03,1.62-.1,2.59.8.3,1.6.6,2.28.76,3.36.84,6.16.81,10.12,2.19.85.29,1.67.71,2.4,1.08.37.19.71.36,1,.51.28.14.47.22.65.27,1.49.37,2.16-.02,3.94.27,1.17.19,12.69,3.06,15.85,4.98.01,0,.12.12.27.3.15.18.35.42.55.67.4.5.78,1.03.75,1.2-.11.55-1.13.03-1.67.12-.65.1-.22-.12-.09.22.45,1.15-2.06-.29-3.86-.49-.62-.07-1.06.57-1.84.56-.2,0-1.24-.31-1.49-.33-2.41-.16-7.38-1.42-10.6-1.87-1.44-.2-2.63-.11-3.94-.27-.09-.01-.21-.03-.35-.06-.07-.02-.14-.03-.22-.05-.11-.03-.24-.07-.36-.11-.52-.16-1.13-.34-1.72-.52-1.2-.36-2.4-.69-2.94-.69-.21,0,.07.5-.26.41-2.88-.72-7.12-2.46-9.84-3.11-3.41-.83-3.25-.23-6.22-.91.02.49,1.13.93,2.39,1.38,1.26.44,2.66.89,3.42,1.43-.58.14-3.84-1.43-4.24-1.16,1.12.9,4.59,1.77,4.24,1.16-.66-1.29,7.16,2.45,9.09,3.07,1.38.45,1.12,0,2.7.55.49.17.99.36,1.5.57.46.19.93.39,1.4.58.59.26,1.19.52,1.75.69,2.04.61,4.65,1.09,7.36,1.88,1.83.53,9.62,3.63,11.47,3.76.44.03.4-.54.96-.39.79.21,2.42,1.08,4.2,1.66,1.75.57,3.69.57,5.26,1.05.93.28,2.59,1.38,3.41,1.61.86.23,1.44.21,2.28.38.46.09,1.48.47,2.19.61.31.06.62-.23.88-.17.4.09,1.02.48,1.4.55,1.82.36,1.72.32,5.17,1.27,1.02.25,3.68.92,6.75,1.68.76.2,1.55.41,2.35.62.33.08.97.29,1.48.44.53.17,1.06.33,1.58.5,2.08.67,4.05,1.33,5.75,1.99,2.32-.94,4.16-1.52,5.14-1.47,2.54.11,2.14.58-2.67,3.37-1.1.64-1.25.49-2.1,1.08-.1.07-.22.15-.37.22-1.07-.25-3.06-1.07-3.99-.88,1.34.64,2.68,1.18,3.99,1.65,1.82-.78,3.56-1.66,5.19-2.52.81-.43,1.6-.85,2.38-1.27.38-.2.76-.41,1.14-.61l.56-.29.36-.21c1.22-.7,2.61-1.6,3.94-2.32,2.95-1.61,5.7-2.95,8.67-4.7,1.06-.62,2.19-1.5,3.24-2.05,1.01-.53,2.48-.86,3.51-1.38.51-.26,1.04-.91,1.23-1,1.9-.88,4.19-1.55,6.31-2.48.5.68,1.62.84,1.58,1.96.93-.45,1.69-.78,3.33-1.83.78-.5.93-.94,1.84-1.5.9-.56,2.5-1.06,3.42-1.6.78-.46,1.16-1.08,1.84-1.5,1.72-1.06,3.47-1.98,5.25-3.1,1.84-1.16,3.41-2.47,4.47-3.05.35-.19,1.12-.46,1.94-.76.41-.15.84-.31,1.23-.45.47-.18.91-.36,1.25-.53.15-.07.72-1.2,3.08-1.73,2.47-.56,2.88,0,2.79.71-.06.56-1.89,1.55-3.73,2.53-.92.49-1.84.98-2.52,1.4-.5.35-.82.66-.79.9.15.08.35.03.58-.09.12-.06.25-.13.38-.21.14-.08.38-.21.59-.31.47-.24,1.88-.89,2.79-1.36,2.02-1.04,3.34-1.95,5.03-3.01.75-.47,1.09-.5,1.64-.9.61-.45,2-1.36,3.64-2.37-.51-2.22-1.06-4.68-1.49-6.86-.43-2.19-.74-4.11-.8-5.41-.09-1.88-.13-1.53.2-3.5.15-.81.45-.65.29-2.29-.05-.53-.09-.77-.15-1.1-.06-.31-.13-.58-.21-.85-.16-.52-.35-.97-.56-1.42-.42-.89-.9-1.75-1.29-3.09-.14-.47-.46-2.21-.71-3.26.09-.07.14-.11.19-.15,1.34-1.19,1.98-1.99,3.92-2.56.36-.11,1.08-.03,1.52-.33.92-.63,1.78-1.48,2.93-2.57,1.14-1.09,2.33-2.29,3.57-3.43,1.16-1.07,2.3-2.13,3.36-3.07,1.1-.97,2.43-1.94,3.1-2.64.93-.95,1.56-1.96,2.24-2.97-.33-.81-.65-1.64-.94-2.48-.21-.62-.17-1.29-.39-1.8-.3-.67-.64-1.69-1-2.69-.18-.5-.37-1-.56-1.45-.21-.65-.42-1.3-.63-1.85-.16-3.17.44,1.07.22-3.04-.08-1.55.15-1.61-.73-2.96-.53-.08.12,2.67.08,3.77-.87-1.01-1.08-3.88-1.7-5.9-.45-1.43-2-4.13-2.18-5.86-.19-1.88.27-.34-.43-2.23-.27-.72-.52-1.15-.91-2.19-.78-2.11-1.74-6.51-2.74-9.6-.25-.78-.73-1.49-.91-2.19-.15-.59-.05-1.65-.19-2.25-.12-.49-.96-1.53-.86-4.46.31-.81.98.67,1.02.67.16-.01.33-1.24.65-.81.57.76,1.37,5.04,2.07,7.38.17.58.4.72.61,1.46.36,1.32.93,3.44,1.4,5.18l-.96.08c-.1,2.43.96.4,1.56,1.38-.35-.56,1.23,3.48,1.27,3.67.15.65.65,4.58,1.16,5.19.99,1.18-.03.42.73,2.96.2.66.55,1.21.91,2.19.39,1.08.78,2.9,1.34,4.42.06.16.32,1.42.37,1.48.94,1.12.05.18.73,2.96.09.37.46.39.54.64.26.88.48,2.39.75,3.19.42,1.22,1.24,2.25,1.76,3.77.22.65.35,1.68.55,2.72-.26.2-.51.4-.72.6-.5.48-.69,1.04-1.27,1.57-.54.5-1.46.89-1.32.77-.51.44.07.38-.29.73-.91.85-2.17,1.86-3.52,2.96-.71.57-1.29,1.06-1.91,1.59-.61.52-1.19,1.05-1.72,1.56-1.22,1.18-1.93,2.35-3.18,3.52-.52.51-1.5,1.01-1.9,1.38-1,.94-1.73,2.16-2.57,3.16-.21.25-.48.5-.76.75.21.83.39,1.68.65,2.42.08.21.48.45.53.61.27.86.4,1.84.95,2.72.07.11.16.29.27.51.11.25.23.36.39.96.15.5.31,1.03.46,1.52.15.51.3.88.45,1.56.53,2.09,1.14,5.78,1.98,9.46.8,3.52,1.23,4.35,1.49,6.46.13,1.01.14,2.28.13,3.58-1.73.53-3.57,1.06-4.88,1.57-2.96,1.15-5.86,2.62-8.83,4.22-1.5.82-3,1.64-4.46,2.44l-.28.15-.14.08-.08.05-.31.21c-.21.14-.41.27-.62.41-.41.27-.81.52-1.2.78-.44.28-1.54.72-2.02,1.05-.51.35-1.47,1.08-2.54,1.77-1.1.68-2.89,1.79-4.55,2.82-.73.45-1.38.64-2.02,1.05-.82.53-2.75,2.12-4.55,2.83-1.77.69-3.38.78-5.17,1.26.19-1.08,3.48-2.37,2.71-3.39-.42.53-2.12,1.46-3.15,2.27-.77.62-5.6,3.01-7.27,4.15-.35.24-.97.85-1.23,1-.76.44-3.3,1.31-4.82,2.16-1,.56-.29,1.05-3.24,2.05-.09.03-.08-.44-.18-.45-.17,0-3.08.89-3.59,1.16.76-1.81,4.35-3.8,6.66-5.72-1.62-.26-4.56,1.96-6.83,3.21-1.16.63-1.87,1.33-3.24,2.05-1.21.63-2.9,1.19-4.12,1.88-.77.44-.69.62-1.23,1-.06.04-.13.09-.21.14-.07.05-.14.1-.34.2-.34.17-.72.36-1.13.57-.83.4-1.77.86-2.74,1.34-1.96.95-4.07,1.96-5.61,2.74-.6.31-1.2.61-1.8.92-4.09-1.11-8.51-2.2-12.04-3.68-.17-.07-.39-.22-.76-.47-.37-.25-.85-.57-1.32-.88-.47-.32-.94-.63-1.29-.87-.35-.23-.58-.37-.58-.37-.12-.44,1.2,0,2.46-.06,1.31-.07,1.47-.16,1.79-.09.08.02.17.04.29.08.18.06.4.14.7.25.73.27,1.83.66,3.57,1.24.85.28,1.97.33,2.62.52,1.6.47,3.19,1.01,4.57,1.44.61-.29,1.15-.55,1.66-.8,2.1-1.06,3.94-2.08,5.64-3.03.84-.47,1.66-.93,2.46-1.37l.6-.33.35-.23.68-.42c1.83-1.09,4.42-2.13,6.04-3.15.61-.39,1.09-.97,1.84-1.5.61-.43,2.69-1.34,1.84-1.5-2.23.36-3.73,1.66-5.43,2.65-.69.41-1.69,1-2.63,1.55-.19.12-.99.56-1.31.77-.28.18-.39.65-.53.72-.18.1-.4.2-.64.29-.31.11-.64.23-.96.34-.85.3-1.69.6-2.3.91-.66.33-.8.81-1.05.93-2.08.97-3.74,1.56-5.85,2.56l-.41.19c-1.81-.56-3.43-1.03-5.59-1.73-1.04-.35-2-.67-2.92-.98-.46-.16-.91-.32-1.35-.47l-.66-.23-.25-.08-.19-.06c-1.02-.31-2.04-.6-3.27-.82-.91-.16-1.61.01-2.37-.16-2.29-.52-4.44-1.54-6.48-2.05-2.4-.6-4.33-.89-7.44-1.65-.59-.14-1.92-.28-2.28-.38-1.33-.39-1.63-.8-2.8-1.11-2.65-.7-6.69-1.27-9.55-2.48-.56-.24-1.71-.88-2.73-1.47-.51-.3-.98-.58-1.33-.78-.35-.21-.58-.36-.58-.36-.36-.64,3.03-.36,6.4.21,5.24.87,11.13,2.54,17.08,3.91,1.39.32,2.57.43,3.77.71,1.69.4,3.28.99,4.38,1.21,1.49.3,3.9.1,7.45,1.65Z"/></svg>