<?xml version="1.0" encoding="utf-8"?>
<!-- Generator: Adobe Illustrator 27.3.1, SVG Export Plug-In . SVG Version: 6.00 Build 0)  -->
<svg version="1.1" id="Layer_1" xmlns="http://www.w3.org/2000/svg" xmlns:xlink="http://www.w3.org/1999/xlink" x="0px" y="0px"
	 viewBox="0 0 438.21 470.78" style="enable-background:new 0 0 438.21 470.78;" xml:space="preserve">
<style type="text/css">
	.st0{fill:none;stroke:#010101;stroke-width:25;stroke-miterlimit:10;}
	.st1{fill:#010101;}
	.st2{fill:none;stroke:#010101;stroke-width:20.5685;stroke-miterlimit:10;}
</style>
<g>
	<path class="st0" d="M167.55,382.37c0,0-56,14-89-13s-14-58-22-102S4.2,222,4.2,222"/>
	<path class="st1" d="M305.55,200.04L305.55,200.04c-51.09,8.32-102.91,8.31-154-0.02l0,0c-6.88,83.29-12.97,153.3-24.45,213.93
		c-0.36,1.88-0.08,3.82,0.79,5.52l4.08,8.02c1.02,2,2.77,3.52,4.88,4.25l84.22,29.08c4.84,1.67,10.11,1.67,14.95,0l84.22-29.05
		c2.12-0.73,3.87-2.25,4.89-4.25l4.08-8.02c0.87-1.7,1.14-3.64,0.79-5.52C318.52,353.33,312.43,283.33,305.55,200.04z"/>
	<g>
		<path class="st1" d="M245.67,143.2l-0.96-1.11c-1.19-1.37-1.42-3.39-0.4-4.9c0.01-0.01,0.01-0.02,0.02-0.03l4.95-7.24
			c2.01-2.94-0.09-6.94-3.66-6.94h0c-11.09-3.83-23.14-3.82-34.22,0.03c-3.38,1.17-4.67,5.3-2.65,8.26l4.03,5.89
			c0.01,0.01,0.01,0.02,0.02,0.03c1.01,1.5,0.78,3.53-0.4,4.9l-0.96,1.11c-1.18,1.36-2.76,2.3-4.52,2.67
			c-28.58,6.13-48.36,32.5-48.36,32.5l70,9.66l70-9.66c0,0-19.77-26.37-48.36-32.5C248.43,145.5,246.84,144.56,245.67,143.2z"/>
		<polygon class="st1" points="158.55,178.37 149.34,181.96 146.24,192.69 151.55,203.37 211.74,234.2 305.55,203.39 311.41,192.69 
			307.18,181.68 298.55,178.37 200.05,174.34 		"/>
	</g>
	<path class="st2" d="M431.26,351.17l-100.55,20.05c0,0-28.54-87.71,30.79-95.28c53.93-6.88,36.43-68.06-10.66-64.85
		c-33.6,2.29-39.43,31.36-39.43,31.36l1.72,15.44"/>
</g>
</svg>
