<?xml version="1.0" encoding="UTF-8"?><svg id="Layer_2" xmlns="http://www.w3.org/2000/svg" width="439.34" height="551.15" viewBox="0 0 439.34 551.15"><defs><style>.cls-1{fill:none;}.cls-2{fill:#e84258;}.cls-3{fill-rule:evenodd;}</style></defs><path class="cls-2" d="m325.3,365.14l104.04-18.9-4.25-23.41-90.45,16.43c-.19-4.76.11-10.72,1.72-17.1,4.89-19.43,19.5-33.96,43.42-43.18,22.43-8.64,33.67-31.07,27.33-54.54-3.23-11.98-10.73-22.29-21.11-29.05-11.52-7.5-25.76-10.15-41.19-7.66-13.81,2.22-24.99,6.24-33.45,12-.34-4.15-.67-8.2-.99-12.13l8.63-10.26-4.24-11.01-8.63-3.31s-19.77-26.37-48.36-32.5c-1.76-.38-3.34-1.31-4.52-2.67l-.96-1.11c-1.19-1.37-1.42-3.39-.4-4.9,0,0,.01-.02.02-.03l4.95-7.24c2.01-2.94-.09-6.94-3.66-6.94h0c-11.09-3.83-23.14-3.82-34.22.03-3.38,1.18-4.67,5.3-2.65,8.26l4.03,5.89s.01.02.02.03c1.01,1.5.78,3.53-.4,4.9l-.96,1.11c-1.18,1.36-2.76,2.3-4.52,2.67-28.58,6.13-48.36,32.5-48.36,32.5l-9.2,3.59-3.11,10.73,8.07,10.2c-5.51,66.65-12.54,166.06-21.07,233.14-14.17-.13-33.24-2.72-46.78-13.79-16.79-13.74-16.32-27.58-15.54-50.52.44-12.89.93-27.5-2.07-44.04-5.07-27.9-22.39-41.61-36.03-48.2-14.07-6.81-26.82-7.38-28.23-7.43l-.85,24.99c.09,0,9.3.46,18.9,5.3,11.82,5.96,19.09,16,21.61,29.82,2.53,13.91,2.1,26.52,1.69,38.72-.82,24.16-1.67,49.15,24.7,70.72,17.5,14.32,39.93,18.76,59.12,19.37-.87,5.58-1.75,10.78-2.65,15.53-.36,1.88-.08,3.82.79,5.52l4.08,8.02c1.02,2,2.77,3.52,4.88,4.25l84.22,29.08c4.84,1.67,10.11,1.67,14.95,0l84.22-29.05c2.12-.73,3.87-2.25,4.89-4.25l4.08-8.02c.87-1.7,1.14-3.64.79-5.52-4.44-23.45-8.53-57.88-12.27-96.02Zm7.07-130.1l-16.21,3.28c-.37-4.68.19-9.27,2.75-13.21,4.34-6.66,14.61-11.47,29.68-13.89,21.45-3.44,32.55,8.31,35.55,19.43,2.39,8.84.44,21-12.92,26.15-28.64,11.04-43.82,27.61-51.79,43.2-1.06-12.59-2.08-25.15-3.07-37.45l20.71-4.19-4.72-23.32Z"/><path class="cls-1" d="m325.3,365.14l104.04-18.9-4.25-23.41-90.45,16.43c-.19-4.76.11-10.72,1.72-17.1,4.89-19.43,19.5-33.96,43.42-43.18,22.43-8.64,33.67-31.07,27.33-54.54-3.23-11.98-10.73-22.29-21.11-29.05-11.52-7.5-25.76-10.15-41.19-7.66-13.81,2.22-24.99,6.24-33.45,12-.34-4.15-.67-8.2-.99-12.13l8.63-10.26-4.24-11.01-8.63-3.31s-19.77-26.37-48.36-32.5c-1.76-.38-3.34-1.31-4.52-2.67l-.96-1.11c-1.19-1.37-1.42-3.39-.4-4.9,0,0,.01-.02.02-.03l4.95-7.24c2.01-2.94-.09-6.94-3.66-6.94h0c-11.09-3.83-23.14-3.82-34.22.03-3.38,1.18-4.67,5.3-2.65,8.26l4.03,5.89s.01.02.02.03c1.01,1.5.78,3.53-.4,4.9l-.96,1.11c-1.18,1.36-2.76,2.3-4.52,2.67-28.58,6.13-48.36,32.5-48.36,32.5l-9.2,3.59-3.11,10.73,8.07,10.2c-5.51,66.65-12.54,166.06-21.07,233.14-14.17-.13-33.24-2.72-46.78-13.79-16.79-13.74-16.32-27.58-15.54-50.52.44-12.89.93-27.5-2.07-44.04-5.07-27.9-22.39-41.61-36.03-48.2-14.07-6.81-26.82-7.38-28.23-7.43l-.85,24.99c.09,0,9.3.46,18.9,5.3,11.82,5.96,19.09,16,21.61,29.82,2.53,13.91,2.1,26.52,1.69,38.72-.82,24.16-1.67,49.15,24.7,70.72,17.5,14.32,39.93,18.76,59.12,19.37-.87,5.58-1.75,10.78-2.65,15.53-.36,1.88-.08,3.82.79,5.52l4.08,8.02c1.02,2,2.77,3.52,4.88,4.25l84.22,29.08c4.84,1.67,10.11,1.67,14.95,0l84.22-29.05c2.12-.73,3.87-2.25,4.89-4.25l4.08-8.02c.87-1.7,1.14-3.64.79-5.52-4.44-23.45-8.53-57.88-12.27-96.02Zm7.07-130.1l-16.21,3.28c-.37-4.68.19-9.27,2.75-13.21,4.34-6.66,14.61-11.47,29.68-13.89,21.45-3.44,32.55,8.31,35.55,19.43,2.39,8.84.44,21-12.92,26.15-28.64,11.04-43.82,27.61-51.79,43.2-1.06-12.59-2.08-25.15-3.07-37.45l20.71-4.19-4.72-23.32Z"/><path class="cls-3" d="m331.29,268.59c-.02-.14-.49-.42-.5-.39-.03.08.27.82.24.93-.04.15-.28-.18-.4.08-.09.2.21,1.03.26,1.42.02.18-.19.06-.17.28,0,0,0,.17.02.24.02.04.27.42.27.43.02.12-.22-.08-.19.04.04.16.29.53.34.67,0,.03.11.23.11.22-.02.01-.25-.25-.25-.2.02.14.3.61.45.89.15.28.17.39.35.66.05.07.41.41.41.41.03.05-.36-.24-.33-.18.05.08.29.32.44.47.17.17.24.24-.06.07-.15-.09-1.11-.74-1.27-.82-.02-.01.03.07,0,.05-.24-.15-.97-.68-1.7-1.26-.73-.57-1.45-1.19-1.65-1.37-.25-.23-.46-.45-.68-.7-.12-.16-.25-.33-.39-.51-.09-.11-.07-.11-.13-.22,0,0-.11-.2-.12-.22-.16-.2-.73-.66-.83-.81-.18-.28.11-.21-.05-.48-.14-.24-.46-.61-.6-.86-.08-.14.1-.1.02-.25-.03-.06-.39-.34-.43-.4-.04-.07.2.03.17-.03-.22-.51-.39-.98-.7-1.57-.89-.43-.64.26-.63.62,0,.57,0,1.03.15,1.68.03.14.11.3.15.49.07.09.15.2.24.32.32.47.75.97,1.08,1.44.05.07.31.29.27.3-.1.04-.07.02.27.43.36.42-.33.17-1.49-.58-1.34-.84-1.79-2.12-2.62-2.64-.72-.43-.54-.02-.17.5.37.52.95,1.13,1.03,1.27.34.51.17.67.31.85.09.11.38.3.52.43.67.64,1.19,1.46,1.86,2.1.77.75,1.54,1.71,1.87,2.23-.39,0-1.14-.21-1.71-.25-1.31-.06-1.82-.67-3.23-1.24-.26-.04-.27.18-.21.33.08.21.43.27.51.38.2.26.26.51.55.8.1.1.4.2.51.32.16.17.14.24.27.36.21.19.61.37.76.52.21.2.09.43.29.61.18.18.52.31.78.69.28.34.85.75.8.98-.12.51-.55.04-.69.32.06.46.66-.09,1,.44.16.26-.31,1.35-.59,1.62-.09.09-.4.32-.69.45-.69.3-1.87.11-2.61.48-.3.15-.45.4-.66.71-.19.27-.78.75-.38,1.21.21.24.37.02.27.37-.05.17.64.94.82,1.24.16.27.13.5.3.76.04.07.47.17.5.22.08.11-.04.28.03.39.32.5.68,1.38,1.14,2.13.04.07.47.17.5.22.15.23.03.55.3.76.26.19.06.45.31.89.07.13.46.27.51.35.38.61.32,1.3.66,2.17.07.17.42.3.52.48.56,1.01.46,2.2-1.24,2.46-.33.05-1,.03-1.7-.12-.52-.11-1.13-.69-1.69-.12-.6.61-.35,1.85-.02,2.75.08.22.38.3.53.61-.02-.05-.36.1-.23.15.25.09.43.31.56.59l-7.76-1.53c.08-.59.39-1.28.46-1.8,0-.03-.21-.12-.15-.24.03-.06.28-.07.28,0,0-.42-.31-.76-.24-1.08.06-.3.4-.66.55-.97.46-.99.41-2.2,1.37-2.76.48-.27,1.06.03,1.37-.78.07-.18-.1-.49.1-.59,0,0,.34-.05.7-.09.36-.04.74-.07.83-.05,1.4.4,3.36,2.74,3.09.98-.03-.22-.33-.5-.36-.73-.03-.22.22-.47.19-.68-.03-.28-.34-.67-.35-.74-.02-.44.32-.85.33-1.27,0-.08-.3-.33-.31-.4,0-.26.26-.42.29-.81.01-.21-.07-.48-.04-.72.02-.15.26-.37.26-.32.06-.59-.41-1.05.04-1.2.23.05.52.22.84.49.91-.16-.59-.02.17-.21.21-.05.44.07.63-.02.34.14.3.45.58.82.19.25.69.61.85.86.37.56.24,1.08.53,1.26,1.65,1.06,1.03-1.19,1.04-1.68,0-.97.24-1.62.38-2.63.07-.5-.05-1.21.08-1.91.05-.24.08-.32.09-.47,0-.29.33-1.08.51-1.57.08-.21.2-.45.3-.66-.01.02-.24-.32-.08-.27.61.22.19-.19.21-.56.02-.41.35-.36.5-.86.02-.07-.16-.49-.14-.54.11-.31.35-.52.53-.84.15-.27.39-.53.54-.84.47-.9.67-1.81,1.5-2.71.03-.03.45,0,.59-.18.4-.57,1.55-1.13,2.12-1.17.62-.05.74,0,1.25.2.6.24,1.83,1.68,1.98,2.41.03.14-.06.5,0,.63.13.29.59.63.77.92.09.15.11.61.26.72.84.62,1.27-.41,1.55-.97.29-.61.88-.88.75-1.79-.04-.26.6-1.03.81-1.54.07-.17.07-.48.13-.71.04-.13.29-.09.32-.23.01-.06-.19-.43-.17-.46.1-.2.5-.23.65-.46.14-.2.03-.55.16-.7.17-.2.44-.03.68-.19.35-.23.54-.92.93-1.24.36-.31.93-.4,1.36-.62.75-.4,1.5-1.36,2.27-1.15.26.07.35.52.62.74.28.24.67.25.96.81.18.35.41,1.19.66,1.57.04.05.26.11.36.34.08.18.33,1.28.46,1.7.11.36.2.57.3.95.17.68.26.99,1.12,1.56.21.14.76.52.92.56.29.07.71-.35,1.04-.38.31-.03.62.15.77.11.6-.18,1.49-.58,2.11-.92.24-.13.31-.47.51-.57.92-.47,1.98-.92,2.91-1.56.94-.62,1.73-1.45,2.27-2.48.16-.31.53-.27.91-.68.4-.43.66-1.13,1.06-1.54.31-.33.75-.38,1.03-.74.06-.08.02-.3.13-.32.04,0,.25.11.21.17.26-.35.19-.77.4-.96.56-.49,2.24-1.39,2.47-1.27-.03-.01.3.4.3.4-.04-.04.27.32.21.18.16.34-.06.64.04.76.48.57,1.12.47,1.71.12.5-.31,1.38-1.08,1.7-1.55.28-.38.82-.73,1.43-1.11.6-.43,1.27-.88,1.82-1.36.51-.42.88-1.02,1.21-1.48.34-.47.65-.83,1.04-.92.51-.12,1.67.58,2.08.44.94-.33,1.22-1.57,1.88-2.49.17-.22.55-.28.76-.48.48-.39,1.16-1.89,1.88-2.49.61-.57,1.7-.84,2.29-1.53.9-1.13,1.45-3.05,1.97-4.82.28-.85.47-1.72.7-2.58.2-.86.3-1.73.35-2.57.02-.81-.28-1.59-.31-2.42-.06-.92,0-1.84.04-2.73-.01-.88-.03-1.73-.29-2.45-.12-.3-.57-.57-.63-.91-.12-.76.36-1.53-.06-2.68-.26-.8-.77-1.67-1.25-2.59-.48-.91-1.1-1.79-1.57-2.62-.21-.37-.26-.69-.49-1-.33-.45-.87-.75-1.15-1.19-.12-.2,0-.61-.18-.8-.53-.61-1.33-.94-1.77-1.48-.3-.36-.51-.79-.82-1.13-.36-.38-.78-.72-1.16-1.04-.4-.31-.79-.59-1.07-.91-.07-.08-.3-.22-.31-.34,0-.02.24-.45.25-.44-.09-.09-.6-.06-.87-.23-.65-.41-1.41-1.26-1.8-1.66-.14-.13-.41-.32-.71-.52-.31-.19-.63-.43-.84-.72-.67-.97-.97-2.1.12-3.49-.1.12.55-.51.54-.5.15-.07.39.18.55.11.47-.22.84-.62,1.12-.67.17-.03.51.34.86.34.09,0,.36-.28.43-.27.11.01.18.22.29.22.31-.02.62-.33,1.04-.42.27-.06.61.14.89.1,1.05-.16,2.8-.24,1.84-1.26-.13-.13-.52-.06-.75-.35-.38-.45-.46-.99-.81-1.23-.34-.23-.83-.16-1.25-.33-.6-.23-.88-.7-1.59-.83-.67-.11-.52.03-1.13-.41-.49-.35-1.04-.21-1.74-.48-.77-.32-1.5-.71-2.32-.92-.87-.21-1.78-.27-2.68-.42-1-.14-2.05-.51-3.08-.58-.3-.01-.67.18-.99.19-.44,0-.76-.27-1.19-.3-.52-.04-1.41.08-2.03.25-.21.06-.47.07-.77.08-.3.02-.63.05-.98.08-.58.05-1.32.02-2.07,0-.37,0-.75,0-1.11.01-.36.05-.69.11-1,.2-.32.1-.56.38-.83.44-.33.06-.75-.08-1.11-.05-.67.05-1.39.42-1.89.44-.43,0-1.79-.8-2.64-.14-.23.18-.64.22-1.14.25-.49.06-1.05.1-1.58.23-.3.07-.38.27-.57.31-.32.07-.78-.2-1.08-.11-.24.07-.31.5-.53.55-.3.07-.67-.19-.91-.12-.82.23-1.54.72-2.26.88-.48.1-1.07,0-1.7.09-.91.11-1.96.68-2.76.59-.48-.06-1.33-.57-1.53-.87-.26-.39-.44-1.63-.6-1.83-.24-.32-.68-.5-1.1-.71-.81-.41-1.16-.59-2.37-.11-.05.02-.18.31-.38.36-.16.05-.55-.07-.51-.1-.23.14-.25.53-.45.64-.29.15-.63.11-.88.27-.22.13-.36.5-.59.69-.16.14-.42.08-.59.2-.22.16-.38.53-.57.7-.49.43-1.07.43-1.43,1.04-.06.1-.09.53-.12.56-.18.19-.52.13-.72.28-.18.13-.26.48-.39.67-.09.12-.35.05-.43.18-.03.06.07.48.04.5-.28.31-.76.45-1.04.72-.7.64-1.27,2.26-2.36,1.94-.61-.65.41-.37.09-.85-.43-.08-.41.23-.82.15-.44-.08-.7-.63-1.03-.52-.33.11-.52.78-.77.99-.42.34-1.07.54-1.58.97-.36.32-.52.82-.87,1.15-1.12,1.03-2.78,2.48-4.26,3.52-.27.18-.55.04-.87.19-.52.23-.76.8-1.23.99-.74.34-1.65.17-2.3.55-1.21.66-2.02,2.19-2.97,3.3-.25.27-.74.49-.93.78-.51.76-.65,1.65-1.06,2.49-.47.98-1.31,2.07-1.74,3.21-.4,1.05-.44,2.25-.85,3.12-.32.69-1.37,1.29-1.68,2.14-.37.99-.33,2.86-.35,4.43,0-.02.28.04.25.18-.15.68-.14,1.5-.06,2.32l1.74,17.18,15.98-3.83c.76-.18,1.52-.47,2.1-.61.23-.06.32.22.56.13.31-.11.63-.18,1.02-.21.25-.02.4-.35.59-.37.6-.06,1.01-.11,1.66-.34.22-.08.43.18.69.11.12-.03.67-.35,1.1-.47-.03,0-.02-.4.08-.26.48.69.88-1.09,1.34-1.25.35-.12.78.32,1.29.47,1.27.37,3.04-.02,4.75-.23.29-.03.84-.6,1.12.26-1.26.02-2.44.7-3.66.99-.18.04-.5-.17-.69-.11-.27.09-.43.5-.67.63-.19.1-.42-.18-.69-.11-.12.03-.23.3-.46.34-.27.05-.57-.15-.82-.08-.97.26-1.91,1.06-2.8,1.3-.13.04-.37.17-.51.1-.12-.05-.17-.43-.35-.42-.16,0-.09.47-.16.52-.15.12-.27-.2-.3-.18-1.13.54-2.65.48-4.17,1.09-.24.1-.45.29-.67.45l-10.54,8.01-9.33-22.98c-.11-.27-.21-.54-.23-.82-.17-1.88.58-3.7.43-5.1-.04-.31-.47-1.22-.38-1.56.03-.1.45-.11.5-.18.29-.49.08-.83.62-1.27.36-.3.95-.52,1.14-1.19.16-.59.15-1.3.38-2,.17-.52.63-.96.86-1.46.64-1.36.79-2.95,1.52-4.3.24-.46.81-.82,1.15-1.32.5-.71.78-1.67,1.41-2.49.23-.33.9-.62,1.19-.91.92-.91.7-1.43,1.63-1.39.05,0,.49.14.52.13.29-.14.42-.77.72-.85.12-.03.53.33.68.31.08-.02,1.15-.35,1.37-.42.32-.14.54-.64,1-.98.7-.54,1.25-.37,2.05-1.17.1-.1-.03-.36.14-.43.22-.11,1.28-.58,1.76-1.03.26-.24.36-.78.61-1.02.34-.34,1-.56,1.49-.96.71-.58,1.12-1.24,1.56-1.77.44-.52.9-.83,1.64-.57.26.09.16-.13.41.07.24.2.13.25.36.36.5.23.77.1,1.14-.29.07-.07.05-.34.19-.35.05,0,.13.29.25.15.23-.26.32-.81.59-1.05.54-.48,1.28-.54,1.69-.97.2-.22.29-.79.48-.96.36-.32.89-.44,1.26-.73.4-.31.74-.79,1.11-1.14.18-.18.42-.26.68-.49.18-.16.31-.57.46-.65.53-.3,1.16-.25,1.65-.5.32.68-.28.57.04,1.24.63-.31-.17-1.35-.03-1.75.97-.19,1.93-.52,2.76-.51.55.01.78.29,1.48.86.65.53.72.61,1.32,1.66.15.27.5,1.05.56,1.1.28.21.74-.12,1.33-.06.28.03.62.33.8.33,1.01-.03,2.12-.79,3.27-1.12.6-.18,1.21-.13,1.68-.29.31-.12.71-.58.99-.62.37-.05.76.33,1.15.34.47,0,1.08-.07,1.52-.42.17-.13.22-.48.42-.53.3-.07.74.43.98.38.58-.15,1.13-.89,1.72-1.03.78-.18,1.76.02,2.73.17.99.2,1.94.33,2.73-.13.21-.12.86-.02,1.53.04.68.1,1.39.15,1.74-.2.41-.4.1-.31.9-.11.79.21,1.4-.09,2.22-.36.67-.22.32.25.83.44.09.04,1.09-.06,1.53-.12.29-.05.58-.3.84-.29.51,0,1.09.43,1.61.48.55.04,1.15-.25,1.67-.18.33.05.45.47,1,.61.29.08.45-.22.9-.17.29.04.78.45,1.07.49.33.04.74,0,1.1-.02.58-.04,1.26.12,2.03.36.75.29,1.59.67,2.51,1.01.38.14.67-.02,1.14.13.73.22,1.77,1.14,2.86,1.76.55.31,1.3.56,1.95,1.28.2.21.62.55.63.57.14.21-.07.49,0,.64.25.59.38.48.27,1.23-.01.09-.02.59-.04.62-.41.82-1.77,1.79-2.16,1.92-.15.05-.4-.51-.56-.51-.26,0-.82.44-1.23.51-.19.03-.38-.2-.57-.19-.18.01-.38.11-.58.12-.77.04-1.44-.04-2.14.1-.72.14-1.39.42-1.96.63.14.78.97.83,1.41,1.37.18.25.2.81.41,1.01.29.28.8.18,1.16.41.6.34.84,1.16,1.31,1.67.4.43,1.08.97,1.58,1.42.3.27.83.35,1.07.61.25.27.13.7.4.93.19.16.42.37.67.53.19.11.59.11.75.29.3.33.25.89.5,1.25.2.3.63.3.93.62.67.75.69,1.95,1.51,2.44.2.13.48.09.63.28.36.43.36,1.06.65,1.58.2.36.59.46.81.81.16.24-.14.36-.07.57.05.16.66.55.77.85.1.25-.18.39-.08.57.18.3.6.45.69.73.11.31-.11.56-.03.92.06.24.37.57.43.82.12.59-.04,1.21.06,1.8.06.37.38.65.38,1.03,0,.35-.18.75-.14,1.09.17,1.21.7,2.62.36,3.76-.05.16-.28.79-.28.72,0,.34.35.59.42.94.23,1-.15,1.82-.33,2.77-.16.89-.17,1.93-.36,2.83-.41,1.64-1.21,3.23-1.98,4.84-.56,1.31-.77,2.43-1.76,3.28-.47.41-1.44.24-1.98.76-.16.15-.47.75-.8,1.39-.36.61-.76,1.25-.99,1.55-.33.41-.82.87-1.33,1.35-.8.79-1.57,2.19-2.13,2.14-.42-.02-1.43-1.38-1.74-1.41-.19-.02-.76.39-1.31.85-.54.48-1.09.87-1.14,1.05-.13.36-.58.4-1.07.88-.18.17-.22.62-.38.76-.61.49-1.47.68-2.07,1.19-.2.16-.35.39-.5.61-.16.23-.31.45-.41.56-.15.15-.4.11-.56.23-.27.2-.35.65-.5.72-.11.05-.7.17-.88.1,0,0-.24-.2-.49-.4-.24-.21-.5-.42-.53-.48-.43-.65-.16-1.11-.55-1.33-.24-.13-.78-.09-1.24.25-.21.15-.09.61-.29.9-.1.13-.5.06-.79.34-.18.17-.19.54-.37.7-.33.3-.87.3-1.24.83-.04.05,0,.51-.02.54-.14.16-.4.13-.55.25-.19.15-.2.54-.35.69-.66.64-1.32,1.02-1.85,1.71-.24.31-.43.75-.64.87-.25.15-.56-.03-.75.11-.37.28-.3.66-.52.81-.2.14-.54,0-.75.11-.21.1-.31.41-.51.56-.15.11-.52.02-.73.14-.18.11-.09.36-.3.44-.29.12-.72-.07-1.06.05-.18.06-.23.41-.4.5-.3.17-.98.05-1.38.24-.19.1-.21.48-.38.52-.23.06-.56-.05-.85-.03-.41.02-.85.13-.73.18-.64-.27-1.62-1.38-2.19-2.31-.31-.51-.35-.96-.59-1.62-.14-.38-.3-.58-.41-.88-.25-.73-.29-.82-1.06-2.17-.51-.88-.39-.96-.99-1.08-.5-.1-.04.33-.54.62-.28.17-.7.12-1.02.36-.25.18-.4.59-.63.7-.25.11-.65-.16-.81-.02-.26.23-.63.91-.77,1.42-.05.16-.05.26-.18.42-.24.29-.62.1-.89.33-.14.12-.25.55-.36.84-.1.27-.32.65-.33.86-.01.24.27.81.17,1.08-.33.84-1.14.63-1.33,1.63-.03.19-.19.21-.15.42,0,.06.21.42.2.45-.05.23-.38-.1-.45.04-.04.09.2.4.1.53-.75,1.05-2.17,1.47-3.66-.99-.1-.16-.24-.4-.37-.63,0,0-.34-.57-.37-.63-.06-.19.2-.69.04-.98-.02-.04-.53-.42-.72-.65-.1-.12-.21-.64-.51-.82-.3-.18-.19.11-.47.08-.05,0-.39-.29-.41-.28-.38.11-1.13.69-1.52.98-.24.18-.35.61-.67.91-.38.35-.88.71-1.24,1.49-.09.19-.26.42-.33.64-.07.19,0,.56-.07.72-.55,1.09-1.28,1.9-1.41,2.43-.12.53.2,1.28.12,1.6-.01.04-.35.19-.56.57-.06.11.1.56.07.61-.09.18-.41-.02-.44.14-.04.22.22.35.27.78.04.31-.29.35-.26.65.02.27.11.58.19.87.04.17.28.64.28.77,0,.18-.31.22-.34.39-.02.08.2.45.19.51-.04.26-.31.45-.32.73-.02.67.26,1.44.24,2.01-.03.81-.08,1.48-.57,1.47-.27,0-.49-.35-.84-.49-.21-.08-.25.09-.54-.09-1.17-.73-2.05-2.13-2.71-2.76-.43.44.06,1.34.06,1.89,0,.45-.25.74-.23,1.14.03.58.35,1.27.48,1.78.05.2-.07.27-.03.45.03.13.21.36.24.48.04.14-.08.28-.02.45.15.39.25.29.18,1.04-.06.66-.02.65-.82.36-.69-.24-3.13-2.09-3.83-2.04-.6.05-.1.84-.33,1.37,0,0-.35-.05-.34.1.01.16.2.4-.27.46-.58.08-.71-.43-1.64-.53-.32.74-.89,1.21-1.12,1.87-.07.2.17.48.15.71-.03.43-.33.8-.43,1.31-.11.57-.13,1.19-.24,1.86l3.72.73c-.16-.34-.29-.71-.38-1.13,0-.03-.34-.1-.26-.24.03-.05.28-.01.23-.15-.08-.2-.41-.29-.52-.48-.15-.25-.71-2.15-.45-2.58.03-.05.38-.22.46-.3.53-.52,2.3-.87,4.04-.6.79.12,1.11.11,1.15-.62,0-.11-.31-.18-.27-.37.03-.14.14-.54-.07-.91-.26-.45-.76-.7-.79-.85-.15-.81.81-.5-.09-1.04-.68-.41-.81-1.62-1.41-2.5-.32-.47-.74-.92-1.08-1.48-.14-.23-.14-.56-.3-.76-.14-.18-.59.04-.73-.07.04.03-.11-.5-.3-.76-.27-.37-.71-.82-.84-1.5-.06-.29.2-.47.18-.67-.05-.66-.48-1.14.58-1.75.05-.03.45-.14.47-.17.25-.36.21-.16.92-.47.14-.06.37-.27.46-.3.89-.28,1.83-.17,2.12-.57.3-.41-1.04-2.03-1.42-2.62-.39-.45-.16-.59-.79-.87-.45-.21-.17-.26-.54-.68-.06-.07-.37-.17-.51-.33-.13-.16-.45-.27-.51-.35-.13-.17.1-.35-.04-.52-.09-.11-.39-.25-.51-.39-.16-.19-.12-.28-.28-.48-.24-.29-.74-.71-.79-.83-.08-.21.25-.13.22-.28-.06-.26-.64-.82.43-.64.55.09.78.04.97.1.94.27,1.3.61,2.51,1.3.08.07,1.52,1.03,2.01,1.03,1.01.07-.46-.58-1.06-1.21-.52-.54-.51-1.16-1.6-1.87-.68-.45-.1-.41-.81-1.07-.06-.05-.51-.43-.52-.44-.12-.2.14-.27-.04-.48-.17-.21-.64-.4-.77-.61-.1-.17-.27-.53-.29-.56-.18-.39.06-.61-.07-.83-.14-.25-.6-.38-.77-.6-.19-.23-.15-.64-.32-.95-.06-.11-.92-.89-.57-1.05,1.16.6,1.97,1.37,2.58,2.08.14.17.5.44.53.56.01.04-.35-.11-.24,0,.13.14.62.48.77.62.36.34.79.93,1.56,1.45.03-.19-.26-.47-.55-.82-.06-.08.07-.08-.01-.16-.23-.23-.61-.5-.78-.72-.16-.2-.11-.3-.19-.48.01-.02.01-.05,0-.09-.22-.43-1.08-1.32-.78-1.56.12-.1.73.19.73.1.01-.2-.5-.73-.6-1.1-.03-.12.02-.6.28-1,.25-.4.69-.73,1.2-.52,0,0,.29.23.61.49.32.26.65.56.77.7.41.48.18.41.32.67.17.31-.05-.02.18.21.77.77.1.48.25.93.05.16.62.81.76,1.07.03.06,0,.17.03.24.34.68.4,1.34.84,2.03.19.31.59.76.82,1.06.12.16.08.31.43.65.07.07.44.36.47.39.28.34.07.33.39.66.31.31.71.62,1.07.92.11.09.23.19.35.29.27.19.39.27.43.29.14.08-.2-.22.18.04.35.28.01.08.43.4.48.34.03-.05-.43-.4-1.03-.77-.2-.32-.29-.43-.06-.08-.37-.34-.41-.41-.04-.09.21.06.16-.03-.08-.17-.42-.62-.49-.88-.05-.17.42-.25.11-.76-.07-.12-.47-.57-.48-.64-.01-.09.26.06.31-.06.05-.12-.29-.78-.24-.93.03-.09.43.25.43.16,0-.1-.09-.32-.1-.47,0-.08.06-.13.05-.26,0-.06-.2-.41-.2-.45,0-.06.14.04.13-.03,0-.34-.03-.34.12-.76.06-.17.18-.89.49-1.42.3-.53.77-.85,1.12-.13.46.96.44,1.26.38,2.13-.01.2-.08.01-.06.26.03.26-.15.17,0,.74.38.31.35-.6.51-1.08.03-.12.07-.26.11-.4.02-.07.04-.14.07-.21.14-.09.27-.17.4-.25,1.16-.66,2.2-1.12,3.12-1.86.33-.26.57-.72.88-.91.3-.18.93-.08,1.23-.25.15-.09.08-.5.14-.52.56-.24,1.48-.21,2.13-.43.81.66,1.71,1.06,2.52,1.94.31-.14.61-.23.92-.68.15-.21-.13-.52.03-.74.09-.13.37-.19.62-.27-.04-.14-.09-.28-.19-.43-.21-.31-.75-.78-.95-1.06-.5-.71-.85-1.3-1.39-2.02-.56-.74-1.38-1.56-1.61-1.89-.15-.23,0-.59-.19-.92-.02-.03-1.01-.7-.67-.88.35-.2,1.1.17,1.84.6,1.16.68,1.42,2,2.49,2.63.29.11.06-.14-.07-.35-.07-.12-.23-.43-.38-.67-.34-.52-.81-1-1.29-1.55-.22-.25-.12-.24-.34-.46-.36-.35-1.11-1.19-1.77-1.96-.66-.78-1.21-1.52-1.2-1.83,0-.3-.06-.25.4-.44.21-.09.52.04.43-.31-.21-.82-1.4-1.29-2.11-1.98-.14-.13-.43-.59-.65-.82-.46-.49-.88-.73-.45-1.02.08-.05.51-.09.45-.21-.27-.5-1.46-1.21-2.32-1.79-.41-.28-.8-.52-1.13-.77-.34-.25-.58-.53-.87-.69-.6-.33-1.64-.57-2.38-.88-.18-.08-.1-.21-.3-.26-.53-.17-1.12-.41-1.86-.74,0-.56.38.12.37-.61,0-.27.23-.33-.57-.42-.51.08-.01.47-.11.69-.81-.03-.87-.52-1.38-.79-.37-.19-1.76-.4-1.85-.69-.1-.31.28-.11-.31-.34-.23-.08-.46-.12-.78-.24-.66-.25-1.39-.89-2.22-1.28-.21-.1-.64-.14-.78-.24-.12-.08.03-.3-.08-.38-.09-.07-.86-.11-.63-.67.34-.21.92-.05.97-.06.15-.03.39-.29.68-.27.52.04,1.1.69,1.67.99.14.08.36.06.52.16.29.18.75.47,1.12.71l-.94.19c-.22.47.92-.1,1.46-.03-.31-.04,1.04.42,1.07.45.12.09.41.73.89.75.91.04-.05.08.57.42.16.09.48.12.78.24.33.13.62.4,1.1.58.05.02.24.21.29.21.87.04.04.03.57.42.07.05.44,0,.5.03.21.13.35.36.58.46.35.15,1.11.18,1.54.37.25.11.3.38.6.56.19.12.6.2.8.33.19.12.09.29.05.26.15.11.38.03.51.11.64.42,1.22,1.09,2.05,1.69.48.34,1.21.63,1.68,1.02.22.18.23.5.38.66.4.42,1.21.96,1.78,1.54.4.41.6.9,1.01,1.36.08.08.5.22.55.29.28.37.41.77,1,1.29.29.26,1.05,1.16,1.57,1.71.47.48.92,1.22,1.64,2.04.68.78,1.1,1.05,1.27,1.44.18.42-.31.81-.24,1.23.18,1.05,1.86,2.98,2.87,4.5.14.21.22.56.41.82.2.27.65.83,1.01,1.38.37.55.92,1.44,1.44,2.3.23.38.2.54.42.89.18.28.66.91,1.03,1.51-.27.2-.61.38-1.03.46-1.13.23-2.57,0-3.82.04-.57-.84,1.34-1.22-.17-2.17.07.33-.69.73-.99,1.18-.21.34-2.74,1.32-3.56,1.94-.17.13-.38.52-.52.6-.42.22-2.06.43-2.94.84-.59.27.08.87-1.9,1.12-.06,0-.15-.42-.22-.44-.13-.04-2.02.1-2.33.23.32-1.5,2.31-2.45,3.22-3.59-1.18-.61-2.4.64-3.67,1.23-.62.3-.99.77-1.78,1.1-.35.14-.78.24-1.2.34-.3.07-.22.06-.24.09,0,.02-.01.05-.01.11,0,.13.05.32.07.48.04.29.07.64.14.95.09.47.36,1.24.33,1.16,0,0-.1-.24-.2-.46-.11-.22-.2-.42-.21-.43-.16-.34-.17-.41-.35-.91-.36-1.04-.21-.53-.23-.93,0-.05-.11-.41-.11-.47-.02-.21,0-.3,0-.49-.02-.44-.09-1.1-.04-1.46.01-.09.03-.16.05-.22l.04-.09.39-.15c.54-.2,1.06-.41,1.44-.66.29-.19.46-.61.77-.89.26-.23,1.2-.5.68-.87-1.12-.26-1.62.51-2.4.98-.16.09-.35.21-.56.33-.1.06-.21.13-.32.2l-.17.1s-.02.05-.03.08c0,.04-.04.17-.05.25,0,.07.06.46.06.48-.02.13-.16-.09-.18.04-.01.07.08.46.08.47-.04.15-.11.11-.14.27-.02.15-.02.33-.04.5-.02.29-.13.26-.04.74.04.18.19.58.22.69.08.35-.06.22,0,.49.09.32.28.73.47,1.13.05.09.22.39.25.44.06.11-.11-.12-.04,0,.16.3.79,1.14.75,1.07-.01-.03-.53-.6-.56-.62-.37-.39-1.1-1.25-1.51-1.9-.64-1.01-.77-1.61-.93-2.51-.04-.21-.14-.52-.15-.7-.02-.25.08-.31.06-.5-.03-.26-.33-1.3.05-1.23Z"/><path class="cls-3" d="m240.22,517.87c.26-.11-1.06-.04-2.5-.08-1.44-.03-3-.17-3.25-.18-1.11,0-1.85.74-3.55.59-1.08-.12-1.96-.35-3.12-.71-.58-.17-1.22-.39-1.99-.65-.66-.22-1.22-.4-2.04-.62-2.46-.66-5.13-.66-8.34-1.36-1.5-.32-3.42-1.16-5.59-1.68-.02,0-.53-.13-1.09-.27-.55-.14-1.15-.28-1.36-.31-.26-.04-.75.23-.94.18-1.22-.29-2.73-1.07-3.94-1.36-1.54-.36-2.69-.31-4.17-.68-.37-.09-1.88-.39-1.65-.32-.62-.2-.71-.55-1.5-.77-2.08-.57-5.5-1.2-8.98-2.08-3.5-.89-6.44-1.78-10.47-2.85-1.05-.28-2.28-.29-2.52-.36-1.35-.41-2.61-1.22-3.86-1.59-3.21-.94-8.95-1.96-12.76-3.9-.92-.47-.89-1.41-1.97-1.95-.14-.07-1.56-.51-1.58-.54-.18-.53,6.68-.61,8.11-.5,1.68.13,4.4.75,6.69,1.04.61.07.8.15,1.65.32.06.01,1.56.3,1.65.32.93.08,1.03-.48,1.89-.36,1.53.2,3.43.99,4.88,1.18,1.27.16,2.27.06,3.46.18.66.07,1.7.5,2.44.59.28.03-.11-.47.16-.45.3.02,1.24.51,1.58.54,2.53.3,4.94.61,6.85.59-3-1.67-6.04-1.94-8.82-2.54-4.47-.97-8.38-1.82-13.94-3.03-1.6-.35-3.02-.58-5.75-1.22-2.66-.62-5.05-1.03-8.19-1.81-.46-.11-1.07-.06-1.65-.32-1.26-.54-.7-.31-3.23-.86-2.7-.58-4.51-1.92-3.47-2.72,1.2-.92,10.57,1.95,10.24.99-.58-1.64-9.65-2.73-11.26-3.13-.19-.05-.38-.1-.57-.14-.24-.07-.48-.14-.71-.2-.47-.14-.92-.28-1.36-.41-.87-.28-1.66-.57-2.35-.87-1.38-.61-2.32-1.31-2.9-1.69-.72-.48-1.27-.62-1.94-1.15-.8-.63-1.7-1.59-2.54-2.85-.43-.62-.86-1.32-1.3-2.04-.22-.36-.44-.72-.67-1.09-.17-.27-.35-.54-.52-.81-.71-1.09-1.44-2.23-2.15-3.34l-.27-.41-.14-.22-.22-.39c-.29-.52-.54-1.06-.76-1.6-.45-1.08-.77-2.18-.97-3.25-.1-.52-.18-1.07-.23-1.66-.02-.29-.04-.59-.05-.89,0-.27,0-.55,0-.84-.04-.36-.03-.72-.05-1.09,0-.71-.02-1.49-.02-2.29,0-.74.01-1.5.02-2.26,0-.36.01-.71.02-1.06,0-.17,0-.34.01-.51v-.25s.01-.06.01-.06c-.01,0-.05,0-.07,0h-.16c-.66.04-1.25.06-1.79.08-.11-.38,1.03-1.01,1.09-1.55.03-.52.61-.86,1.58-1.15.96-.29,2.29-.58,3.65-.94.15-.04.3-.08.44-.12.13-.03.11.06.18.08.1.07.2.12.32.14.08-.1.16-.26.24-.47.04-.1.07-.22.11-.34-.02-.08-.19-.05-.29-.07-.44-.05-1-.07-1.46-.07-1.31,0-1.61.3-2.27.33-1.59.07-3.22-.04-4.97.03-.6.02-1.15.23-1.86.24-.51.01-.87-.02-1.2-.04-.39-.03-.75-.05-1.18-.08-1.87-.08-3.66-.08-5.32-.25-2.27-.3-4.73-1-6.95-1.45-.49-.09-1.03-.18-1.61-.28-.58-.12-1.19-.24-1.82-.37-1.25-.26-2.54-.5-3.63-.79-1.22-.33-2.64-.58-3.9-.94-1.27-.35-2.41-.7-3.13-1.04-3.13-1.61.28-.47-1.36-1.42-2.94-1.38-.07.75-3.72-.73-.44-.2-1.17-.59-2.03-1.09-.43-.25-.89-.52-1.37-.82-.46-.32-.94-.65-1.42-.98-.95-.68-1.9-1.32-2.65-1.95-.75-.62-1.35-1.14-1.67-1.45-.42-.42-1.45-1.48-1.83-2.18-.93-1.61,1.34-1.33.17-3.2-.23-.38-.65-.85-1.18-1.4-.5-.57-1.1-1.24-1.74-1.97-.57-.64-1.28-1.55-2.18-2.53-.9-.99-1.87-2.18-3.17-3.23-1.34-1.14-.54.02-1.97-1.74-.32-.44-1.49-1.63-2.77-2.92-.32-.32-.64-.65-.96-.98-.29-.35-.58-.69-.86-1.02-.54-.66-1.03-1.24-1.37-1.66-1.24-1.46-1.94-2.87-3.02-4.44-.27-.39-1.12-1.05-1.31-1.34-.45-.7-.75-1.73-1.17-2.45-1.94-3.13-4.27-9.02-5.78-14.27-.13-.46-.75-1.34-.85-1.68-.48-1.61-.59-3.78-1.1-5.31-.41-1.44-.39-3.07-.83-6.19-.11-.88-.55-2.07-.63-2.62-.51-4.28-.42-8.88-.51-14.72-.03-1.12-.33-2.2-.37-3.38-.22-6.79.11-14.02,1.81-14.75.33-.14,1,.35,1.67,1.64.51.97.99,4.95,1.65,1.66.73-3.5.57-11.42-.22-17.14-.18-1.43-.54-2.02-.88-3.98.06.3.31-.49.14-.83-.44-.88-.95-3.36-1.57-6.13-.6-2.66-1.49-5.5-2.33-7.36-.07-.15-.25.02-.49-.61-.12-.35-.18-1.05-.04-.78-.97-1.75-1.71-2.25-2.57-3.63-.79-1.27-2.08-3.37-3.23-4.73-1.83-2.12-3.95-3.79-6.11-5.24-2.17-1.46-4.41-2.68-6.64-4-1.11-.63-1.69-1.12-2.56-1.63-.42-.26-.95-.51-1.63-.79-.28-.13-.9-.31-1.51-.49-.61-.2-1.32-.37-2.15-.52-.44-.09-.87-.16-1.32-.19-.44-.18-.88-.35-1.31-.55-.43-.18-.84-.38-1.25-.64-.01,0-.26-.18-.63-.44-.37-.25-.87-.59-1.37-.89-1.02-.64-2.1-1.18-2.54-1.41-.32-.12-.42-.17-.46-.19-.06-.04-.11-.08-.15-.12-.03-.04-.1-.05-.06-.15.03-.16.07-.3.12-.42.1-.24.22-.39.36-.51.27-.23.55-.3.77-.5.22-.2.39-.54.48-1.32.08-.77.1-1.97-.19-3.93-.1-.63-.31-.96-.51-1.4-.09-.24-.16-.52-.21-.9-.12-1.07.02-3.43-.09-4.5-.14-1.45-.6-2.4-.6-2.84-.11-2.62.18-6.71.15-9.51,0-.53-.33-1.01-.34-1.46,0-.44,0-.91.03-1.42.01-.25.03-.51.04-.78,0-.13.02-.27.02-.4.01-.06-.01-.16.03-.18h.18c.98.03,2.05.08,3.14.07,1.17,0,2.2-.14,3.6-.12.87,0,3.2.37,2.94.37,3.44.22,3.86-.37,6.86.57.82.41,1.13.83,1.07,1.24,4.96,1.97-2.54-1.2,1.96.53,1.21.47,1.56.84,2.84,1.36.66.6-1.22.12-1.99.38-.52.17-.36.85-.96.97-1.36.23-4.36-.27-4.07.14.85,1.22,3.07,1.82,5.54,2.32,2.44.49,5.27,1.03,6.42,1.35,4.61,1.29,8.47,2.96,13.29,5.56.6.33,1.22.65,1.86.98.63.35,1.28.72,1.96,1.1,1.38.74,2.78,1.71,4.38,2.84,1.03.83,1.47,1.22,2.05,1.65.6.41,1.81,1.53,3.16,2.82.7.63,1.34,1.36,1.99,2.05.63.7,1.27,1.34,1.76,1.94.83,1.03,1.91,2.34,2.73,3.5-.09-.14.55.13.67.63.4,1.81.94,1.48,2.04,2.94.58.82.96,1.55,1.4,2.39.22.42.45.86.71,1.37.24.51.52,1.08.88,1.74.21.38,1.03,1.19,1.16,1.45.47.84.8,1.78,1.19,2.75.38.97.78,1.99,1.2,3.07.3.91.62,1.91.95,2.92.33,1.02.67,2.05.92,3.07.42,1.49.81,2.91,1.2,4.3.32,1.37.69,2.72.97,4.13.62,2.81,1.14,5.84,1.53,9.59.03.3-.12,2.08.02,3.48.5,4.21.3,11.79-.09,14.62-.4,3.1-.52,3.47-1.04,5.07-.61,1.9-2.52,2.17-3.12-.07-.12-.44-.3-2.28-.43-2.52-.3-.55-.87.3-1.2-.02-.17-.17-.51-1.97-.7-1.67-1.01,1.62-.68,8-.53,11.64.18,3.88-.11,7.94.67,10.85.18.84.42,7.02.94,9.92.19.97.47,2.07.79,3.21.18.66.13,1.77.34,2.41.09.27.57.52.63.7.18.58.28,1.4.47,2.23.2.83.41,1.7.65,2.41.53,1.24,1.09,1.77,1.52,2.78.34.65.52,1.16.7,1.71.09.27.18.56.3.87.14.3.31.63.52,1,1.12,2.19,3.49,4.44,5.5,6.6,1.01.96,1.94,2.08,3.05,3.07.54.51,1.08,1.02,1.61,1.53.56.48,1.13.92,1.69,1.36.96.81,2.16,1.48,3.32,2.25.61.34,1.23.68,1.84,1.02.61.35,1.23.68,1.85.96.62.3,1.22.6,1.8.89.59.27,1.16.53,1.7.78,1.06.53,2.01.96,2.73,1.38.96.56-.09.63.44,1.18.54.6,2.45,1.39,1.97,1.91-.29.32-2.07.63-2.13,1.09,0,.07.96.54.66.71-.11.06-.85.18-1.67.24-.82.06-1.73.12-2.17.19-.77.11-1.1.24-2.01.24-1.66.01-2.51,0,.12,2.13.64.48,2.31,1.77,3.14,2.17.74.34,2.17.85,3.69,1.29,1.52.43,3.11.87,4.21,1.18,2,.63,3.27,1.14,4.37,1.39.3.07.62.13.94.2.42.07.84.14,1.28.21.88.14,1.81.3,2.78.45.97.16,1.96.24,2.99.37,1.02.11,2.07.25,3.11.31,4.2.36,8.45.44,12.08.55.71.02,1.38.01,2.01,0,.31,0,.62-.01.93-.02h.45s.22-.02.22-.02c.05.01.05-.02.05-.07v-.12c.14-1.26.25-2.43.42-3.54.78-5.17,1.64-10.59,2.42-16.21.26-2.34.53-4.7.8-7.07.2-1.93.39-3.86.59-5.78.69-7.68,1.17-15.16,1.07-21.5-.02-1.93.38-4.03.52-7.5.14-3.71-.04-7.32.09-10.9.1-2.84.51-5.61.55-8.33,0-.6-.18-.93-.09-1.69.04-.28.32-1.24.31-.81.02-2.52-.33-3.24-.26-5.05.2-4.7,1.1-17.19,1.4-18.3-.03.13.55-.79.55-.79-.06.16.48-.85.31-.81.38-.09.4,2.02.57,1.72,1.69-2.9,2.07-17,1.92-22.43-.12-4.26.69-13.38,1-20.83.29-6.85.01-12.85.63-16.68.4-2.53,1.9-4.61,2.21-6.51.71-4.37.37-9.47.71-14.99.08-1.32.44-2.79.57-4.13.27-2.89.62-10.65,1.19-14.95.52-3.9,1.63-7.49,2.12-11.53.37-3.01.66-6.58.95-10.41.36-4.77.74-9.87,1.11-14.93l-1.5-1.88c-1.48-1.87-2.97-3.76-4.46-5.66l-.07-.1-.48-.62-.96-1.24-.26.93c.14-.49.28-.97.43-1.45.28-1,.56-1.99.83-2.96.26-.11.5-.22.75-.33.19-.09.37-.18.56-.27l.28-.15.07-.04.3-.13.61-.26c1.62-.71,3.26-1.39,4.88-2.13.57-.77,1.15-1.56,1.76-2.35.31-.39.61-.79.93-1.19.29-.35.59-.71.89-1.07,2.69-3.22,5.83-6.24,8.96-8.92.77-.69,1.55-1.34,2.33-1.96.78-.62,1.53-1.27,2.29-1.85,1.54-1.14,2.95-2.34,4.33-3.33,1.16-.87,2.2-2.12,3.61-2.93.78-.48,1.54-.9,2.33-1.31.8-.38,1.63-.72,2.5-1.1,1.73-.83,3.74-1.52,6.22-2.7.87-.34,1.78-.69,2.73-1.06.95-.37,1.93-.8,2.97-1.06,1.04-.31,2.1-.64,3.18-.97l.2-.06c.06-.02.13-.04.29-.08.28-.07.55-.15.83-.23.55-.17,1.09-.37,1.62-.61,1.06-.47,2.06-1.06,2.99-1.77.46-.35.91-.73,1.32-1.14.21-.2.41-.41.61-.63l.29-.33.23-.27.62-.77.42-.52c.26-.32.49-.66.71-1,.86-1.39,1.4-2.96,1.56-4.62.03-.42.06-.83.04-1.26,0-.21-.02-.42-.04-.64l-.04-.32-.02-.15h0c-.04-.12-.11-.37-.2-.55-.94-1.41-2.02-2.75-2.99-4.1-.89-1.21-.76-2.37-.36-3.56.32-.87.89-1.61,1.63-2.01.74-.38,1.52-.74,2.41-1,.81-.24,2.05-.18,2.88-.38,2.56-.6,4.98-1.26,7.69-1.23,2.23.03,4.53.43,6.71.79.62.09,1.24.21,1.85.33.62.11,1.23.24,1.83.39.61.14,1.2.27,1.8.45.79.21,1.63.53,2.47.59.09-.01.12-.04.19-.05h.04s0-.01,0-.01h0c-.09.32.13-.44.1-.36h0s0,0,0,0h0s0-.01,0-.01c.01-.03.01-.02,0,0l-.02.02s-.12.12-.13.12c-.02,0,.05-.03.12-.03.01,0,.09,0,.08,0h.01s.01,0,.01,0h0s0,0,0,0c-.11-.02.24.04-.24-.04h0s0,0,0,0h-.01s-.02.02-.02.02l-.2.1s-.09.14-.14.23c-.06.11-.12.23-.18.36-.13.26-.3.52-.46.79-.28.51-.52,1-.71,1.27-.06.08-1.01.88-.97.8-.36.73-.91,2.59-1.77,4.36-.26.53-.54,1.08-.83,1.67-.15.29-.3.59-.46.89-.15.3-.22.58-.3.9-.3,1.29-.07,2.89.58,4.17.31.66.76,1.2,1.16,1.76.39.56.81,1.09,1.26,1.54.89.9,1.77,1.56,2.5,1.99.39.23.88.48,1.49.71.65.23,1.38.5,2.17.78.79.27,1.64.57,2.51.87.44.15.88.3,1.32.45l1.41.45c1.18.4,2.32.82,3.38,1.23.44.17.87.34,1.29.51.24.09.37.17.52.25l.44.25c.58.33,1.14.64,1.66.95,1.03.63,1.92,1.18,2.56,1.81,1.3,1.2,1.79,2.16,1.06,2.78.13-.11-1.05.28-1,.29-.41-.05-1.66-.79-2.09-.83-1.23-.05-1.7.34-2.51.2-.25-.04-.82-.29-1.46-.55-.16-.07-.33-.13-.49-.2-.17-.07-.29-.13-.64-.22-.59-.17-1.16-.31-1.65-.41-.52-.11-.97.15-1.42.05-.64-.15-1.82-.66-2.41-.77-.27-.05-.52-.09-.71-.1-.65-.06-1.15-.06-1.73-.07-.58,0-1.1-.1-1.92-.29-1.22-.29-3.66-1.38-4.95-1.81-.6-.2-1.31-.42-1.91-.67-.57-.25-1.15-.54-1.7-.85-1.1-.62-2.06-1.32-2.75-1.74-.68-.43-1.05-.58-.89-.17.17.38.84,1.4,2.39,2.86.4.37.98.74,1.66,1.15.81.39,1.78.84,2.83,1.43,1.29.73,2.43,1.36,3.49,1.95.53.29,1.02.58,1.55.83.61.2,1.21.4,1.8.59.68.25,1.36.48,2.06.7,1.41.43,2.75.75,4.1,1.07.32.08.65.15.97.23.16.04.32.09.49.14.33.09.67.2,1.02.33,1.01.37,1.89.72,2.77,1.16.88.46,1.77.91,2.87,1.33,2.05.83,1.47.52,3.75,1.94.92.55,1.7,1.06,2.59,1.51.88.46,1.85.95,3,1.78.63.45,1.27.9,1.92,1.36.62.5,1.24.99,1.86,1.49,1.26.97,2.45,2.06,3.71,3.06,2.62,2.2,5.25,4.35,7.72,6.9.68.71,1.43,1.62,2.15,2.47.72.87,1.46,1.76,2.21,2.67,2.33.85,4.72,1.73,7.11,2.61-.07-.07-.12-.15-.12-.23.05.08.09.15.13.22.22.35.66.58.91,1.04.09.16.16.32.22.48l.09.24s.05.14.02.07l-.07-.16c-.18-.41-.37-.84-.51-1.3-.03-.12-.07-.24-.12-.42-.2.33-.42.75-.65,1.22l-.09.18s-.14.22.06,0c.26-.26.52-.51.77-.76l.19-.18s-.08.12-.11.17c-.1.14-.19.28-.29.42-.19.28-.37.55-.54.81-.18.26-.38.55-.6.86-.11.15-.23.31-.35.48l-.05.06c-.46.55-.91,1.09-1.38,1.64l-.15.2c-.1.13-.21.27-.31.4-.85,1.08-1.8,2.29-2.85,3.62.16,1.45.35,3.16.55,4.95.33,3.1.75,7.03,1.18,11.14l1.72,16.24,12.83-9.28c2.73-1.97,5.95-3.76,8.6-5.16,1.26-.66,2.12-1.32,3.26-1.81,1.4-.6,3.35-1.12,5.01-1.64,3.03-.98,6.34-2.15,8.87-2.62.55-.1,1.37-.21,2.38-.3.5-.05,1.04-.1,1.61-.15.55-.04,1.12-.08,1.71-.13,2.36-.16,4.93-.32,6.97-.63.56-.1,1.33-.16,2.25-.15.93-.02,2,.05,3.17.13,2.32.2,4.98.62,7.47,1.15,1.39.33,1.91.25,2.81.53.75.21,1.57.55,2.36.93.8.35,1.55.75,2.22,1.01,1.08.39,1.79.34,2.77.77.67.34,1.27.76,1.86,1.15.57.42,1.12.85,1.71,1.19,1.82,1.13,3.54,2.3,5.13,3.53,1.58,1.25,3.02,2.58,4.28,3.97,1.66,1.87,3.19,4.3,4.73,7.1,1.12,2.01,2.29,4.34,3.17,6.69.45,1.17.81,2.34,1.11,3.46.24,1.13.44,2.2.59,3.14.17,1.14.06,2.61.02,3.83-.1,1.23-.38,2.23-.52,2.52-.41.76-1.68.24-1.89.72-.25.73-.73,2.32-1.06,3.77-.24.68-.44,1.26-.64,1.82-.21.55-.29,1.12-.53,1.72-.21.61-.41,1.29-.61,2.14-.25.84-.61,1.8-.96,3.04-.08.18-.2,1.01-.52,1.73-.14.29-.36.73-.59,1.05-.25.31-.44.53-.41.45-.45.89-.34,1.55-.77,2.33-.34.53-.72,1.04-1.08,1.53-.18.25-.35.5-.52.73-.19.22-.38.44-.54.67-.6.78-.94,1.8-1.68,2.6-.51.58-1.21,1.18-1.79,1.72-.77.69-1.39,1.68-2.16,2.33-1.93,1.65-3.99,2.64-5.91,3.99-.34.22-.86.87-1.03.97-.22.13-.47.25-.72.36-.25.11-.5.22-.91.37-.73.28-1.47.55-2.12.85-1.13.53-2.13,1.24-3.14,1.86-.66.4-1.84.75-2.48,1.14-.26.16-.43.71-.61.81-1.93,1.19-4.54,2.41-6.33,3.66-1.12.73-2.3,1.58-3.48,2.55-1.19.94-2.41,1.91-3.58,2.95-.6.5-1.19.99-1.77,1.48-.58.5-1.15.99-1.71,1.46-1.13.93-2.24,1.76-3.27,2.5-.82.19-.27-.39.42-1.03.68-.66,1.55-1.27,1.21-1.38-.88.53-1.39,1.02-1.89,1.5-.5.48-.99.94-1.78,1.5-1.69,1.22-1.95.72-3.37,2.1-.34.35-.72.75-1.07,1.22-.35.47-.7.98-1.04,1.49-.68,1.03-1.37,2.02-1.88,2.83-.9,1.35-1.98,2.71-2.92,4.27-.48.77-1,1.53-1.46,2.35-.22.41-.44.83-.66,1.25l-.7,1.37c-.38.73-.72,1.55-.99,2.36-.28.8-.56,1.59-.84,2.39-.26.79-.59,1.57-.79,2.37-.21.8-.43,1.6-.67,2.42-.19.65-.4,1.32-.6,2-.22.68-.31,1.38-.47,2.1-.27,1.42-.65,2.92-.88,4.43-.47,3.02-.74,6.15-.83,9.23-.07,3.07-.08,6.16-.06,9.24,0,.78.02,1.54.02,2.3,0,.39.01.77.02,1.15v.57s.01.29.01.29v.14s.08,0,.11.01c1.34-.04,2.65-.08,3.9-.12,1.79-.04,2.12.23,3.98.27,1.48.03,3.03-.04,4.52-.1,1.52-.09,2.8-.01,4.35-.27,4.55-.48,7.19-.17,11.54-.63.98-.1,2-.23,3.07-.37,1.04-.15,2.11-.3,3.21-.46,1.36-.18,2.77-.39,4.2-.62,2.86-.45,5.78-.95,8.46-1.26,1.34-.15,2.92-.09,4.19-.27,3.3-.48,6.42-1.25,9.84-1.79,3.96-.62,8.67-1,13.25-1.67,2.07-.31,4.24-.71,6.36-1.09,1.06-.18,2.1-.36,3.1-.53.24-.04.48-.07.71-.11h.16c.11,0,.21.01.31.03.32.06.59.31.78.58.19.27.3.56.45.66.13.08.31.1.55.08-.39-2.08-.82-4.41-1.27-6.83l-.08-.46-.04-.23-.02-.11v-.06s.04.27.04.27c.31,1.7.62,3.41.93,5.12l.47,2.57.12.64c.04.16-.01.05-.02.07l-.05-.03-.2-.12c-.26-.18-.52-.39-.76-.64-.98-.97-1.59-2.6-1.49-4.09,0,.1.28-.28.45-1.06.1-.44.26-.85.48-1.23.05-.09.11-.18.17-.27l.09-.13.05-.06.02-.03v-.02s.03.11.03.11c.21,1.19.42,2.38.63,3.6.21,1.21.43,2.44.65,3.68l.16.93.04.23.02.09v-.02s-.02-.08-.02-.08l-.07-.34c-.09-.45-.18-.91-.28-1.38-.37-1.87-.74-3.87-1.09-5.88-.54.12-1.08.36-1.57.47-.09.02-.17-.03-.24-.09-.03-.03-.07-.05-.1-.07h-.03s.01-.02-.1,0c-.16.03-.33.06-.53.09-2.07.42-4.09.79-6.56,1.19-1.59.26-2.83.78-4.05.98-3.79.62-6.4,1.07-10.66,1.94-1.46.3-2.47.18-4.14.51-.77.15-4.53,1.04-7.34,1.58.2-.04-.33.46-.78.39-2.26-.38-6.58,2.1-9.67,2.73-2.3.47-4.47.33-7.51.63-7.45.73-18.83,2.82-29.64,4.65-1.81.31-5.85,1.49-6.64.72,7.82-1.19,15.83-3.08,23.73-4.56,1.17-.22,2.92-.26,4.14-.51,1.79-.36,3.18-.99,4.83-1.37,1.28-.29,2.41-.17,4.14-.51.8-.15,1.75-.57,3.24-.83,1.7-.3,3.38-.35,4.96-.66,6.28-1.21,12.95-3.02,18.73-4.13.83-.16,2.5-.55,3.28-.6.71-.05.56.36,1.73.17.99-.16,1.07-.64,1.55-.77,1.06-.28,1.48-.02,1.68-.06,3.79-.84,8.03-1.6,12.58-2.41.92-.16,1.85-.33,2.79-.5.04,0,.09-.02.13-.03.08-.03.15-.07.16-.15,0-.05-.11-.18-.23-.28.18,1.5.39,3.03.67,4.58.25,1.35.5,2.69.74,4.01l.1.49.05.25.02.12v.06s-.03-.23-.03-.23c-.29-1.61-.57-3.22-.86-4.82l-.43-2.39-.21-1.19-.11-.6c-.03-.19-.08-.48-.09-.35-.17.25-.33.53-.47.83-.56,1.19-.76,2.75-.46,4.21.29,1.47,1.06,2.76,1.96,3.6.23.21.46.4.69.56l.18.12.09.05h.01s-.01-.06-.01-.06l-.02-.13-.05-.27c-.12-.71-.25-1.42-.37-2.13-.25-1.41-.49-2.81-.74-4.21-.12-.7-.24-1.39-.36-2.08l-.09-.52-.02-.11v.03s.02.05.02.05l.04.2c.22,1.07.44,2.12.65,3.13.41,2.02.77,3.91,1.06,5.73l-.02.02c-.11.07-.43.63-.38.56,0-.02.18-.48.19-.52.01-.26-.07.01-.1-.47-.02-.16-.05-.38-.13-.56-.04-.09-.08-.17-.14-.23-.03-.03-.06-.05-.09-.07-.07-.01.06-.05-.38.02-2.28.34-4.73.94-7.38,1.34-1.97.3-3.87.31-5.82.57-5.3.71-10.38,2.01-15.57,2.83-1.77.28-3.75.28-5.83.57-3,.42-6.3,1.24-9.84,1.79-1.37.21-3.55.23-5,.42-.14.02-.28.04-.41.06-.24.04-.47.07-.69.11-.46.08-.89.15-1.31.22-.83.15-1.57.28-2.24.4-1.35.25-2.42.45-3.35.63-1.86.34-3.17.51-4.82.43-.19,0-1.13-.27-1.32-.25-1.84.2-5.5,1.18-7.14,1.3-.6,0-.27-.66-.83-.74-.31-.06-5.27-.54-6.48-.58-1.75-.07-4.89.23-8.03.26-.3,0-.59,0-.87,0-.03-.29-.01-.63-.02-.93,0-.61.02-1.19.03-1.76.03-1.11.07-2.15.1-3.26.08-2.18.14-4.52.11-7.98,0-.86-.3-1.13-.2-2.26.06-.73.23-3.02.6-5.73.21-1.35.4-2.8.71-4.2.31-1.4.6-2.73.82-3.85.19-1.23.56-2.52.84-3.82.15-.65.3-1.31.45-1.95.15-.65.31-1.3.57-1.91.32-.84.7-1.77,1.11-2.77.42-.98.83-2.09,1.38-3.09.45-.83.92-1.7,1.39-2.56.41-.81.91-1.57,1.36-2.34,1.26-2.26,2.57-4.18,3.71-6,.62-.87,1.21-1.7,1.78-2.51.29-.4.57-.79.85-1.18.3-.37.59-.72.88-1.08,1.16-1.41,2.28-2.72,3.52-3.79.61-.55,1.23-1.08,1.87-1.58.65-.48,1.33-.9,2.03-1.3.99-.56.9-.8,1.66-1.05.75-.24.17.19,1.05-.21,1.87-.82,3.25-1.94,5.6-3.64.46-.35.8-.87,1.46-1.23.22-.11.14.26.93-.28.76-.52,1.46-1.11,2.2-1.71.73-.61,1.49-1.2,2.34-1.69,1.7-1.01,3.48-1.93,5.21-2.69.86-.4,1.69-.79,2.49-1.17.8-.36,1.56-.7,2.26-1.06.7-.36,1.4-.81,2.07-1.25.39-.23.55-.4.76-.56.21-.16.42-.31.62-.42.39-.22.8-.43,1.22-.63.21-.1.43-.2.65-.3l.61-.36c.81-.49,1.68-.93,2.39-1.46.72-.6,1.41-1.22,2.09-1.82.62-.67,1.2-1.35,1.81-1.97.58-.61,1.19-1.32,1.93-2.19.5-.62.76-1.59,1.13-2.05.16-.21.33-.42.5-.63l.44-.66c.3-.44.61-.86.92-1.27.6-.85,1.06-1.76,1.53-2.61.87-.04-.37,1.57.49,1.56.3-.59.4-.96.39-1.2-.03-.25-.17-.38-.34-.46-.33-.15-.76-.14-.74-.62,1.59-3.04,2.5-6.7,2.96-9.62.21-.97.28-1.61.53-2.25.11-.32.25-.65.4-1.03.13-.39.24-.83.4-1.38.27-1.04.49-1.62.66-2.14.18-.52.43-.96.91-1.77.24-.41.99-1.24,1.02-1.49.04-.53-.16-1.38-.38-2.42-.2-1.05-.54-2.26-.86-3.53-.3-1.21-.44-2.52-.74-3.35-1.68-4.49-5.37-9.26-9.53-13.06-2.14-2.01-4.32-3.83-6.32-5.03-1.41-.82-3.2-1.36-4.34-1.89-.7-.35-1.34-.77-2.02-1.16-.66-.42-1.36-.82-2.15-1.12-1.88-.75-4.53-1.51-6.65-1.58-.78-.05-1.23.26-2.11.12-1.3-.16-3-.91-4.08-.91-2.59-.04-5.16.69-7.7,1.01-.84.11-1.73.22-2.66.31-.95.12-1.94.25-2.96.38-2.16.28-4.39.63-6.6,1.04-4.39.83-8.57,2.07-11.4,3.71-.65.4-2.72,1.15-4.84,2.2-2.14,1.02-4.31,2.35-5.54,3.42l-13.6,11.94-3.61-20.17c-.11-.63-.23-1.15-.37-1.52-.3-.83-.38-.89-.42-1.22-.02-.17-.03-.41-.05-.85-.01-.22-.02-.49-.04-.83-.03-.42-.06-.93-.09-1.54-.29-4.12-.68-7.47-1.18-10.94.56-.77,1.13-1.55,1.71-2.34.29-.4.58-.81.88-1.22l.45-.63.23-.32.11-.16.03-.04,1.31-1.56.33-.39h0s0-.02,0-.02l.02-.02c.76-1.19,1.06-1.48,1.38-1.71.16-.11.32-.21.55-.4.11-.09.26-.22.39-.35-.17.23-.37.5-.63.82-.04.05-.13.14-.24.28-.06.07-.13.14-.2.23-.04.04-.08.09-.12.13-.04.04-.11.12-.08.08.05-.1.11-.22.17-.36.12-.27.24-.57.3-.78.09.3.13.47.16.62.18.79.13,1.53.4,2.37-.26-.39-.32-1.2-.61-1.58.16.14.27.34.43.57l.13.17.07.08.04.04-.33-.1c-.94-.29-1.88-.6-2.82-.94-1.49-.53-2.71-1.11-4.4-1.87-.66-.91-1.48-2.02-2.59-3.36-.76-.93-1.2-1.34-1.85-1.93l-.12-.11-.06-.04-.13-.09c-.09-.06-.18-.13-.28-.21-.21-.16-.43-.36-.73-.64-.38-.35-.92-.98-1.47-1.6-.56-.61-1.13-1.22-1.52-1.56-.88-.77-2-1.52-2.94-2.2-3.08-2.09-7.74-6.17-13.45-9.28-1.19-.63-1.78-.66-3.17-1.36-1.1-.43-2.58-1.28-4.26-2.04-.84-.36-1.73-.74-2.63-1.13l-.34-.15-.17-.07-.38-.12-1.63-.49c-1.09-.32-2.18-.64-3.25-.96-.71-.2-1.45-.41-2.24-.64-.55-.13-1.1-.26-1.67-.4l-.43-.1-.36-.15c-.24-.1-.48-.21-.72-.31-.96-.43-1.96-.89-2.99-1.41-1.03-.52-2.09-1.08-3.17-1.7-.27-.16-.54-.31-.81-.47-.28-.16-.55-.33-.74-.51-.43-.36-.87-.76-1.31-1.19-1.28-1.22-3.53-3.92-3.57-4.06-.45-.66-.58-1.11-.66-1.47-.09-.37-.14-.66-.35-1.09-.82-1.7-1.08-2.7-1.3-3.55-.19-.86-.3-1.66-.19-3.07.01-.17.05-.81.13-1.36.08-.56.19-1,.27-1.07.76-.97,1.42-1.05,1.87-.78.24.13.37.37.55.59.21.21.36.46.45.7.07.19.03,1.13.2,2.2.15,1.06.49,2.16.69,2.5.62,1.14,1.67,1.44,2.86,2.71.54.64,1.77,2.11,2.49,2.59.7.51,1.25.74,2.1,1.21.4.21.79.41,1.2.59.2.09.4.17.61.26l.69.24c.92.31,1.84.62,2.75.9.91.28,1.8.54,2.67.77.43.11.86.21,1.28.32.4.1.92.15,1.35.22.23.03.47.06.64.08,1.6.25,3.02.42,4.31.55,1.07.1,2.07.2,3.02.29-.34-.23-.6-.43-1.05-.64-.54-.22-1.09-.43-1.66-.63-1.14-.41-2.33-.79-3.55-1.17-.51-.15-1.02-.29-1.54-.44-.47-.17-.93-.34-1.4-.5-.93-.35-1.85-.72-2.73-1.11-.44-.2-.89-.42-1.34-.66-.46-.24-.91-.49-1.29-.76-.8-.54-1.57-1.21-2.27-1.83-.97-.84-1.84-1.68-2.58-2.59-.79-.87-1.56-1.82-1.94-3.15-.31-1.04-.38-2.18-.17-3.17.06-.25.11-.47.22-.72l.39-.76c.26-.51.53-1.02.8-1.54,1.07-2.05,2.18-4.11,3.14-6.1.19-.4.39-.82.6-1.25.28-.46.6-.95.87-1.48.08-.19.12-.1.17-.11l.16.02h.02s1.95.35,1.95.35h0s-.01,0-.01,0c0,0,0,0,0,0-.03,0-.05,0-.07,0-.04,0-.05,0-.08.01-.11.03-.04.03.04-.06.02-.03.02-.02.05-.06,0,0,0,0,.02-.03v.03c-.21.67-.4,1.35-.6,2.01-.03.04-.02.09-.08.12-.34-.07-.63-.11-.92-.17-.65-.19-1.44-.41-1.92-.51-.43-.1-.86-.16-1.29-.22-.85-.14-1.67-.23-2.43-.38-1.56-.32-2.72-.86-4.24-.99-.53-.03-1.14-.06-1.76-.09-.62-.01-1.28,0-1.85.03-.67.08-1.23.39-1.91.46-1.17.09-2.57-.15-3.83.07-1.03.18-1.39.62-2.4.99-.58.22-1.21.4-1.86.61-.65.17-1.33.42-1.8.91-.48.48-.75,1.1-.77,1.73-.02.63.2,1.25.61,1.75.43.5.91.74,1.31,1.22.47.56.82,1.1,1.18,1.67.17.29.39.56.51.9.03.08.05.17.07.26l.02.13s0-.11,0,0l.04.42c.1,1.12.04,2.24-.15,3.32-.27,1.49-.72,2.73-1.27,3.83-.27.55-.58,1.05-.9,1.54-.17.23-.34.47-.51.7-.05.07-.07.1-.08.11l-.04.06-.08.12c-.21.32-.42.63-.65.97-.01.03-.08.11-.15.2l-.2.25c-.14.17-.28.33-.43.5-.3.33-.64.67-1.01,1-1.05.93-1.72,1.27-2.32,1.56-.62.27-1.16.5-2.16.94-.39.17-1,.44-1.75.71-.38.13-.79.27-1.24.4-.26.09-.39.16-.6.25-.77.33-1.59.67-2.21.84-1.04.31-1.36.02-2.13.34-1.31.55-2.13,1.24-3.23,1.65-1.21.47-2.03.61-3.43,1.21-.46.21-1.04.5-1.6.85-.56.36-1.12.73-1.58.97-2.21,1.1-4.39,2.2-6.52,3.54-1.29.91-2.29,1.85-3.57,2.77-1.17.88-2.62,1.61-3.74,2.59-4.08,3.34-8,7.88-11.4,11.21-.12.12-.32.32-.56.55-.06.06-.12.12-.18.18-.11.12-.22.23-.33.35-.21.23-.42.46-.63.69-.8.91-1.47,1.65-1.31,1.45-.61.76-1.09,1.47-1.54,2.17-1.04.57-2.05,1.11-3.4,1.7-.96.41-1.89.8-2.81,1.2-.12.07-.16.1-.24.13-.14.07-.3.11-.47.15-.22.64-.44,1.3-.68,1.99-.13.41-.25.83-.35,1.26.21-.63.42-1.28.64-1.92.31.35.63.69.94,1.03l.22.25s.1.12.08.09l-.05-.08-.21-.29c2.13,2.71,4.28,5.44,6.48,8.24-.59,6.41-1.19,12.99-1.8,19.61-.5,6.11-.41,10.58-1.26,15.77-.41,2.5-1.39,4.15-1.79,7.38-.24,1.92-.51,11.72-.71,14.99-.14,2.28-.45,5.17-.66,8.31-.34,5.03-.34,11.46-.82,13.31-.38,1.43-2.07,1.25-2.35,2.32-.36,1.36-1.1,13.64-.97,14.98.14,1.45-.22,3.44-.3,6.67-.03,1.17.24,2.36.2,3.36-.13,3.74-.65,7.98-.73,11.66-.05,2.41.19,4.5.15,6.71-.03,1.32-.29,2.82-.36,4.16-.1,2.2.14,3.87.05,5.03-.06.81-.54,4.89-.75,5.8-.01.03-.37,1-.73,1.99-.37.98-.76,1.98-.83,2.06-.85.92-.92-1.94-1.44-.13-.31,1.1-.78,4.54-.98,8.29-.09,1.69.34,2.2.34,4.22,0,.97-.43,3.26-.53,5.82-.07,1.56.16,2.67.1,4.2-.14,2.87-.69,6.2-.72,10,0,.39.32,1.45.32,1.71-.04,1.31-.32,2.82-.4,4.16-.1,1.62.12,2.87.06,4.2-.28,5.98-.76,11.2-1,16.71-.1,2.48-.07,5.06-.23,6.71-.21,2.02-.66,3.35-.8,4.97-.28,3.19-.01,4.04-.19,5.88l-.09.79-.14.98-.31,1.95c-.21,1.32-.46,2.57-.65,3.84-.36,2.42-.54,5.08-.92,7.8-.29,2.07-.97,4.84-1.35,7.49-.17,1.14-.21,1.88-.26,2.64-.63.08-1.32.1-2.56.07-3.44-.11-6.7-.58-10.52-.78-1.99-.17-4.31.04-6.38-.21-.95-.1-2.02-.22-3.16-.39-1.13-.21-2.34-.44-3.59-.68-.61-.12-1.29-.24-1.71-.36l-1.32-.33c-.88-.21-1.75-.42-2.59-.63-.82-.2-1.64-.31-2.42-.42-.78-.14-1.52-.27-2.15-.47-.87-.26-1.71-.6-2.56-.97-.85-.38-1.73-.73-2.69-1.17-2.65-1.12-5.7-2.66-5.21-2.33-1.34-.87-2.21-1.94-2.68-2.79-.47-.87-.51-1.61-.18-2.05.36-.48,1.93-.15,3.19-.29.73-.08.62-.42,1.2-.48,1.43-.2,1.58-.24,2.55-1.52.63-.83,1.46-.49-.95-1.97-.96-.67-1.28-.75-1.77-.88-.49-.12-1.16-.26-2.72-1.19-.45-.26-.89-.52-1.32-.81-.42-.31-.85-.63-1.28-.95-.43-.32-.88-.65-1.34-.99-.44-.36-.9-.73-1.4-1.09-.39-.28-.79-.57-1.2-.86-.4-.31-.8-.62-1.2-.92-.78-.62-1.59-1.18-2.13-1.79-1.17-1.29-1.68-2.33-2.48-3.3-1.51-1.5-4.2-4.85-5.66-7.03-.45-.71-.69-1.05-1.27-2.16-.47-1.06-.7-1.94-.93-2.8-.2-.87-.32-1.74-.64-2.8-.18-.54-.37-1.36-.66-2.22-.14-.43-.27-.88-.41-1.32-.11-.45-.22-.88-.32-1.28-.41-1.49-.74-4.08-.98-4.96-.23-.98-.88-1.7-1.1-3.33-.58-5.11.22-8.46-.31-13.44-.1-.96,0-1.81-.16-2.51-.05-.21-.44-.66-.45-.85-.11-1.24.36-1.52.32-2.48-.02-.59-.42-.63-.43-1.67-.03-4.13.1-8.38.54-11.23.45-2.85,1.25-4.34,2.71-2.84.19.2.47.47.74.82,0,0,.16.16.34.34.17.19.36.4.39.49.19.49.42,3.76.73,4.2.04.06.67-.9.96-.84.16.03.62,1.58.96.85.33-.71.05-1.37.24-2.54.04-.22.47-.71.47-.85.17-2.21.05-8.12-.15-11.12-.1-1.86-.54-4.1-.83-6.83-.36-3.22-.72-6.96-2.07-11.91-.36-1.22-.74-2.98-1.2-4.24-.4-1.07-1.07-2.24-1.43-3.25-.29-.88-.64-1.73-1-2.57-.34-.84-.68-1.67-1.01-2.48-.68-1.61-1.45-3.1-2.09-4.5-1.44-2.72-2.7-4.92-3.67-6.14-.45-.59-.89-1.13-1.32-1.61-.45-.48-.91-.89-1.33-1.28-.86-.78-1.59-1.48-2.24-2.15-.09-.09-.45-.59-1.02-1.32-.56-.73-1.32-1.69-2.3-2.62-.55-.54-1.81-1.31-2.1-1.55-.94-.84-.98-1.4-1.67-1.95-.94-.76-.79-.21-2.38-1.17-.58-.34-1.11-.82-1.67-1.27-.57-.44-1.15-.88-1.75-1.21-1.03-.58-2.13-.97-3.14-1.37-.58-.25-1.91-.52-2.47-.76-.41-.18-.9-.51-1.39-.85-.5-.32-1.01-.64-1.45-.84-.42-.18-1.36-.26-1.67-.38-.67-.26-1.45-.64-2.23-1.02-.79-.36-1.6-.69-2.28-.91-1.61-.49-3.14-.83-4.55-1.05-1.25-.18-2.45-.35-3.69-.53-3.48-.56-6.1-.68-7.81-1.39-.98-.4-.43-.73-1.18-1.24-.47-.31-1.32-.36-1.72-.79-.81-.86-.69-1.7-.17-2.3.52-.58,1.36-1.04,1.47-1.48-2.05-.37-3.68-.34-5.07-.23-.7.05-1.34.14-1.97.22-.31.04-.63.08-.94.12l-.47.06h-.12c0,.05,0,.11,0,.16v.31c.13,2.69,0,5.17.15,7.29.23,3.09.84,5.36,1.18,7.37.13.76.05,1.57.16,2.24.05.27.14.51.24.74.08.2.16.39.2.58.1.49.04,1.57.17,2.07.15.57.23.66.31,1.02.04.18.08.42.12.81.13.32-.26,1.23.94.98.03,0,.15,0,.26,0,3.43.14,3.21.16,3.77,1.07.23.4-.35,1.18-.79,1.98-.4.78-.6,1.54.45,2.32.04.02.1.05.16.08.56.26,1.18.46,1.86.61.65.18,1.4.33,2.08.46,1.3.27,2.77.52,4.38,1.19.06.02.69.64,1.37.89.74.24,1.45.29,2.85,1.48,1.63,1.51-.35.75,1.14,2.65,1.9,1.2,3.52,2.52,4.97,3.9,1.41,1.42,2.72,2.82,3.9,4.33.38.43.72.77,1.07,1.11.34.34.73.66,1.06,1.14,1.34,1.77,2.48,4.27,3.6,6.87,1,2.35,1.89,4.8,2.6,7.58.7,2.84,1.33,5.96,1.76,9.59.03.2.41.78.38,1.62,0,.32-.29-.06-.17.84.16,1.31.52,1.98.69,3.26.11.82.41,4.29.49,7.91.1,3.61.04,7.36-.14,8.66-.04.29-.43,1.19-.53,1.65-.67,2.98-2.5,4.19-4.13,1.53-.75-1.2-1.05-1.31-1.31,3.28-.04.67.25,1.34.16,2.52-.08.88-.28,3.42-.16,5.92.19,3.11.65,5,.69,6.01.2,5.41-.83,2.87.24,6.95.38,1.55.8,4.37,1.36,7.56.59,3.19,1.41,6.75,2.49,9.72.3.79.61,1.57.91,2.37.16.39.32.79.48,1.19.19.39.38.78.57,1.18.78,1.58,1.49,3.26,2.52,4.97.4.72.83,1.58,1.25,2.42.41.84.94,1.6,1.35,2.2.74,1.03.55-.22,1.06.41-.06-.08.37.65.95,1.58.59.93,1.46,1.97,2.04,2.69.42.5.87,1.03,1.35,1.59.46.57,1.06,1.1,1.64,1.71,1.19,1.2,2.43,2.67,4.08,4.22,1.37,1.34,1.87,2.32,2.83,3.21,1.63,1.44,3.13,2.64,4.46,3.86,1.42,1.12,2.6,2.35,3.7,3.76.1.13.31.77.44.88,1.71,1.51.66.72,1.64,2.27.19.28,1.18,1.18,1.25,1.32.71,1.49-.87,1.63,1.21,3.24.56.4,1.67.97,3.07,1.64,1.4.67,3.16,1.3,4.94,1.98,3.62,1.22,7.49,2.25,9.63,2.73,1.15.28,2.09.52,2.9.72.81.18,1.49.34,2.1.48,1.23.28,2.24.44,3.62.44.98,0,1.57.11,2.38.26.81.13,1.83.32,3.66.5.32.04.65,0,1.07-.04.21-.02.44-.03.69-.04.23,0,.48,0,.77,0,.97.03,1.57-.18,2.07-.18,1.04,0,2.26.43,3.31.39.65-.01,1.46-.22,2.34-.25,1.15-.05,1.75.03,2.98-.02,1.17-.06,2.61-.24,3.68-.35.16-.01.31-.03.45-.04.03.08.01.19.02.27,0,.17,0,.32-.02.44-.13,1.15-.51,1.44-.64,2.35-.23,1.57-.07,3.81-1.37,5.18-.66.69-1.04,1.54-1.25,1.63-1,.44-1.1-.93-1.98-2.56-.03-.05-.24-.95-.55-1.55-.31-.62-.72-.94-1.05-.44-.68,1.01-.68,1.62-.51,2.39.17.75.5,1.71.56,3.01.02.56,0,1.26-.06,2-.03.38-.05.76-.08,1.15,0,.04-.04.79-.02,1.32,0,.56.06,1.12.13,1.67.16,1.09.43,2.14.8,3.09.19.48.39.93.61,1.36.11.22.23.42.34.62.12.22.17.25.25.38.6.86,1.17,1.55,1.66,1.96.62.51,1.04,1.31,1.56,2.28.64,1.19,1.42,2.81,2.69,4.22.19.27,1.57,1.32,1.64,1.34.53.5,1.2,1.19,1.96,1.77.75.58,1.56,1.05,2.23,1.25,1.3.37.8-.31,2.25.1,1.02.28,3.45.95,3.62,1,2.31.65,5.1,1.88,6.3,2.18,1.28.32.19-.53,1.02-.41.87.13,4.15,1.33,5.59,1.68.57.14,2.01-.2,4.88,1.18,1.6,1.73.23,2.04-2.36,1.72-.6-.07-.9.17-1.73-.09-.31-.1-1.1-.74-1.5-.77-.48-.04-.61.4-1.02.41-.95.03-3.94-.6-4.41,0,2.21.81,3.22.88,4.88,1.18.34.06,1.29.53,1.58.54.75.04.88-.3,1.81-.14,1.06.18,2.86.95,4.02,1.13,2.63.42,4.75.05,8.42,1.13,1.56.46,3.09,1.42,3.86,1.59,1.65.36,2.36-.05,4.33.23,1.29.18,14.11,2.95,17.72,4.85.01,0,.14.12.32.3.18.18.42.42.66.67.47.5.93,1.04.91,1.2-.07.56-1.23.04-1.81.14-.7.11-.25-.12-.08.23.58,1.16-2.28-.27-4.25-.45-.68-.06-1.11.59-1.97.59-.21,0-1.38-.3-1.65-.32-2.64-.14-8.17-1.35-11.73-1.77-1.59-.19-2.88-.08-4.33-.22-.81-.08-3.45-.85-4.17-.68-.14.03.07.48-.16.45-1.95-.26-4.81-1.31-6.54-1.49-2.13-.23-1.87.39-3.62.27.33,1.07,2.75.97,3.78,1.81-.29.27-2.38-.73-2.52-.36.79.72,2.8.92,2.52.36-.61-1.22,4.48,1.17,5.67,1.45.88.2.71-.18,1.73.09,1.27.34,2.68,1.03,3.94,1.36,2.28.6,5.17,1.05,8.19,1.81,2.04.51,10.81,3.56,12.84,3.67.48.03.4-.55,1.02-.41.88.2,2.74,1.06,4.73,1.63,1.95.56,4.08.53,5.83,1,1.04.27,2.95,1.37,3.86,1.59.95.22,1.59.2,2.52.36.51.09,1.66.45,2.44.59.35.06.65-.24.94-.18.44.09,1.16.47,1.58.54,1.01.17,1.48.25,2.19.4.79.18,1.84.42,4.01.92,1,.21,3.13.52,5.77.48,2.64-.03,5.78-.47,8.74-1.38.74-.22,1.47-.48,2.18-.75.34-.13.68-.27,1.01-.4.27-.12.54-.23.81-.34,1.07-.45,2.11-.85,3.05-1.19,1.89-.67,3.44-1.06,4.28-.93,2.22.33,1.76.8-1.66,2.86-.77.47-.94.32-1.5.77-.58.47-2.41.98-2.92,1.77,3.82-.92,6.96-2.95,9.93-4.44,1.39-.7,2.98-1.59,4.49-2.31,3.35-1.59,6.47-2.93,9.85-4.67,1.21-.62,2.51-1.5,3.7-2.04,1.15-.52,2.78-.84,3.94-1.36.58-.26,1.21-.91,1.42-1,2.15-.87,4.7-1.53,7.09-2.45.49.69,1.7.87,1.57,2,1.05-.45,1.91-.77,3.78-1.81.89-.5,1.09-.94,2.13-1.5,1.03-.56,2.82-1.05,3.86-1.58.89-.45,1.36-1.08,2.13-1.5,1.97-1.05,3.95-1.97,5.99-3.08,2.1-1.15,3.92-2.46,5.12-3.04.8-.38,3.43-1.06,4.73-1.63.12-.05.78-1.17,2.99-1.54,2.27-.38,2.38.29,2.12,1.04-.4,1.2-6.51,3.3-6.46,4.26.32.17.87-.21,1.58-.54.38-.18,1.53-.67,2.29-1.04,1.68-.82,2.85-1.61,4.41-2.54.7-.42.96-.4,1.49-.77.28-.22,1.21-.72,2.27-1.28.97-.54,2.12-1.14,3.21-2,1.1-.86,2.12-1.97,2.9-3.21.8-1.23,1.28-2.6,1.79-3.77.25-.59.49-1.15.72-1.64.19-.43.38-.81.57-1.14.41-.73.57-1.05.77-1.35.21-.33.47-.66,1.06-1.4.05-.04.15-.17.26-.3.34-.43.54-.57.78-.86.23-.29.53-.71.84-1.78.68-2.54.2-4.2-.35-5.51-.56-1.31-1.22-2.53-1.76-3.94-.22-.57-.81-2.88-1.18-4.01-.76-2.34-1.3-3.48-1.18-5.7.02-.42.36-1.06.22-1.72-.59-2.71-2.14-6.09-3.37-9.6-.58-1.66-1.13-3.2-1.64-4.82-.51-1.66-.95-3.65-1.38-4.87-.86-2.48-2.12-4.76-3.2-8.01-.26-.79-.28-1.81-.54-2.46-.71-1.73-1.7-5.66-2.66-8.1-.3-3.51.48,1.17.09-3.37-.15-1.71.08-1.79-.86-3.27-.53-.08.23,2.96.24,4.18-.91-1.1-1.25-4.28-1.95-6.51-.5-1.58-2.17-4.55-2.4-6.47-.26-2.08.26-.38-.51-2.47-.29-.79-.56-1.27-.99-2.42-.84-2.33-1.95-7.2-3.03-10.62-.28-.87-.77-1.65-.97-2.42-.17-.65-.09-1.83-.25-2.5-.13-.55-1-1.69-.97-4.95.29-.9.99.74,1.04.74.16-.02.3-1.38.63-.9.59.84,1.5,5.58,2.26,8.18.19.64.42.8.65,1.62.4,1.46,1.03,3.8,1.55,5.73l-.96.1c-.03,2.7.97.44,1.61,1.51-.36-.61,1.34,3.84,1.39,4.05.17.72.8,5.07,1.34,5.74,1.03,1.29-.01.47.85,3.27.22.73.6,1.33.99,2.41.43,1.19.9,3.2,1.52,4.87.06.17.38,1.56.43,1.63.99,1.22.05.2.87,3.26.11.4.48.44.57.77.32,1.17.64,3.13.97,4.09.5,1.48,1.35,2.42,1.94,3.97.33.9.57,2.74,1,4.07.28.85.75,1.5,1.03,2.39.27.83.28,1.85.22,1.65.22.75.4.23.59.76.9,2.65,1.88,6.63,3.02,9.66.67,1.74,1.5,2.96,2.15,4.72.3.82.51,2.5.74,3.24.6,1.93,1.65,4,2.46,6.3.59,1.61,1.06,3.83,1.69,5.56.12.32.53.45.62.72.06.18.11.37.17.56.07.27.14.54.21.82.14.56.29,1.13.44,1.72.29,1.17.55,2.39.73,3.64.09.57.17,1.9-.01,3.38-.16,1.49-.64,3.08-1.04,4.3-.13.32-.2.53-.26.73-.47,1.32-.71,2.15-1.08,3.3-.1.3-.16.53-.3.9-.17.45-.34.9-.51,1.36-.34.92-.69,1.87-1.08,2.78-.74,1.72-1.3,2.71-1.8,3.51-.51.79-.96,1.39-1.81,2.14-.7.62-1.73,1.27-2.91,1.81-1.18.53-2.49.95-3.72,1.3-.72.2-1.39.4-1.99.6-.33.12-.66.23-.99.35-.26.1-.52.2-.78.31-.52.21-1.04.45-1.55.69-1.04.49-2.07,1.03-3.08,1.59-2.02,1.15-4.01,2.28-5.79,3.3-.5.27-1.74.71-2.29,1.04-.58.35-1.69,1.08-2.92,1.77-1.25.68-3.3,1.78-5.2,2.81-.84.45-1.56.64-2.29,1.04-.94.53-3.17,2.11-5.2,2.81-1.99.68-3.76.75-5.75,1.22.3-1.09,3.99-2.36,3.23-3.4-.5.53-2.44,1.45-3.63,2.27-.89.61-6.35,2.99-8.27,4.12-.41.24-1.13.85-1.42,1-.86.44-3.71,1.29-5.44,2.13-1.14.56-.4,1.06-3.7,2.04-.1.03-.05-.45-.16-.45-.19,0-3.44.86-4.02,1.13.98-1.82,5.05-3.8,7.73-5.71-1.74-.28-5.14,1.94-7.72,3.17-1.31.63-2.15,1.33-3.7,2.04-1.37.62-3.27,1.17-4.65,1.86-.88.44-.81.62-1.42,1-1.16.71-4.27,2.15-5.99,3.08-1.29.7-2.58,1.48-3.84,2.18-.33.18-.59.33-.97.52-.55.23-1.09.46-1.63.65-1.08.39-2.15.69-3.18.88-.14.03-2.32.23-4.43.15-1.06-.03-2.09-.1-2.86-.18-.77-.08-1.24-.13-1.26-.14-.51-.37,2.09-.37,4.11-1.12,2.08-.76,2.23-.98,2.8-1.12.55-.19,1.54-.19,4.91-1.43.2-.08.41-.18.62-.3.19-.11.27-.19.41-.3.24-.2.47-.39.67-.49,1.31-.67,2.69-1.24,3.78-1.81,2.56-1.34,4.53-2.72,6.62-3.81,2.08-1.08,5-2.11,6.85-3.13.7-.38,1.27-.97,2.13-1.5.7-.43,3.05-1.32,2.13-1.5-2.47.34-4.21,1.64-6.14,2.63-.79.4-1.93.99-2.99,1.54-.22.12-1.13.56-1.5.77-.32.18-.48.65-.63.73-.83.41-2.32.67-3.15,1.09-.44.22-.47.65-.63.73-1.37.62-2.5.95-3.86,1.59-1.27.61-2.34,1.12-3.78,1.81-.25.13-.84.35-1.29.52-.47.18-.94.33-1.39.48-.91.29-1.8.52-2.68.72-1.77.41-3.54.72-5.64,1.01-1.55.21-2.59.58-3.95.59-2.05,0-4.11-.32-6.07-.79-.49-.13-.98-.24-1.46-.38-.45-.13-.9-.27-1.34-.4-.59-.17-1.17-.33-1.73-.45-2.68-.58-4.8-.85-8.27-1.58-.65-.14-2.12-.26-2.52-.36-1.48-.38-1.85-.79-3.15-1.09-2.95-.67-7.41-1.21-10.63-2.4-.63-.23-1.94-.87-3.1-1.45-.58-.3-1.12-.57-1.52-.78-.4-.21-.66-.35-.66-.35-.45-.64,3.28-.4,7.01.13,5.79.82,12.36,2.44,18.98,3.76,1.54.31,2.84.41,4.17.68.94.19,1.86.43,2.69.65,1.2.34,2.29.59,3.17.69,1.19.15,2.68.1,4.58,0,1.91-.1,4.22-.26,7.18-.56Z"/></svg>