<?xml version="1.0" encoding="utf-8"?>
<!-- Generator: Adobe Illustrator 27.3.1, SVG Export Plug-In . SVG Version: 6.00 Build 0)  -->
<svg version="1.1" id="Layer_1" xmlns="http://www.w3.org/2000/svg" xmlns:xlink="http://www.w3.org/1999/xlink" x="0px" y="0px"
	 viewBox="0 0 360 470.78" style="enable-background:new 0 0 360 470.78;" xml:space="preserve">
<style type="text/css">
	.st0{fill:#010101;}
	.st1{fill:none;stroke:#010101;stroke-width:20;stroke-miterlimit:10;}
</style>
<g>
	<g>
		<path class="st0" d="M559.42,161.63l-5.92-0.04c-4.06-0.03-7.75,2.35-9.4,6.06l-4.62,5.83c-1.49,3.34-1.08,7.22,1.06,10.18
			l7.19,9.9c1.91,2.63,4.96,4.2,8.21,4.22l0.59,0c3.25,0.02,6.32-1.51,8.26-4.11l7.31-9.81c2.19-2.93,2.64-6.81,1.19-10.16
			l-4.55-5.89C567.14,164.08,563.48,161.65,559.42,161.63z"/>
		<polygon class="st0" points="488.48,228.43 548.9,190.74 563.92,190.84 624.12,225.31 		"/>
		<path class="st0" d="M637.92,493.5l-9.79-258.77c0.07-3.57-1.38-7-4-9.42c0,0-134.62,3.12-135.64,3.12l-57.29-0.47
			c-1.44-0.01-1.98,1.16-0.8,1.69c22.42,10.1,41.38,60.63,48.58,102.54l-4.5,158.13l-6.45,34.94c1.33,3.91,4.13,7.13,7.81,8.98
			c10.81,5.44,40.23,11.74,64.43,17.29l7.33,1.53c3.41,0.71,6.92,0.78,10.36,0.2l7.39-1.24c24.4-4.61,60.62-10.49,71.63-15.51
			c3.75-1.71,6.67-4.82,8.15-8.67C645.11,527.84,640.62,501.71,637.92,493.5z"/>
	</g>
	<g>
		<polyline class="st1" points="716.06,205.34 595.34,343.08 746.82,343.08 		"/>
		<line class="st1" x1="706.15" y1="297.81" x2="706.15" y2="400.29"/>
	</g>
</g>
<g>
	<path class="st1" d="M212.05,81.46l100.52,0.33l-24.08,50.87c0,0,16.52,35.18,25.01,71.87c12.57,54.35-60.89,72.32-59.15-3.53"/>
	<g>
		<path class="st0" d="M143.12,464.78c-4.11-0.01-8.19-0.64-12.11-1.87l-33.1-9.14c-5.26-2.31-8.55-7.58-8.31-13.39l26.74-221.75
			c0.57-4.76,0.21-9.52-1.07-14.14l-19.59-70.63c-0.02-0.07-0.05-0.13-0.1-0.19L46.07,74.91l48.16-3.43
			c0.13-0.01,0.26-0.07,0.34-0.17l11.9-13.89l52.2-15.18c0.14-0.04,0.25-0.14,0.31-0.26c0.06-0.13,0.06-0.28,0.01-0.41l-8.7-20.75
			c-0.34-1.6,0.48-3.31,2.03-4.07l14.49-7.12c0.51-0.25,1.08-0.38,1.65-0.38s1.14,0.13,1.65,0.38l14.95,7.34
			c1.55,0.76,2.38,2.47,2.01,4.16l-8.67,20.67c-0.05,0.13-0.05,0.28,0.01,0.4s0.17,0.22,0.3,0.27l49.08,15.44
			c4.5,4.5,12.68,12.69,13.78,13.8c-0.08,1.22-0.07,5.28-0.01,19.78L224.4,205.76c-0.57,3.8-0.54,7.65,0.09,11.43l37.3,223.46
			c0.23,5.75-3.06,11.02-8.39,13.36l-32.9,9.07c-3.98,1.25-8.09,1.88-12.25,1.88L143.12,464.78z"/>
		<g>
			<path class="st0" d="M168.46,9.74c0.49,0,0.99,0.11,1.43,0.33l14.95,7.34c1.32,0.65,2.03,2.08,1.75,3.52l-8.66,20.66
				c-0.11,0.26-0.1,0.55,0.02,0.81c0.12,0.26,0.34,0.45,0.61,0.53l48.96,15.41c4.34,4.35,12.02,12.03,13.55,13.56
				c-0.06,1.17-0.05,3.72-0.04,9.61c0.01,4.63,0.03,9.25,0.03,9.9l-17.14,114.28c-0.58,3.85-0.55,7.75,0.1,11.59l37.29,223.4
				c0.2,5.56-2.94,10.59-8.02,12.85l-32.93,9.09c-3.91,1.23-7.98,1.85-12.08,1.85l-0.11,0l-65.03-0.18c-4.06-0.01-8.09-0.63-12-1.86
				l-33.01-9.11c-5.09-2.26-8.23-7.31-8.02-12.87l26.74-221.75c0.58-4.83,0.22-9.65-1.08-14.33l-19.59-70.63
				c-0.04-0.14-0.11-0.27-0.2-0.38l-48.88-58l47.18-3.36c0.27-0.02,0.51-0.14,0.69-0.35l11.81-13.77l52.05-15.14
				c0.27-0.08,0.5-0.27,0.62-0.53c0.12-0.26,0.13-0.55,0.02-0.82l-8.66-20.66c-0.28-1.43,0.44-2.87,1.75-3.52l14.49-7.12
				C167.48,9.86,167.97,9.74,168.46,9.74 M168.46,8.74c-0.64,0-1.28,0.14-1.87,0.43l-14.49,7.12c-1.75,0.86-2.69,2.81-2.27,4.71
				l8.7,20.75l-52.34,15.22l-12,14l-49.14,3.5l50.14,59.5l19.59,70.63c1.26,4.53,1.62,9.27,1.05,13.94L89.09,440.35
				c-0.24,5.98,3.2,11.49,8.68,13.9l33.08,9.13c3.97,1.25,8.1,1.89,12.26,1.9l65.03,0.18c0.04,0,0.08,0,0.12,0
				c4.2,0,8.37-0.64,12.38-1.9l32.97-9.1c5.48-2.41,8.92-7.92,8.68-13.9l-37.3-223.46c-0.62-3.73-0.65-7.54-0.09-11.28l17.15-114.35
				c0,0-0.08-20,0-20c0-0.01-14-14.02-14-14.02l-49.2-15.48l8.7-20.75c0.42-1.91-0.52-3.85-2.27-4.71l-14.95-7.34
				C169.74,8.89,169.1,8.74,168.46,8.74L168.46,8.74z"/>
		</g>
	</g>
</g>
</svg>
