<?xml version="1.0" encoding="UTF-8"?><svg id="Layer_1" xmlns="http://www.w3.org/2000/svg" width="327.53" height="551.15" viewBox="0 0 327.53 551.15"><defs><style>.cls-1{fill:#fee191;}.cls-2{fill-rule:evenodd;}</style></defs><path class="cls-1" d="m285.02,180.1l30.76-65-92.08-.3c0-.05,0-.08,0-.08,0-.01-14.94-14.96-14.94-14.96l-52.49-16.52,9.28-22.14c.45-2.03-.56-4.11-2.43-5.03l-15.95-7.83c-1.26-.62-2.73-.62-3.99,0l-15.46,7.59c-1.87.92-2.87,2.99-2.43,5.03l9.28,22.14-55.85,16.24-12.8,14.94-52.43,3.73,53.5,63.49,20.91,75.36c1.34,4.84,1.72,9.89,1.12,14.88l-28.54,236.65c-.26,6.38,3.42,12.26,9.26,14.83l35.3,9.74c4.23,1.33,8.64,2.01,13.08,2.02l69.39.2c4.52.01,9.02-.67,13.33-2.02l35.18-9.71c5.84-2.57,9.52-8.45,9.26-14.83l-39.8-238.43c-.66-3.98-.7-8.04-.1-12.03l18.29-121.93,58.43.19-20.66,43.65,2.13,4.55c.17.37,17.27,37.03,25.94,74.55,3.25,14.05.11,26.44-8.41,33.15-5.67,4.47-12.54,5.39-18.37,2.48-10.04-5.01-15.75-20.55-15.27-41.55l-21.33-.49c-.69,29.92,9.18,52.2,27.07,61.13,5.26,2.63,10.91,3.91,16.58,3.91,8.59,0,17.22-2.96,24.53-8.73,15.17-11.96,21.15-32.41,15.99-54.72-7.44-32.15-20.27-62.77-25.32-74.17Z"/><path class="cls-2" d="m220.67,275.81c.12.22-.07-.89-.16-2.12-.12-1.24-.26-2.47-.34-2.92-.12-.63-.39-1.13-.72-1.75-.3-.61-.49-1.32-.63-2.34-.16-1.31-.19-2.39-.27-3.83-.09-1.43-.17-3.23-.43-6.08-.16-1.84-.46-3.66-.74-5.81-.29-2.14-.62-4.46-.93-7.02.31-.13.65-.25,1.01-.37.1-.08.56-.08.91-.11.37-.02.74-.05,1.12-.07,1.99-.11,4.44-.16,7.12-.22,1.34-.03,2.74-.07,4.19-.1.36-.01.73-.02,1.09-.03h.28s.14-.01.14-.01c.05,0,.12,0,.03,0l-.58-.03c-.79-.05-1.58-.09-2.38-.14-.02,0-.13,0-.3-.02-.04,0-.09,0-.15,0-.03,0-.18,0-.07,0,.12,0,.25,0,.4,0,.58,0,1.36-.02,2.17-.04,1.63-.04,3.39-.07,3.98-.09.74-.03,1.86-.4,2.46-.41,1.86-.03,4.05.02,6.22.07l.81.02h.35s-.36,0-.36,0c-.47-.01-.94-.03-1.4-.04-.46-.02-.91-.04-1.34-.05-.22-.01-.43-.02-.64-.03.22,0,.44.02.65.03,4.51.16,7.8.01,12.45.21.59.02,2.05.07,3.29.11.31,0,.61.02.87.02.12.09.06.25.1.34.03.19.04.28.04.17.06,1.19-.2,1.78-.09,3.21.07.96.17,2.01.3,3.24.13,1.24.28,2.6.44,4.04.14,1.45.37,3,.6,4.63.24,1.63.43,3.32.75,5.05.08.41.15.82.23,1.23l.15.59c.1.38.17.78.29,1.14.21.73.42,1.46.63,2.2.24.71.48,1.43.74,2.18.26.75.6,1.45.92,2.24.37.79,1.09,1.46,1.16,1.64.21.5.39.93.52,1.43.13.5.3.92.54,1.26.16.22.32.47.51.71.2.2.41.42.63.64.09.09.24.26.29.29l.13.05c.09.03.17.06.25.08.32.11.53.17.63.59.04.2-.24,1.15-.05,1.4.02.04.32.06.32.09,0,.25-.42.96-1.17,1.44-.36.24-.78.4-1.17.51-.37.08-.71.11-.88.11-.36-.05-.85-.19-1.31-.47-.24-.13-.5-.27-.73-.44l-.37-.24c-.13-.09-.24-.13-.42-.3-.35-.31-.43-.45-.89-.94.01.07-.81-.99-.86-1.06-.55-.57-1.08-.23-1.52-.85-.39-.56-.79-1.23-1.1-1.98-.31-.75-.64-1.47-.99-2.07-.57-1.07-1.29-1.77-1.79-2.83-.28-.59-.49-1.67-.78-2.35-.11-.26-.35.32-.47.08-.13-.27-.17-1.33-.3-1.64-.25-.59-.48-1.18-.68-1.78-.11-.3-.21-.59-.31-.88-.12-.4-.23-.8-.35-1.19-.46-1.54-.79-2.9-1.2-4-.05,1.19-.03,2.3.05,3.36.06.53.13,1.05.21,1.57l.06.39.06.29.12.58c.16.77.4,1.51.64,2.23.24.71.45,1.43.7,2.1.77,2.19,1.53,4.2,2.54,6.17.96,1.99,2.16,3.98,3.74,5.88.23.27.45.55.67.78.2.19.41.38.64.59.43.43.99.85,1.7,1.39,1.42.99,2.86,1.49,4.7,1.7.27.04.62-.17.96-.05.74.19.45.19,1.84-.19.73-.22,1.36-.3,1.87-.13.49.14.89.55.87,1.2-.01.37-.4.82-1.04,1.22-.64.38-1.53.71-2.43.87-1.81.37-3.58.02-3.46.51.19.87,2.34,1.37,4.41.85,1.03-.24,2-.69,2.74-1.12.37-.22.69-.42.95-.62.26-.17.46-.32.59-.41,1.93-1.2,3.49-2.56,3.98-3.23.28-.45.28-.86.48-1.33.48-1.12,1.24-2.8,1.74-4.77.51-1.96.72-4.2.58-6.09-.14-2.19-.49-5.4-1.44-8.79-.25-.85-.47-1.7-.78-2.55-.15-.44-.29-.88-.44-1.31-.18-.51-.36-1.02-.53-1.52-.69-2.01-1.35-3.93-1.94-5.66.17-1.14,1.35-.35,1.78-1.38.5-1.18,1.32-.36,2.29.98.94,1.34,2,3.2,3.1,4.04.25-.31-.22-2.29-.6-3.52-.53-1.72-.97-1.59-1.29-2.43-.83-2.03-1.48-4.35-2.58-6.68-.37-.8-.93-1.36-1.38-2.38-.65-1.45-.84-2.22-1.38-3.3-.84-1.73-1.88-3.25-2.58-4.78-1-2.09-1.69-4.56-2.68-6.6-.9-1.77-2.33-4.38-3.41-6.34-1.22-2.2-3.03-4.82-3.53-6.27-1.08-3.23.73-.22.25-1.99-1.23-2.91-.75.54-2.59-2.8-.89-1.64-2.98-8.46-3.29-10.14-.1-.57-.24-2.03-.14-2.83.25-1.92,2.56-.78,2.73-3.1.15-.79-.58-2.95-1.27-5.24-.6-1.89-1.12-4.78-3.02-8.04-.09-.35-.19-.7-.31-1.07-.07-.25-.17-.44-.18-.59.03-.15.05-.27.05-.35.01-.18-.01-.25-.01-.34,0-.18.09-.43.76-1.72.33-.61.91-2.52,1.65-4.67.36-1.08.74-2.21,1.07-3.22.17-.5.33-.97.47-1.4.07-.26.14-.49.2-.68.4-1.33.97-2.34,1.32-3.62.09-.32-.26-1.03-.21-1.23.14-.51.65-1.15.79-1.66.6-2.25,1.87-5.88,2.49-8.56.06-.24-.56-.38-.54-.52.13-.73,1.01-2.06.82-2.55-.17-.32.38-1.09.66-1.96-.38.02-.84.06-1.4.13-.68.09-2.21.68-2.6.74-1.57.25-2.9.32-4.34.38-1.43.06-2.99.11-4.78.3-.55.09-1.37.64-1.9.77-1.57.39-2.84.53-3.92.22-.14-.04-.27-.08-.4-.14-.04-.01-.04-.03-.12-.04l-.26-.05c-.17-.03-.34-.07-.5-.1-.65-.14-1.23-.32-1.73-.52-.5-.2-.92-.44-1.23-.71-.16-.14-.29-.28-.4-.43-.09-.15-.08-.31-.11-.48-.01-.13-.02-.3,0-.49.04-.19,0-.41.19-.64.3-.46.79-.99,1.51-1.53.53-.4,1.93-.82,2.65-1.26.26-.22.43-.45.38-.68-.08-.23-.23-.46-1.21-.71-.48-.13-1.04-.24-1.66-.34-.31-.04-.64-.08-.98-.13-.31-.03-.64-.07-.98-.1-1.01-.11-2.19-.17-3.41-.18-.63,0-1.28.01-1.93.02-.72.02-1.44.04-2.15.06-1.42.06-2.78.14-3.99.24-.61.05-.96.18-1.35.33-.1.04-.2.07-.31.11-.04.04-.15,0-.13.1,0,.09,0,.18.01.28.01.38.02.8,0,1.27.02-.29-.56-.16-.43.35.68,2.61-.37,9.41-.46,13.15,0,.15.35.17.27.76-.05.32-.45.83-.46.56,0,.45.05.84.11,1.19.03.18.06.35.1.51.03.22.05.43.08.64.1.83.19,1.61.11,2.63-.16,1.88-.81,4.95-1.1,7.18-.9,7.06-.86,13.63-2.65,19.81-.88,3.04-1.91,3.29-2.47,8.81-.13,1.24.18,2.4-.18,3.65-.01.03-.63,1.44-1.27,2.9-.65,1.45-1.34,2.94-1.51,3.11-2.57,2.69-6.17-3.59-5.69,5.58.06,1.14.62,1.68.69,2.86.06,1.14-.37,3.45-.31,4.55.07,1.49.67,2.49.68,2.86.07,2.34-.52,5.89-.5,8.19,0,.44.58.66.59,1.01.04,1.38-.44,3.25-.46,5.44,0,1.19.18,2.32.17,3.7,0,.86-.41,2.94-.41,2.69-.02,3.34.9,3.92.12,6.45-.43.65-.96.84-1.57.68-1.61,4.42,1.06-2.23-.27,1.8-.36,1.08-.8,1.38-1.13,2.59-.64.62-.6-1.19-1.16-2.01-.38-.56-1.33-.49-1.65-1.17-.74-1.53-.58-4.92-1.12-4.76-1.57.48-2,3.22-2.03,6.15,0,1.46.04,2.99.2,4.32.15,1.32.37,2.41.47,3.04.4,2.57.91,4.87,1.63,7.2.73,2.4,1.46,4.89,2.34,7.69.88,2.79,2.21,5.65,3.39,9.56.4,1.33.54,1.92.8,2.63.51,1.42,1.86,6.62,2.68,9.68.35,1.32.76,3.01,1.09,4.42-.04-.16.65.31.5.84-.57,1.91.29,1.77.94,3.53.72,1.94.54,3.31,1.38,6.22.12.43.91,1.39.99,1.68.5,1.87.84,3.95,1.37,6.22.45,1.9.86,4.15,1.37,6.22,1.51,6.13,3.03,10.85,4.45,18.6.06.31-.08,2.21.24,3.64.96,4.33,1.79,12.28,1.8,15.36.01,3.36-.09,3.78-.48,5.61-.47,2.16-3.09,2.97-4.41.74-.26-.44-.89-2.35-1.12-2.58-.53-.51-1.17.54-1.7.28-.28-.13-1.11-1.99-1.32-1.62-1.14,1.99.71,8.77,1.76,12.6,1.12,4.09,1.65,8.49,3.29,11.42.47.84,1.89,7.45,2.8,10.59.3,1.05.85,2.21,1.26,3.47.24.74.19,1.97.45,2.69.11.3.75.57.81.79.38,1.33.47,3.7.89,5.38.37,1.51.98,2.21,1.25,3.47.37,1.67.1,2.55.41,4.54.44,2.81,1.68,6.36,2.29,9.75.57,3.16.81,6.67,1.3,9.91.85,5.68,2.68,13.3,2.49,17.08-.06,1.26-.82.29-1.15,1.11-.34.86-.26,3.15-1.17,2.96-.56-.11-1.97-1.62-2.57-1.41-.09.03-.12,1.19-.5,1-.28-.14-2.17-2.51-2.87-3.2-.61-.61-.96-.82-1.6-1.57-1.16-1.38-1.71-2.03-2.44,1.33-.18.81-.67,2.9-.68,3.8-.01,1.63.9,5.86,1.07,8.11.16,2.08-.01,3.47.13,4.58.59,4.53,1.72,11.8,2.63,17.06.35,2.06.98,3.67,1.25,5.32.16.96.31,1.94.47,2.92.07.51.14,1.03.21,1.55.06.5.15,1,.23,1.51.07.5.21,1.01.17,1.53-.08,2.07-1,4.13-2.5,5.58-.38.36-.78.7-1.21.98-.21.15-.44.27-.66.4-.23.11-.47.19-.71.28-.98.38-1.95.75-2.9,1.11l-.37.15c-.15.06-.18.08-.46.18-.46.17-.92.33-1.37.5-.9.34-1.79.68-2.67,1.01-1.75.68-3.42,1.36-5.02,2.05-1.94.84-4.25,1.23-7.82,2.53-1.91.69-3.75,1.46-5.58,2.22-.92.38-1.83.75-2.74,1.13l-1.35.55c-.45.19-.77.32-1.16.46-2.41.88-4.94,1.1-7.36,1.5-.54.09-.81.38-1.51.36-.14,0-.4-.06-.65-.13-.25-.07-.4-.14-.16-.17-2.74.27-3.48.81-5.45.93-5.12.32-18.76.57-19.99.33.07.01-.16-.14-.41-.29-.25-.15-.5-.31-.5-.31.18.06-.97-.51-.9-.3-.14-.47,2.16-.73,1.82-.91-3.3-1.79-18.64-.7-24.53.05-2.31.3-5.96.44-10.04.55-2.04.05-4.2.11-6.34.16-1.05.03-2.1.06-3.13.09-.89.03-1.78.02-2.64,0-1.58-.04-3.12-.15-4.59-.32-.73-.09-1.45-.19-2.15-.31-.66-.1-1.44-.3-2.21-.44-3.05-.6-5.68-1.17-7.66-1.9-2.63-.97-4.5-3.13-6.48-3.86-2.27-.84-4.81-1.41-7.5-1.95-1.35-.27-2.74-.54-4.16-.82-.71-.15-1.43-.3-2.15-.45-.58-.14-1.17-.27-1.77-.41-.91-.24-1.79-.77-2.66-1.03-.89-.41-2.55-1.3-3.8-2.85-1.28-1.5-1.98-3.58-1.97-5.09-.03-1.38.54-2.69.97-3.9l.17-.45.08-.22c.03-.08.06-.24.1-.36.12-.52.25-1.03.38-1.55.24-1.04.46-2.1.64-3.2,1.11-6.97,1.92-16.77,2.98-26.18,1.02-9.03,2.25-18.35,3.08-27.08.4-4.22.49-8.24.91-12.7.93-9.81,2.65-19.92,3.2-27.98.12-1.71-.11-3.56.11-5.47.47-4.27,1.56-7.78,2.16-14.38.75-9.05,1.81-21.81,2.71-32.62.22-2.42.54-4.16.72-6.32.26-3.11.25-6.07.55-9.09.14-1.36.63-3.01.76-4.48.38-4.5.35-8.66.74-12.72.26-2.71.68-5.46.94-8.12.59-6.1.92-12.18,1.52-17.2.08-.64.18-2.15.31-2.71.02-.09.57-.92.57-.84.08-.74-.08-2.69.06-4.57.34-4.46,1.27-11.16,1.67-14.46.15-1.26.27-3.42.18-5.81-.08-2.4-.39-5.02-.73-7.25-.26-1.84-.67-3.6-.9-4.91-.25-1.38-.42-2.61-.49-3.63-.14-2.03.13-3.2,1.02-3.02-.16-.03.92.74.89.69.26.41.69,2.13.97,2.56.79,1.23,1.37,1.41,1.83,2.32.07.14.16.4.27.72.11.33.22.69.38,1.25.31,1.04.6,2.22.88,3.07.14.45.55.64.65,1.03.16.56.22,1.74.35,2.24.37,1.42.8,1.67,1.22,3.35.27,1.06.36,3.48.51,4.66.15,1.11.29,2.42.37,3.63.11,1.01.25,1.81.39,2.37.29,1.06.62,1.01,1.02-2.25.13-1.09-.03-2.68.05-4.87.11-3.55.22-6-.17-8.52-.21-1.24-.51-2.36-.87-3.49-.17-.56-.37-1.13-.57-1.71-.18-.52-.37-1.05-.57-1.62-.96-2.73-1.41-4.91-2.52-7.79-1.04-2.69-.82-1.83-1.75-5.17-.74-2.68-1.62-4.37-2.72-7.73-1.21-3.69-2.27-7.54-3.52-11.28-1.33-4-2.78-7.84-4.18-12.04-1.54-4.63-3.08-9.93-4.72-14.72-.48-1.39-1.16-2.74-1.67-4.25-.7-2.09-1.09-3.99-1.77-6.11-.22-.65-.47-1.41-.74-2.23-.39-1.29-.87-2.65-1.33-4.01-.86-1.16-1.86-2.25-2.83-3.28-.24-.26-.48-.51-.72-.76l-.28-.29-.22-.22c-.3-.29-.58-.57-.85-.84-1.48-1.44-3.7-3.89-6.23-6.62-4.19-4.52-10.62-11.99-15.26-16.84-1.22-1.27-2.23-2.09-3.26-3.2-1.25-1.36-2.76-3.27-4.14-4.82-1.27-1.43-2.64-2.87-3.92-4.23-.64-.69-1.26-1.35-1.85-1.98-.29-.32-.57-.63-.84-.93-.13-.15-.27-.3-.4-.45l-.19-.22-.09-.11c-.43-.53-1.13-1.66-1.91-2.8-.79-1.15-1.66-2.31-2.95-3.38-.68-.58-1.59-1.59-2.62-2.77-.13-.15-.26-.3-.39-.45l-.2-.23-.1-.12-.05-.06s.04,0,.06-.01c.4-.04.81-.07,1.23-.11.83-.08,1.67-.16,2.47-.25.9-.11,1.04-.26,1.67-.32,1.03-.13,2.66.04,3.59-.06.76-.07,1.04-.38,1.81-.44.54-.04,1.08-.02,1.59,0,.27,0,.49.02.77.02.44-.02.88-.04,1.31-.08,5.48-.5,10.59-1.17,15.37-1.57,1.58-.13,3.28-.24,5.1-.34,1.18-.07,2.4-.15,3.65-.22.69-.05,1.39-.1,2.1-.16.35-.03.71-.06,1.07-.09l.54-.04h.14s.06-.07.1-.1l.18-.2c.71-.78,1.44-1.58,2.18-2.4.72-.86,1.46-1.74,2.2-2.62,1.04-1.25,2.09-2.53,3.13-3.78,1.03-1.23,2.03-2.43,2.97-3.56.48-.56.94-1.1,1.39-1.61.26-.27.52-.54.75-.78.14-.14.29-.29.45-.45.21-.08.46-.1.68-.14.48-.09.91-.11,1.41-.17,1.56-.3,2.86-.52,3.26-.52,1.04,0,.56,1,1.23.96,1.02-.06,3.28-.55,5.39-.98,4.06-.83,5.74-1.17,13.16-3.54.29-.09,1.42-.6,2.56-.94.94-.29,2.89-.73,2.65-.65,1.46-.49,2.12-.94,3.39-1.35,1.79-.59,3.64-1.06,5.21-1.59,1.4-.47,2.76-1.08,4.26-1.61.27-.09.55-.18.84-.27.47-.14.95-.28,1.43-.42,1-.29,2-.58,2.91-.87,2.38-.77,4.8-1.66,6.9-2.41,1.34-.45,2.63-.88,3.91-1.31.64-.21,1.27-.41,1.9-.62l.12-.04-.04-.12-.09-.23-.18-.46-.36-.92c-.95-2.44-1.87-4.82-2.92-7.18-.41-.85-1.3-2.34-1.46-2.69-.47-1.01-.94-2.15-1.42-3.3-.24-.58-.48-1.16-.72-1.72-.1-.23-.2-.46-.3-.69-.08-.17-.15-.34-.23-.5-.53-1.13-1.17-2.18-1.7-3.23-.17-.34-.36-.8-.54-1.26-.09-.23-.19-.46-.27-.67-.08-.2-.2-.46-.22-.48-.07-.11-.37-.2-.42-.29-.23-.49-.49-1.05-.75-1.6-.33-.55-.22-1.21-.06-1.69.21-.63.72-1.12,1.35-1.46.31-.2.62-.41.96-.6l.51-.3.79-.45c2.67-1.49,5.32-2.88,7.58-3.78,1.47-.21-2.72,1.46-2.26,1.58.91-.37,1.51-.68,2.1-.98.54-.28,1.34-.69,1.62-.73.88-.24.85.05,1.61.07.18.02.37.05.57.11.1.03.2.05.3.09l.16.05.09.25c.13-.4.04-.11.07-.2h0s0,0,0,0h0s0,0,0,0h0s.01,0,.01,0h.02s.05.02.05.02l.09.03.18.07c.06.02.39.15.65.26.53.22,1.03.43,1.46.62,1.37.62,2.83,1.33,4.34,2.07,1.41.67,2.87,1.37,4.34,2.08.49.25,1,.42,1.56.63.51.25.92.71,1.06,1.28.12.46.05.96-.17,1.43-.17.48-.39.98-.61,1.5-.85,2.13-1.75,4.37-2.66,6.63-1.21,2.95-2.43,5.92-3.61,8.79-.67,1.68-1.34,3.32-1.98,4.92-.16.4-.32.8-.48,1.19l-.12.3c-.05.06.02.07.07.09l.15.05.58.21c.77.28,1.52.56,2.26.83,2.13.77,2.59,1.15,5,1.92.95.31,1.9.61,2.85.92.84.26,1.68.52,2.5.77,1.18.36,2.3.7,3.3,1.06,3.14,1.11,4.89,2.01,7.63,2.99,4.94,1.75,11.73,3.68,17.31,5.51,1.39.45,2.97,1.08,4.29,1.49,1.74.54,3.45,1.04,5.17,1.55.86.25,1.73.51,2.61.76.44.13.88.26,1.32.39l.33.1c.11.03.25.08.25.08.06.02.12.05.18.06.07.03.11.1.17.14l.08.08s-.04.03-.05.04c-.05.03-.14.03-.15.08l.51.5c.69.66,1.4,1.33,2.14,2,1.47,1.34,3.05,2.65,4.73,3.96.38.3.77.6,1.17.9l.6.46c.11.09.19.13.33.25l.8.85,3.23,3.41,1.61,1.7.8.85.2.21s-.02.03.05.02h.39c1.42-.02,2.82-.04,4.16-.05,1.11,0,2.17,0,3.17,0,3.19.04,6.25.36,9.99.39,4.38.03,12.56-.13,19.99-.23-.08,0,.2-.1.91-.1,7.55,0,19.16-.32,26.35-.45,1.63-.03,1.91.05,3.63,0,2.3-.04,4.54-.08,7.27-.13,1.75-.02,3.19-.13,4.54-.15,2.09-.03,3.86-.05,5.7-.08.18.02.22.04.35.05.1.03.29-.03.46-.05.18-.06.05.09.02.16-.05.09-.07.16-.11.26-.03.05-.11.19-.22.37-.62,1.41-1.36,3.08-1.98,4.5.09-.21-.09.45-.32.85-1.13,2.06-2.87,6.91-4.27,10.04-1.04,2.33-2.09,4.38-3.5,7.39-3.46,7.36-8.59,18.89-13.49,29.79-.82,1.82-2.62,6.02-3.03,6.6,3.55-7.85,7.13-16.08,10.69-24.09.54-1.17,1.33-2.9,1.89-4.13.78-1.83,1.41-3.32,2.13-5.02.6-1.3,1.1-2.38,1.9-4.13.36-.81.76-1.84,1.44-3.34.79-1.71,1.54-3.36,2.27-4.96,1.4-3.19,2.85-6.51,4.27-9.77.35-.81.7-1.63,1.05-2.43.17-.4.35-.8.52-1.2l.12-.27h.01s.02-.04.02-.04l.08-.09-.05-.04s-.13.05-.14.04c-.02,0,.07-.1.02-.14-.05-.03-.09.09-.09.09h0s0-.01,0-.01c-.05,0-.09,0-.14,0-.21,0-.37-.01-.52-.01-.28-.01-.43-.03-.55-.03-8.47.18-18.76.4-29.98.64-3.11.09-6.14.27-9.09.33-8.76.2-16.72.09-22.71.26-1.33.04-5.01.28-6.36.29-.43,0-.59-.15-.91-.16-2.14-.06-3.38.06-5.45-.08-1.39-.1-2.64-.29-5.45-.27-1.54.02-3.15.05-4.83.08-.13,0-.41.02-.35,0l-.5-.53-1.03-1.09c-.69-.73-1.39-1.46-2.09-2.21-.7-.74-1.41-1.49-2.12-2.25l-1.07-1.14-.27-.29c-.07-.07-.22-.24-.22-.23l-.19-.14c-1.49-1.08-2.73-2.1-4.06-3.17-.91-.73-1.8-1.45-2.67-2.18l-1.3-1.11-.64-.56-.32-.28-.16-.14h.09s.18.03.18.03c.05,0,.16.03.1,0l-.12-.09s-.05,0-.08-.01c-.05-.01.04,0-.2-.07l-1.03-.3-4.12-1.22c-1.86-.57-3.86-1.31-6.04-1.99-3.15-.98-6.72-1.94-10.46-3.09-1.45-.44-3.64-1.27-5.16-1.75-4.75-1.51-5.79-1.59-7.78-2.53-.11-.05-.69-.43-.8-.47-1.13-.4-3.33-.9-4.36-1.29-.4-.15-.34-.4-.77-.58-.12-.05-1.22-.45-2.4-.89-1.9-.65-3.94-1.36-4.75-1.63-.58-.18-1.25-.39-1.98-.63-.7-.25-1.47-.52-2.29-.81-.82-.29-1.69-.6-2.6-.92-.45-.16-.91-.33-1.38-.49-.22-.09-.49-.16-.68-.26l.28-.71c1.2-2.97,2.02-5.01,3.08-7.39.51-1.18,1.04-2.42,1.66-3.87.24-.58.5-1.2.78-1.88.21-.52.44-1.09.69-1.71.24-.62.23-.97.57-1.73.21-.49.88-2.05,1.65-3.85.19-.45.39-.92.58-1.39l.07-.18.03-.07.06-.13.13-.26c.18-.34.29-.68.4-.95.26-.61-.15-1.33-.63-1.7-.16-.14-.36-.25-.6-.33-.22-.1-.45-.22-.68-.35l-.18-.1c-.07-.04-.07-.05-.3-.16-.36-.17-.73-.35-1.1-.53-.74-.35-1.48-.69-2.22-1.04-1.53-.7-2.96-1.33-4.3-1.91-.67-.29-1.32-.57-1.96-.84-.26-.11-.52-.22-.78-.33l-.15-.06-.07-.03h-.04s-.02-.02-.02-.02h0s0,0,0,0h0s0,0,0,0h0c-.04.11.08-.24-.08.24-.02-.09-.02-.22-.05-.28l-.12-.04c-.08-.03-.16-.03-.24-.06-.16-.03-.32-.04-.48-.02-.32.02-.58.21-.82.35-.64.3-1.26.6-1.88.89-.86.4-1.73.77-2.62,1.11-.98.37-.98.53-1.68.7-.68.17-.08-.13-.93.17-.45.16-.88.33-1.31.51-.21.09-.43.19-.65.29-.2.09-.4.19-.61.28-.35.15-.75.33-1.16.62-.16.12-.24.28-.45.41-.08.05-.18-.13-.4.12-.4.5-.3,1.31.08,1.87.15.29.32.57.42.86l.17.43.04.11.13.29.28.64c.74,1.7,1.45,3.32,2.14,4.72.52,1.02,1.05,2.07,1.57,3.1.61,1.2,1.21,2.38,1.7,3.44.46,1.02.93,2.08,1.42,3.17.41,1.06.82,2.15,1.24,3.25.42,1.09.84,2.19,1.25,3.28.21.54.42,1.08.62,1.62.14.5.72,1.21-.11,1.23-4.32,1.48-8.55,3.07-13.09,4.54-1.1.35-2.27.73-3.53,1.13-.32.1-.64.2-.98.31-.19.06-.38.13-.57.19-.39.13-.79.28-1.21.42-1.16.42-2.5,1.06-3.39,1.36-3.25,1.09-6.57,1.96-9.55,2.94-.78-.25,2.3-1.01,1.52-1.26-3.87,1.27-.99,1.19-2.31,1.82-5.38,1.59-11.15,3.44-15.67,4.68-3.02.83-3.91.87-7.17,1.38-1.53.24-2.37.36-3.1.41h-.27s-.07-.02-.1-.03c-.07-.04-.13-.08-.21-.12-.15-.08-.34-.2-.59-.32-.14-.08-.37-.19-.57-.3-.11-.05-.22-.1-.31-.14-.08-.02-.13,0-.16,0-.12.07-.26.21-.42.38-.08.08-.17.17-.26.27l-.14.15c-.1.12-.21.25-.32.38-.92,1.09-2,2.39-3.18,3.7-1.12,1.25-2.4,2.39-3.17,3.27-.62.72-1.26,1.47-1.91,2.23-.83.98-1.67,2.01-2.58,2.98-.45.5-.9,1-1.35,1.5-.12.11-.21.28-.36.35l-.51.05-1.02.11c-1.37.15-2.77.28-4.2.41-3.84.4-7.85.81-11.79,1.22-3.95.38-7.75.58-10.86.9-.27.03-.55.06-.83.09l-.42.05c-.18.02-.15.02-.24.04-.24.05-.47.1-.7.15-.45.1-.85.19-1.2.21-.85.04-1.91-.22-2.96-.21-1.2.03-2.75.21-3.5.5-.28.11,0,.35-.41.41-.15.02-.37.02-.62.01h-.2s-.1-.02-.1-.02c-.03,0,0,.02,0,.03l.05.17c.07.22.15.46.38.69,1.13,1.16,2.97,2.32,3.79,3.18.55.59,1.03,1.24,1.53,1.96.25.37.51.75.77,1.13.84,1.03,1.69,2.07,2.54,3.1,3.42,4.16,6.85,8.22,9.82,11.06,1.62,1.54,9.03,10.84,11.58,12.81,1.5,1.16.38.04,3.12,3.31,2.7,3.23,4.87,5.3,7.59,7.86,1.12,1.05,1.39,1.42,1.59,1.78.1.18.19.37.36.63.04.07.09.14.15.22.03.04.06.09.1.13.06.07.11.15.18.23.25.31.55.68.92,1.14.13.17.6.65,1.19,1.38.55.74,1.56,1.55,1.8,2.86.21.61.42,1.24.63,1.87.19.59.38,1.18.56,1.75.25.69.49,1.33.66,1.81.47,1.27,1.03,2.22,1.42,3.38.78,2.33,1.5,5.54,2.3,7.85.85,2.45,1.88,4.53,2.65,6.81.5,1.48.53,2.7,1.33,5.29.42,1.37.75,1.45,1.43,3.37.44,1.23,1.09,4.01,1.54,5.23.5,1.37,1.14,2.91,1.69,4.24,1.8,4.32,4,11.71,6.75,19.81.57,1.68,1.02,2.28,1.71,4.24.54,1.52,1.21,3.71,1.95,6.16.19.61.38,1.24.57,1.88.1.32.2.64.29.96.12.42.24.84.37,1.27.51,1.82.93,3.7,1.25,5.53.64,3.7,1.25,8.14.59,13.92-.13,1.28-.37,3.6-.38,3.68-.17,1.02-.51,1.13-.64,1.75-.52,2.5-.37,2.6-1.16,4.44-.1.22-.61,1.71-.65,1.75-.98,1.2-2.4-.3-2.64-1.23-.1-.37.43-3.04.39-3.61-.06-.94-.68-1.54-.84-2.85-.08-.63.12-2.07.07-2.74-.05-.68-.2-1.05-.25-1.9-.14-3.52-.53-7.14-1.34-10-.83-2.98-1.92-5.17-2.94-7.11.53,3.72,1.59,8.12,1.38,12.54-.05.95-.2,2.04-.4,3.12-.1.52-.2,1.04-.3,1.55-.09.45-.17.89-.22,1.31-.28,2.28-.08,4.04-.27,6.37-.3,3.71-1.14,7.8-1.57,11.71-.37,3.31-.8,8.08-1.11,11.76-.18,2.23-.06,4.42-.25,6.38-.19,2.01-.71,3.49-.85,5.39-.1,1.34-.24,3.03-.28,4.54-.03,1.1.17,2.34.07,3.67-.19,2.36-.81,4.78-1.06,7.19-.2,1.98.01,3.18-.13,5.48-.33,5.25-1.55,11.08-1.49,15.38.01,1.08.25,1.54.18,2.77-.15,2.84-.73,5.87-1.01,9.03-.19,2.19.01,3.37-.11,5.48-.08,1.47-.42,1.52-.55,2.68-.1.91.06,3.85-.1,5.48-.14,1.39-.48,1.64-.55,2.68-.12,1.77.13,3.09,0,4.58-.15,1.64-.55,2.6-.76,4.48-.14,1.25-.11,3.26-.25,4.55-.33,3.04-.93,5.96-1.27,8.99-.21,1.9-.11,3.57-.35,5.45-.22,1.74-.68,3.63-.87,5.38-.67,6.25-.86,13.34-1.87,18.99-.14.78-.71,3.93-.67,3.58-.18,1.7.11,2.85.02,4.58-.24,4.83-.92,8.83-1.52,13.54-.56,4.41-.78,9.23-1.25,13.58-.85,7.93-2.05,16.08-3,24.34-.38,3.33-.57,6.21-.82,8.96-.07.69-.13,1.37-.19,2.05-.06.62-.16,1.55-.2,1.65-.11.56-.24,1.13-.44,1.76-.16.6-.47,1.18-.66,1.85-.2.67-.32,1.45,0,2.29.17.49,1.1,1.88,2.58,2.71.72.43,1.52.74,2.28.81.75.12,1.36.26,1.77.36,2.38.64,5.4,1.45,8.68,2.33,5.36,1.37,12.32,2.59,14.2,3.51,1.45.71.84,2.68,1.91,3.23.34.17,1.42.5,2.87.9.71.21,1.55.41,2.38.65.76.21,1.44.37,2.2.53,2.96.61,5.97.6,6.54.47,1.07-.27,3.43-.07,6.91-.29,1.27-.08,2.54-.54,3.64-.6,4.07-.24,8.72-.05,12.72-.34,2.62-.19,4.87-.74,7.27-.93,1.43-.11,3.09.05,4.54-.02,2.4-.12,4.18-.6,5.45-.63.88-.02,5.35.11,6.36.27.04.01,1.12.35,2.23.69,1.1.35,2.22.73,2.31.81,1.07.97-2.01,1.39,0,1.83,1.23.27,5,.47,9.08.28,1.84-.08,2.35-.69,4.55-.93.53-.06,1.42-.02,2.53.01.55,0,1.16.02,1.81.03.61,0,1.41-.01,1.9-.06,1.36-.13,2.26-.62,3.54-.86,1.2-.23,2.51-.43,3.89-.76.34-.09.7-.18,1.05-.28l.53-.16.6-.2c.9-.32,1.87-.64,2.83-1.02.4-.16,1.32-.99,1.58-1.09,1.34-.5,3-.78,4.39-1.24,1.68-.56,2.84-1.36,4.22-1.84,3.08-1.09,6-2.04,8.85-2.97,1.42-.47,2.83-.94,4.24-1.41l.53-.18.18-.07.12-.05.48-.19.93-.41c.54-.26,1.02-.56,1.46-.82.44-.23.77-.6,1.09-.78.74-.51,1.52-.68,1.94-1.32.75-1.3.34-1.91.52-2.68.11-.71.62-1.36.43-2.12-.12-.72-.55-1.46-.69-2.19-.03-.14-.04-.3-.03-.48,0-.06,0-.05,0-.17l-.03-.34c-.02-.23-.04-.46-.06-.7-.08-.94-.16-1.95-.33-2.88-.29-1.6-.69-1.83-.94-3.53-.35-2.34-.23-4.56-.61-7.27-.2-1.4-.86-3.02-1.1-4.42-.45-2.61-.55-6.61-1.07-9.95-.25-1.63-.95-3.14-1.1-4.42-.21-1.76-.14-3.48-.29-5.48-.2-2.77-.56-5.99-.61-5.42.25-3.09,1.96-5.09,3.46-5.18.83-.05,1.62,1.38,2.74,2.31.64.53.95.24,1.45.68,1.22,1.08,1.38,1.19,3.55,1.25,1.42.04,1.59,1.02,1.65-2.12.05-2.59-.58-1.38-1.22-5.32-.36-2.24-.38-4.55-.87-7.22-.38-2.07-1.14-4.44-1.37-6.22-.24-1.89.18-3.21-.09-4.59-.44-2.32-1.71-6.96-2.63-9.69-.3-.89-.48-1.31-.78-2.63-.55-2.47-.27-3.94-.71-6.33-.23-1.23-1.03-3.55-1.56-5.26-.49-1.6-1.18-4.35-1.57-5.26-.43-1.02-1.44-1.67-1.94-3.36-1.57-5.3-1.23-9.05-3.08-14.22-.36-1-.4-1.93-.79-2.63-.11-.21-.76-.58-.83-.78-.44-1.29.15-1.72-.11-2.74-.17-.63-.73-.56-.98-1.68-1.95-8.84-2.74-18.6,1.86-15.97.31.18.74.4,1.17.73.01,0,.25.14.53.29.28.16.58.35.64.43.35.48,1.23,3.92,1.76,4.31.07.05.78-1.12,1.21-1.12.23,0,1.16,1.53,1.51.67.34-.83-.18-1.46-.1-2.75.02-.24.55-.86.54-1.01-.15-2.37-1.09-8.57-1.57-11.71-.29-1.95-1.06-4.25-1.52-7.11-.54-3.37-1.08-7.33-2.4-12.49-.32-1.26-.7-3.1-1.08-4.42-.32-1.13-1.01-2.38-1.28-3.47-1.88-7.45-3.05-14.67-4-17.75-.91-2.96-2.37-4.97-2.94-6.88-.08-.26-.25-2.6-.89-5.38-.18-.79-1.06-2.18-1.15-2.57-.29-1.31.17-1.84-.09-2.75-.37-1.24-.71-.66-1.51-2.51-.58-1.34-.53-3.04-1.1-4.42-.49-1.2-1.1-2.32-1.66-3.41-.32-.62-1.28-1.87-1.51-2.51-.34-.94-.3-2.57-.6-3.58-.14-.48-.9-1.32-1.01-1.68-.49-1.6-.61-4-.89-5.67-.35-1.96-.67-3.79-.87-5.59-.18-1.87-.32-3.36-.34-5.04-.03-4.76,0-8.89.88-10.89.5-1.13.93-.03,1.57-.68.39-.39.44-1.54.99-1.69,2.2-.6,3.95,3.68,5.22,4.46.71-4.08-.28-7.13-.31-10.15-.03-2.54.42-5.13.36-7.3-.09-3.16-.71-5.91-.97-8.41-.1-.95.12-1.88.04-2.75-.06-.65-.39-1.32-.46-1.91-.08-.69.15-1.99.04-2.75-.27-1.77-.45-.81-.29-5.56.14-4.2.06-4.04,1.53-5.28,1.26-1.06,5.71,1.04,6.99-1.71,1.1-2.35.19-5.2.62-9.09,0-.06.64-.92.64-1.74,0-.89-.34-1.67.54-3.59,1.07-2.35,1.28.13,2.98-2.31.64-5.29,1.71-9.79,2.18-14.37.14-1.37-.26-2.32-.2-3.7.06-1.31.24-2.74.44-4.27.08-.68.17-1.38.26-2.09.07-.67.14-1.36.18-2.06.16-2.53.23-5.19.39-8.19.08-1.5.18-3.08.31-4.75.07-.84.15-1.69.23-2.58.05-.44.09-.89.14-1.34l.04-.34c0-.05,0-.12.02-.17h.16c.22-.01.44-.02.66-.03.19,0,.39-.53,1.35-.38.36.06.25.45,1.1.39,1.23-.09,1.61-.6,2.83-.75.39-.05,1.45-.12,2.88-.2,1.43-.08,3.12-.16,4.93-.22.92-.02,1.85-.05,2.74-.07.96,0,1.89-.01,2.74-.02,1.71,0,2.91.06,3.58.17.29.05,1.11.62,1.51.76,1.37.46,2.04,1.39,1.9,2.55-.12,1.16-1.02,2.54-2.29,3.9-1.13,1.24-1.17,1.74,1.21,1.88.34.02.96-.47,1.58-.39.23.03.65.1,1.21.12.62.03,1.48.02,2.41-.11,2.3-.33,4.44-1.08,5.17-1.1,3.95-.11.19,1.35,4.76.03.8-.23,1.73-.4,2.77-.55-.07.87-.62,2.3-1.12,3.79-.52,1.51-1.08,3.12-1.43,4.57-.49,1.99-.85,4.1-1.7,6.91-.35,1.17-1.16,2.76-1.43,3.85-.25.97.86.22.78.87.02-.17-1.14,2.66-1.61,4.24-.47,1.42-1,3.13-1.63,4.96-.32.93-.65,1.91-1.05,2.95-.2.52-.41,1.06-.63,1.62-.11.28-.23.56-.35.85-.04.14-.17.29-.14.44l.15.44c.12.37.22.7.29.98.63,1.46.8,2.44,1.36,3.59,1.11,2.35,2.22,4.38,3.02,6.35.43,1.03.68,1.83.9,2.75.21.9.33,1.82.31,2.8,0,.18-.31.92-.27,1.09.55,2.3.1,1.03-.19,3-.06.38.13,1.74.07,1.91-.63,1.76-2.34,1.07-1.75,3.59.29,1.33,1.97,4.5,3.75,7.88,1.8,3.37,3.72,6.95,4.69,8.97,2.11,4.35,2.25,5.74,3.92,8.11,1.19,1.68,1,2.27,2.59,5.75.27.6.86,1.14,1.43,2.37.55,1.23,1.12,1.8,1.38,2.4.54,1.25.76,3.06,1.31,4.29.32.76.9,1.47,1.31,2.43.54,1.26.7,2.08,1.26,3.39.82,1.93,1.94,4.17,2.21,5.01.44,1.42.06,1.57.37,2.69.47,1.9,1.63,4.66.43,5.99-.58.67-.76,1.69-1,1.75-.55.15-.92-.2-1.43-.97-.25-.38-.52-.87-.84-1.45-.35-.58-.76-1.24-1.24-1.98-.03-.05-.24-.44-.55-.99-.31-.55-.68-1.2-1.17-1.98-.92-1.48-1.86-2.78-2.01-2.17-.15.63-.09,1.32.11,2.08.1.38.24.78.41,1.19.16.41.3.73.49,1.12.77,1.51,1.64,3.31,2.17,5.38.45,1.8.57,4.2.5,6.36-.07,2.16-.28,4.09-.09,5.22.17.73-.14,1.45-.49,2.31-.19.43-.44.86-.64,1.37-.22.51-.48,1.03-.67,1.69-.07.22-.43,1.41-.45,1.46-.28.43-.78.86-1.25,1.32-.52.39-.99.82-1.3,1.17-.62.67.12.8-.7,1.5-.6.55-2.28,1.55-2.43,1.57-.94.48-2.1.78-3.16.89-1.05.11-1.98.1-2.52.12-1.16.07-.02.64-.77.75-.4.04-1.41-.04-2.45-.34-1.04-.29-2.12-.72-2.72-1.02-.24-.12-.72-.1-1.43-.36-.34-.15-.74-.36-1.2-.68-.47-.3-.9-.81-1.4-1.4-.33-1.15-.05-1.65.42-1.7.46-.04,1.28.24,2.19.71.46.18.77-.02,1.33.36.19.16.7.84,1.01.91.38.06.53-.39.85-.42.36-.03,1.08.08,1.75,0,.67-.05,1.26-.28,1.38-.66-1.49-.35-2.16-.32-3.27-.6-.22-.08-.8-.53-.97-.59-.5-.1-.71.22-1.34-.06-.34-.19-.75-.57-1.17-.95-.38-.42-.76-.84-1.12-1.1-.37-.32-.77-.6-1.18-.89-.41-.27-.86-.72-1.32-1.12-.48-.41-.92-.91-1.36-1.51-.22-.3-.45-.62-.68-.97-.2-.37-.41-.77-.61-1.2-.17-.37-.32-.75-.45-1.13-.11-.4-.2-.79-.28-1.15-.16-.73-.32-1.35-.46-1.72-.64-1.59-1.44-1.94-2.23-3.86-.13-.31-.53-1.35-.93-2.86-.21-.75-.47-1.6-.65-2.54-.1-.5-.21-1.01-.32-1.54-.11-.56-.23-1.13-.3-1.71-.17-1.15-.35-2.31-.47-3.45-.1-1.13-.19-2.24-.26-3.28-.06-1.04-.05-2.01-.05-2.89.01-.45.03-.86.04-1.24,0-.1.01-.19.02-.29,0-.04.02-.11,0-.12h-.13c-.17-.04-.33-.06-.48-.08-.03,0-.59-.27-1.25-.57-.65-.31-1.41-.66-1.39-.81.06-.49,2.01-.3,3.04-.5,1.26-.23.44.05.16-.2-.48-.43.54-.48,2.23-.46.2.01.45,0,.63.03,0,.16.02.33.03.5.02.34.04.7.07,1.06.05.72.12,1.43.24,2.01.16.8.87.58,1.18,1.61.08.25.24,1.98.33,2.33.19.85.46,2.02.75,3.4.28,1.38.57,2.94.98,4.61.05.25.08.31.13.46l.12.39.24.78c.16.52.37,1.02.54,1.51.19.49.37.96.54,1.42.19.45.4.86.58,1.24.66,1.39,1.5,2.28,2.19,3.4.4.62,1.36,2.81,1.98,3.08.11.06.34-.33.45-.18.26.31.48.71.75,1.07.27.36.53.74.78,1.13.25.39.54.67.79.97.13.15.25.28.37.4.12.12.18.11.27.16.8.28,1.11-.2,1.73-.2.53-.81-.38-.47-.26-1.17.22.02.31.1.4.18.09.08.19.16.34.02.11-.22.04-.31-.12-.32-.08,0-.18.01-.32-.03-.13-.01-.24.03-.3.15-.26.52-.7-.03-1.22-.78-.22-.44-.47-.93-.68-1.35-.21-.44-.36-.86-.49-1.05-.37-.58-.6-.24-.98-.99-.23-.48-.42-1.03-.61-1.57-.17-.57-.32-1.16-.54-1.67-.42-.9-.81-2.02-1.32-3.18-.42-1.22-.93-2.5-1.25-3.94-.01-.06-.03-.13-.05-.2-.02-.14-.05-.29-.08-.45-.06-.34-.12-.72-.18-1.14-.14-.83-.24-1.81-.34-2.89-.11-1.08-.22-2.26-.34-3.49-.12-1.23-.17-2.49-.26-3.75-.16-2.44-.33-4.88-.47-6.92-.04-.49-.08-.96-.11-1.39-.02-.22-.04-.42-.06-.62-.01-.02.02-.06-.03-.06h-.13s-.25-.01-.25-.01c-.17,0-.33-.01-.49-.02-1.27-.04-2.3-.05-3.01-.04-1.35.03-.96.52-2.67.47-1.2-.04-3.09-.19-5.39-.36-1.15-.08-2.4-.18-3.69-.27l-.24-.02h.2s.4.02.4.02c.26.01.53.02.8.04.53.03,1.07.06,1.6.09l-2.02.04-2.06.08c-1.34.07-2.67.15-3.99.22-1.27.08-2.52.15-3.74.23-.6.03-1.19.06-1.77.08-.29,0-.58.02-.87.03h-.21s-.21,0-.09.01l.38.03c.59.04,1.32.05,2.12.06-.79-.02-1.64-.03-2.49-.05-1.96-.04-3.92-.08-5.06-.02-1.19.06-2.11.15-3,.24-.44.05-.88.09-1.34.14-.23.02-.47.04-.71.07-.23.03-.56.02-.62.11-.19.11-.49.25-.89.43.07.9.16,2.12.27,3.06.08.65.44,1.27.49,1.79.08.79.02,2.07.11,2.82.23,1.72.34,2.53.51,3.75.16,1.18.28,2.79.69,5.92.09.61.22,1.55.39,2.73.09.58.18,1.23.28,1.92.05.34.1.7.16,1.07.07.37.19.74.29,1.12.36,1.65.65,2.68.98,4.04.32,1.31.77,2.66,1.15,4.01,1.6,5.4,3.62,10.62,3.81,12.44.08,1.22.01,1.71-.39,1.37-.2-.17-.48-.54-.86-1.12-.39-.58-.88-1.38-1.4-2.43-.49-.95-.39-1.12-.84-1.82-.23-.37-.54-1.09-.82-1.82-.27-.73-.58-1.45-.92-1.82.44,2.29,1.37,4.41,2.26,6.39.45.99,1.02,1.93,1.52,2.85.52.91.98,1.81,1.53,2.66.99,1.6,2.16,3.42,3.38,5.05,1.23,1.85,2.65,3.49,4,5.15,1.5,1.56,2.94,3.18,4.76,4.6.64.51,1.29,1.07,2.02,1.55.73.47,1.44.94,2.08,1.4.3.22.62.47.95.74.34.24.7.49,1.06.75.71.51,1.43,1.01,2.08,1.4.65.38,1.68.57,1.9.7,2.41,1.32,5.26,2.7,8.2,3.51.1.6,1.29,1.3.52,1.79,1.38.3,2.5.58,5.1.71,1.24.05,1.67-.13,3.09-.14,1.41,0,3.64.06,5.03-.12,1.18-.17,1.94-.5,2.94-.72,2.57-.55,5.05-1.22,7.53-2.26,2.56-1.08,4.65-2.45,5.96-3.21.88-.49,3.62-1.91,4.91-2.9.11-.11.81-1.08,2.86-2.49,2.07-1.52,2.22-1.17,2.02-.54-.16.49-1.6,2.02-3.19,3.32-1.56,1.33-3.21,2.45-3.21,2.77.33-.02.94-.5,1.67-1.06.41-.28,1.59-1.18,2.34-1.82.41-.37.78-.71,1.15-1.04.34-.35.66-.7.99-1.04.63-.69,1.28-1.34,1.94-2.14.59-.73.81-.89,1.25-1.48.18-.24.44-.57.76-.99.32-.42.65-.95,1.05-1.52.39-.58.84-1.2,1.28-1.87.41-.69.85-1.42,1.29-2.16.46-.72.85-1.51,1.24-2.28.38-.77.81-1.5,1.13-2.23.62-1.48,1.3-2.75,1.68-3.75.77-1.87.65-1.45,1.57-3.41.4-.9.46-.65,1.08-2.61.56-2.34.83-3.78.86-5.09.05-1.31.13-2.44.15-4.21.02-.34.07-1.16.12-2.07.04-.91,0-1.89,0-2.54-.01-.68-.02-1.26-.04-1.81-.04-.54-.07-1.03-.11-1.52-.07-.97-.01-1.9-.03-3.1,0-.45.12-1.1.04-1.84-.12-1.53-.55-3.24-.95-5.06-.19-.91-.51-1.83-.77-2.77-.27-.94-.53-1.9-.84-2.84-.56-1.8-1.08-3.47-1.63-5.21-.55-1.79-1.2-3.88-1.61-5.2-.92-2.64-1.89-5.1-3.12-8.53-.29-.83-.57-1.9-.82-2.59-.7-1.83-2.09-5.95-3.11-8.51-1.11-3.65.5,1.23-.96-3.5-.56-1.77-.52-1.85-1.25-3.4-.18-.1.97,3.06,1.33,4.33-.6-1.16-1.65-4.46-2.55-6.78-.64-1.64-2.02-4.74-2.71-6.71-.74-2.14-.05-.38-.94-2.55-.34-.81-.56-1.33-1.05-2.5-.98-2.41-2.92-7.41-4.38-10.91-.38-.87-.74-1.72-1.08-2.49-.26-.68-.7-1.85-.96-2.54-.24-.55-.81-1.75-2.05-5.02-.29-.9.48.78.48.78.02-.01-.47-1.38-.23-.89.44.86,2.43,5.67,3.54,8.32.28.64.37.85.73,1.66.61,1.5,1.6,3.9,2.41,5.86l-.19.07c.93,2.75.38.47.9,1.59-.3-.64,1.67,3.96,1.74,4.18.3.74,1.91,5.21,2.27,5.92.7,1.35.16.48,1.29,3.39.29.76.59,1.38,1.05,2.51.5,1.24,1.25,3.33,1.95,5.08.07.18.59,1.62.62,1.7.67,1.29.08.21,1.23,3.41.15.42.29.47.41.82.43,1.23,1.09,3.28,1.47,4.29.59,1.56,1.11,2.58,1.73,4.22.36.95.94,2.89,1.41,4.31.31.91.65,1.61.97,2.56.31.88.56,1.97.49,1.75.26.8.2.26.39.84.46,1.44,1.03,3.21,1.62,5.04.55,1.84,1.13,3.74,1.68,5.39.29.96.56,1.8.84,2.64.28.84.58,1.68.79,2.69.2.93.51,2.81.62,3.67.16,1.11.38,2.28.6,3.52.15,1.24.31,2.55.45,3.93.09,1.93.09,4.55-.03,6.64-.01.39.14.65.12.98-.01.87-.19,1.8-.29,2.78-.11.98-.2,1.99-.35,2.97-.07.5-.22,1.69-.46,3.01-.29,1.31-.61,2.74-.83,3.74-.25.88-.62,2.07-1.05,3.41-.48,1.31-1.06,2.74-1.6,4.13-1.2,2.58-1.24,3.18-2.19,4.61-.51.75-1.2,1.81-2.08,2.76-.87.96-1.73,1.98-2.45,2.75-.93.95-1.81,2.03-2.79,3.03-1,.98-1.96,2.04-3,3.02-2.08,1.96-4.3,3.78-6.46,5.21-.59.42-2.09,1.19-2.79,1.6-.74.44-2.18,1.31-3.83,2.07-1.66.79-4.5,1.9-7.28,2.64-1.22.34-2.21.43-3.3.67-1.39.29-4.96,1.07-7.93.89-2.9-.16-5.18-.8-7.87-1.54.5-.2,2.05-.02,3.43,0,1.38.04,2.58-.05,2.39-.47-.88.15-3.73-.1-5.62-.3-.71-.06-3.05-.5-5.52-1.24-1.24-.38-2.51-.81-3.64-1.25-1.11-.47-2.1-.88-2.8-1.17-.59-.25-1.81-.58-2.19-.82-.58-.31-1.73-1.04-3.01-1.87-1.29-.83-2.56-1.91-3.66-2.65-.72-.5-1.02-.55-1.56-.89-.54-.34-1.35-.95-3.04-2.64-.1-.1.33-.12.26-.23-.12-.2-3.07-3.71-3.58-4.38,1,.52,2.67,1.8,4.39,3.29,1.88,1.39,3.84,3.02,5.75,4.02-.31-.43-.82-.93-1.46-1.47-.6-.58-1.31-1.21-2.08-1.86-1.61-1.27-3.16-2.84-4.51-4.17-1.27-1.41-2.29-2.32-3.69-4.07-1.1-1.59-2.5-3.78-3.48-5.47-.67-1.07-.8-.99-1.33-1.75-.54-.71-1.23-2.05-2.02-3.48-.38-.72-.8-1.46-1.14-2.16-.34-.71-.65-1.37-.92-1.93-.42-.84-.84-1.69-1.26-2.53-.38-.85-.75-1.7-1.11-2.53-.36-.84-.7-1.66-1-2.47-.26-.8-.48-1.58-.64-2.33-.02-.1-.21-1.68-.36-3.22-.09-1.53-.17-3-.18-3.02.23-.42.63,1.46,1.34,2.91,1.64,3.01.56.55,2.23,5.85.23.64.76,1.4.96,1.89.33.85.65,1.7.97,2.52.35.81.69,1.59,1.02,2.28.39.81.76,1.57,1.14,2.29.42.71.83,1.4,1.23,2.07.4.66.79,1.3,1.17,1.94.41.63.81,1.24,1.21,1.86.78,1.23,1.61,2.7,2.58,4.07.47.69.94,1.36,1.38,2.01.45.63.96,1.19,1.4,1.69.68.74,1.41,1.35,2.31,2.21.76.7,2.87,3.04,2.46,2.05-.85-1.28-1.85-2.28-2.72-3.32-.87-1.03-1.81-1.98-2.67-3.03-.65-.88-1.6-2.16-2.48-3.34-.2-.24-.83-1.3-1.13-1.73-.25-.37-.69-.58-.8-.76-.3-.49-.64-1.16-.94-1.85-.28-.69-.55-1.38-.82-1.88-.29-.53-.66-.61-.75-.81-.88-1.65-1.27-3.04-2.02-4.72-.73-1.58-1.22-2.93-1.9-4.76-.63-1.64-.97-3.05-1.37-4.44-.4-1.38-.8-2.74-1.27-4.34-.18-.6-.39-1.04-.59-1.54-.25-.72-.43-1.38-.68-2.21-.08-.31-.2-.62-.26-.94l-.11-.95-.2-1.9c-.12-1.27-.23-2.53-.35-3.78-.23-2.48-.4-4.98-.67-7.37-.28-2.35-.53-4.5-.79-6.76-.27-2.43-.55-4.99-.88-8.03.36-.04.81-.07,1.34-.11.83-.05,1.74-.1,2.7-.16,2.13-.12,6.78-.55,8.2-.61,2.59-.11,4.31-.12,5.94-.13.41,0,.81,0,1.22,0,.2,0,.41,0,.62,0-.27,0-.54-.02-.81-.02-1.15-.04-2.4-.09-3.91-.17l-.65-.04h-.16s-.08-.01-.08-.01h.06s.26,0,.26,0c.34,0,.69-.01,1.04-.02.71-.02,1.43-.03,2.17-.05,1.5-.04,3.06-.08,4.66-.12,3.29-.09,6.78-.18,10.3-.28l1.35-.03.68-.02c.22,0-.04-.01-.13-.02l-.36-.02-2.92-.19-1.47-.09-.74-.04h-.17s.16,0,.16,0l.32.02c.86.04,1.72.09,2.57.13,3.42.18,6.79.39,9.9.64,1.21.1,3.1.28,5.24.5.53.06,1.08.11,1.64.17.28.03.56.06.84.09.1.12.03.33.05.5,0,.7,0,1.41-.01,2.1-.04,2.73-.08,5.12-.08,5.17-.18.79-.59-.52-1.06-2.74-.11-.56-.24-1.17-.37-1.83-.06-.33-.12-.67-.19-1.02l-.05-.26-.02-.13s.04-.12-.09-.1c-.36,0-.73,0-1.1-.01-2.87-.04-5.98-.09-9.09-.14-2.12-.04-4.28-.09-6.48-.13-.54-.01-1.08-.02-1.62-.04h-.4s-.2-.01-.2-.01c-.06,0,0,0,.02,0h.1s.81.08.81.08c1.06.09,2.13.18,3.21.27.51.03-.1.03-.32.04l-.87.03c-.58.02-1.15.03-1.73.05-1.15.03-2.3.07-3.46.1-2.27.06-4.56.13-6.87.19-1.13.03-2.27.06-3.41.09l-.81.02.96.06,1.9.13.94.06.23.02c.05,0,.23.01.1.01l-.41.02-1.64.09c-1.08.06-2.17.12-3.26.19-2.13.12-4.27.25-6.42.37l-3.15.19-.39.02h-.19s-.1.04-.1.04l-.41.1-.81.21c.12,1.14.24,2.29.36,3.44.17,1.58.35,3.03.53,4.4.18,1.3.35,2.56.52,3.84.42,3.54.65,6.86,1,9,.11.73.27,1.54.46,2.45.09.45.19.93.29,1.44.12.51.15,1.04.37,1.6.2.57.34,1.14.49,1.74.12.48.25.99.38,1.52.25.98.42,2.08.69,3.32Z"/></svg>