<?xml version="1.0" encoding="utf-8"?>
<!-- Generator: Adobe Illustrator 27.3.1, SVG Export Plug-In . SVG Version: 6.00 Build 0)  -->
<svg version="1.1" id="Layer_1" xmlns="http://www.w3.org/2000/svg" xmlns:xlink="http://www.w3.org/1999/xlink" x="0px" y="0px"
	 viewBox="0 0 360 470.78" style="enable-background:new 0 0 360 470.78;" xml:space="preserve">
<style type="text/css">
	.st0{fill:#010101;}
	.st1{fill:none;stroke:#010101;stroke-width:20;stroke-miterlimit:10;}
</style>
<g>
	<g>
		<path class="st0" d="M151.14,75.77l-5.93-0.04c-4.06-0.03-7.75,2.35-9.4,6.06l-4.62,5.83c-1.49,3.34-1.08,7.22,1.06,10.18
			l7.19,9.9c1.91,2.63,4.96,4.2,8.21,4.22l0.59,0c3.25,0.02,6.32-1.51,8.26-4.11l7.31-9.81c2.19-2.93,2.64-6.81,1.19-10.16
			l-4.55-5.89C158.85,78.22,155.2,75.8,151.14,75.77z"/>
		<polygon class="st0" points="80.2,142.57 140.62,104.89 155.63,104.98 215.84,139.45 		"/>
		<path class="st0" d="M229.63,407.64l-9.79-258.77c0.07-3.57-1.38-7-4-9.42c0,0-134.62,3.12-135.64,3.12l-57.29-0.47
			c-1.44-0.01-1.98,1.16-0.8,1.69c22.42,10.1,41.38,60.63,48.58,102.54l-4.5,158.13l-6.45,34.94c1.33,3.91,4.13,7.13,7.81,8.98
			c10.81,5.44,40.23,11.74,64.43,17.29l7.33,1.53c3.41,0.71,6.92,0.78,10.36,0.2l7.39-1.24c24.4-4.61,60.62-10.49,71.63-15.51
			c3.75-1.71,6.67-4.82,8.15-8.67C236.83,441.98,232.34,415.85,229.63,407.64z"/>
	</g>
	<g>
		<polyline class="st1" points="307.78,119.49 187.06,257.22 338.54,257.22 		"/>
		<line class="st1" x1="297.86" y1="211.95" x2="297.86" y2="314.43"/>
	</g>
</g>
</svg>
