<?xml version="1.0" encoding="UTF-8"?><svg id="Layer_2" xmlns="http://www.w3.org/2000/svg" width="307.76" height="551.15" viewBox="0 0 307.76 551.15"><defs><style>.cls-1{fill:#e84258;}.cls-2{fill-rule:evenodd;}</style></defs><path class="cls-1" d="m307.76,308.58l-.03-20-37.39.06-.22-134.51-17.47-6.63-45.27,50.83c1.92-20.63-10.98-32.38-21.63-38.48l-.42-.49-9.81-5.55-2.42-3.52,8.18-16c3.28-4.4-34.52-15.81-65.61-21.4-17.02-3.06-29.73-4.15-38.96-4.17-.01,0-.02,0-.03,0-23.2-1.31-24.36,1.88-24.36,1.88l24.36,36.01,1.18.25-4.85,7.06c-11.59,3.75-30.73,14.16-26.3,41.57,0,0,.28,2.73,5.1,5.95-5.12,97.31-12.46,194.42-24.15,291.19-.25,2.55.53,4.82,1.98,5.74,9.21,5.82,13.85,8.73,23.2,14.63,12.41,2.36,24.77,5,37.05,7.97,24-1.33,47.73-1.33,71.73,0,12.28-2.97,24.64-5.62,37.05-7.97,9.35-5.91,13.99-8.81,23.2-14.63,1.45-.92,2.23-3.19,1.98-5.74-7.39-61.16-13.04-122.47-17.49-183.87l44.01-.07.09,56.66,20-.03-.09-56.66,37.39-.06Zm-102.81-19.83c-1.22-17.93-2.35-35.86-3.4-53.81l48.6-54.58.17,108.31-45.38.07Z"/><path class="cls-2" d="m229.9,282.88c.08.1.65.28.65.25,0-.06-.63-.59-.65-.68-.03-.12.35.11.33-.09-.01-.16-.7-.79-.95-1.13-.12-.15.13-.08,0-.28,0,0-.1-.16-.16-.22-.06-.04-.45-.33-.49-.35-.09-.11.23.03.13-.08-.13-.15-.58-.47-.7-.6-.03-.03-.24-.22-.24-.21,0-.02.37.19.33.14-.11-.15-.67-.6-1.01-.91-.34-.31-.46-.47-.84-.8-.1-.09-.65-.41-.66-.43-.07-.08.45.16.37.08-.19-.2-1.62-1.07-.69-.71.23.09,1.68.8,1.95.89.04.01-.03-.06.02-.04.37.17,1.48.76,2.52,1.34,1.05.58,2.02,1.14,2.27,1.3.6.37.92.65,1.5,1.05.16.11.14.11.26.21,0,0,.23.19.25.21.27.19,1.1.62,1.29.76.33.25,0,.19.32.43.28.22.79.55,1.06.77.15.12-.04.08.11.21.06.05.57.3.64.36.08.06-.22-.04-.15.02.48.43.88.82,1.49,1.3,1.13.42.54-.14.36-.43-.29-.46-.53-.83-1.02-1.42-.15-.17-.39-.37-.6-.63-.21-.25-.65-.59-.9-.87-.04-.04-.4-.24-.28-.22.26.06.18.05-.18-.25-.61-.47.47-.13,2.35.78.54.26.99.54,1.38.81.38.27.78.6.89.7.34.3.57.55,1.24.86,1.16.54,1.22.41.94.12-.55-.54-1.49-1.24-1.63-1.38-.54-.55-.28-.68-.5-.88-.14-.12-.61-.35-.85-.5-1.11-.73-2-1.64-3.16-2.38-.67-.43-1.36-.94-1.98-1.4-.62-.46-1.11-.89-1.6-1.14.66.08,2.04.42,3.02.57,2.3.31,3.37.96,5.83,1.78.47.08.48-.12.37-.27-.16-.21-.78-.34-.94-.45-.38-.28-.51-.52-1.07-.84-.19-.11-.75-.26-.97-.38-.32-.18-.3-.24-.56-.38-.42-.21-1.22-.45-1.55-.61-.45-.22-.27-.4-.72-.61-.39-.18-1.16-.44-1.7-.61-.59-.2-1.82-.42-1.74-.52.19-.26,1.12.04,1.4-.15-.09-.45-1.36.04-2.01-.5-.33-.26.73-1.27,1.33-1.51.2-.08.85-.28,1.45-.38,1.46-.24,3.87.03,5.44-.26.64-.12.97-.35,1.46-.63.44-.25,1.73-.65.96-1.13-.4-.25-.76-.05-.52-.37.12-.16-1.21-.95-1.55-1.25-.31-.27-.2-.49-.54-.75-.08-.07-.97-.2-1.02-.25-.14-.11.12-.26-.01-.38-.62-.51-1.25-1.37-2.12-2.13-.08-.07-.97-.2-1.03-.25-.29-.23.02-.53-.54-.75-.53-.21-.07-.43-.54-.88-.13-.13-.95-.3-1.04-.37-.72-.61-.48-1.27-1.09-2.13-.11-.16-.86-.32-1.04-.5-1.05-1.01-.64-2.14,3.07-2.26.71-.02,2.15.05,3.62.24,1.11.15,2.31.75,3.61.24,1.39-.54,1.07-1.74.52-2.63-.14-.22-.76-.32-1.03-.62.04.05.8-.07.52-.13-1.48-.28-1.44-1.57-2.03-2.25-.02-.03-.51,0-.51-.12,0-.06.46-.18.52-.13-.41-.33-1.34-.47-1.52-.75-.17-.26.09-.69.02-1-.22-.98-1.59-1.87-.41-2.76.58-.43,1.92-.49,1.57-1.26-.08-.17-.73-.32-.49-.5,0,0,.55-.21,1.14-.42.59-.21,1.22-.43,1.41-.46,2.93-.42,9.03.35,6.53-.89-.31-.15-1.17-.21-1.5-.37-.32-.15-.2-.48-.49-.63-.39-.2-1.39-.32-1.48-.37-.55-.34-.52-.62-1.02-.83-.09-.04-.92,0-1-.03-.34-.1-.09-.28-.53-.42-.24-.08-.74-.11-1.02-.18-.18-.04-.07-.22-.02-.21-.69-.16-2.08.07-1.56-.2.44-.13,1.13-.29,2.02-.45,1.26-.63-.99.39-.01-.14.26-.15.81-.3,1-.45.75-.23,1.1-.15,2.04-.28.65-.08,1.94-.38,2.54-.43,1.34-.11,1.84.25,2.54.1,3.91-.59.14-1.67-.51-1.74-1.3-.33-1.9-.69-3.11-.91-.6-.11-1.83.06-2.62.03-.27-.01-.34-.04-.53-.02-.4.04-1.15-.07-1.62-.07-.21,0-.4-.04-.55-.07.01,0-.88.46-.53.23,1.28-.87,0-.14-.55.05-.61.22-.02-.24-.58-.1-.08.02-1.03.55-1.08.56-.3.08-.32-.04-.59,0-.22.03-.31-.03-.59.04-.82.22-2.02.93-2.34.86,0,0,.16-.16.3-.32.15-.16.28-.31.2-.28-.44.18.2-.76.94-1.66.81-.97,1.07-1.25,2.15-2.44,1.28-1.4,5.66-5.87,7.17-7.09.3-.24.8-.51,1.11-.77.71-.61,1.98-1.97,2.75-2.68.19-.15.56-.49.75-.53.23-.1.47-.2.63-.33,1.74-1.46.88-1.93.39-2.12-.26-.11-.33-.36-.5-.51-.09-.07-.2-.12-.37-.11-.09,0-.19.03-.31.07-.15.08-.36.28-.59.47-.54.47-1.06.17-1.69.51-.21.11-.8.65-1.14.9-.19.14.22-.49,0-.32-.09.07-1.09,1.23-1.13,1.26-.26.17.22-.69-.02-.59-.21.09-1.04,1.03-1.15,1.04-.16.02.53-.95.55-1.19.03-.36-1.08.7-1.18.49-.1-.19.46-1.32.54-1.79.13-.83-.91-.11.51-2.62.47-.84,1.51-2.27,2.34-3.59.85-1.37,1.38-2.46,2.92-4.74.58-.76,1.84-2.17,2.52-3.08.1-.13.34-.63.71-1.09.28-.35,1.9-2.04,2.55-2.73.56-.6.9-1,1.47-1.56,1.03-1.03,1.52-1.46,2.89-3.91.33-.59,1.22-2.19,1.38-2.61.29-.74.02-1.36.2-2.14.17-.71.59-1.62.62-1.92.12-1.24.1-2.99,0-4.11-.04-.44-.44-.22-.45-.59-.03-.89-.07-1.82-.14-2.7-.09-.82-.12-2-.53-1.72-.68-.06-1.58.33-2.77,1.46-.36.34-.26-.2-.68,0-.45.22-1.19.99-1.57,1.11-.3.1-.29-.38-.61-.22-.07.04-.3.41-.3.3,0-.04.14-.47.19-.5-.31.17-.72.84-.88.84-.41,0-1-.89-.89-1.3.02-.05.34-.8.34-.8-.03.09.28-.69.15-.43.28-.57.53-.71.63-.95.49-1.2.36-1.69.04-1.85-.32-.16-.8-.03-1.11.13-.48.26-.86-.54-1.31-.87-.42-.29-.9-.21-.93-.83-.02-.41.28-1.6.22-1.85-.01-.07-.04-.14-.06-.19-.03-.04-.03-.14-.14-.02-.16.15-.34.33-.52.52-.36.39-.75.83-1.11,1.18-.17.16-.32.16-.49.3-.37.3-1.41,1.36-1.95,1.69-.48.3-.91.14-1.46.48-.87.54-2.11,1.74-3.28,2.72-1.13.94-2.32,1.81-3.39,2.81-.52.49-.94,1.13-1.46,1.65-1.15,1.14-2.57,1.84-3.44,2.91-.18.23-.25.69-.48.9-.5.45-1.21.39-1.97,1.17-1.03,1.07-2.3,2.75-3.42,4.04-.25.29-.54.39-.75.66-.31.39-.43.92-.75,1.27-.14.16-.55.12-.69.3-.44.56-.56,1.33-.95,1.81-.27.32-.66.53-.93.84-.61.71-.98,1.6-1.55,2.11-.07.06-.18.27-.3.28-.02,0-.53-.23-.52-.24-.08.08.05.55-.09.8-.33.59-1.22,1.18-1.62,1.5-.28.22-.64.96-1.32,1.22-1.12.43-2.48.44-4.25-.86.16.12-.65-.6-.64-.59-.1-.15.2-.29.1-.45-.29-.46-.81-.86-.88-1.11-.04-.15.39-.34.37-.63,0-.08-.36-.37-.36-.42,0-.09.26-.09.25-.19-.05-.26-.44-.58-.57-.94-.08-.23.13-.46.05-.71-.31-.92-.6-2.35-1.67-1.77-.14.07-.01.41-.32.54-.5.21-1.17.12-1.44.33-.27.21-.16.61-.35.89-.27.41-.81.5-.99,1.01-.16.47.02.41-.56.73-.47.26-.3.73-.69,1.18-.42.49-1.08.86-1.46,1.39-.41.56-.58,1.22-.98,1.81-.44.65-1.23,1.22-1.59,1.93-.11.21.11.58-.01.8-.17.3-.67.38-.88.66-.25.33-.41,1-.39,1.53.01.36-.29.77-.55,1.27-.43.83-1.73,1.85-1.94,2.84-.05.26.24.6.15.8-.11.25-.62.41-.82.66-.36.45-.23,1.16-.63,1.45-.34.26-2.74.48-2.36,1.43.22.52-1.08,1.09-1.66,1.85-.16.21.09.4-.03.54-.2.22-1.08.27-1.23.49-.11.18.54.55.41.7-.18.22-.95.2-1.12.4-.53.63-.5,1.4-1.02,1.92-.34.34-1.22.57-1.81.96-.86.57-1.09,1.56-2.26,1.88-.35.09-1.02.14-1.71.14-.34,0-.69,0-1-.03-.31-.02-.6-.06-.73-.05-.84-.06-3.47-1.07-3.89-1.06-.65.02-1.03.46-1.45.86-.81.78-1.13,1.15-.05,3.43.04.09.62.54.74.87.1.27-.13.75-.17.68.28.46,1.05.81,1.26,1.19.3.54.24,1.03.54,1.52.27.43.96.91,1.29,1.36.18.29-.03.59.12.88.19.38.76.81.99,1.17.55.88.31,1.63,1.14,2.4.14.13.84.38.88.44.23.32-.02.72.13,1.04.14.29.68.55.93.81.16.17-.1.45.08.61.07.07.81.12.84.16.09.12.15.25.21.38.05.08.09.17.12.26.07.17.12.34.26.48.68.69,2.78,1.55,1.63,2.29-1.37.28-.32-.41-1.26-.3-.4.3.12.37-.28.65-.42.3-1.42.33-1.48.59-.05.26.84.59.98.82.25.4.04.89.3,1.37.18.33.83.61,1,.95.54,1.06,1.13,2.64.93,3.84-.04.22-.47.31-.59.54-.2.37.16.7-.08,1.01-.37.49-1.43.82-1.76,1.24-.6.76.05,1.7-.15,2.53-.05.21-.44.46-.43.66.03.5.51.96.61,1.47.1.6-.2,1.33-.07,2.02.11.62.65,1.3.59,1.85-.06.45-1,.93-1,1.45.02.61.79,1.69,1.34,2.68,0-.01.31,0,.33.1.2,1.03,1.6,2.55,2.3,3.5.16.22-.08.27.12.5.26.3.46.6.7.96.15.23.53.41.65.59.34.56.63.94,1.19,1.56.19.21.08.37.29.61.1.11.68.66,1.02,1.06-.02-.03.31.04.26.11-.24.34,1.4.94,1.77,1.39.3.33.22.66.47,1.1.63,1.08,2.18,2.72,3.86,4.26.29.26,1.07.83.99.94-1.33-1.1-2.64-2.25-3.88-3.38-.17-.17-.29-.42-.47-.6-.27-.26-.65-.45-.93-.69-.22-.18-.2-.35-.46-.6-.11-.12-.37-.25-.57-.46-.23-.25-.3-.49-.51-.72-.89-.91-2.14-1.86-2.91-2.7-.11-.12-.39-.36-.42-.48-.03-.11.29-.09.17-.26-.1-.14-.49-.14-.58-.21-.21-.15.02-.22-.02-.25-1.16-1.1-1.93-2.47-3.29-3.94-.38-.41-1.07-.78-1.37-1.17-.44-.58-.65-1.14-.84-1.66-.17-.52-.32-.99-.71-1.39-.17-.17-1.07-.63-1.11-.81-.02-.06.47-.11.49-.16.12-.3-.28-.45.13-.76.27-.21.85-.42.74-.8-.11-.34-.48-.7-.59-1.1-.08-.3.2-.6.17-.89-.09-.8-.92-1.54-1.13-2.32-.07-.27.28-.58.26-.9-.02-.46-.54-.94-.63-1.47-.03-.21.36-.56.38-.78.05-.69-.7-.79.27-1.15.06-.02.64-.15.66-.17.13-.17-.43-.45-.22-.62.08-.06.9-.12,1.02-.19.06-.04.74-.66.83-.81.13-.21-.26-.51-.26-.87,0-.54.63-.81.3-1.53-.04-.09-.5-.11-.44-.22.07-.15.24-.95.01-1.39-.13-.24-.78-.46-.96-.7-.25-.32-.08-.81-.32-1.24-.67-1.25-3.14-1.88-1.49-2.81.29-.16-.11-.15.34-.27.45-.12.46-.03.77-.17.66-.3.62-.53.22-.9-.08-.07-.52-.12-.46-.22.02-.03.53-.03.38-.15-.29-.23-1.14-.42-1.37-.67-.23-.16-.29-.76-.35-1.19-.06-.45-.13-.88-.4-1.26-.28-.38-1.19-.79-1.39-1.13-.39-.65-.33-1.4-.7-2.08-.39-.72-1.07-1.47-1.55-2.21-.12-.18-.19-.36-.27-.57-.09-.21-.13-.4-.38-.7-.3-.39-1.1-.91-1.27-1.21-.65-1.08-.61-2.05-1.16-3.03,1.31.08,1.15.92,2.45.99-.66-1.23-2.65-.88-3.46-1.45-.47-1.69-1.38-3.61-1.48-4.92-.06-.87.52-.93,1.62-1.42l.09-.04h.16c.1.02.2.03.29.03.19.02.36.03.52.04.32.03.6.07.92.11.62.1,1.36.25,2.69.54.68.15,2.54.62,2.71.63.73.04.73-.44,1.58-.68.41-.11,1.35-.04,1.56-.14,1.15-.54,1.21-1.69,1.96-2.58.39-.46,1.19-.75,1.46-1.13.19-.26-.25-.81-.02-.98.29-.22,1.33-.13,1.72-.33.48-.23.95-.61.8-1.1-.06-.18-.58-.47-.46-.61.18-.21,1.47-.06,1.56-.24.24-.43-.52-1.26-.25-1.69.73-1.11,4.6-1.57,4.17-3.1-.09-.42,2.39-1.26,1.7-2.11-.4-.5-.43-.25.3-.63.71-.38.64-.93.55-1.62-.07-.57.5-.07.99-.31.09-.04.34-.76.41-1.08.04-.22-.22-.54-.1-.71.23-.33,1.03-.5,1.21-.85.2-.37-.06-.93.17-1.25.15-.21.78-.09,1.12-.4.18-.17-.19-.41-.04-.71.1-.19.75-.37.83-.56.1-.22.11-.53.13-.8.06-.87,1.25-1.68,2.2-2.82.2-.24,0-.5.21-.8.32-.46,1.39-1.01,2.1-1.67.36-.33.64-.83,1.39-1.2.23-.11.57-.37.59-.38.23-.06.58.16.74.14.66-.08.52-.2,1.39.03.11.03.68.13.72.14.99.47,2.26,1.73,2.47,2.08.08.13-.53.25-.52.38.02.21.61.76.73,1.11.06.17-.18.29-.15.45.03.16.17.34.21.52.15.67.12,1.23.32,1.84.21.63.6,1.27.89,1.81.94.04.95-.67,1.55-.96.26-.13.9-.07,1.11-.23.29-.23.1-.69.31-.99.33-.47,1.17-.64,1.63-1.05.39-.35.86-.92,1.21-1.38.21-.28.17-.76.39-.99.22-.23.68-.15.85-.4.12-.18.29-.39.37-.63.06-.18-.04-.54.1-.71.24-.3.79-.31,1.07-.58.23-.22.14-.58.35-.89.5-.72,1.58-.96,1.79-1.76.06-.2-.05-.44.06-.61.27-.41.8-.56,1.17-.94.25-.26.23-.6.45-.9.15-.2.33,0,.48-.11.12-.09.26-.71.47-.9.18-.16.36.02.47-.12.19-.24.19-.63.37-.8.2-.19.46-.11.71-.3.17-.13.33-.5.5-.64.41-.32.9-.46,1.3-.77.25-.2.37-.55.63-.73.24-.16.57-.21.8-.4.81-.67,1.6-1.78,2.45-2.14.12-.05.58-.25.54-.21.22-.19.29-.56.5-.8.59-.69,1.18-.96,1.82-1.41.6-.42,1.21-1.11,1.8-1.57,1.08-.84,2.2-1.52,3.3-2.37.89-.68,1.58-1.5,2.31-1.78.35-.14.51.26.94,0,.25-.16,1.71-1.61,2.2-2.02.33-.26.74-.58,1.19-.94.09-.08.19-.16.29-.25l.15-.13s.05,0,.08,0c.11.02.21.04.31.05.2.03.36.08.37.25.02.27-.57,1.69-.58,1.94-.02.32.71.94.91.77.2-.17.22.16.49.17.1,0,.36-.34.45-.34.33,0,.49.43.85.35.24-.05.65-.52.9-.62.15-.06.16.2.28.19.21-.02.6-.5.7-.48.06.02.26.36.22.6,0,0-.59,1.85-.7,2.08-.58,1.28-.99,1.61-1.19,2.29-.12.42-.1.96.2,1.02.13.03.58-.75.86-.93.13-.09.05.45.31.4.16-.03.54-.57.7-.61.3-.08.25.57.82.15.06-.04.58-.83.62-.86.18-.11.12.26.26.22.17-.04.64-.7.81-.78.76-.39,1.17-.25,2.01-.85.38-.27.97-.9,1.11-.87.17.03-.13.79.05.75.04-.01.09-.03.14-.07.04,0,.07.04.11.04.08.02.16,0,.25-.03.17-.06.32-.13.37.05.09.33-.25,1.38-.2,1.77.04.38.38.29.47.64.06.27-.26,1.35-.21,1.75.05.34.43-.19.43.26,0,.62-.48,1.91-.52,2.65-.02.38.42.16.45.47.06.59-.49,2.37-.48,3.18,0,.4.5.11.46.49-.06.52-.42,1.42-.6,2.13-.24.99-.39,1.94-.24,1.62-.8,1.74-3.01,4.84-4.67,6.86-.92,1.12-1.54,1.59-2.59,2.71-.6.65-1,1.19-1.47,1.69-1.14,1.23-1.3,1.41-3.65,4.35-.38.47-.67.83-.9,1.11-.06.07-.11.14-.16.2-.04.04-.14.2-.2.29-.14.21-.26.38-.37.55-.44.66-.7,1.11-1.2,2.05-.83,1.54.62-.72.59-.14-.02.33-.65,1.52-.57,1.75.06.18.7-.37.58.03-.12.42-1.21,2.03-1.14,2.12.1.16.94-.34,1.73-.95.26-.2.44-.38.57-.35.23.06-.64,1.34-.57,1.57.02.06.2-.04.43-.18.13-.1.21-.1.29-.11.08-.01.17-.02.24-.02.26,0,.53.15.79.05.3-.11,1.34-.92,1.6-.87.8.18-.3,1.65.87,1.57.23-.01.1.23.42.11.09-.04.78-.49.82-.48.27.02-.51.66-.39.75.07.05.76-.46.83-.32.3.54.22,1.42-.56,2.46-.78,1.05-2.28,2.24-4.76,3.61-.43.36-1.04.88-1.64,1.39-.02.02-1.49,1.28-1.65,1.41-.42.32-.92.39-1.66,1.05-.1.09-1.51,1.55-2.19,2.18-.36.33-1.43,1.21-2.2,2.02-.74.77-.08.2-.53.72-.11.11-1.04,1.04-1.09,1.09-.36.51-.42.99-.45,1.24-.02.15.6-.21.6,0,0,.25-.12.6.63.43.18-.04.31,0,.57-.07.21-.06.94-.46,1.09-.47,1.03-.05,1.03.63,1.69.54.63-.08,2.29-.75,2.66-.71.05,0-.25.41.02.59.08.05,1.02-.23,1.05-.19.11.11-.69.52-.52.55.24.04.86-.3,1.57-.37.51-.04.03.37.52.35.42,0,1.01-.08,1.55-.12.28.03,1.24.01,1.4.08.24.09-.16.41,0,.52.08.05.88.04.95.08.27.18.15.55.49.73.81.42,2.22.7,2.92,1.14,1,.64,1.81,1.28,1.05,1.69-.43.23-1.22.12-1.94.29-.43.1-.28.27-.96.35-1.4.17-2.88.12-4.27.13-1.42.05-2.71.09-3.66.2-.11.45,1.87.56,2.53.91.56.28.48.63,1,.91.76.41,2.14.78,2.99,1.11.32.13.21.26.5.38.22.09.79.17,1,.25.25.09.2.27.51.37.72.24.77.1,1.52.75.67.58.74.55-.99.75-1.49.17-7.91-.01-9.08.39-1.01.35.79.71,1,1.25,0,0-.68.14-.51.25.19.12.8.22,0,.5-.97.34-1.76.01-3.57.38.21.73-.33,1.37-.04,2,.09.19.82.31,1.02.5.37.36.18.8.5,1.25.58.82,1.73,1.64,2.04,2.75.01.03.72.12.52.25-.08.05-.61-.01-.52.13.14.2.82.31,1.04.5.27.25,1.14,2.11.52,2.5-.07.04-.84.18-1.03.25-1.23.45-5.08.65-8.78.26-1.68-.18-2.37-.19-2.57.51-.03.1.64.2.52.38-.09.13-.38.51.02.88.48.45,1.52.73,1.56.87.2.78-1.8.41.03,1,1.4.45,1.5,1.62,2.64,2.5.6.47,1.44.94,2.08,1.5.27.23.21.55.53.75.28.18,1.24,0,1.52.12-.07-.03.17.49.52.75.51.38,1.36.84,1.53,1.5.08.28-.49.44-.49.63.02.64.82,1.13-1.45,1.63-.11.02-.94.1-.99.13-.57.33-.46.14-1.96.38-.29.05-.8.23-.97.25-1.85.2-3.78.02-4.41.38-.16.09-.12.27.04.48.08.11.2.23.33.35.13.13.28.26.48.32.74.32,1.63.7,2.01.92.83.48.4.57,1.65.94.88.27.35.27,1.07.72.12.08.71.22.96.4.25.17.84.33.95.42.24.18-.18.31.08.49.16.11.71.3.93.46.28.2.2.28.49.5.43.32,1.29.8,1.36.93.13.21-.46.08-.42.23.07.26,1.04.9-.82.54-.95-.19-1.36-.18-1.69-.27-1.63-.43-2.22-.82-4.33-1.72-.12-.08-2.68-1.3-3.54-1.38-1.76-.25.87.66,1.92,1.4.91.63.91,1.24,2.74,2.12,1.12.55.17.42,1.33,1.18.1.06.83.5.85.51.2.21-.24.24.05.48.28.23,1.03.49,1.24.72.16.18.42.56.44.58.24.38-.04.67-.14.63.04.1.93.45,1.1.58.17.14-.38.1-.34.22.02.05,1.1.68.11.4-1.99-.86-2.94-1.44-3.54-1.9-.14-.11-.63-.37-.58-.39.02-.01.67.26.55.18-.14-.1-.88-.46-1.07-.58-.45-.27-.79-.61-1.97-1.19-.27,0,.08.21.35.44.06.05-.25-.05-.15.02.27.17.83.46.98.58.17.15-.23.06-.03.23.45.38,1.8,1.21,1.61,1.36-.08.07-.86-.23-.81-.16.09.16.88.63,1.16.93.09.1.26.46.17.72-.08.27-.4.45-1.04.23,0,0-.41-.2-.87-.43-.45-.23-.94-.48-1.13-.6-.65-.4-.37-.32-.64-.53-.32-.24.06.02-.28-.17-1.16-.65-.32-.37-.69-.73-.13-.12-1.03-.68-1.3-.89-.07-.05-.08-.14-.15-.19-.68-.56-1.09-1.12-1.91-1.75-.36-.28-1.01-.7-1.41-.97-.22-.15-.26-.3-.81-.62-.12-.06-.61-.33-.69-.37-.48-.33-.28-.35-.81-.68-.66-.42-1.44-.8-2.1-1.19-1.4-.69-.08.05-.8-.28-.52-.27-.09-.12-.69-.43-.66-.31.04.1.69.43,1.45.72.44.38.6.5.12.09.57.32.65.4.1.1-.21-.01-.1.09.19.19.8.63,1.04.89.16.17-.19.34.38.78.14.1.75.47.8.53.06.08-.27-.03-.25.09.03.11.69.65.72.77.02.07-.53-.18-.49-.1.05.09.24.25.33.37.05.06,0,.1.08.2.03.04.39.31.4.34.02.05-.15-.03-.11.02.17.25.18.25.23.56.02.12.22.64.13.99-.08.35-.43.53-1.06.06-.84-.63-.93-.82-1.23-1.4-.07-.13.07-.01-.06-.18-.13-.17.07-.13-.31-.51-.48-.18-.06.45-.02.78.03.15.09.38.07.52-.04.3-.18.5-.25.86-.03.13.01.39-.06.47-.08.06-.29,0-.4,0-.05,0,0,.22-.02.22-.23-.01-.6-.25-.87-.29-.28-.54-.57-.97-.83-1.63-.09-.01-.17-.05-.28.1-.05.07,0,.3-.07.38-.08.08-.31-.09-.39-.02-.07.06-.05.36-.12.44-.18.18-.39.27-.59.51-.21.24-.39.73-.54.83-.1.07-.47-.19-.64-.12-.01,0-.06.74-.39.36-.33-.4-.36-1.03-.35-1.59.02-.91.76-.64.67-1.43-.06-.24-.11-.12-.18-.08-.04.02-.17.04-.25.1-.18.13-.3.4-.49.68-.08.12-.12.02-.18.16-.1.23-.41.69-.79,1.1-.17.17-.45.5-.65.65-.21.18-.41.28-.55.26-.27-.03-.21.03-.5-.4-.13-.19-.1-.46-.38-.4-.64.14-.77,1.14-1.25,1.68-.09.1-.45.31-.63.47-.37.33-.55.64-.88.26-.06-.07-.15-.42-.25-.37-.42.17-.95,1.02-1.5,1.56-.26.26-.5.5-.75.69-.26.19-.56.3-.75.46-.38.33-.75.93-1.25,1.25-.12.08-.27-.01-.38.08-.27.24-.87.41-1.25.67-.53-.2.18-.14-.5-.39-.26-.09-.27-.21-.5.1-.02.25.44.19.63.31-.18.36-.66.17-1,.27-.24.07-.71.47-1,.34-.31-.13-.05-.14-.38-.08-.12.02-.2.07-.38.09-.36.03-1.1-.17-1.63-.33-.13-.03-.26,0-.38-.06-.1-.05-.27-.22-.38-.28-.08-.04-.27-.01-.75-.48-.13-.18.13-.09.13-.1,0-.03-.2-.23-.13-.24.13,0,.85.38,1.25.45.1.02.13-.03.25,0,.22.05.58.11.88.13v.33c.4.31.08-.28.25-.38-.1.07.59-.09.63-.1.11,0,.77.18.88,0,.21-.33.07.05.5-.06.11-.03.21-.15.38-.23.18-.1.49-.13.75-.31.03-.02.24-.06.25-.08.2-.42.03,0,.5-.17.06-.02.07-.23.12-.25.18-.08.48-.09.63-.2.23-.16.38-.59.63-.82.14-.13.42-.12.63-.29.13-.1.24-.36.38-.47.13-.11.28-.03.25,0,.12-.09.04-.25.12-.33.41-.39,1.03-.73,1.5-1.32.27-.34.47-.87.75-1.21.13-.16.39-.16.5-.28.3-.3.64-.94,1-1.4.26-.32.6-.49.88-.84.05-.06.08-.42.12-.46.23-.24.49-.36.75-.87.13-.25.62-.93.87-1.4.23-.43.63-.86,1-1.53.35-.64.44-1.1.53-1.03.12.03.34.78.49.92.38.34.68-.43.86-.65.03-.03.12.08.14.02.02-.06.06-.22.11-.29.05-.07.12-.14.18-.18.02-.02.08.1.09.08.02-.04-.02-.32.08-.07.11.24.34.79.51,1.14.25.56,0,.17.36,1.07-.05-.18.03-.14,0-.27-.02-.1.19.2.15.18,0,0-.09-.12-.09-.11,0,0,.03.07.02.05,0-.02,0-.03-.01-.05,0-.04-.02-.08-.08-.18-.07-.12-.38-.54-.35-.54,0,0,.21.26.22.29.03.04.13.09.1.04.73.9.93,1.33,1.24,1.95.4.46.09-.21-.03-.47-.05-.13-.24-.4-.31-.54-.06-.12.02-.11-.08-.27-.07-.1-.19-.23-.28-.34-.17-.22-.39-.52-.61-.78-.17-.19-.4-.44-.6-.64-.2-.2-.36-.36-.34-.36,0,0,.18.13.35.25.18.12.34.23.35.24.3.23.36.32.77.7.84.78.44.38.69.75.06.06.27.29.33.35.12.17.15.26.25.4.23.34.58.8.7,1.06.12.26,0,.33.1.59.04.1.19.33.25.48.05.12-.05.21.22.48.38.25.19-.18.13-.4-.02-.09-.05-.22-.1-.35-.01-.03-.03-.12-.06-.18-.02-.05-.24-.3-.25-.32-.04-.09.18.03.14-.06-.02-.05-.27-.31-.27-.32-.04-.12.04-.1-.01-.23-.05-.12-.14-.26-.2-.39-.13-.24-.03-.25-.36-.63-.12-.14-.46-.43-.54-.53-.26-.3-.1-.25-.32-.5-.27-.29-.67-.64-1.1-1.03-.1-.08-.43-.35-.49-.4-.14-.13.14.05-.02-.09-.34-.3-1.46-1.1-1.46-1.15,0-.02.73.34.77.36.56.32,1.78,1.13,2.55,1.73,1.21.93,1.69,1.51,2.32,2.26.15.17.4.42.5.57.15.21.08.26.19.41.16.21.91.96.53.93Z"/><path class="cls-2" d="m237.85,322.92c.36-.23-.95-.68-1.16-.62-.43.15-1.41,1.44-1.96,1.66-.35.14-.54.08-.83.04-.14-.02-.31-.03-.53,0-.11.01-.23.03-.37.07,1.74-.27,3.64-.56,5.71-.88.09-.01.07-.01.06,0h-.02s-.05.01-.05.01l-.1.02-.19.04-.39.1c-.26.08-.52.17-.78.27-.52.2-1.06.44-1.61.7-1.1.51-2.28,1.07-3.6,1.44-.62.18-1.35.22-2.16.28-.4.03-.82.06-1.25.11-.18.03-.36.05-.55.08.24-.04.48-.07.73-.09.02,0,.49-.06,1.01-.12.52-.06,1.1-.12,1.31-.11.25,0,.86.54,1.07.52.33-.03.67-.11,1.02-.21.16-.04.38-.11.49-.15h-.14c-.19-.03-.38-.04-.46.07-.19.3.06.97-.04,1.24-.03.07-.03.44,0,.43-.1.04-.54-.4-.62-.29-.23.3,0,1.23.09,1.85l.02.22c0,.07.11.22.16.32.11.21.23.41.34.62.22.39.44.78.74,1.21.16.23.91.76.93.79.11.19-.55.04-.42.25.17.26.69.69,1.02.98.36.3.46.48.01.63-.21.07-1.82.04-2.07.22-.04.02,0,.25-.05.25-.2.02-.61-.01-1.11-.11-.25-.05-.53-.11-.82-.19-.32-.08-.65-.18-.99-.29-1.36-.44-2.61-1.17-2.96-1.44-.82-.61-1.44-1.64-2.38-2.74-.25-.29-.25-.37-.5-.76-.02-.03-.47-.76-.5-.8-.45-.52-1.5-.95-1.85-1.45-.62-.92-.45-1.71-1.07-2.67-.54-.85-1.38-1.79-1.95-2.71-.31-.52-.22-.99-.55-1.57-.13-.23-.77-.43-.92-.66-.17-.27.08-.61-.07-.89-.27-.51-.6-1.09-.81-1.56.07-.22.14-.44.21-.65.14-.44.25-.89.25-1.39-1.53-.43-2.5-.36-3.13-.11-.07,0-.01.09,0,.16l.07.22.16.45c.12.3.23.6.35.9.24.6.48,1.18.68,1.71,1.27,3.4,2.28,6.11,3.75,9.46.42.95.93,1.8,1.55,3.24.31.7.66,1.34,1.01,1.97.36.64.83,1.27,1.09,1.95.09.2.53.42.45.69-.1.24-.09.48,0,.74.11.27.27.66.68,1.67.84,2.16-.19,3.99-2.25,3.56-1.19-.24-2.14-2.33-2.96-4.28-.1-.24-.2-.48-.3-.72-.05-.12-.1-.23-.15-.34l-.12-.23c-.16-.3-.32-.58-.48-.81-.32-.47-.65-.76-1-.67-1.21.37-.92,1.66-.08,3.89.8,2.03,1.95,4.09,2.16,4.75.79,2.46.67,4.52.98,5.34.19.52.73.78,1.02,1.27,1.39,2.33,2.8,7.55,4.36,11.15,1.79,4.18,4.06,12.29,5.27,17.81-.66.88-2.17.2-3.19.96-2.36,1.77-3.76-2.77-6.56-4.16-.48.23-.38,1.77-.19,2.73.27,1.34.93,1.27,1.14,1.93.51,1.61.78,3.43,1.5,5.29.25.64.87,1.11,1.16,1.93.41,1.17.43,1.77.76,2.64.54,1.39,1.45,2.66,1.87,3.89.58,1.7.51,3.66,1.07,5.32.49,1.45,1.41,3.6,2.06,5.22.72,1.82,2.08,4.05,2.07,5.22-.02,2.6-1.13.07-1.3,1.48.33,2.38,1.33-.31,2.27,2.49.47,1.37-.05,6.85-.53,8.18-.16.44-.69,1.57-1.24,2.16-1.32,1.41-3.87.18-5.28,1.89-.57.7-.77,1.98-1.11,3.51-.3,1.36-1.36,3.67-.33,6.15.54,1.3.79.19.73,1.96-.03.85,1.74,4.97,2.25,6.56.45,1.4.48,2.59.96,3.97.12.34,1.08.99,1.16,1.23.21.6.03,1.41.23,2.01.9,2.65,2.05,7.22,3.36,11.17.12.35,1.09.98,1.17,1.23.43,1.2.3,2.85.99,3.96.65,1.05.34,2.3,1.08,4.63.03.09.06.15.11.26.05.12.11.25.17.38.13.26.28.52.42.77.29.5.57.97.66,1.27.63,2.34,1.06,4.83,1.48,7.56.16,2.64.31,5.52.67,8.87.14,1.27.89,2.71,1.08,4.12.14,1.01.26,2.04.35,3.07.02.25.06.52.05.76-.02.24-.04.47-.07.7-.06.47-.14.94-.25,1.4-.41,1.84-1.23,3.6-2.32,4.85-.54.63-1.14,1.07-1.74,1.44-.6.37-1.17.67-1.77.88-1.19.41-2.29.45-3.24.06-.73-.3-1.58-1.51-1.89-3.15-.11-.62.26-1.73.23-2.46-.02-.38-.16-.69-.48-.78-.32-.09-.85,0-1.73.32-2.52.93-5.9,3.33-9.43,5.78-1.66,1.14-3.29,2.35-4.74,3.47-1.13.87-1.27,1.7-2.85,3.01.24-.2-.84-.41-.99.01-.13.41-.57.95-.94,1.4-.23.25-.4.46-.77.78-.34.3-.71.62-1.11.94-.8.64-1.69,1.32-2.62,2-.47.34-.94.68-1.4,1.02l-.7.51-.35.25c-.12.07-.25.12-.38.18-1.48.39-2.89.76-4.03,1.13-.17.06.07.51-.71.66-.44.08-1.3-.21-.98-.34-1.05.41-1.76.89-2.44,1.34-.52.42-1.01.8-1.73,1.04-1.32.44-3.63.64-5.23,1.05-5.07,1.29-9.43,3.65-14.24,3.54-1.19-.02-1.93-.35-2.86-.5-.47-.08-.98-.12-1.62-.05-.72.09-1.79.31-3.04.69-1.14.32-2.09,1.38-3.37.96-.02,0-.39-.16-.96-.38-.55-.23-1.28-.54-2.02-.85-1.46-.62-2.88-1.35-3.07-1.55-2.17-3.02,2.35-8.94-4.45-6.73-.84.28-1.21,1.12-2.08,1.42-.84.28-2.58.11-3.38.38-1.1.36-1.79,1.34-2.06,1.42-1.72.52-4.37.36-6.06.82-.32.08-.43.89-.69.97-1.01.31-2.42,0-4.02.4-.87.21-1.68.68-2.68.93-.62.16-2.19.02-2-.02-2.43.62-2.75,1.95-4.67,1.42-.52-.44-.72-1.1-.67-1.95-3.4-1.25,1.74.97-1.34,0-.83-.26-1.1-.79-2.02-.96-.53-.72.79-1.04,1.32-1.95.36-.62.2-1.86.66-2.43,1.03-1.28,3.55-1.76,3.37-2.44-1.07-3.97-8.27-.07-10.15.58-3.82,1.28-7.13,1.93-11.4,3.15-2.13.62-4.33,1.81-7.29,2.63-.5.13-.87.22-1.17.3-.31.08-.62.15-.92.25-.46.15-1.35.35-2.44.58-.55.11-1.13.23-1.73.35-.61.07-1.25.02-1.86.03-1.05-.12-1.95-.22-2.71-.31-1.16-.15-2.64-.33-3.87-.49.12.02-.47.69-.76.29-1.03-1.42-1.28-.31-2.71-.17-1.57.16-2.4-.57-4.66-.62-.33,0-1.28.61-1.5.59-1.44-.08-2.94-.42-4.65-.59-1.43-.14-3.09-.45-4.66-.57-2.32-.18-4.41-.22-6.63-.34-.46,0-1.37-.12-2.12-.21-.8-.1-1.61-.2-2.46-.31-.43-.06-.87-.13-1.31-.19-.22-.04-.45-.07-.67-.11-.23-.04-.46-.06-.66-.19-.82-.42-1.68-.87-2.57-1.36-.3-.15-1.71-1.61-3.01-2.37-.5-.28-1.04-.6-1.62-.95-.28-.18-.58-.36-.88-.55-.22-.14-.44-.29-.66-.44-.88-.59-1.78-1.26-2.65-1.93-1.01-.8-1.99-1.58-2.85-2.26-.99-.8-1.8-1.51-2.35-2.04-2.36-2.33-2.54-2.67-3.3-4.22-.89-1.86,1.67-4.26,4.22-4.01.5.06,2.17.64,2.51.57.78-.16.86-1.31,1.51-1.63.34-.16,2.01.11,2.03-.28.06-1.06-1.04-2.05-2.53-2.92-1.49-.87-3.41-1.66-4.85-2.25-.38-.16-.77-.31-1.11-.53-.34-.22-.63-.49-.86-.79-.48-.61-.78-1.31-1-1.98-.46-1.38-.53-2.62-1.08-3.56-.31-.52-.1-5.54-.28-8.01-.06-.82-.38-1.75-.51-2.78-.07-.6.33-1.57.24-2.16-.04-.25-.73-.56-.74-.74-.04-.56.09-1.31.22-2.1.06-.39.13-.79.18-1.19.05-.36.08-.71.08-1.03-.01-1.16-.54-1.82-.5-2.78.05-1.28.61-1.83.81-3.31.28-2.1-.16-4.92.09-7.47.23-2.37.94-4.92,1.28-7.34.59-4.24.62-10.08,1.88-12.72.42-.88,1,0,1.6-.51.62-.53,1.14-2.17,2.11-1.82.6.22,1.79,1.62,2.51,1.62.11,0,.44-.82.82-.6.29.17,1.78,2.31,2.4,2.98.54.58.88.82,1.41,1.51.96,1.27,1.43,1.87,3.11-.36.41-.54,1.49-1.91,1.73-2.55.41-1.16.42-4.41.77-6.07.32-1.53.85-2.49.95-3.32.42-3.39.93-8.87,1.11-12.86.08-1.56-.23-2.86-.14-4.11.86-11.64,1.48-25.73.14-36.12-.2-1.58.11-3.29-.01-6.13-.13-3.03-.61-5.99-.72-8.91-.08-2.32.18-4.58.05-6.8-.03-.49-.26-.76-.2-1.38.02-.23.28-1.01.3-.65-.13-2.06-.56-2.65-.58-4.13-.06-3.84.27-14.02.51-14.92-.03.1.51-.64.51-.64-.05.13.44-.69.27-.66.38-.07.5,1.65.66,1.41,1.54-2.36,1.12-13.87.78-18.29-.26-3.47.1-10.91.12-16.98.04-5.58-.33-10.46.07-13.58.26-2.06,1.34-3.78,1.52-5.33.44-3.57.05-7.71.19-12.21.03-1.08.26-2.28.32-3.37.12-2.36.26-8.68.56-12.19.28-3.19.96-6.13,1.21-9.43.42-5.25.56-12.57.91-19.63.33-6.77.75-13.77,1.01-20.3.02-.5.03-1,.05-1.49l.08-2.62-2.05-1.3c-.45-.29-.88-.57-1.29-.86l-.47-.36c-.14-.13-.3-.23-.43-.37-.55-.51-1.1-1.13-1.31-1.93-.01-.15-.05-.29-.06-.44l-.24-2.07-.14-1.22c-.04-.41-.01-.81-.02-1.21.02-1.6-.05-3.21.21-4.71.1-.76.16-1.51.27-2.24.16-.71.32-1.41.48-2.1.07-.34.15-.68.22-1.02.09-.33.22-.64.32-.96.21-.63.41-1.24.59-1.84.14-.53.39-1.04.57-1.6.2-.55.39-1.13.68-1.68.78-1.15,1.44-2.24,2.5-3.27.5-.53.98-1.14,1.65-1.71.65-.58,1.26-1.29,2.11-1.97,1.08-1,2.4-1.99,3.85-2.98.76-.45,1.47-.99,2.32-1.42.42-.22.85-.44,1.28-.67.23-.12.4-.22.68-.35l1.02-.44c.68-.3,1.37-.59,2.05-.89.68-.3,1.31-.63,1.96-.95l.97-.48.48-.24c.14-.09.26-.18.38-.27l1.51-1.07.38-.26.31-.43.61-.87c.41-.57.81-1.15,1.21-1.71.8-1.13,1.59-2.24,2.36-3.33.57-.8,1.09-1.5,1.6-2.18l.38-.5c.04-.07.17-.19.14-.22l-.12-.06c-.16-.08-.32-.17-.48-.26h0c-.23-.28-.49-.59-.75-.91-1.09-1.29-2.19-2.53-3.26-3.74-1.11-1.11-2.21-2.16-3.25-3.27-.25-.24-.45-.55-.75-.77l-.23-.16-.12-.08-.06-.04s-.12.03.07-.13l.76-.68c.09-.08.06-.07.06-.08v-.02s-.04-.05-.04-.05l-.1-.19c-.27-.52-.54-1.05-.85-1.5-.24-.34-.48-.68-.71-1.02l-.35-.49-.29-.32c-.39-.43-.78-.86-1.16-1.28-.77-.85-1.55-1.73-2.24-2.62-.93-1.2-1.72-2.42-2.63-3.6-.91-1.34-1.87-2.71-2.83-4.06-.94-1.34-1.89-2.69-2.57-3.78-.17-.27-.7-1-.74-1.18-.01-.03.51.04.54.08-.1-.16-.44-.53-.83-.99.07-.47.39-.78.8-.99,2.05-.95,6.04-.88,7.82-.87,1.23-.01,4.08-.27,6.41.1.95.15,1.82.34,2.6.54.77.18,1.43.41,1.95.68.52.27.88.64,1.08.99.22.38.38.85.2,1.34.04-.09-.19.1-.26.35-.1.24-.19.5-.19.49-.17.16-.85.04-1.02.23-.47.52-.46,1.16-.74,1.39-.16.14-.99-.01-1.35.22-.09.06.02.51-.06.55-.1.06-.44-.1-.52-.02-.22.24-.02.75-.14,1.12-.07.23-.47.31-.49.56-.05.48,0,1.11.3,1.61.28.51.71.9,1.15.96.11.01-.01-.36.28-.29.46.12.92.6,1.13.58.2-.01.25-.41.51-.53.18-.09.37-.08.55-.08.09.01.18-.04.28.01.05,0,.07-.06.15-.09.24,0,.49,0,.74,0,1.93-.01,1.34-.16,3.67.29,1.88.38,3.17.11,5.6.42,2.67.34,5.39,1,8.13,1.39,2.92.42,5.82.65,8.92,1.14,3.43.55,7.23,1.55,10.78,2.14,1.03.17,2.15,0,3.27.2,1.55.28,2.84.91,4.39,1.25,1.85.41,4.94.82,7.13.98,1.49.11,3.8.66,6.42,1.2,4.34.89,11.04,3.09,15.67,3.99,1.22.23,2.21.06,3.23.32,1.26.32,2.75,1.11,4.09,1.57,2.45.82,5.17,1.23,6.68,2.02.32.17.77.5,1.18.88.11.1.21.19.29.28.1.1.18.19.25.27.09.09.11.16.15.23.13-.1-.43.74.98-1.35,2.02-2.87,3.92-5.2,5.55-6.63.7-.69,1.56-1.18,1.97-1.35.17-.05.21-.08.3-.09.04,0,.09-.01.14-.01h.05s.03,0,.05,0h.02c-26.99-4.25-7.49-1.18-13.51-2.13h-.01s-.02-.02-.02-.02l-.04-.02-.18-.1-.36-.2c-.06-.03-.13-.08-.17-.09l-.03.07c-.54,1.44-.79,2.82-.93,4.06-.25,2.66-2.84,9.28-4.59,15.36-.49,1.7-.36,2.18-.71,3.28-.01.06-.05.12-.04.17l.09.17.17.34c.11.24.21.48.32.72.21.49.41,1.01.61,1.52.2.51.4,1.02.6,1.5.22.47.36.99.78,1.22,1.16.91,2.44,1.09,3.48,1.91,1.46,1.15,2.31,2.55,3.64,3.62,1.47,1.17,2.95,2.27,4.38,3.3h0c.47.03.92.06,1.36.08h0c2.55,1.98,5.48,3.65,7.84,5.22l.51.34c.07.05.19.13.23.16l.13.11c.17.15.34.31.51.46.34.33.7.64,1.02,1.02.33.36.67.74,1.03,1.13.56.93,1.15,1.9,1.76,2.87l.34.53c.07.07.1.2.12.35l.08.42c.11.56.22,1.12.34,1.69.23,1.15.47,2.32.71,3.5.23,1.34.47,2.68.7,4.03l.35,2.02c.11.77.22,1.53.33,2.3.21,1.53.42,3.04.63,4.52.2,1.56.36,3.3.52,4.89.16,1.64.31,3.17.43,4.81.11,1.7.2,3.37.26,4.99.07,1.98.14,4.3.13,6.91,0,2.6-.05,5.4-.11,8.13.36,0,.7.02,1.02.04.28.06.41.27.59.4.32.3.55.61.6.93.14.84-.31,2.91-.79,4.89-.47,1.98-.96,3.86-.77,4.16.15.23.38.35.7.38.39-.05.52.19.77.3.47.25,1.06.34,1.65.43.35-.03.39.25.53.39.13.16.25.29.38.4.25.23.57.28.85.33.14.2.32.29.57.28.06,0,.13-.01.2-.03.05-.03.04.03.14-.08.17-.21.34-.43.52-.65.72-.9,1.51-1.9,2.38-3,.28-.35,1.48-2.47,2.53-3.74.86-1.04,2.54-2.47,2.32-2.16,1.39-1.87,2.17-3.84,3.34-5.38,1.65-2.18,3.31-3.82,4.76-5.79,1.3-1.76,2.57-4.12,3.92-6.06.96-1.38,2.14-2.43,3.12-3.79,1.28-1.78,2.55-4.11,3.73-5.8.74-1.08,1.43-1.96,2.11-2.81.68-.84,1.35-1.65,2.01-2.46,1.31-1.61,2.58-3.22,3.72-5.09.4-.65.94-2.28,1.11-2.53,1-1.44,2.5-2.71,3.57-4.11.93-1.23,1.61-2.79,2.4-4.01.51-.8,1.62-1.63,2.1-2.42.19-.32.06-1.27.19-1.47,1.51-2.19,3.75-4.6,5.19-6.6,2.15-3.38,4.15-8.7,7.45-10.6,1.74.14-1.31,1.91-.43,2.34,1.28-.81,1.27-1.57,2.49-2.31,1.31-.8,1.96-.04,2.93-1.02.96-.97,1.68-3.09,2.46-4.15.12-.16.24-.32.38-.5l-16.78,4.11c1.07.32,2.12.97,3.38,1.28.97.24,2.21.09,3.25.37.82.22,1.74.49,2.7.79.24.08.48.15.73.23.17.01.16.13.16.23l.03.31c.04.42.08.85.12,1.27.07.87.12,1.76.13,2.62.05.42-.09.88-.18,1.32-.1.44-.2.86-.32,1.26-.17.58-.62.82-.89,1.39-.11.23-.18.44-.24.66l-.07.32c-.02.11-.05.17-.03.45.03.92.05,1.79-.08,2.59-.4,2.49-1.47,3.93-1.83,6.1-.64,3.91-.05,9.16-.28,13.54-.06,1.09-.46,2.35-.46,3.39,0,2.71.46,5.31.53,8.12.07,3.25-.28,7.08-.18,10.83.08,3.4.58,7.19.48,10.15-.08,2.38-1.05,4.66-1.08,7.45-.02,3.26.7,9.36,1.19,14.89,0-.06.31.15.33.67.15,5.63,1.46,14.28,2.11,19.63.15,1.22-.09,1.43.09,2.71.12.86.23,1.7.33,2.59.03.22.05.45.08.67.01.07.03.32.04.53.01.22.03.43.04.65.05.88.1,1.78.16,2.73.14,2.45.51,4.37.62,6.23.01.18.02.36.03.54l.07.47c.05.31.1.61.14.91.1.6.19,1.18.28,1.76.19,1.15.37,2.25.55,3.38.09.56.19,1.13.29,1.71l.07.44c.11.06.27.06.41.1.29.05.58.11.87.16,1.19.21,2.45.44,3.86.68,1.92.33,3,.76,5.22,1.16.6.65,7.09-.18,11.6-.47-.33.02.68-.31,1.34-.25.42.04.91.04,1.45.02.13,0,.26-.01.4-.02l.22-.03c.15-.03.31-.05.47-.08.64-.12,1.36-.31,2.11-.52,1.49-.42,3.08-.89,4.36-1.07,1.9-.28,3.62-.19,6.09-.41.76-.08,1.57-.16,2.42-.25.43-.05.87-.1,1.31-.16l.34-.04c.05,0,.03.03.05.05l.06.1.11.21s.02.12.07.06l.14-.11.28-.24c.09-.07.13.03.2.04.13.06.26.11.39.16-.17.22-.41.49-.61.74-.02.06-.08,0-.05.15l.07.42.14.84.29,1.68c.2,1.12.39,2.24.59,3.36.27,1.49,1,4.89.94,5.41-.62-3.21-1.25-6.48-1.88-9.77l-.24-1.23-.11-.62-.03-.15.03-.03.06-.06.46-.46.12-.11s-.05,0-.07,0l-.17.02-.34.04s-.06.01-.1.06l-.1.11-.11.12-.06.06s-.01-.03-.02-.04c-.02-.09-.05-.13-.07-.16v-.03s0,0-.02,0l-.12.03-.25.06c-.33.07-.66.14-1.01.22-1.07.21-1.95.19-3.38.43-.66.11-1.48.36-2.71.54-1.4.21-2.76.27-4.06.47-1.3.2-2.62.43-3.95.68l-1,.19-.5.09-.25.05-.12.02-.25.02c-1.36.12-2.73.25-4.08.37-2.74.25-5.46.5-8.1.74l-.99.08-.79-.14c-.52-.09-1.04-.19-1.55-.28-1.03-.19-2.03-.38-3.02-.57-1.13-.22-3.47-.63-4.44-.89-.9-.24-.35-.4-1.88-.72-.33-.07-.61-.11-.85-.12-.14-.13-.16-.33-.25-.44-.14-.25-.28-.41-.35-.75-.34-1.48-.17-2.15-.23-2.44-.26-1.34-.53-2.71-.81-4.11-.07-.35-.13-.71-.2-1.07-.05-.39-.07-.81-.1-1.22-.06-.82-.12-1.66-.19-2.5-.12-1.69-.24-3.41-.36-5.17-.03-.44-.06-.88-.09-1.32l-.05-.67-.02-.3-.02-.17c-.06-.46-.11-.93-.17-1.39-.46-3.75-.96-7.76-1.6-11.93-.35-2.31-1.03-4.57-1.31-6.77-.41-3.26-.59-6.38-.75-9.23-.15-2.86-.27-5.46-.63-7.69-.16-.99-1.03-3.73-1.06-4.74-.01-.32.48-.44.5-.68.14-1.59-.25-2.52.17-4.06.29-1.04.88-1.97.78-4.06-.09-1.87-.44-3.91-.53-6.09-.06-1.62.23-3.14.22-4.74-.04-4.34-.83-8.59-1-12.86-.06-1.45.31-3.04.31-4.74,0-2.46-.49-5.21-.55-8.12-.02-1.13.39-2.87.42-4.06.09-3.71-.66-4.47.34-6.09.06-.09.65-.58.67-.68.14-.9-.41-2.57-.19-3.39.09-.32.9-.33,1.03-.68.02-.05.07-.27.15-.6.04-.16.08-.35.13-.56.02-.1.05-.21.07-.32l.12-.11c.32-.3.65-.67.75-.82.27-.42.14-1.01.4-1.7.1-.27.23-.52.35-.77.13-.24.15-.46.22-.7.12-.48.21-1.02.07-1.7-.03-.17-.46.02-.4-.24.02-.16.14-.71.1-1.26-.55-.31-1.24-.63-1.82-.78-.65-.17-1.68.08-2.3-.01-.84-.14-1.76-.78-2.84-1.04-.55-.13-1.08-.19-1.56-.21l20.2-4.95c-2.69,4.32-3.96,7.85-7.44,9.63-.74.38-.48.69-1.17.77-.68.08-.35-.3-1.03-.02-1.44.6-2.26,1.56-3.35,3.36-.22.36-.16.95-.57,1.3-.14.12-.39-.37-.74.25-.38.64-.42,1.1-1.1,2.27-.55,1.02-1.14,2.07-1.87,3.06-2.95,3.96-6.47,7.42-8.82,10.81-1.18,1.71-2.2,4.18-3.28,5.68-2.06,2.84-4.69,5.64-6.88,8.59-2.26,2.98-4.7,6.95-7.09,10.44-1.18,1.73-2.52,3.36-4.16,5.74-1.13,1.63-2.5,4.25-3.4,5.46-3.26,4.36-6.44,7.61-9.42,11.55-.34-1.61,2.48-4.31,2.09-5.85-1.86,2.43-2.29,3.87-2.42,5.03-.14,1.16.04,2.02-.72,3.42-1.34,1.59-2.7,3.22-4.06,4.85-.68.82-1.36,1.65-2.04,2.47l-.49.6-.12.08-.24.16c-.16.1-.32.2-.47.3-.18.12-.22.08-.6.42-.61.5-1.17.93-1.68,1.21-.12.03-.44.3-.68.46-.24.17-.46.3-.66.39-.4.19-.72.24-1.03.21-.15-.02-.3-.06-.44-.12-.07-.03-.15-.07-.22-.11-.04-.02-.07-.05-.12-.05l-.22.05c-.59.14-1.23.25-2,.37-.78.12-1.34.14-1.76.05-.61.12-1.12.17-1.49-.04.3-3.64.72-7.42,1.43-13.32.2-1.65.6-4.35.95-6.68.35-2.34.65-4.38.67-5,.05-1.36.02-2.9-.04-4.63-.04-.85-.08-1.76-.12-2.74-.02-.48-.05-.97-.08-1.48-.03-.48-.06-.97-.09-1.48-.13-1.92-.27-4.02-.42-6.24-.12-2.15-.26-4.41-.39-6.73-.11-2.1-.12-4.39-.14-6.44,0-.48-.01-.94-.02-1.4-.01-.42-.02-.83-.03-1.23-.03-.78-.06-1.48-.12-2.06-.08-.79-.17-1.59-.25-2.4-.04-.4-.09-.81-.14-1.21-.05-.42-.1-.72-.15-1.08-.21-1.39-.43-2.81-.66-4.25-.06-.36-.12-.72-.18-1.08-.14-.23-.29-.45-.43-.67-.3-.44-.59-.89-.9-1.34-.3-.45-.61-.9-.92-1.36-.07-.1-.17-.26-.22-.31l-.14-.1-.28-.19c-.38-.26-.74-.53-1.13-.78-.39-.25-.79-.49-1.19-.74-.85-.51-1.69-1.03-2.54-1.54-.9-.53-1.84-1.19-2.76-1.81-.37-.25-.73-.51-1.1-.76-.35-.26-.65-.55-.96-.82-.62-.56-1.22-1.1-1.81-1.63h0c-.54-.01-1.07-.02-1.55-.03h0c-1.52-1.44-2.91-2.75-4.25-3.86-1.75-1.44-4.32-2.79-5.63-4.01-.82-.75-1.43-1.56-2.04-2.37-.34-1.05-.61-2.14-1.11-3.21-.29-.65-.62-1.34-.97-2.06-.31-.35-.03-.75.05-1.13.11-.39.22-.78.33-1.17.43-1.56.77-3.12.92-4.47.11-1-.33-1.44-.02-2.65.45-1.79,2.14-4.18,2.47-5.55.4-1.68.52-3.37.64-5.11.06-.87.12-1.74.21-2.62.05-.44.1-.88.17-1.32l.11-.66c.03-.11.09-.23.13-.34-.04-.13.22.09.36.16l.49.31.08.05.04.03h.02c-3.83-.58,33.42,5.28,17.65,2.79h-.02s-.04,0-.04,0c-.04,0,0,0-.1,0-.15.01-.21.05-.45.13-.1.04-.19.09-.28.14-.12.06-.26.13-.38.21-.13.08-.23.16-.36.26-.16.1-.31.21-.46.33s-.29.24-.42.37l-.51.45c-.36.32-.59.63-1.01,1.04-.37.39-.73.8-1.06,1.23-.41.47-.81.96-1.19,1.46-.4.54-.81,1.09-1.22,1.64-.43.58-.8,1.15-1.23,1.79-.46.65-.9,1.32-1.33,1.99l-.63,1.02-.71,1.11-.04.07h0s0,0,0,0h0s0-.01,0-.01v-.02s-.03-.04-.04-.06c-.03-.04-.08-.09-.16-.16-.6-.52-1.91-1.41-3.32-2.2-2.87-1.61-6.27-3.08-9.15-3.27-.78-.05-3.03-1.02-5.44-1.89-2.41-.87-4.96-1.63-6.18-1.4-1.44.28-.31.42-3.16-.66-2.81-1.06-4.98-1.18-7.66-1.31-2.21-.11-1.17-.64-3.01-1.33-.33-.12-3.69-.65-5.12-.82-.96-.11-1.78.12-2.63-.05-1.71-.35-3.88-1.36-5.58-1.65-1.81-.31-3.48-.09-5.14-.4-1.08-.2-1.81-.91-3.68-1.34-.99-.22-1.17.19-2.6,0-.91-.12-2.82-.86-3.72-.95-1.01-.12-2.18-.13-3.18-.14-3.25-.05-8.49-1.25-14.19-1.85-1.18-.12-1.66.13-3.03.04-.26-.02-.55-.05-.87-.08-.15-.02-.31-.03-.47-.05v.07c-.05-.09-.1,0-.14-.01-.09.02-.19.03-.24.12-.06.09.06.38-.09.28-.05-.03-.07,0-.08,0-.09-.07-.5-.49-.61-.56-.46-.31-.22-.11-1.2-.82-.11-.09-.78-.49-.84-.53-1.46-.98-3.77-2.87-4.05-3.33-.12-.18.82.03.81-.1-.01-.21-.77-1.07-.78-1.46,0-.19.46-.16.5-.32.05-.16-.02-.4.07-.58.34-.67,1.08-1.1,1.67-1.69.62-.62,1.18-1.32,1.85-1.88-.81-.35-1.66-.43-2.49-.42-.84,0-1.65.06-2.58-.02-.79-.09-2.16-.55-2.99-.54-1.13.02-1.47.56-2.41.75-.76.18-1.73.21-2.74.38-.5.09-1.03.18-1.43.47-.14.08-.02.17,0,.25l.14.26.31.53c.72,1.18,2.03,3.17,3.02,4.62.61.9,1.52,1.83,1.97,2.54.12.18.2.35.27.51.09.16.18.32.27.48.18.32.36.64.67,1,.44.51.97,1.16,1.52,1.71.4.41,1.02.79,1.41,1.25.35.41.63.86.92,1.32l.44.7c.16.25.28.39.56.85.4.62.78,1.08,1.17,1.56.2.24.4.48.62.75l.16.21.08.11.04.06-.64.55-.35.29-.17.15s-.16.13-.12.11l.1.05.21.1c.14.07.29.14.44.22,1.47,1.4,3,2.83,4.44,4.37,1.37,1.68,2.71,3.34,4.01,4.89h0c.12.09.24.17.36.25l.09.06s.09.02,0,.13l-.33.47c-.43.62-.82,1.22-1.17,1.79-.57.92-.62,1.34-1.37,2.41-.86,1.25-1.85,2.54-2.86,3.85-.25.33-.51.66-.76.99-.13.15-.25.36-.39.47l-.43.33c-.57.44-1.14.88-1.7,1.34-.99.56-1.83.98-2.58,1.44-.75.47-1.6.86-2.72,1.34-1.51.66-1.98.59-2.59.89-.28.13-.83.47-1.43.83-.59.37-1.13.83-1.6,1.09-.77.44-1.03.39-1.55.79-.45.34-.8.67-1.14.98-.34.31-.6.66-.96.95-.39.33-.73.56-1.09.8-.35.25-.68.55-1.1.95-.27.27-.61.64-.93,1.03-.28.41-.57.82-.82,1.12-.29.36-.62.69-.89,1.06l-.78,1.12c-.26.37-.55.73-.78,1.12-.21.41-.42.81-.63,1.22-.24.53-.51.99-.64,1.53-.14.52-.29,1.04-.49,1.58-.46.97-.75,2.14-1.01,3.21-.27.93-.27,1.98-.37,3l-.12,1.55c.02.53.04,1.06.06,1.58.01.53.03,1.05.04,1.57v.77c.05.26.08.52.11.77.05.51.11,1.02.16,1.51.02.19.03.38.05.57v.39s0,.03,0,.04c.02.13-.01.48.1.75.09.28.21.49.17.44.33.49.79.63,1.21.93.23.16.45.32.66.47.26.17.52.35.77.52l2.72,1.82-.13,3.34c-.1,2.55-.3,4.92-.47,7.58-.19,3.31-.19,6.9-.34,10.16-.26,5.94-.7,12.07-.95,18.27-.24,4.99-.07,8.62-.53,12.87-.22,2.04-.83,3.41-1.03,6.05-.13,1.57-.09,9.55-.14,12.21-.06,1.86-.15,4.22-.23,6.78-.12,4.1.12,9.34-.19,10.86-.24,1.17-1.55,1.05-1.75,1.92-.24,1.11-.45,11.12-.28,12.21.17,1.18-.05,2.81,0,5.44.02.95.31,1.92.32,2.74.07,3.05-.23,6.51-.11,9.51.07,1.96.42,3.68.51,5.48.05,1.08-.11,2.3-.09,3.39.03,1.8.37,3.16.35,4.11-.01.66-.22,3.99-.37,4.74-.01.03-.31.82-.61,1.62-.31.8-.65,1.61-.72,1.68-.82.74-1.06-1.59-1.48-.12-.26.9-.55,3.7-.54,6.76,0,1.38.5,1.8.63,3.45.06.79-.25,2.65-.2,4.75.03,1.28.37,2.19.4,3.44.06,2.34-.31,5.06-.04,8.17.03.32.5,1.2.51,1.41.06,1.07-.15,2.3-.13,3.39.02,1.32.41,2.35.45,3.45.21,4.89.14,9.16.42,13.67.13,2.03.46,4.15.43,5.5-.04,1.65-.48,2.73-.47,4.05.02,2.61.49,3.32.49,4.82,0,1.37-.45,2.69-.51,4.05-.06,1.29.18,2.68.16,4.11-.02,1.08-.47,2.63-.53,4.04-.05,1.22.33,1.47.23,2.75-.14,1.76-.75,3.34-.96,5.37-.11,1.05.23,2.37.17,3.43-.11,1.98-.94,4.87-1.15,7.4-.1,1.23.31,2.48.18,3.44-.19,1.31-.66,2.53-1,4-.46,2.03-.85,4.42-.66,4.03-1.06,2.15-3.52,3.16-5.26,2.85-.96-.17-1.5-1.38-2.53-2.32-.59-.54-1.02-.4-1.48-.84-1.11-1.07-1.26-1.18-3.7-1.76-1.6-.37-1.52-1.11-2.45,1.1-.76,1.83.29,1.12-.06,4.08-.2,1.68-.81,3.33-.98,5.34-.13,1.57.11,3.43-.13,4.75-.25,1.4-1.11,2.23-1.19,3.27-.14,1.76.04,5.36.36,7.53.1.7.2,1.05.18,2.06-.04,1.9-.79,2.85-.95,4.67-.08.95.21,2.77.35,4.05.13,1.2.18,3.21.38,3.85.23.73,1.28,1.08,1.42,2.19.2,1.75-.06,3.28-.29,4.82-.26,1.51-.32,3.13,1.1,4.39.55.47.84.99,1.59,1.03.23.01,1.16-.27,1.31-.23.96.26.38.89,1.05,1.17.41.17,1.05-.3,1.7.02,2.58,1.24,4.76,2.84,5.93,4.59.3.45.49.88.69,1.36.19.48.28.96.25,1.42-.07.93-.64,1.81-1.86,2.57-.33.2-.77.5-1.28.75-.01,0-.26.17-.56.36-.3.18-.64.36-.74.37-.53.06-3.22-1.18-3.93-.95-.1.03-.06,1.39-.44,1.8-.19.22-2,.07-1.79.93.22.85,1.1.79,1.87,1.72.14.17.11,1.09.22,1.19,1.02.83,2.18,1.7,3.59,2.69.69.48,1.4.97,2.06,1.43.87.58,1.66,1.11,2.3,1.54.8.54,1.74,1.01,2.79,1.47.52.24,1.07.49,1.63.77.28.14.56.29.85.44l.44.24c.17.04.33.07.5.11,1.6.35,3.31.73,5.23,1.11,1.58.29,3.23.52,5.22.63.97.06,2.33.25,3.36.26.88.01,1.97-.37,2.8-.32,5.7.39,10.95,1.65,13.38,1.65.58,0,1.14-.07,1.67-.16.56-.12,1.09-.23,1.59-.34,1.09-.22,2.01-.45,2.83-.41.12,0,.73.23,1.69.5.35.08.77.17,1.23.24.23.06.47.04.72,0,.25-.03.5-.06.76-.09.66-.1,1.87-.99,2.18-1.04,1.05-.15,1.46.56,2.13.38.94-.26.53-.8,1.96-1.5,1.03-.51,2.29-.12,3.35-.61.92-.42,1.8-.99,2.65-1.53.49-.3,1.49-1.31,1.98-1.5.72-.27,1.94.1,2.71-.09.37-.09,1.06-.92,1.33-.99,1.18-.3,2.88-.22,4.07-.58,2.78-.87,5.02-2.32,7.46-3.04,3.53-1.03,6.62-1.82,8.2-1.04.89.44.12,1.23.67,1.96.33.44,1.19.29,1.36.98.66,2.82-2.32,5.99-2.75,7.82,3.06.14,5.21-1.75,7.44-2.36,1.87-.51,3.83-.4,5.43-.88,2.34-.7,4.34-2.02,6.18-2.81.71-.3,1.41-.17,2.06-.43.48-.2.96-.75,1.4-.95.51-.23,1.5-.14,2.06-.43.66-.33.8-.52,1.23-.69.21-.09.5-.18.95-.28.42-.08,1-.2,1.82-.37,2.58-.53,2.38-.6,3.45,1.18.46.77.65,2.75.97,4.69.16.97.37,1.93.7,2.73.32.74.76,1.27,1.39,1.42,1.08.26,2.13-.18,3.23-.8.98-.59,2.06-1.36,3.45-1.78.04-.02.88.5,1.43.2.59-.33.98-1.04,2.63-.59,2.01.55.43,1.71,2.74,3.04,3.79-1.05,7.23-1.23,10.5-2.21.98-.29,1.47-1.14,2.43-1.54.91-.38,1.95-.63,3.05-.89,1.25-.28,2.61-.59,3.97-1.01,1.21-.38,2.4-.79,3.59-1.21.11-.05.22-.1.32-.16l.29-.25.58-.5c.38-.33.77-.66,1.17-1,.78-.66,1.58-1.34,2.41-2.04.41-.34.83-.68,1.26-1.03.4-.32.75-.62,1.21-.97.91-.7,1.86-1.4,2.87-2.12.15-.11.17-.96.92-1.19.29-.1.33.51.97,0,.92-.74.97-1.58,1.77-2.34.19-.18.63-.54,1.29-1.05,1.31-1.03,3.39-2.63,5.34-4.06.98-.71,1.93-1.38,2.75-1.92.83-.55,1.28-1.27,1.6-1.61.18-.18,1.16-.58,1.43-.9.89-1.01,2.08-1.48,3.61-1.23,1.49.25,3.35,1.21,4.84,3.23.67.92,1.1,1.49,1.59,1.23.24-.13.48-.46.71-1.06.11-.3.22-.66.31-1.09.05-.45.05-.99.06-1.61,0-.73-.66-1.64-.59-2.88.05-.93.25-3.6-.22-6.32-.58-3.36-1.7-5.37-1.92-6.44-.88-5.63,1.45-3.07-.87-7.22-.11-.19-.22-.43-.32-.62-.1-.17-.19-.36-.29-.55-.19-.4-.36-.84-.53-1.33-.34-.97-.65-2.11-.96-3.32-.61-2.42-1.23-5.13-2.06-7.44-.88-2.46-1.99-4.89-2.95-7.83-.4-1.22-.53-2.91-.96-3.97-.38-.94-1.24.07-1.59-.51.09.15-.45-2.59-.95-3.98-.72-1.98-1.82-4.36-2.37-7.91-.24-1.51.25-2.39.14-3.41-.36-3.42-1.43-5.98.55-8.89.09-.14.88-.64.91-.77.39-1.81.38-.78,1.75-2.21.26-.27.67-1.33.84-1.44,1.74-1.23,3.76-.46,4.19-2.45.44-2.09-3.01-10.56-4.01-13.85-1.1-3.54-.73-4.61-2.16-6.58-1.01-1.4-.49-1.82-1.45-4.61-.16-.48-.81-.94-1.16-1.93-.34-.98-.99-1.46-1.15-1.93-.33-.99.01-2.39-.33-3.36-.21-.6-.85-1.18-1.14-1.93-.38-.99-.34-1.63-.73-2.65-.58-1.51-1.65-3.26-1.78-3.91-.23-1.09.39-1.2.27-2.06-.21-1.54-1.45-3.67.48-4.79.98-.57,1.35-1.43,1.71-1.5,1.74-.34,2.5,1.02,5.01,3.63.15.16,3.36,5.3,4.22,4.37,1.74-1.93-1.36-4.84-2.81-8.56-1.27-3.24-1.72-8.76-3.85-10.51-1.31-1.08-.43-2.92-1.89-5.27-.12-.2-1.01-1.23-1.02-1.27-.29-.94.06-2.51-.32-3.36-.37-.83-1.14-.26-1.45-1.24-.24-.75-.66-2.53-.69-2.66-.44-1.92-.2-4.4-.49-5.39-.31-1.05-1.02.07-1.36-.57-.35-.62-.38-2.99-.75-4.04-.14-.38-1.65-1.46-1.16-3.65,1.94-1.04,3.37.23,4.5,1.89.26.39.88.6.96,1.1.03.18-.56.69-.35.93.25.29,1.08.33,1.37.56.7.54,1.46,2.14,2.77,2.15.02-.57-.09-.97-.28-1.34-.21-.37-.49-.71-.78-1.15-.13-.19.06-.7-.08-.85-.41-.41-1.07-.51-1.39-1.06-.36-.64-.2-1.65-.62-2.38-.96-1.66-3-3.5-3.51-6.13-.22-1.12.47-1.81.26-2.39-.45-1.27-1.65-2.33-2.49-4.16-.14-.3-.47-1.21-.87-2.48-.1-.32-.21-.66-.32-1.02-.05-.18-.11-.36-.17-.55l-.08-.29s-.04-.11-.03-.13l.09-.03c.46-.15.98-.3,1.53-.44,2.22-.56,5.18-.93,7.06-.48.02,0,.22.11.53.27.3.17.71.39,1.12.62.82.47,1.64,1,1.85,1.24.7.82-.24.67-.23,1.1.02.51-.21-.04.29.36,1.67,1.34-.76.76-1.21,1.5-.15.26.85,1.4.87,1.84,0,.11-.46.28-.47.4-.05.58-.43,1.16-.73,1.76-.38.09.3,1.13.62,1.79.38.72.77,1.39,1.16,1.99.7,1.08,1.73,2.15,2.4,3,.37.48.69,1.55,1.46,2.09.15.11.82.32.91.43.77.89.73,1.67,1.49,2.34.93.78,1.85.92,2.72,1.44,1.66.28-.01-.51.84-.48.65.24.19.44.92.64.78.09-.11-.42-.92-.64-1.77-.41-.72-1.08-.98-1.38-.19-.25-.77-.48-.93-.78-.19-.37.15-.49-.06-.87-.19-.35-.54-.84-.92-1.42-.19-.29-.38-.59-.57-.9-.15-.28-.46-.71-.32-.77.16-.36,2.37-.68,2.22-1.59-.04-.22-.74-.98-.63-1.1.17-.17,1.01.07,1.53-.17.06-.03.12-.07.17-.12l.04-.04s-.08,0-.12,0h-.32c-.42-.02-.83-.08-1.21-.13-.77-.11-1.4-.25-1.93-.18-.08.01-.17.04-.26.08-.05.02-.1.04-.15.07-.02.02-.18.06-.05.06.3.03.62.08.95.13.64.1,1.27.2,1.65.11.79-.19,1.27-.58,2.03-.85.41-.15,1.39-.23,2.03-.47.28-.1.44-.71.68-.78.36-.11,1.01.07,1.35-.06.82-.29,1.2-.44,1.78-.6.07-.02.15-.04.23-.06-.46.06-.94.13-1.45.2-.52.07-1.08.15-1.67.23-.29.04-.6.08-.91.13-.28.04-.8.12-.6.07.31-.11.7-.26,1.23-.45.46-.18,1.41-.55,2.6-1.01.62-.23,1.33-.48,2.07-.73.38-.12.76-.24,1.15-.36l.59-.17.3-.08.07-.02s.01.02.02.04l.03.08c.73,1.71,1.11,4.21.15,5.73-1.28,2.03-1.65,1.81-2.86,1.22-.28-.12-.03-.39-.37-.35-.36.06-.27-.8-1.06-.25-.18.92.06,1.35.43,1.73.37.37.86.68,1.19,1.14.17.22.36.45.54.69.14.28.26.59.35.92.39,1.46.59,2.99,1.19,4.85.11.34.28.7.45,1.08.19.49.4,1.13.5,1.64.19,1.02-.06,2.36.12,3.39.09.51.65,1.17.67,1.35.22,1.88.01,4.02.2,6.09-1.03.19-1.7,1.08-3.01.68.14.93.22,1.67.76,3.38.26.82.71,1.09.98,2.03.27.94.19,2.44.43,3.38.2.8.75,1.33.95,2.03.49,1.79.81,3.55,1.32,5.41.06.19.11.38.17.56l1.81,6.13,3.33-1.01c1.7-.51,3.21-1.16,4.18-1.34.38-.07,1.01-.05,2.01-.04.93.01,1.94.02,2.61-.06.14-.02.9-.96,3.07-.59,2.27.38,2.5,1.09,2.24,1.78-.36,1.09-7.29,1.29-7.57,2.34.29.28,1.01.07,1.85-.06.46-.07,1.83-.21,2.72-.35.99-.16,1.82-.35,2.62-.55.79-.21,1.59-.4,2.37-.69.72-.24,1-.15,1.53-.39.43-.19,1.25-.48,2.27-.8.51-.15,1.06-.32,1.65-.5.29-.08.59-.16.89-.25l.23-.06s.08-.02.11-.03v-.15s-.04-.61-.04-.61c-.17-3.25-.36-6.43-.21-8.08.15-1.58.06-1.26.62-2.72.24-.69.47-.38.42-2.23-.15-4.38-1.15-5.53-1.7-8.47-.11-.53-.32-2.44-.47-3.41-.34-1.99-.64-2.97-.27-4.74.07-.33.41-.81.37-1.35-.18-2.25-1.03-5.16-1.57-8.12-.26-1.4-.5-2.7-.69-4.06-.19-1.39-.3-3.04-.46-4.06-.17-1.04-.4-2.05-.63-3.14-.06-.27-.11-.55-.17-.84l-.08-.44c-.03-.17-.05-.35-.08-.53-.11-.72-.21-1.49-.29-2.34-.07-.82,0-1.84-.07-2.52-.09-.91-.14-2.39-.12-3.97v-.3c.03-.07.15-.05.23-.08l.5-.1c.34-.07.67-.14,1-.21.66-.14,1.29-.29,1.84-.43,3.46-.32-1.06.26,3.42-.09,1.91.09,1.96.21,3.6-.11.05-.12-.8-.17-1.83-.2-1.01,0-2.29-.11-2.84,0,.38-.34,1.68-.3,3.08-.33,1.4-.01,3.08,0,4.35-.04,1.32-.08,3.85-.47,5.42-.35,1.7.13.28.14,2.03.07.66-.02,1.07-.07,2.03-.09,1.94-.04,5.96.17,8.8.32.72.03,1.39,0,2.03.06.54.05,1.48.22,2.03.27.45.04,1.44.01,4.06.47.35.09.18.11-.08.11-.27,0-.58,0-.6,0,0,.03,1.09.23.68.24-.72,0-4.62-.37-6.77-.44-.53-.02-.68.03-1.35,0-1.21-.05-3.15-.11-4.74-.13v-.33c-2.17-.31-.43.28-1.35.39.53-.07-3.21.1-3.38.11-.59,0-4.15-.17-4.74,0-1.13.33-.38-.05-2.71.06-.3.02-.58.05-.9.1-.16.02-.33.04-.51.07-.25.02-.51.04-.81.07-1.32.1-3.47.14-5.13.31-.2,0-1.42.21-1.48.23-.89.5-.19.04-2.85.45-.34.05-.25.21-.53.25-.25.03-.54.07-.85.1-.16.02-.31.03-.48.05-.06.12-.02.34-.03.51,0,.71,0,1.4.04,1.88.11,1.45.55,2.55.79,3.98.14.81.12,2.42.29,3.51.11.71.36,1.29.48,2.03.11.7.03,1.52,0,1.35.09.63.25.22.33.68.39,2.23.74,5.55,1.33,8.12.34,1.48.87,2.56,1.22,4.06.16.7.17,2.08.28,2.71.3,1.63.94,3.44,1.41,5.41.33,1.41.5,3.19.85,4.8.06.38.41.64.46.97.24,1.78.36,3.86.88,6.06.13.55.36,1.87.63,3.37.13.76.27,1.55.41,2.3.03.19.08.39.09.55,0,.16.01.32.02.47.02.31.03.59.04.85.11,1.87-.04,4.95-.01,8.11.02,3.02.2,3.84,0,5.51-.01.11-.03.22-.05.34l-.03.18s0,.06-.02.09h-.1c-.26.04-.54.07-.84.09-.6.04-1.25.07-1.91.09-1.33.05-2.68.07-3.69.21-1.27.16-2.54.43-3.83.74-1.42.2-2.86.46-4.32.75-1.48.31-2.95.61-4.38.91-.74.15-1.46.31-2.17.45-.36.07-.72.14-1.07.22l-.26.05-.16.05-.31.1c-.46.15-1.52.24-2.03.44-.54.21-1.58.67-2.71,1.06-.03,0-.06.02-.12.03l-9.59,2.02-5.73-17.3c-.37-1.12-.97-2.93-1.53-4.62-.25-.76-.24-1.36-.48-2.03-.3-.86-1.44-2.99-1.61-4.74-.16-1.71.34-3.09.45-4.74,1.23.51,1.5,3.69,2.99,3.38-.46-.52-.9-2.25-1.48-3.38-.44-.85-1.44-5.67-2.18-7.44-.16-.38-.67-1.09-.75-1.35-.25-.78-.3-3.19-.75-4.74-.02-.06-.04-.12-.06-.18-.02-.05-.03-.02-.05-.04-.04-.01-.08-.02-.13-.03-.1-.01-.2-.03-.32-.04-.2-.03-.33-.07-.1-.2.11-.01.52-.07.63-.09.11-.02.67-.44.63-.49.86-.18,1.39-.11,1.83.12.22.11.43.27.64.44.11.09.22.18.33.27.01.01.03.02.04.04l.06.13.13.25c.09.17.18.33.27.49.13-.16.21-.35.27-.56.03-.1.04-.23.06-.32.03-.04.05-.08.07-.12.06-.16.03-.35-.04-.53-.15-.36-.48-.68-.6-.93-.13-.26-.56-.3-.66-.53-.04-.1,0-.25.04-.4.03-.14.1-.31-.11-.29-.21,0-.46.15-.7.22-.45.12-1.09.25-1.62.57-.39.23-.91.62-1.32.98-.42.36-.75.68-.76.65,0,0,.28-.3.48-.61.21-.3.36-.61.35-.58.37-.57.58-.79,1.38-1.72.85-.96,1.08-1.2,1.2-1.3.06-.05.12-.09.21-.13.06.02.15.03.34.02.09-.01.62-.45.72-.47.35-.07.54.05.84.04.71-.04,1.66-.18,2.2.12.13.08.26.17.33.31.03.16.06.33.08.51.05.36.1.71.28.97.13.2.57.29.81.58.19.22.18,1.15.83.74.74-1.11-.03-1.76-.32-2.37-.12-.26-.28-.63-.45-.91-.02-.03-.05-.11-.1-.19-.06-.07-.15-.14-.2-.17-.1-.06-.61.17-.64.14-.19-.14.05-.75-.14-.89-.1-.07-.62.29-.65.26-.25-.21-.22-.56-.5-.72-.25-.14-.54-.17-.82-.27-.13-.05-.22-.1-.31-.16-.1-.04-.11-.19-.36-.02-.39.2-.81.44-1.39.91-.43.35-1.01,1.07-1.28,1.31-.42.36-.69.53-.95.67-.13.07-.25.14-.38.23l-.1.07-.05.04-.02.02.86-.13c2.73-.4,5.43-.79,8.1-1.18.14-.02.1-.01.09-.01h-.03s-.05.02-.05.02l-.1.03-.2.06-.4.13c-.26.09-.52.18-.78.27-.51.19-1.02.38-1.55.57-1.06.4-2.2.83-3.62,1.27-.54.17-1.7.83-2.03.91-.62.14-1.03.12-1.41.09-.18,0-.35-.01-.53-.02.4-.09.84-.17,1.36-.22,1.19-.13,2.56-.23,4.07-.33.77-.05,1.56-.11,2.37-.16.41-.03.83-.06,1.25-.09l.32-.02c.09,0,.27-.03.23,0l.05.09c.26.5.57.93.59.97,0,.01-.16-.17-.38-.36-.21-.19-.47-.39-.49-.41-.71-.66-2.09-2.34-2.44-3.57-.16-.48-.21-.91-.19-1.32v-.15c.07-.04-.14-.01-.25,0l-.38.02c-.49.03-.99.06-1.49.09-.94.06-1.89.12-2.85.18-.45.03-.9.06-1.36.09l-.33.02s-.15.01-.12,0l.12-.04.5-.15c.67-.2,1.34-.4,2.01-.6,1.35-.4,2.71-.8,4.06-1.24,1.26-.4,2.29-.98,3.38-1.31l.58-.16.07-.02s.03,0,0,0l-.15.02-.3.04-1.18.17c-.78.11-1.56.23-2.34.34-.77.11-1.54.23-2.29.34l-.28.04c-.08.01-.01,0-.03,0l.03-.02.07-.03c.09-.04.17-.08.26-.11.34-.14.64-.27.94-.46.4-.25,1.05-.85,1.85-1.36.79-.52,1.74-.96,2.51-.93Z"/></svg>