<?xml version="1.0" encoding="utf-8"?>
<!-- Generator: Adobe Illustrator 27.3.1, SVG Export Plug-In . SVG Version: 6.00 Build 0)  -->
<svg version="1.1" id="Layer_1" xmlns="http://www.w3.org/2000/svg" xmlns:xlink="http://www.w3.org/1999/xlink" x="0px" y="0px"
	 viewBox="0 0 360 470.78" style="enable-background:new 0 0 360 470.78;" xml:space="preserve">
<style type="text/css">
	.st0{fill:none;stroke:#010101;stroke-width:20;stroke-miterlimit:10;}
	.st1{fill:#010101;}
</style>
<g>
	<path class="st0" d="M298.71,148.05h-66l-12,45c0,0,106.93-7.34,111.6,71.66c3.5,59.25-50.35,61.24-77.5,58.53"/>
	<path class="st1" d="M65.61,155.6v9.38l-38.08,2.64l31.08,34.63c4.51,5.02,7,11.53,7,18.27v223.46c0,5.64,4.83,10.81,12.51,13.37h0
		c42.72,14.26,93.27,14.26,135.99,0h0c7.67-2.56,12.51-7.73,12.51-13.37V155.6H65.61z"/>
	<path class="st1" d="M157.09,87.31c-1.23-0.06-5.2-1.06-5.2-2.29v-1.85c0-1.66,1.02-3.09,2.42-3.38
		c7.45-1.54,15.51-4.53,15.51-7.97c0-5.02-10.75-9.09-24.01-9.09c-13.26,0-24.01,4.07-24.01,9.09c0,3.35,7.79,6.27,14.91,7.85
		c1.39,0.31,2.39,1.72,2.39,3.37v2.01c0,1.23-3.97,2.23-5.19,2.29c-38.58,1.92-68.19,14.06-68.19,48.71v37h160v-37
		C225.71,101.27,195.88,89.17,157.09,87.31z"/>
</g>
</svg>
