<?xml version="1.0" encoding="UTF-8"?><svg id="Layer_2" xmlns="http://www.w3.org/2000/svg" width="332.61" height="551.15" viewBox="0 0 332.61 551.15"><defs><style>.cls-1{fill:#b0d8a4;}.cls-2{fill-rule:evenodd;}</style></defs><path class="cls-1" d="m321.63,335.81c-1.3-22.06-9.84-40.17-25.36-53.83-25.39-22.34-63.08-26.71-83.18-27.35l6.64-24.9h58.32v-20h-73v-2c0-34.77-29.83-46.88-68.62-48.73-1.23-.06-5.2-1.06-5.2-2.29v-1.85c0-1.66,1.02-3.09,2.42-3.38,7.45-1.54,15.51-4.53,15.51-7.97,0-5.02-10.75-9.09-24.01-9.09s-24.01,4.07-24.01,9.09c0,3.35,7.79,6.27,14.91,7.85,1.39.31,2.39,1.72,2.39,3.37v2.01c0,1.23-3.97,2.23-5.19,2.29-38.58,1.92-68.19,14.06-68.19,48.71v19.56h-.1v9.38l-38.08,2.64,31.08,34.63c4.51,5.02,7,11.53,7,18.27v223.46c0,5.64,4.83,10.81,12.5,13.37h0c42.72,14.26,93.27,14.26,135.99,0h0c7.67-2.56,12.51-7.73,12.51-13.37v-241.1c14.12-.09,53.56,1.66,77.16,22.47,11.5,10.14,17.57,23.21,18.56,39.95.94,15.89-2.74,27.93-10.92,35.79-14.56,13.99-41.08,13.64-55.6,12.19l-1.99,19.9c5.55.55,10.72.81,15.56.81,29.82,0,46.69-9.66,55.88-18.48,12.6-12.1,18.33-29.4,17.03-51.4Z"/><path class="cls-2" d="m283.31,375.42c-.25.27,2.85-1.86,3.12-2.05.53-.5.71-.96,1.48-1.69.49-.47.95-.81,1.45-1.37.26-.27.56-.57.9-.95.31-.4.68-.86,1.12-1.42,1.29-1.81,2.23-3.83,3.25-6.47.49-1.22,1.14-2.93,1.6-4.82,0-.04.4-1.8.44-2.15.03-.23-.04-.59-.02-.76.19-1.07.46-2.54.57-3.63.07-1.4.04-2.36.03-3.72.01-.34-.02-1.7-.03-1.49,0-.59.11-.76.09-1.49-.06-1.92-.35-5.04-.87-8.2-.52-3.17-1.03-5.85-2.12-9.29-.3-.89-.74-1.81-.81-2.01-.44-1.12-.68-2.36-1.16-3.36-.28-.65-.63-1.42-1.08-2.21-.22-.4-.44-.82-.67-1.25-.25-.42-.51-.84-.76-1.27-.49-.88-1.09-1.7-1.6-2.55-.55-.82-1.08-1.62-1.54-2.37-.47-.7-.29-1.13-.85-1.97-.08-.1-.9-1.05-.92-1.07-.03-.16,1.1.58,2.23,1.62.29.26.59.52.87.78.27.28.54.55.78.79.48.51.9.93,1.09,1.17.9,1.11,2.25,3.15,3.25,4.9.27.46.35.63.71,1.3.02.05.61,1.26.64,1.34.38.73.59.56.91,1.26.28.62.55,1.38.82,2.13.24.76.47,1.52.7,2.13.41,1.07.72,1.86,1.08,2.88.19.57.33,1.6.51,2.24.07.25.11-.25.18-.03.09.25.19,1.23.24,1.52.54,2.25.92,4.46,1.25,6.13.03-3.18-.54-5.93-1.16-8.49-.22-1.04-.5-2.02-.78-3-.25-.99-.6-1.95-.92-2.94-.31-1-.75-1.98-1.15-3.05-.47-1.03-.92-2.15-1.52-3.28-.67-1.31-1.3-2.45-2.66-4.57-1.31-2.07-2.69-3.74-4.57-5.91-.29-.31-.69-.63-1.03-1.07-.76-.95-.43-.53-2.08-2.12-1.83-1.62-3.06-3.1-2.23-3.05.49.02,2.41,1.52,4.03,3.1.83.77,1.58,1.56,2.12,2.12.55.55.89.86.87.69-.07-.57-1.55-2.36-3.29-3.99-.89-.79-1.79-1.59-2.59-2.2-.8-.61-1.44-1.09-1.73-1.33-2.35-1.64-4.08-3.16-4.91-3.64-.53-.3-.9-.38-1.42-.64-1.26-.6-3.1-1.77-5.3-2.7-1.08-.49-2.19-1.03-3.28-1.51-1.13-.41-2.22-.82-3.22-1.18-.57-.21-1.21-.44-1.9-.69-.71-.22-1.47-.45-2.26-.69-1.59-.49-3.32-1.07-5.15-1.51-1.82-.47-3.66-1-5.49-1.35-1.81-.39-3.54-.8-5.12-1.06-.86-.4.14-.62-.54-1.09-1.58-1.1,3.71-.27,5.71-.45-.17-.19-1.88-.68-2.99-.92-1.55-.3-1.58-.11-2.35-.24-.94-.17-1.93-.34-2.96-.52-1.04-.15-2.12-.29-3.22-.41-.76-.08-1.39-.03-2.35-.12-1.38-.13-2.07-.19-3.11-.29-1.66-.14-3.23-.05-4.69-.12-2.01-.13-4.24-.35-6.21-.4-.86-.02-1.94.02-3.04.04l-.6.02c-.17,0-.32.02-.47.04-.3.03-.59.05-.85.08-1.2.1-2.39.41-3.08.37-1.6-.07-.28-.36-1.22-.45-.08,0-.16,0-.19.01-.08,0-.14,0-.2-.01-.08-.02,0,.09-.02.12.02.09.04.16.06.21.05.1.11.15.17.22.13.13.27.36.39,1.23.05.44.05,1.39-.09,2.32-.07.48-.14.97-.2,1.37-.02.11-.03.21-.05.3v.07s-.02.13-.02.13c0,.09-.01.17-.02.25-.03.32-.05.58-.07.77-.06.5-.26,1.77-.45,2.39-.46,1.5-1.25-.25-1.76,1.59-.2.75-.31,2.23-.46,3.98-.14,1.55-.55,4.15-.29,7.17.14,1.6.25.32.18,2.39-.04.99.43,6.05.55,7.97.11,1.7.08,3.1.2,4.78.03.42.33,1.29.35,1.59.05.73-.03,1.66.02,2.39.19,3.23.51,8.73.8,13.55.03.42.34,1.29.37,1.59.11,1.46.02,3.39.22,4.78.19,1.31.05,2.75.23,5.58.05.8.35,1.9.38,2.39.28,3.88.23,8.05.49,13.55.05,1.04.33,2.07.4,3.19.43,6.41.36,13.62-1,14.35-.26.14-.79-.34-1.34-1.59-.41-.95-.87-4.79-1.33-1.59-.49,3.4-.36,11.06-.12,16.74.06,1.41.29,2.02.4,3.98-.02-.3-.3.45-.19.8.56,1.83.6,10.01.85,14.34.01.17.2.07.2.8,0,.4-.17,1.12-.19.8.17,2.13.54,2.99.63,4.78.08,1.65,0,4.4.04,6.38.13,6.24.74,11.94.31,17.53-.21,2.75-.76,3.1-.58,7.97.04,1.09.32,2.06.23,3.19,0,.03-.23,1.34-.45,2.68-.24,1.34-.49,2.72-.57,2.9-1.22,2.67-3.81-2.31-2.75,5.58.13.98.5,1.38.64,2.39.14.98.09,3.04.22,3.99.17,1.29.61,2.08.65,2.39.25,2.02.23,5.18.45,7.17.04.38.4.5.44.8.15,1.19.04,2.88.24,4.78.11,1.03.33,1.99.45,3.19.08.74.03,2.61.01,2.39.31,2.9.91,3.28.69,5.58-.19.62-.5.86-.88.8-.55,4.04.43-2.07,0,1.59-.11.99-.36,1.3-.44,2.39-.33.62-.48-.95-.9-1.59-.28-.44-.85-.25-1.11-.8-.59-1.23-.8-4.2-1.11-3.98-1.8,1.25-.06,9.71.22,11.95.13,1.13.26,2.23.38,3.31l.16,1.62c.05.57.1,1.15.15,1.72.11,1.17.17,2.38-.02,3.62-.17,1.25-.6,2.5-1.21,3.76-1.22,2.48-3.03,5.09-6.45,7.42-1.13.75-1.66,1.03-2.29,1.39-.4.24-1.14.63-2.44,1.16l-.4.16h-.61s1.01-.16,1.01-.16c-1.55.66-4.21,1.7-6.01,2.41-.57.22-1.22.47-1.87.72-.66.23-1.34.44-1.96.64.14-.04-.26.47-.72.44-1.7-.14-1.55.41-3.09,1.07-.85.36-1.57.56-2.41.78-.84.2-1.79.4-3.07.81-.38.12-1.24.74-1.49.82-1.67.48-3.5.98-5.55,1.43-1.71.4-3.73.81-5.59,1.26-5.53,1.23-9.86,2.41-16.94,3.18-.29.02-1.97-.07-3.29.05-1.99.22-4.79.36-7.43.42-2.64.01-5.13-.13-6.5-.26-2.99-.3-3.34-.41-4.9-.94-1.84-.61-2.12-2.59.02-3.23.42-.13,2.18-.31,2.41-.48.52-.33-.3-.88,0-1.24.16-.19,1.88-.59,1.59-.77-1.57-.93-7.65-.63-11.12-.39-1.85.05-3.74-.02-5.52-.01-1.78.01-3.45.09-4.87.35-.41.08-2.09.04-4.04-.02-.97-.03-2.01-.07-2.98-.1-.97-.07-1.88-.12-2.59-.14-.96-.03-2.08.08-3.25.08-.68,0-1.72-.33-2.39-.32-.28,0-.68.4-.87.38-1.22-.09-3.24-.67-4.75-.83-1.37-.14-2.13.1-3.27-.05-1.5-.23-2.15-.71-3.89-1.09-1.23-.28-2.68-.47-4.19-.67-1.51-.2-3.08-.51-4.57-.87-1.39-.34-2.82-.77-4.25-1.21-1.43-.48-2.84-1.01-4.23-1.45-1.23-.4-2.52-.78-3.95-1.19-1.51-.47-3.07-1.05-4.47-1.77-2.84-1.39-5.05-3.35-6.01-4.89-.61-1.04.46-.52.29-1.29-.1-.38-.37-1.05-.54-1.61-.13-.59-.14-1.06.24-1.1.25-.03.78.16,1.29.27.53.11,1.04.16,1.24-.01.05-.05-.31-.87.06-.86.14,0,.76.26,1.44.47.69.22,1.45.38,1.83.4.65.06,1-.02,1.7.05,1.35.05,1.74-.03,1.2-1.85-.14-.44-.25-1.59-.36-2-.14-.36-.49-.97-.74-1.65-.27-.68-.36-1.46-.28-2,.19-1.01.5-1.62.53-2.11.19-4,.34-10.45.38-15.14.02-1.83-.26-3.32-.24-4.78.26-13.69.5-30.22-1.1-42.23-.24-1.83,0-3.86-.24-7.17-.24-3.54-.84-6.95-1.08-10.36-.19-2.7-.01-5.38-.25-7.97-.05-.57-.31-.87-.28-1.6.01-.27.25-1.21.29-.8-.24-2.4-.74-3.05-.84-4.78-.27-4.49-.45-16.46-.21-17.53-.03.12.59-.8.59-.8-.06.16.5-.85.3-.79.46-.12.69,1.89.87,1.59,1.75-2.9.84-16.35.13-21.51-.56-4.05-.45-12.8-.77-19.92-.29-6.55-1.22-12.25-.81-15.94.27-2.44,1.99-4.54,2.21-6.37.51-4.22-.42-9.05-.5-14.34-.02-1.27.31-2.69.35-3.99.08-2.78-.22-10.2.12-14.35.15-1.88.51-3.7.87-5.53.18-.92.36-1.84.51-2.77.08-.47.14-.94.2-1.41.06-.5.11-.87.13-1.61.16-4.23-.67-9.38-2.85-14.39-1.09-2.5-2.51-4.96-4.2-7.26-.43-.57-.87-1.13-1.32-1.69l-.7-.82-.6-.68c-.69-.78-1.39-1.56-2.08-2.34-5.27-5.98-10.55-12.32-15.78-17.96-2.53-2.73-5.2-5.04-7.88-7.92-1.79-1.92-3.54-3.92-5.23-5.91l-6.76,16.69c6.03-.26,11.88-.35,16.78-.98,1.49-.19,3.04-.88,4.72-.99,3.76-.25,6.99.5,12.78-.06,1.17-.12,2.41-.25,3.81-.39l9.95-1.01-.42-9.2c-.13-2.83-.27-6.04-.43-9.38l-9.81,9.81s.07,0,.1,0l10.26-.51-.45-9.3c-.25-5.1-.52-10.47-.69-15.38-.04-1.07,0-1.99.02-2.88.01-.44.02-.88.03-1.32.02-.37.02-.75.01-1.15-.12-2.31-.34-4.47-.06-6.65.19-.96.85-2.05,1.1-3.03.65-3.04,1.09-5.95,2.49-8.44l.35-.62.41-.58c.28-.38.55-.78.85-1.15.64-.72,1.21-1.47,1.86-2.16.67-.84,1.45-1.61,2.17-2.42.8-.75,1.54-1.54,2.38-2.22,1.61-1.43,3.36-2.64,5.07-3.56.44-.22,1.42-.87,1.87-.97.08-.02,1.02.35.96.38.5-.26,1.59-1.44,2.94-2.1,1.57-.8,3.7-1.55,5.76-2.17.52-.14,1.04-.28,1.54-.41.25-.07.49-.13.74-.19.45-.12.69-.18,1.03-.25,1.28-.28,2.42-.53,3.32-.73.63-.13,1.47-.31,2.46-.52.98-.22,2.09-.46,3.31-.65,2.38-.45,5.13-.75,7.55-.93,3.92-.36,7.32-.68,9.93-.65,2.57.03,4.59.4,5.65,1.54-.18-.21.29,1.18.31,1.15-.21.34-2,.91-2.23,1.28-.83,1.05-.37,1.89-1.2,2.52-.28.19-1.07.53-2.26.77-1.13.27-2.38.59-3.19.95-.22.09-.26.3-.31.49-.07.18-.13.35-.35.4-.63.15-2.19.11-2.73.27-1.51.47-1.39,1.12-3.11,1.83-1.08.45-3.98.82-5.14,1.41-1.13.51-2.5,1.06-3.74,1.67-1.22.64-2.35,1.27-3.04,1.76-1.39.99-1.01,1.44,4.04.41,1.33-.23,3.02-.95,5.71-1.28,2.24-.2,4.26-.19,6.1-.22,1.84-.02,3.59,0,5.23-.17.81-.08,1.56-.18,2.28-.3.63-.21,1.22-.43,1.82-.66.59-.23,1.19-.46,1.81-.69.31-.11.63-.22.96-.34.32-.12.7-.21.97-.36.85-.4,1.67-.75,2.49-1.07.41-.16.82-.32,1.22-.48.4-.16.84-.3,1.14-.49.65-.36,1.31-.72,1.96-1.12.33-.2.66-.41.98-.63.16-.11.33-.22.49-.34.14-.12.26-.24.38-.36.93-.93,1.21-1.27,1.61-1.62.2-.17.43-.34.79-.59.29-.23.68-.53,1.24-.97.46-.35.83-.7,1.18-1.05.32-.34.61-.75.92-1.2.3-.45.6-.94.94-1.51.34-.58.72-1.2,1.17-2.12.13-.25.25-.55.34-.82l.21-.83.43-1.67c.27-1.14.37-2.24.33-2.99-.02-.38-.08-.66-.17-.79-.09-.15-.22-.07-.34-.06-.25.04-.51.06-.8.04-.62-.05-1.33-.23-2.06-.68-.18-.1-.36-.24-.54-.41-.18-.14-.36-.36-.54-.56-.35-.46-.69-.99-1.04-1.97l-.14-.39-.16-.5c-.05-.17-.11-.32-.15-.51l-.12-.62c-.15-.81-.25-1.97-.39-3.22l-.05-.47-.02-.24v-.06s.1-.04-.24-.07l-1.4-.15c-1.87-.21-3.73-.41-5.6-.62l-2.8-.31-1.4-.15-.7-.08-.18-.02h-.09c2.95.79-26.12-7.01-13.81-3.71h.01c.12.03.23.07.33.11.13.05.31.12.44.2.65.32,1.5.93,2.37,1.8,1.9,1.78,3.82,4.57,5.62,7.81.33.59.19.34.22.38,0,0,0-.02.02-.04.03-.03.04-.07.11-.12.1-.09.25-.21.43-.34.42-.3.93-.99,1.72-1.31,1.09-.44,2.28-.38,3.6-.68,1.57-.36,4.36-1.04,6.4-1.48,1.37-.3,3.6-.39,5.96-.3.97.03,2.06.15,3.09.34,1.03.18,2.02.45,2.62.64l.2.06s.09.03.15.04c.04,0,.05,0,.08,0,0,0,.02,0,.01,0h0s0,0,0,0l.06-.09c.18-.28.36-.56.55-.83,1.45-2.15,2.99-3.87,4.27-4.9.58-.51,1.23-.87,1.62-1.07.26-.11.38-.17.55-.21l.16-.04h.07s.04-.02.04-.02h0s0,0,0,0c8.91-1.19-12.12,1.63-10,1.34l-.18.02-.73.08c-1.94.22-3.86.43-5.78.64l-1.43.16-.71.08c-.17.01-.08.02-.11.04v.03s-.04.28-.04.28c-.04.36-.09.72-.13,1.07-.07.59-.15,1.16-.22,1.72-.03.23-.06.45-.08.67-.02.19-.04.41-.04.56,0,.28.02.59,0,.81-.02.21-.04.43-.08.63-.04.17-.1.34-.2.53-.58.88-1.83,1.61-2.59,1.98-.7.34-1.3.52-1.93.62-.16.03-.32.04-.48.06-.16.02-.33.02-.47.17-.29.29-.47.94-.56,1.62-.1.57-.17,1.64-.01,2.9.03.32.05.64.08.98.01.34.08.71.24,1.02.31.62.69,1.1,1.1,1.56,1.64,1.9,3.67,2.71,6.02,3.35.68.17,1.51.46,2.46.83,1.04.4,2.24.87,3.56,1.38.61.27,1.48.52,2.29.78.83.26,1.68.53,2.54.81,1,.22,2.01.44,3.02.66l1.53.32c.51.1,1.12.14,1.68.21.78.08,1.42.13,1.95.15,1.34,0,2.21-.07,3.37.04,1.36.13,2.88.34,4.31.63,1.41.31,2.82.62,4.05.77,1.95.28,3.21-.08,4.94.2.61.12,1.17.26,1.75.46.34.11.43.15.61.22l.49.2c.66.26,1.27.56,1.91.73,4.06,1.1,7.83,2.08,10.9,3.69,2.06,1.04,4.05,2.68,6.14,4.45,1.5,1.29,3.13,2.75,4.49,4.34,1.34,1.59,2.39,3.32,2.98,4.79.7,1.82.84,4.85.59,5.53-.32.8-2.01.73-2.15,1.21-.01.05-.02.09-.04.14l-.02.08v.17c0,.24,0,.51,0,.8.01.58.04,1.25.09,1.97.03.73.15,1.49.13,2.32-.03.84-.05,1.71-.08,2.56-.09,3.3-.26,5.74-.22,8.77,0,1.49.04,3.14.12,5.13.05.96.05,2.06.18,3.16,1.22.01,2.55.03,4.03.05.47,0,2.54-.23,4.31-.19,1.45.03,4.27.37,3.89.37,2.37-.03,3.73-.41,5.75-.47,2.88-.14,5.72-.05,8.25-.21,2.26-.14,4.52-.54,6.88-.73.31-.02.63-.04.96-.06.27,0,.54,0,.81-.01.55,0,1.1,0,1.6-.06,1.32-.15,2.72-.55,3.99-.71,3.14-.41,5.96-.32,8.76-.9.49-.1,1.37-.56,1.59-.59,1.21-.17,2.74-.04,3.99-.16,1.09-.11,2.16-.46,3.19-.63.67-.11,1.74.03,2.39-.09.26-.05.61-.51.79-.53,1.97-.25,4.5-.27,6.38-.47,1.16-.12,2.42-.31,3.72-.5.55-.08,1.12-.16,1.69-.25l1.04-.14c.71-.08,1.44-.13,2.11-.1.65.07,1.33.02,1.78.2.14.82-1.52.25-1.64.82.72.21,1.22-.12,1.84.09.32.11.34.32.36.5,0,.09.02.17.07.23.02.03.06.05.1.07.02,0,.05.01.08.02,0-.02-.02-.06-.03-.1-.08-.33-.05-.87,0-1.35.05-.48.11-.9.09-1.18,0-.1-.02-.3-.04-.32-.01.15-.03.29-.04.44-.04.3-.07.61-.11.92-.04.31-.08.63-.12.95l-.04.49c0,.17.04.36.06.54.08.52.22,1.06.36,1.63l.2.86.04.22.02.11s-.05.02-.07.03c-.11.02-.22.04-.34.06-.77.09-1.62.19-2.53.3-.45.08-.98.04-1.51,0-.54-.03-1.08-.07-1.63-.1l-.83-.06-.21-.02s-.25,0-.36,0l-.82.03c-1.09.03-2.17.07-3.23.1-2.13.06-4.18.09-6.06.11-1.35,0-1.77-.19-3.19-.23-2.25-.05-4.51.17-6.37.09-2.93-.12-4.62-.58-7.17-.67-2.3-.09-5-.02-7.76.07l-1.04.03-1.73.04c-1.16.02-2.32.05-3.48.07l-.86.02-.81.06c-.54.04-1.08.08-1.61.12-.54.04-1.07.08-1.59.11l-.79.05-.39.03h-.2c-.07.01-.14.01-.14.09-.77,1.82-1.79,3.83-2.53,5.62l-.18.44-.13.5-.25,1.01c-.16.67-.32,1.34-.48,2.01-.29,1.27-.59,2.53-.88,3.79-.32,1.55-.64,3.11-1.02,4.72-.11.47-.22.94-.34,1.43-.15.62-.31,1.24-.47,1.88-.44,1.72-.9,3.49-1.36,5.28-.22.89-.51,1.86-.67,2.71-.17.86-.34,1.73-.51,2.6l-.51,2.63c-.16.87-.37,1.8-.38,2.5-.03.41-.06.82-.09,1.24,1.92-.05,3.89-.09,5.85-.14,1.87-.03,3.73-.06,5.57-.09,1.87-.02,3.58-.07,5.17.04,1.05.07,2.06.14,3.02.2,2.7.26,5.25.82,8.39,1.23,1.85.2,4.48.55,7.44.92,1.47.23,3.03.47,4.6.71,1.57.27,3.14.6,4.69.9-.06-.01.19-.07.78.06,1.55.38,3.31.81,5.17,1.26,1.86.46,3.78,1.06,5.72,1.58,1.92.57,3.79,1.24,5.58,1.81,1.77.61,3.37,1.31,4.78,1.85,1.29.5,1.47.68,2.77,1.29.88.41,1.75.81,2.65,1.23.45.22.92.42,1.39.66.46.26.94.52,1.44.8,1.28.72,2.38,1.24,3.38,1.79,2.94,1.91,5.06,3.13,8.19,5.58,1.08.83,1.78,1.38,2.94,2.42.26.24,1.09.91,2.06,1.78.93.9,2.1,1.92,2.98,2.88-.13-.14.32.21.56.52,1.3,1.48,4.28,4.6,6,6.95.61.89,1.16,1.75,1.75,2.69.57.95,1.13,1.99,1.84,3.2,1.64,3.01,3.52,6.98,5.09,11.52,1.59,4.53,2.8,9.64,3.5,14.71.29,1.68.69,5.58.62,6.19-.31-3.68-.76-7.41-1.54-11.09-.79-3.67-1.79-7.31-3.09-10.78-.36-1.03-.96-2.52-1.38-3.58-.7-1.53-1.31-2.74-2.04-4.12-.6-1.05-.95-1.99-1.81-3.36-.4-.63-.88-1.42-1.64-2.57-.9-1.3-1.67-2.61-2.59-3.76-3.5-4.69-8.07-9.06-12.3-12.34-.62-.47-1.88-1.38-2.43-1.83-.51-.4-.29-.36-1.14-1.01-.72-.56-.95-.5-1.33-.75-.86-.52-1.08-.77-1.25-.87-5.95-3.82-13.72-7.73-22.73-10.54-.62-.19-1.24-.38-1.86-.57-.63-.16-1.25-.31-1.87-.47-1.24-.31-2.46-.61-3.65-.94-7.16-1.76-13.76-3.05-18.8-3.53-.56-.05-1.62-.12-2.68-.18-1.06-.04-2.13-.08-2.69-.14-.36-.04-.47-.23-.74-.27-1.78-.27-2.85-.2-4.57-.5-.57-.11-1.14-.22-1.83-.36-.35-.05-.74-.1-1.19-.15-.23-.02-.47-.04-.72-.06-.4-.03-.83-.06-1.29-.09-1.03-.1-2.13-.07-3.26-.07-1.19.03-2.41.06-3.66.08-2.54.06-5.18.13-7.91.2-1.09.02-2.16.04-3.23.06.43-2.24.85-4.44,1.28-6.71.19-1.05.38-2.1.56-3.15.22-1.08.52-2.24.78-3.35.26-1.12.52-2.24.78-3.36l.39-1.68.19-.84.1-.49c.25-1.24.49-2.47.73-3.71l.38-1.85.2-.92.1-.46.2-.83c.82-3.07,1.54-6.65,3.03-9.49.47-1.12.94-2.26,1.43-3.44l.09-.22s.02-.09.06-.1h.12s.49-.06.49-.06c.33-.03.66-.07.99-.1.66-.07,1.33-.14,2.01-.21.68-.07,1.36-.14,2.05-.22.72-.05,1.48-.06,2.22-.09,1.49-.04,3-.09,4.54-.13,1.33-.05,3.38.07,4.78.04,4.37-.1,5.27-.48,7.17-.07.11.02.69.28.8.29,1.05.04,3.03-.28,3.99-.21.38.03.39.41.8.46.21.02,3.88.26,4.78.28,1.29.03,3.35-.21,5.58-.27,1.72-.04,2.94,0,4.31.03.69.01,1.41.02,2.26,0,.42-.01.88-.02,1.37-.04.31,0,.44.04.7.06.23.02.3-.19.59-.12.18.05.77.18,1.48.3.67.07,1.35-.05,1.83-.12.26-.05.46-.16.64-.28l.13-.09s.11-.04.05-.16c-.06-.18-.11-.35-.15-.51-.18-.81-.3-1.89-.11-2.78.05-2.87-.02,1.51-.01,3.44.07.4-.16.29-.27.37-.13.04-.25.08-.38.11-.24.07-.46.12-.66.14s-.38.02-.55-.01c-.17-.04-.35-.08-.46-.27-.19-.24-.3,0-.39-.31-.1-.31.09-.28-.11-.52-.22-.25-.48-.39-.8-.45-.16-.03-.32-.04-.51-.04-.03-.02-.73.06-1.32.13-.48.06-.96.34-1.59.32-.21,0,.02-.32-.8-.21-1.56.22-3.09.76-4.78.95-3.36.37-6.84.29-9.56.69-1.37.2-2.82.81-3.99.97-2.23.3-4.86.33-7.17.62-2.43.31-4.83.8-7.17,1.17-.57.09-1.17.15-1.83.22-.33.04-.67.07-1.03.11-.64.05-1.3.1-2,.15-1.98.16-4.4.63-5.95.72-2.81.16-5.61.2-8.33.24-1.37.05-2.66-.06-3.96-.08-1.29-.04-2.57-.06-3.84-.06-.47-.9,4.27-.45,3.72-1.35-3.15,0-3.93.38-4.21.81-.29.43-.06.9-1.36,1.07-2.25-.08-4.54-.15-6.84-.23l-1.72-.05-.86-.02h-.43c-.14-.02-.33.03-.28-.17-.05-1.11-.1-2.22-.16-3.32-.1-2.27-.2-4.5-.3-6.63-.08-2.21-.16-4.32-.23-6.3-.05-1.32-.07-2.42-.06-3.4,0-.49.01-.95.02-1.4-.03-.43-.06-.84-.08-1.26-.04-.84-.07-1.68-.09-2.64,0-.24-.01-.49-.02-.74,0-.13,0-.26,0-.39v-.2c0-.06,0-.06,0-.1.02-.22.04-.45.06-.71.04-.48.07-.87.1-1.19.04-.3.09-.52.17-.75.14-.45.43-.9.88-1.7.22-.4.98-1.33.97-1.54-.04-.9-1.22-2.42-2.26-4.16-.46-.86-.81-1.88-1.23-2.45-2.48-2.96-7.04-5.36-11.94-7.27-2.53-1.02-5.07-2.11-7.33-2.66-.78-.2-1.66-.28-2.5-.32l-.31-.02c-.12-.01-.37-.06-.54-.09-.39-.08-.74-.11-1.1-.16-.7-.12-1.41-.16-2-.27-3-.54-5.57-1.51-8.74-2.01-2.22-.22-4.78-.51-7.53-.61-1.07-.11-2.16-.2-3.23-.27-1.05-.09-1.92-.27-2.85-.36-.76-.09-1.43-.06-2.12-.06-.68,0-1.45,0-2.09-.24-1-.33-1.93-.91-2.8-1.45-.47-.26-.76-.55-1.09-.78-.32-.24-.65-.44-.98-.57-3.37-1.27-6.7-2.03-8.89-3.3-.7-.41-1.43-1.07-2.12-1.83-.34-.39-.68-.8-1.02-1.31-.17-.25-.33-.52-.49-.84-.16-.32-.27-.7-.32-1.06-.13-.72-.27-1.45-.37-2.19-.09-.75-.09-1.47-.02-2.09.07-.62.23-1.13.44-1.41.21-.29.47-.21.72-.26.99-.12,1.95-.41,2.68-.93.36-.24.67-.61.89-.99.26-.47.31-.9.3-1.6,0-.09.02-.2.05-.35.02-.18.05-.38.09-.62.03-.2.11-.55.2-.91.08-.32.18-.82.28-1.32.12-.6.25-1.22.39-1.87.04-.18.08-.37.12-.56l.06-.28s-.03-.09.08-.14l1.59-.16c2.13-.22,4.28-.44,6.44-.66l1.62-.17.81-.08.2-.02h.1c-11.33,1.51,15.56-2.09,12.78-1.72h0s-.07.01-.07.01c-.3.04-1.25.39-2.43,1.38-1.21.98-2.57,2.53-3.87,4.37-.68.93-1.26,1.9-1.88,2.92l-.22.38c-.07.12-.17.3-.13.25,0,0-.02,0-.02,0h-.05c-.25,0-.79-.02-1.16.17-.47.22-.52.33-.68.31-.17-.02-.38-.19-1.44-.48-2.16-.56-4.14-.22-6.42.4-1.89.53-1.11-.29-2.82-.38-.15,0-.97.14-1.88.35-.91.22-1.88.52-2.44.73-.75.28-1.24.86-1.84,1.06-1.2.39-2.74.48-3.09.88-.1.1-.13.23-.08.3-.8-1.62-1.6-3.13-2.44-4.52-.46-.71-.81-1.34-1.28-1.98-.44-.63-.82-1.2-1.3-1.77-.8-1.07-1.75-2.04-2.51-2.73-1.03-.91-1.89-1.38-2.45-1.57l-.11-.03h-.06s-.01-.02-.01-.02h0s0,0,0,0c33.31,8.94,9.25,2.48,16.7,4.48h.07s.27.04.27.04l1.09.11c2.91.3,5.89.61,8.96.93.77.08,1.54.16,2.31.24l1.17.12.29.03c.1.01.23.02.18.03v.05c0,.12,0,.25,0,.38,0,.25,0,.51,0,.78.02,1.04.01,2.19.12,3.12.03.25.07.48.11.69.06.17.12.33.19.48.13.28.31.62.46.83.16.24.32.49.49.8.16.25.3.54.43.86.08.16.13.37.16.57.04.14.06.35.09.45.05.25.13.38.31.49.4.24,1.02.41,1.52.49.41.05.75.05,1.07-.06.08-.01.16-.09.22,0,.06.08.1.26.12.54.03.55-.03,1.44-.22,2.49-.18,1.08-.57,2.17-.87,3.3-.15.56-.45,1.18-.68,1.67-.24.5-.48.95-.73,1.39-.49.86-1.01,1.67-1.55,2.42-.51.74-1.08,1.34-1.64,2.03-.48.57-.64,1.01-.96,1.51-.36.51-.74,1.05-1.46,1.77-.28.28-.59.58-.95.91-.42.32-.97.65-1.51,1-.55.35-1.14.72-1.75,1.1-.32.19-.59.39-.97.57-.41.17-.82.34-1.24.52-.84.35-1.7.71-2.58,1.08-.45.18-.85.39-1.35.54-.54.14-1.08.27-1.63.41-2.21.52-4.22,1.25-6.81,1.37-2.48.26-5.12.6-8.05,1-3,.32-6.15.91-9.8,1.42-2.17.44-6.05,1.32-6.18,1.35-.11.02-.22.03-.32.05h-.04s0,0,0,0l-.1.03-.2.06s-.02,0-.03,0h-.05c-.07,0-.14-.02-.2-.04-.12-.03-.23-.09-.32-.15-.19-.11-.36-.23-.57-.23-1.7.03-1.61.34-3.08-.23-.18-.08-1.25-.29-1.3-.33-1.24-1.01-1.36-3.67-.98-4.42.12-.31,2.04-.49,2.35-.77.53-.45.57-1.59,1.32-2.33.09-.09.22-.17.38-.24.04-.02,0,0,.1-.04l.26-.08.25-.08c.17-.05.35-.11.53-.16.72-.2,1.44-.4,1.86-.6.84-.4,1.28-.82,2.22-1.27,1.78-.76,3.58-1.43,5.31-2.04,1.76-.56,3.38-1.13,4.77-1.69,1.44-.59,2.65-1.14,3.61-1.76.89-.67,1.64-1.31,2.36-1.87-1.15,0-2.24.09-3.32.24-.27.04-.53.08-.8.12-.29.03-.57.06-.86.09-.57.07-1.14.14-1.73.21-2.31.29-4.64.75-7.06.98-1.03.14-2.26.17-3.48.22-1.23.02-2.36.18-3.35.39-.67.15-1.29.33-1.88.53l-.44.16-.13.04h-.02s-.03.03-.03.03l-.07.03-.14.07-.54.28c-.72.38-1.42.78-2.25,1.13-2.66,1.05-5.84,1.62-8.44,2.93-2.21,1.09-5.1,2.99-6.96,4.68-.6.49-1.02,1.13-1.47,1.69-.42.59-.78,1.17-1.23,1.62-.43.48-.89.81-1.37,1.14-.47.33-.87.71-1.22,1.21-.26.34-.47.78-.72,1.21-.25.43-.48.88-.62,1.34-.11.33-.16.72-.22,1.12-.05.4-.08.82-.25,1.19-.58,1.3-1.61,2.55-2.09,4.03-.31,1.26-.05,2.09-.17,3.59-.12.83-.17,1.75-.34,2.63-.12.92-.23,1.84-.35,2.74-.02.47-.05.93-.07,1.38,0,.23-.01.45-.02.67,0,.22,0,.43,0,.73.03,1.08.13,2.11.32,3.04.19.94.61,1.32.71,2.39.23,2.49-.15,5.19-.07,7.97.06,1.93.53,2.93.68,4.78.04.48,0,.8-.07,1.03l-4.6,15.83-8.69-2.54s-.07-.02-.1-.03l13.26-13.26c-.12.39-.28.67-.28,1.26,0,.8.66,3.35.67,4.78.01,1.22-.44,1.48-.38,2.39.02.34.06.65.12.95l1.78,9.82-14.24,3.54c-1.08.27-1.97.67-2.99.77-1.44.13-2.34-.22-4-.12-1.1.06-2.82.51-3.95.58-2.68.16-5.31-.06-7.98.1-1.67.1-3.09.57-4.75.62-1.54.05-3.25-.18-4.8-.08-3.1.21-6.4.66-9.59.97l9.17-22.62c1.72,1.8,3.33,3.6,4.62,5.4.41.57,2.05,2.86,1.84,2.63,1,1.12,2.04,1.5,3.13,2.54,3.07,2.93,5.18,5.81,7.86,9,2.51,2.99,5.57,5.91,8.11,8.79,1.16,1.31,2.3,2.65,3.45,4.01.57.68,1.14,1.36,1.72,2.05l1.15,1.4c.43.51.81,1.06,1.21,1.6,3.13,4.34,5.37,9.34,6.65,14.57.51,2.11.87,4.09,1.08,6.01.1.96.19,1.89.22,2.81.02.44.03.88.05,1.31,0,.31.01.61.02.91.04,2.42.01,4.74-.31,7.25-.31,2.41-1.46,4.06-1.69,7.17-.13,1.85.43,11.21.47,14.34.03,2.19-.11,4.96-.09,7.97.02,4.82.61,10.95.16,12.75-.35,1.39-2.52,1.35-2.79,2.39-.34,1.33-.11,13.08.18,14.35.31,1.37.06,3.3.25,6.37.07,1.12.52,2.23.57,3.19.19,3.57-.04,7.65.2,11.16.16,2.3.67,4.27.83,6.37.09,1.26-.09,2.71-.03,3.99.09,2.1.54,3.67.55,4.78,0,.77-.18,4.7-.34,5.58-.01.03-.35.99-.69,1.95-.35.97-.72,1.95-.8,2.03-.93.94-1.31-1.76-1.75,0-.26,1.08-.48,4.39-.34,7.97.06,1.62.63,2.06.84,3.98.1.92-.17,3.13-.03,5.58.08,1.49.47,2.52.55,3.99.14,2.74-.15,5.95.22,9.56.04.37.54,1.35.56,1.6.1,1.25-.08,2.71-.03,3.98.06,1.54.46,2.71.54,3.98.33,5.7.34,10.69.72,15.94.17,2.36.5,4.79.5,6.38,0,1.94-.35,3.24-.32,4.78.07,3.04.48,3.82.5,5.58.02,1.6-.3,3.19-.32,4.78-.01,1.52.21,3.11.23,4.78.01,1.27-.31,3.12-.31,4.78,0,1.43.29,1.68.24,3.19-.07,2.08-.5,3.98-.6,6.37-.05,1.24.25,2.73.24,3.99-.01,1.16-.15,2.61-.29,4.14-.03.38-.07.77-.1,1.16l-.02.28-.02.13-.03.26c-.04.34-.08.69-.09,1.02-.07.66.38,1.17.48,1.64.14.65.18,1.37.56,2.09.51,1,1.57,1.88,1.45,1.65.57,1.15.62,2.91-.01,3.95-.35.56-1.42.57-2.5.81-.63.14-.67.47-1.19.54-1.3.16-1.47.17-2.93,1.26-.48.35-.91.39-.98.59-.06.19.2.59,1.24,1.53.88.75,1.22.87,1.73.99.51.12,1.16.31,2.84.97.95.36,1.9.73,2.89,1.11.98.38,2.02.76,3.16,1.1.89.26,1.87.48,2.82.7.95.21,1.87.37,2.63.6,1.61.48,2.53,1.23,3.74,1.52,2.01.55,6.23,1,8.74,1.21.82.05,1.21.07,2.39.25,2.2.28,3.34.89,5.45,1.22,1.09.18,3.23.25,4.8.25,1.46.03,3.94.2,4.79.14.96-.07,1.73-.6,3.26-.63,2.4-.01,4.37.23,6.34.45,1.96.22,3.94.28,6.3.08.91-.08,1.71.05,2.37-.11.19-.05.63-.44.81-.45,1.17-.12,1.43.35,2.35.31.56-.03.59-.45,1.58-.46,1.96-.05,3.95.02,5.79.05,1.84.03,3.54.14,4.91.35,2.74.45,4.18,1.24,2.77,2.76-.19.2-.44.48-.77.75,0,0-.15.16-.32.35-.17.18-.37.37-.46.41-.46.2-3.59.48-4,.82-.06.05.87.66.82.97-.03.16-1.51.67-.8,1.01.69.32,1.31.01,2.44.19.21.03.69.47.82.47,2.12.2,7.74-.18,10.59-.31,1.77-.09,3.88-.62,6.47-.86,3.05-.24,6.61-.73,11.27-1.7,1.14-.22,2.78-.62,3.97-.93,1.01-.28,2.14-.81,3.11-1.05.83-.2,1.66-.41,2.47-.6.81-.22,1.61-.43,2.39-.65,1.57-.41,3.06-.79,4.44-1.15,2.75-.7,4.98-1.45,6.32-1.93,1.29-.49,2.36-1.03,3.31-1.53.94-.54,1.76-1.03,2.58-1.37.22-.09,2.24-.58,4.61-1.44.2-.07.45-.2.7-.34l-.55.09h.4l.15-.09c.61-.37,1.26-.81,1.49-.92,1.12-.52,1.65-.38,2.4-.84.52-.31.61-.51.78-.73.16-.24.4-.51,1.07-1.15.97-.89,2.32-1.69,3.08-2.81.67-.95,1.14-1.96,1.46-2.95.22-.57.31-1.85.4-2.41.19-.8.68-2.07.59-2.98,0-.43-.41-1.27-.43-1.57-.13-1.23-.06-3.29-.22-4.68-.37-3.28-1.02-5.92-1.32-8.77-.44-4.12-.77-7.71-.41-9.56.2-1.04.55-.15.88-.8.2-.39.13-1.4.44-1.59,1.26-.8,2.68,2.68,3.52,3.19.04-3.63-.82-6.15-1.11-8.76-.24-2.2-.21-4.5-.44-6.38-.33-2.73-.93-5.04-1.29-7.17-.14-.82-.09-1.64-.21-2.39-.09-.55-.34-1.1-.42-1.59-.1-.58-.08-1.74-.21-2.39-.3-1.5-.33-.64-.62-4.78-.26-3.67-.29-3.52.44-4.78.62-1.08,3.3.16,3.78-2.39.41-2.19-.34-4.53-.43-7.97,0-.06.28-.88.2-1.59-.08-.77-.33-1.4,0-3.19.39-2.18.71-.05,1.43-2.39-.11-4.67.09-8.71-.05-12.75-.04-1.21-.33-1.98-.41-3.19-.16-2.28-.09-5.08-.23-7.97-.24-5.19-.7-10.44-.83-17.53,0-.2-.27-.79-.2-1.59.03-.31.23.08.19-.8-.05-1.27-.31-1.95-.39-3.19-.11-1.59-.43-13.43-.21-15.94.02-.28.31-1.15.37-1.59.45-2.87,1.83-4.1,3.18-1.59.62,1.14.87,1.21.91-3.19,0-.64-.24-1.26-.2-2.39.03-.85.11-3.24-.04-5.58-.19-2.89-.57-4.65-.59-5.58-.1-4.99.62-2.62-.04-6.38-.5-2.87-.58-10.3-1-15.94-.22-3.01-.52-6-.75-9.56-.1-1.48-.08-3.48-.19-4.78-.1-1.14-.42-.07-.52-.8.02.18-.06-3.09-.19-4.78-.18-2.41-.47-5.34-.53-9.56-.03-1.79.16-2.77.15-3.99-.01-4.05-.28-7.19.45-10.36.03-.15.3-.65.32-.8.09-1.04.12-1.26.2-1.35.08-.11.19-.19.44-.73.09-.21.27-1.05.33-1.12.61-.69,1.23.24,1.45-1.05.05-.27.03-.77,0-1.42-.03-.33-.05-.69-.08-1.08-.02-.2-.04-.4-.05-.61l-.03-.32c-.03-.08.05-.05.1-.05h.16c2.07-.27,4.96-.42,6.55-.46.98.02,1.79.03,2.48.04.74.01,1.36.05,1.92.08,1.13.06,2.03.07,3.26-.01,1.74-.08,2.16.14,5.49.32.57.05,1.19-.04,2.37.05,1.17.1,1.82,0,2.38.06,1.18.12,2.71.56,3.87.69.71.09,1.48.03,2.37.17,1.18.18,1.89.37,3.11.55,1.81.24,3.93.59,4.69.76,1.26.3,1.27.49,2.25.75,1.74.49,4.3,1.06,5.17,1.93.45.43,1.29.9,1.3,1.01.02.28-.37.29-1.17.21-.81-.06-2.05-.24-3.69-.43-.11,0-1.67-.35-3.15-.46-1.47-.15-2.79-.22-2.35.04.9.54,2.29.78,3.96,1.11,1.66.37,3.67.64,5.77,1.23,3.67,1.01,9.46,3.52,11.59,4.17.67.18,1.41.57,2.32,1.05.45.25.96.48,1.48.78.52.31,1.08.62,1.72.94.22.1,1.38.62,1.43.64.47.28,1.06.68,1.64,1.08.54.45,1.08.88,1.5,1.16.82.55.5.02,1.43.68.36.26.96.69,1.48,1.07.54.37.93.77.99.8,1.74,1.42,3.6,3.55,4.38,4.38.86.88.2-.16.77.36.31.26.94,1.07,1.64,1.91.69.84,1.35,1.8,1.79,2.34.18.21.48.52.94,1.1.46.57,1.07,1.43,1.72,2.77.55,1.92-.3,1.08-1.68-.82-.33-.44-.57-.51-1.01-1.18-.17-.24-.5-1.07-.76-1.33-.3-.32-.45-.19-.71-.43-.57-.6-2.45-2.63-2.85-2.58.66.83,1.17,1.38,1.61,1.89.44.51.84.97,1.33,1.54.22.23.67,1.07.84,1.25.43.5.58.42,1.09,1.1.55.8,1.41,2.36,1.94,3.27,1.26,2.05,2.38,3.47,3.6,6.83.53,1.42.77,3.06,1,3.75.46,1.5.8,1.94,1.31,3.71.15.58.96,3.87,1.32,7.58.43,3.7.43,7.77.21,9.67-.01.05-.55,2.27-.68,2.32-.19.09-.07-1.09-.14-1.58-.08-.59.03-.26-.08,0-.19.42-.2-.11-.16-.96.02-.86.03-2.05-.03-2.95-.07-.63-.35-.81-.46-1.55-.03-.19-.07-1.3-.13-1.55-.32-2.37-1.09-7.52-2.07-10.57-.42-1.37-.87-2.36-1.33-3.56-.13-.33-.39-1.08-.64-1.81-.27-.72-.58-1.41-.74-1.65-.07-.09-.11.24-.19.06-.67-1.57-1.73-4.02-2.52-5.27-1.02-1.52-1.03-1.08-1.9-2.26-.09.67,1.22,2.17,1.46,3.24-.1-.04-.33-.52-.57-.97-.25-.44-.5-.87-.58-.83.26.8,1.15,2.22,1.15,1.8,0-.46.48.41.97,1.54.47,1.14.97,2.52,1.15,3.02.29.72.33.45.67,1.31.35,1.09.71,2.4.99,3.51.61,1.97,1.25,4.47,1.74,7.23.06.47.17,1.34.3,2.42.11,1.07.21,2.37.29,3.64.15,2.56.14,5.09.17,5.97.03.42.22.19.21.77,0,.41-.06,1.06-.15,1.85-.07.79-.19,1.7-.32,2.61-.21,1.8-.38,3.59-.75,5.16-.23.92-.94,2.71-1.23,3.47-.25.83-.43,1.31-.72,2.09-.14.43-.65,1.36-.93,2-.12.28-.11.49-.24.71-.19.34-.6.93-.77,1.25-.96,1.5-.79,1.51-3.04,4.18-.42.55-1.48,1.52-2.79,2.79-.65.65-1.51,1.19-2.33,1.86-.82.68-1.79,1.23-2.75,1.82-3.84,2.3-8.15,3.84-9.56,3.99-1.86.26-1.3.11,2.03-1.24.74-.33.86-.32,1.41-.6.29-.15.85-.35,1.39-.61.53-.27,1.06-.55,1.33-.76-1.6.76-3.23,1.33-4.75,1.99-.77.3-1.55.55-2.3.82-.76.26-1.48.55-2.23.73-1.38.37-2.98.88-4.51,1.17-3.36.76-6.53,1.14-10.06,1.54-1.26.1-2.69.29-3.93.34-1.19.04-2.74.06-3.95.05-.59,0-1.37.08-1.58.08-2.2,0-4.69-.16-7.11-.3-.28-.17-1.73-.39-1.12-.54-.77-.05-1.47-.09-2.34-.15-.21-.01-.44-.03-.68-.04h-.09s-.01.05-.02.08l-.02.19c-.01.13-.03.26-.04.39-.06.54-.14,1.14-.2,1.86-.09,1.36-.09,1.99-.14,3-.09,1.12-.23,2.86-.32,3.97-.06.94-.04,1.57-.1,2.39-.14,2.11-.28,4.17-.43,6.36-.05.67-.09,1.33-.13,1.97-.02.32-.04.63-.05.94,0,.15-.02.3-.02.45v.22s-.02.08-.01.1l.07.05c1.19.07,2.22.13,2.99.18.44.03,1.32.1,2.27.17.92.07,1.91.13,2.58.16.12,0,1.08-.07,3.2.06,2.18.12,2.06.21,1.59.3-.74.17-6.95-.11-7.22-.01.23.06.86.07,1.6.1.4.01,1.6.05,2.41.08,1.78.03,3.1,0,4.81-.03.77-.02.99,0,1.6-.03.99-.06,3.68-.18,6.57-.38,1.45-.12,2.95-.25,4.3-.37,1.36-.16,2.58-.3,3.48-.4,1.72-.17,1.35-.14,3.18-.36.83-.1.65-.03,2.38-.3,4.03-.77,4.85-1.09,7.77-1.92.57-.12,2.75-.82,3.82-1.17,1.12-.34,1.93-.69,2.72-.98.78-.31,1.57-.53,2.54-.92.37-.14.9-.3,1.5-.56,1.24-.49,2.58-1.23,4.03-1.96,1.41-.81,2.93-1.65,4.37-2.62.7-.44,1.36-.88,1.99-1.35.63-.47,1.29-.89,1.91-1.4.64-.51,1.36-1.04,1.99-1.58.63-.55,1.22-1.06,1.68-1.45.87-.86,1.74-1.66,2.58-2.63.43-.47.88-.96,1.35-1.48.44-.55.91-1.12,1.41-1.73.5-.58,1.09-1.34,1.46-1.87,1.05-1.34,3.05-4.57,4.13-6.7,1.53-2.94-.47,1.05,1.48-2.77.69-1.46.7-1.51,1.21-2.91-.03-.16-1.06,2.58-1.64,3.57.1-.26.27-.63.46-1.05.18-.44.39-.95.6-1.48.22-.54.45-1.1.68-1.66.19-.57.38-1.13.55-1.64.11-.36.26-.81.41-1.31.14-.5.27-1.05.41-1.61.14-.56.29-1.13.42-1.66.12-.55.23-1.06.33-1.49.44-1.91.13-.3.5-2.29.11-.75.17-1.24.33-2.33.18-1.11.33-2.83.52-4.67.11-1.85.23-3.82.2-5.47,0-.83,0-1.6-.05-2.35,0-.63-.01-1.71-.02-2.35,0-.52-.16-1.66-.26-4.69.02-.81.18.77.18.77.02,0,0-1.26.07-.79.06.42.16,1.75.26,3.29.08,1.54.11,3.29.15,4.54,0,.6,0,.81.01,1.57-.02.7,0,1.62-.05,2.58-.06.97-.11,1.99-.17,2.91h-.13c-.34,2.48.07.5,0,1.57.02-.31-.07.62-.17,1.65-.09,1.03-.3,2.15-.3,2.25-.08.34-.22,1.54-.51,2.7-.25,1.16-.5,2.29-.58,2.69-.26,1.29-.13.41-.84,3.03-.21.66-.4,1.26-.71,2.26-.09.28-.2.6-.31.95-.14.34-.29.72-.44,1.1-.32.77-.62,1.61-.97,2.36-.07.16-.65,1.35-.68,1.42-.49,1.16-.02.21-1.47,2.8-.19.34-.19.43-.35.72-.56.98-1.62,2.55-2.13,3.33-.4.58-.75,1.08-1.11,1.61-.34.52-.7,1.04-1.2,1.62-.29.35-.71.85-1.17,1.4-.46.55-1.02,1.09-1.46,1.57-.58.61-1,1.15-1.64,1.74-.59.57-1.32,1.22-1.17,1.08-.56.48-.17.2-.57.56-1.94,1.78-5.09,4.13-7.69,5.72-.73.49-1.38.87-2.04,1.26-.66.38-1.3.81-2.1,1.2-.74.37-2.21,1.1-2.89,1.39-.87.39-1.81.81-2.79,1.26-1,.4-2.05.81-3.13,1.24-.77.31-1.7.57-2.63.88-.93.3-1.88.61-2.74.83-.31.09-.5.19-.76.26-.71.19-1.47.39-2.26.61-.79.18-1.6.37-2.43.56-.41.09-1.37.35-2.45.55-1.08.2-2.26.42-3.08.57-.73.16-1.74.28-2.86.44-1.12.14-2.35.34-3.53.46-2.26.23-2.66.31-4.02.42-1.44.11-3.96.06-5.64.12-4.21.06-9,.08-12.9-.08-.15,0-.34-.02-.55-.03-.35-.03-.75-.05-1.14-.08-.8-.05-1.61-.11-2.15-.15-.3-.02-.67-.04-1.49-.09,0-.73.08-2.29.22-4.04.02-.27.04-.57.06-.88.01-.19.02-.4.03-.61.02-.43.05-.89.07-1.38.05-.97.11-2.03.17-3.05.06-.9.1-1.59.16-2.39.05-1.01.12-3.53.28-5.58.05-.61.24-2.89.46-4.43.13-.79.27-1.58.41-2.38.82.03,1.7.13,2.59.19-.26.03-.87.02-1.62,0-.19,0-.39-.01-.59-.02h-.15s-.08,0-.08,0c-.01.02,0,.05-.01.08l-.04.32c-.05.43-.1.87-.16,1.29-.05.42-.09.83-.14,1.21-.02.38-.03.72-.04,1.02-.02.57,0,.87.07.73.02-.54.07-1.75.26-3.01.04-.32.08-.66.12-.99.03-.16.03-.36.08-.49l.5.02c.66.03,1.31.05,1.89.08.45.02,1.4.07,2.64.13.72.02,1.61.04,2.53.06,1.77.02,3.67.03,4.69-.03.42-.03,1.27-.09,1.56-.11.89-.01,3.66-.08,5.42-.24,1.16-.13.67-.19,3.84-.46.09,0-.08.11,0,.1.16,0,3.25-.28,3.82-.42-1.33.57-5.48,1.09-8.42,1.44.73.04,2.01-.04,3.43-.17,1.42-.18,2.98-.4,4.28-.61,1.32-.24,2.25-.43,3.78-.75,1.34-.31,3.14-.58,4.47-1.01.85-.25.84-.29,1.45-.48.59-.16,1.59-.54,2.66-.92.53-.19,1.08-.39,1.6-.58.5-.22.97-.43,1.36-.6.58-.27,1.18-.53,1.76-.8.56-.31,1.11-.62,1.65-.92.54-.3,1.08-.58,1.58-.87.48-.32.95-.61,1.39-.87.03-.02.28-.15.65-.34.36-.19.85-.42,1.27-.72.87-.57,1.7-1.11,1.72-1.12.27-.07-.77.72-1.56,1.48-.83.79-.96.82-1.21,1.01-.27.16-.69.45-2.38,1.45-.43.22-.94.57-1.28.75-.58.3-1.15.62-1.72.88-.58.25-1.14.49-1.65.7-.59.25-1.14.52-1.7.74-.56.21-1.1.41-1.62.6-.53.2-1.04.39-1.54.58-.51.17-1.03.31-1.55.46-2.04.63-4.86,1.16-6.77,1.53-.7.15-1.41.3-2.29.49-.74.16-3.08.37-2.31.41,1.15-.05,2.2-.17,3.2-.36,1-.19,1.98-.33,2.96-.56.79-.18,1.95-.44,3.02-.68.22-.06,1.11-.31,1.49-.42.32-.1.57-.25.72-.3.41-.11.95-.24,1.49-.36.53-.16,1.06-.31,1.46-.45.42-.15.54-.29.7-.34,1.31-.4,2.29-.81,3.54-1.32,1.18-.45,2.1-.99,3.37-1.63,1.15-.54,2.01-1.16,2.91-1.69.43-.29.9-.52,1.31-.86.41-.33.84-.67,1.3-1.05.67-.56,1.08-.95,1.57-1.49l1.17-1.15c.4-.37.8-.73,1.14-1.14.73-.77,1.35-1.59,1.91-2.37,1.24-1.9,2.04-3.46,3.08-6.2.22-.5.49-1.68.6-2,.38-1.21.54-1.59.81-2.67.57-2.48.77-6.25.9-9.22.02-.58.15-1.82.18-2.95.03-.56.05-1.09.07-1.48,0-.39.01-.64.01-.65.14-.56.67,2.63.7,5.9.05,5.06-.91,10.98-3.43,16.16-.59,1.2-1.08,2.18-1.73,3.15-.42.71-.96,1.32-1.4,1.93-.48.56-.92,1.07-1.27,1.48-.49.53-1.1,1.17-1.93,2.03-.21.21-.42.45-.68.67-.27.21-.55.43-.85.66-.61.45-1.28.99-2.09,1.51Z"/></svg>