<?xml version="1.0" encoding="utf-8"?>
<!-- Generator: Adobe Illustrator 27.3.1, SVG Export Plug-In . SVG Version: 6.00 Build 0)  -->
<svg version="1.1" id="Layer_1" xmlns="http://www.w3.org/2000/svg" xmlns:xlink="http://www.w3.org/1999/xlink" x="0px" y="0px"
	 viewBox="0 0 360 360" style="enable-background:new 0 0 360 360;" xml:space="preserve">
<style type="text/css">
	.st0{fill:none;stroke:#010101;stroke-width:20;stroke-miterlimit:10;}
	.st1{fill:#010101;}
</style>
<g>
	<path class="st0" d="M212.05,24.47l100.52,0.33l-24.08,50.87c0,0,16.52,35.18,25.01,71.87c12.57,54.35-60.89,72.32-59.15-3.53"/>
	<g>
		<path class="st1" d="M143.12,407.78c-4.11-0.01-8.19-0.64-12.11-1.88l-33.1-9.14c-5.26-2.31-8.55-7.58-8.31-13.39l26.74-221.76
			c0.57-4.76,0.22-9.52-1.07-14.14L95.67,76.85c-0.02-0.07-0.05-0.13-0.1-0.19L46.07,17.91l48.16-3.43
			c0.13-0.01,0.26-0.07,0.34-0.17l11.9-13.89l52.2-15.18c0.14-0.04,0.25-0.14,0.31-0.26c0.06-0.13,0.06-0.28,0.01-0.41l-8.7-20.75
			c-0.34-1.6,0.48-3.31,2.03-4.07l14.49-7.12c0.51-0.25,1.08-0.38,1.65-0.38s1.14,0.13,1.65,0.38l14.95,7.34
			c1.55,0.76,2.38,2.47,2.01,4.16l-8.67,20.67c-0.05,0.13-0.05,0.28,0.01,0.4s0.17,0.22,0.3,0.27l49.08,15.44
			c4.5,4.5,12.68,12.69,13.78,13.8c-0.08,1.22-0.07,5.28-0.01,19.78L224.4,148.77c-0.57,3.8-0.54,7.65,0.09,11.43l37.3,223.46
			c0.23,5.75-3.06,11.02-8.39,13.36l-32.9,9.07c-3.98,1.25-8.09,1.88-12.25,1.88L143.12,407.78z"/>
		<g>
			<path class="st1" d="M168.46-47.25c0.49,0,0.99,0.11,1.43,0.33l14.95,7.34c1.32,0.65,2.03,2.08,1.75,3.52l-8.66,20.66
				c-0.11,0.26-0.1,0.55,0.02,0.81c0.12,0.26,0.34,0.45,0.61,0.53l48.96,15.41c4.34,4.35,12.02,12.03,13.55,13.56
				c-0.06,1.17-0.05,3.72-0.04,9.61c0.01,4.63,0.03,9.25,0.03,9.9l-17.14,114.28c-0.58,3.85-0.55,7.75,0.1,11.59l37.29,223.4
				c0.2,5.56-2.94,10.59-8.02,12.85l-32.93,9.09c-3.91,1.23-7.98,1.85-12.08,1.85l-0.11,0l-65.03-0.18c-4.06-0.01-8.09-0.63-12-1.86
				l-33.01-9.11c-5.09-2.26-8.23-7.31-8.02-12.87l26.74-221.75c0.58-4.83,0.22-9.65-1.08-14.33L96.16,76.72
				c-0.04-0.14-0.11-0.27-0.2-0.38l-48.88-58l47.18-3.36c0.27-0.02,0.51-0.14,0.69-0.35l11.81-13.77l52.05-15.14
				c0.27-0.08,0.5-0.27,0.62-0.53c0.12-0.26,0.13-0.55,0.02-0.82l-8.66-20.66c-0.28-1.43,0.44-2.87,1.75-3.52l14.49-7.12
				C167.48-47.14,167.97-47.25,168.46-47.25 M168.46-48.25c-0.64,0-1.28,0.14-1.87,0.43l-14.49,7.12c-1.75,0.86-2.69,2.81-2.27,4.71
				l8.7,20.75L106.19-0.01l-12,14l-49.14,3.5l50.14,59.5l19.59,70.63c1.26,4.53,1.62,9.27,1.05,13.94L89.09,383.36
				c-0.24,5.98,3.2,11.49,8.68,13.9l33.08,9.13c3.97,1.25,8.1,1.89,12.26,1.9l65.03,0.18c0.04,0,0.08,0,0.12,0
				c4.2,0,8.37-0.64,12.38-1.9l32.97-9.1c5.48-2.41,8.92-7.92,8.68-13.9l-37.3-223.46c-0.62-3.73-0.65-7.54-0.09-11.28l17.15-114.35
				c0,0-0.08-20,0-20c0-0.01-14-14.02-14-14.02l-49.2-15.48l8.7-20.75c0.42-1.91-0.52-3.85-2.27-4.71l-14.95-7.34
				C169.74-48.11,169.1-48.25,168.46-48.25L168.46-48.25z"/>
		</g>
	</g>
</g>
</svg>
