<?xml version="1.0" encoding="UTF-8"?><svg id="Layer_3" xmlns="http://www.w3.org/2000/svg" width="905" height="543" xmlns:xlink="http://www.w3.org/1999/xlink" viewBox="0 0 905 543"><defs><style>.cls-1{fill:#f5f5f5;filter:url(#drop-shadow-2);}</style><filter id="drop-shadow-2" x="3.84" y="11.67" width="897.36" height="527.13" filterUnits="userSpaceOnUse"><feOffset dx="0" dy="4.16"/><feGaussianBlur result="blur" stdDeviation="1.04"/><feFlood flood-color="#040835" flood-opacity=".2"/><feComposite in2="blur" operator="in"/><feComposite in="SourceGraphic"/></filter></defs><path class="cls-1" d="M897.9,155.74c.22-1.91-3.94-6.52-3.94-6.52,0,0,4.16-4.61,3.94-6.52-.06-.48-.42-1.05-.93-1.64-.25-.29-.55-.59-.86-.89-.31-.22-.64-.97-.97-1.4-1.32-1.97-2.66-3.44-2.66-3.44,0,0,.66-2.49,1.08-5.43.43-2.94.58-6.35,0-7.93-1.12-3.23-7.48-5.66-7.47-5.62,0,0-.11-2.68-.59-5.66-.47-2.98-1.3-6.26-2.24-7.41-1.85-2.35-7.91-1.25-7.9-1.25,0,0-.79-2.47-1.98-5.07-1.18-2.61-2.75-5.32-3.83-5.98-2.16-1.31-7,2.46-7.01,2.43,0,0-1.26-2.02-2.89-4.01-1.61-2.01-3.59-3.96-4.65-4.16-2.1-.36-5.45,5.08-5.49,5.04.06-.1-6.21-5.59-8.16-5.13-1.85.39-3.84,6.6-3.89,6.56,0-.09-6.39-3.35-8.03-2.35-1.55.93-2.51,7.22-2.59,7.17,0-.08-5.51-1.67-7.01-.45,1.41-1.32.55-6.99.49-7.01-.03-.08,6.33-.2,7.46-1.61,1.2-1.49-1.16-8.28-1.26-8.26-.04-.06,6.38-1.2,7.02-2.99.3-.92-.59-3.14-1.68-5.11-1.07-1.96-2.32-3.65-2.31-3.66-.04-.03,5.8-2.63,5.72-4.76-.05-1.08-1.72-3.3-3.49-5.16-1.76-1.87-3.58-3.39-3.58-3.39-.02-.01,4.36-4.31,3.36-6.62-.51-1.15-2.97-3.09-5.39-4.59-2.41-1.52-4.74-2.64-4.74-2.64,0,0,1.9-5.82-.16-7.99-1.02-1.07-4.14-2.36-7.03-3.21-2.89-.87-5.53-1.35-5.53-1.35.04,0-1.51-6.62-4.56-8.17-1.5-.78-4.9-1.1-7.89-1.06-2.99.01-5.56.33-5.56.33.07-.01-5.32-6.06-8.95-6.58-1.77-.28-4.88.47-7.46,1.4-2.59.91-4.65,1.97-4.65,1.96,0,0-4.61-4.16-6.52-3.93-1.92.23-5.33,5.34-5.33,5.34,0,0-5.53-2.96-7.32-2.3-1.8.66-3.83,6.41-3.83,6.41,0,0-6.09-1.63-7.68-.58-1.59,1.04-2.2,7.07-2.2,7.07,0,0-6.31-.3-7.63,1.04-1.32,1.35-.6,7.36-.6,7.36,0,0-6.24.93-7.25,2.51-1.01,1.57.93,7.33.93,7.33,0,0-5.93,2.07-6.61,3.79-.68,1.73,2.35,7.03,2.35,7.03,0,0-5.44,3.08-5.78,4.9-.34,1.82,3.64,6.51,3.64,6.51,0,0-4.59,3.26-4.74,5.15-.16-1.89-4.74-5.15-4.74-5.15,0,0,3.98-4.69,3.64-6.51-.34-1.81-5.77-4.89-5.77-4.89,0,0,3.03-5.3,2.35-7.03-.68-1.72-6.61-3.79-6.61-3.79,0,0,1.94-5.75.93-7.33-1.01-1.57-7.25-2.51-7.25-2.51,0,0,.73-6.01-.6-7.36-1.31-1.34-7.63-1.04-7.63-1.04,0,0-.62-6.02-2.21-7.07-1.59-1.04-7.68.58-7.68.58,0,0-2.03-5.74-3.83-6.41-1.8-.66-7.32,2.29-7.32,2.29,0,0-3.42-5.11-5.33-5.34-1.92-.22-6.52,3.93-6.52,3.93,0,0-4.61-4.16-6.52-3.93-1.91.23-5.33,5.34-5.33,5.34,0,0-5.52-2.96-7.32-2.3-1.8.66-3.83,6.41-3.83,6.41,0,0-6.09-1.63-7.68-.58-1.59,1.04-2.21,7.07-2.21,7.07,0,0-6.31-.3-7.63,1.04-1.32,1.35-.6,7.36-.6,7.36,0,0-6.24.93-7.25,2.51-1.01,1.57.93,7.33.93,7.33,0,0-5.94,2.07-6.61,3.79-.68,1.73,2.34,7.03,2.34,7.03,0,0-5.44,3.08-5.77,4.9-.34,1.82,3.64,6.51,3.64,6.51,0,0-4.59,3.26-4.74,5.15-.16-1.89-4.74-5.15-4.74-5.15,0,0,3.98-4.69,3.64-6.51-.34-1.81-5.77-4.89-5.77-4.89,0,0,3.03-5.3,2.35-7.03-.68-1.72-6.62-3.79-6.62-3.79,0,0,1.94-5.75.93-7.33-1.01-1.57-7.25-2.51-7.25-2.51,0,0,.72-6.01-.6-7.36-1.32-1.34-7.63-1.04-7.63-1.04,0,0-.61-6.02-2.2-7.07-1.59-1.04-7.68.58-7.68.58,0,0-2.03-5.74-3.83-6.41-1.8-.66-7.33,2.29-7.33,2.29,0,0-3.41-5.11-5.32-5.34-1.92-.22-6.53,3.93-6.53,3.93,0,0-4.61-4.16-6.52-3.93-1.91.23-5.33,5.34-5.33,5.34,0,0-5.52-2.96-7.33-2.3-1.8.66-3.83,6.41-3.83,6.41,0,0-6.09-1.63-7.68-.58-1.59,1.04-2.21,7.07-2.21,7.07,0,0-6.31-.3-7.63,1.04-1.32,1.35-.6,7.36-.6,7.36,0,0-6.24.93-7.25,2.51-1.01,1.57.93,7.33.93,7.33,0,0-5.94,2.07-6.61,3.79-.68,1.73,2.34,7.03,2.34,7.03,0,0-5.43,3.08-5.77,4.9-.34,1.82,3.64,6.51,3.64,6.51,0,0-4.59,3.26-4.74,5.15-.16-1.89-4.74-5.15-4.74-5.15,0,0,3.98-4.69,3.64-6.51-.34-1.81-5.77-4.89-5.77-4.89,0,0,3.03-5.3,2.35-7.03-.68-1.72-6.61-3.79-6.61-3.79,0,0,1.94-5.75.93-7.33-1.01-1.57-7.25-2.51-7.25-2.51,0,0,.72-6.01-.6-7.36-1.32-1.34-7.63-1.04-7.63-1.04,0,0-.61-6.02-2.2-7.07-1.59-1.04-7.68.58-7.68.58,0,0-2.03-5.74-3.83-6.41-1.8-.66-7.32,2.29-7.32,2.29,0,0-3.42-5.11-5.33-5.34-1.91-.22-6.53,3.93-6.53,3.93,0,0-4.61-4.16-6.52-3.93-1.91.23-5.32,5.34-5.32,5.34,0,0-5.53-2.96-7.32-2.3-1.8.66-3.83,6.41-3.83,6.41,0,0-6.09-1.63-7.68-.58-1.59,1.04-2.2,7.07-2.2,7.07,0,0-6.31-.3-7.63,1.04-1.32,1.35-.6,7.36-.6,7.36,0,0-6.24.93-7.25,2.51-1.01,1.57.93,7.33.93,7.33,0,0-5.93,2.07-6.61,3.79-.68,1.73,2.35,7.03,2.35,7.03,0,0-5.43,3.08-5.77,4.9-.33,1.82,3.64,6.51,3.64,6.51,0,0-4.58,3.26-4.74,5.15-.16-1.89-4.74-5.15-4.74-5.15,0,0,3.98-4.69,3.64-6.51-.34-1.81-5.78-4.89-5.78-4.89,0,0,3.03-5.3,2.35-7.03-.68-1.72-6.62-3.79-6.62-3.79,0,0,1.94-5.75.93-7.33-1.01-1.57-7.25-2.51-7.25-2.51,0,0,.72-6.01-.6-7.36-1.32-1.34-7.63-1.04-7.63-1.04,0,0-.62-6.02-2.21-7.07-1.59-1.04-7.68.58-7.68.58,0,0-2.03-5.74-3.83-6.41-1.8-.66-7.32,2.29-7.32,2.29,0,0-3.42-5.11-5.33-5.34-1.91-.22-6.52,3.93-6.52,3.93,0,0-4.61-4.16-6.52-3.93-1.91.23-5.33,5.34-5.33,5.34,0,0-5.52-2.96-7.32-2.3-1.8.66-3.83,6.41-3.83,6.41,0,0-6.09-1.63-7.68-.58-1.59,1.04-2.21,7.07-2.21,7.07,0,0-6.31-.3-7.63,1.04-1.32,1.35-.6,7.36-.6,7.36,0,0-6.24.93-7.25,2.51-1.01,1.57.93,7.33.93,7.33,0,0-5.94,2.07-6.62,3.79-.68,1.73,2.35,7.03,2.35,7.03,0,0-5.44,3.08-5.77,4.9-.34,1.82,3.64,6.51,3.64,6.51,0,0-4.59,3.26-4.74,5.15-.16-1.89-4.74-5.15-4.74-5.15,0,0,3.98-4.69,3.64-6.51-.34-1.81-5.77-4.89-5.77-4.89,0,0,3.03-5.3,2.35-7.03-.68-1.72-6.61-3.79-6.61-3.79,0,0,1.94-5.75.93-7.33-1.01-1.57-7.25-2.51-7.25-2.51,0,0,.72-6.01-.6-7.36-1.32-1.34-7.63-1.04-7.63-1.04,0,0-.61-6.02-2.2-7.07-1.59-1.04-7.68.58-7.68.58,0,0-2.03-5.74-3.83-6.41-1.8-.66-7.33,2.29-7.33,2.29,0,0-3.41-5.11-5.32-5.34-1.92-.22-6.53,3.93-6.53,3.93,0,0-4.61-4.16-6.52-3.93-1.91.23-5.33,5.34-5.33,5.34,0,0-5.52-2.96-7.33-2.3-1.8.66-3.83,6.41-3.83,6.41,0,0-6.09-1.63-7.68-.58-1.59,1.04-2.21,7.07-2.21,7.07,0,0-6.31-.3-7.63,1.04-1.32,1.35-.6,7.36-.6,7.36,0,0-6.24.93-7.26,2.51-.76.79-.35,2.62.09,4.25.36,1.64.84,3.08.84,3.08l-.94.35c-.77.23-1.8.54-2.85.94-2.1.8-4.22,1.9-4.59,2.81-.67,1.77,3.48,6.8,3.41,6.82-.07-.06-6.27,3.57-6.31,5.49-.06,1.8,4.72,6.02,4.64,6.05-.06-.03-4.38,3.73-4.17,5.65-.35-1.9-5.59-4.25-5.64-4.19-.08-.02,3.25-5.43,2.67-7.15-.61-1.83-7.61-3.47-7.66-3.39-.07,0,2.45-6.03,1.28-7.52-1.2-1.62-9.56-1.46-9.57-1.35-.05,0,.91-6.31-.93-7.39-.94-.54-3.72-.31-6.25.18-2.53.48-4.8,1.2-4.8,1.2-.03.01-1.29-6-3.79-6.38-1.25-.2-4.2.87-6.78,2.09-2.58,1.23-4.78,2.59-4.78,2.59.02,0-3.9-4.73-6.82-4.15-1.46.27-4.19,2.22-6.46,4.19-2.28,1.96-4.08,3.92-4.08,3.92.04-.03-6.37-2.29-9.3-.58-1.45.82-3.52,3.52-5.1,6.02-1.59,2.52-2.69,4.84-2.7,4.83.03-.07-7.94,1.17-10.34,3.94-1.19,1.34-2.24,4.36-2.85,7.03-.64,2.67-.87,4.99-.88,4.99.01,0-2,1.18-4.17,2.87-2.18,1.68-4.49,3.9-5.22,5.54-1.53,3.34.65,11.14.7,11.09,0,0-1.65,1.99-3.28,4.5-1.63,2.5-3.22,5.53-3.36,7.22-.35,3.4,4.4,8.29,4.41,8.25,0,0-1.03,2.48-1.85,5.38-.84,2.9-1.45,6.22-1.09,7.65.7,2.9,6.65,4.46,6.64,4.45,0,0-.32,2.56-.34,5.41-.02,1.42.05,2.91.2,4.17.07.73.17.92.29,1.26.12.3.26.54.43.71,1.34,1.32,7.36.6,7.36.6,0,0,.93,6.24,2.51,7.25,1.57,1.01,7.33-.93,7.33-.93,0,0,2.07,5.94,3.8,6.61,1.73.68,7.03-2.35,7.03-2.35,0,0,3.08,5.44,4.9,5.77,1.82.34,6.51-3.64,6.51-3.64,0,0,3.27,4.59,5.15,4.74-1.88.16-5.15,4.75-5.15,4.75,0,0-4.69-3.98-6.51-3.64-1.82.34-4.89,5.77-4.89,5.77,0,0-5.3-3.03-7.03-2.35-1.73.68-3.8,6.62-3.8,6.62,0,0-5.75-1.94-7.33-.93-1.57,1.01-2.51,7.25-2.51,7.25,0,0-6.02-.72-7.36.6-1.34,1.32-1.04,7.63-1.04,7.63,0,0-6.03.62-7.07,2.21-1.04,1.59.58,7.68.58,7.68,0,0-5.74,2.03-6.41,3.83-.66,1.8,2.29,7.33,2.29,7.33,0,0-5.11,3.41-5.33,5.32-.23,1.91,3.93,6.53,3.93,6.53,0,0-4.16,4.61-3.93,6.52.23,1.91,5.33,5.33,5.33,5.33,0,0-2.96,5.52-2.29,7.32.66,1.8,6.41,3.83,6.41,3.83,0,0-1.63,6.09-.59,7.68,1.05,1.59,7.08,2.21,7.08,2.21,0,0-.3,6.32,1.04,7.64,1.34,1.32,7.36.6,7.36.6,0,0,.93,6.24,2.51,7.25,1.57,1.01,7.33-.93,7.33-.93,0,0,2.07,5.94,3.8,6.61,1.73.68,7.03-2.35,7.03-2.35,0,0,3.08,5.43,4.9,5.77,1.82.34,6.51-3.64,6.51-3.64,0,0,3.27,4.59,5.15,4.74-1.88.16-5.15,4.74-5.15,4.74,0,0-4.69-3.98-6.51-3.64-1.82.34-4.89,5.77-4.89,5.77,0,0-5.3-3.03-7.03-2.35-1.73.68-3.8,6.61-3.8,6.61,0,0-5.75-1.94-7.33-.93-1.57,1.01-2.51,7.25-2.51,7.25,0,0-6.02-.72-7.36.6-1.34,1.32-1.04,7.63-1.04,7.63,0,0-6.03.62-7.07,2.21-1.04,1.59.58,7.68.58,7.68,0,0-5.74,2.03-6.41,3.83-.66,1.8,2.29,7.33,2.29,7.33,0,0-5.11,3.41-5.33,5.33-.23,1.91,3.93,6.52,3.93,6.52,0,0-4.16,4.61-3.93,6.52.23,1.91,5.33,5.33,5.33,5.33,0,0-2.96,5.52-2.29,7.33.66,1.8,6.41,3.83,6.41,3.83,0,0-1.63,6.09-.59,7.68,1.05,1.59,7.08,2.21,7.08,2.21,0,0-.3,6.31,1.04,7.63,1.34,1.32,7.36.6,7.36.6,0,0,.93,6.24,2.51,7.25,1.57,1.01,7.33-.93,7.33-.93,0,0,2.07,5.94,3.8,6.61,1.73.68,7.03-2.35,7.03-2.35,0,0,3.08,5.44,4.9,5.77,1.82.34,6.51-3.64,6.51-3.64,0,0,3.27,4.59,5.15,4.74-1.88.16-5.15,4.74-5.15,4.74,0,0-4.69-3.98-6.51-3.64-1.82.34-4.89,5.77-4.89,5.77,0,0-5.3-3.03-7.03-2.35-.86.34-1.81,1.99-2.54,3.56l-.5,1.14-.38,1.33-.32,1.28c-.01.05-5.8-2.62-7.35-1.17-.78.75-1.34,3.46-1.58,6.02-.25,2.55-.2,4.93-.19,4.93,0,.02-6.11-.45-7.2,1.84-.53,1.14-.36,4.28.11,7.1.44,2.83,1.15,5.32,1.15,5.32,0,0-5.64,2.42-5.9,5.4-.14,1.48.96,4.68,2.22,7.42,1.25,2.75,2.63,5.04,2.63,5.04-.02-.04-3.98,5.5-3.13,8.81.39,1.63,2.41,4.39,4.38,6.61,1.98,2.24,3.91,3.95,3.9,3.95-.06-.04-1.07,7.97.93,11.04.95,1.51,3.56,3.36,5.96,4.69,2.4,1.35,4.55,2.22,4.55,2.22,0,0,.57,2.25,1.59,4.8,1,2.55,2.47,5.39,3.85,6.53,2.78,2.38,10.83,2.45,10.8,2.38,0,0,1.44,2.13,3.38,4.39,1.93,2.26,4.39,4.6,5.94,5.22,3.17,1.26,9.16-1.91,9.13-1.93,0,0,2.08,1.67,4.63,3.28,2.54,1.62,5.55,3.14,7.03,3.2,2.99.14,6.15-5.12,6.15-5.12,0,0,2.38,1.03,5.12,1.86,2.74.83,5.82,1.44,7.03,1.06,2.41-.75,2.77-6.88,2.79-6.87,0,0,2.35.38,4.93.48,2.58.1,5.36-.09,6.21-.76,1.66-1.35-.23-7.44-.18-7.45.03.11,8.31-.98,9.25-2.76.93-1.65-2.45-7.24-2.38-7.25.06.07,6.73-2.6,7.05-4.5.32-1.78-3.78-6.64-3.7-6.67.06.05,4.88-3.05,4.96-4.97.15,1.89,4.74,5.15,4.74,5.15,0,0-3.98,4.69-3.64,6.51.34,1.81,5.77,4.89,5.77,4.89,0,0-3.03,5.3-2.35,7.03.68,1.73,6.61,3.79,6.61,3.79,0,0-1.94,5.75-.93,7.33,1.01,1.57,7.25,2.51,7.25,2.51,0,0-.72,6.01.6,7.36,1.32,1.34,7.63,1.04,7.63,1.04,0,0,.62,6.03,2.21,7.07,1.59,1.04,7.68-.58,7.68-.58,0,0,2.03,5.75,3.83,6.41,1.8.66,7.32-2.29,7.32-2.29,0,0,3.42,5.11,5.33,5.34,1.91.22,6.52-3.93,6.52-3.93,0,0,4.61,4.16,6.52,3.93,1.91-.23,5.33-5.34,5.33-5.34,0,0,5.52,2.96,7.32,2.3,1.8-.66,3.83-6.41,3.83-6.41,0,0,6.09,1.63,7.68.58,1.59-1.04,2.21-7.07,2.21-7.07,0,0,6.31.3,7.63-1.04,1.32-1.35.6-7.36.6-7.36,0,0,6.24-.93,7.25-2.51,1.01-1.57-.93-7.33-.93-7.33,0,0,5.94-2.07,6.62-3.79.68-1.73-2.35-7.03-2.35-7.03,0,0,5.44-3.08,5.77-4.9.34-1.82-3.64-6.51-3.64-6.51,0,0,4.59-3.26,4.74-5.15.16,1.89,4.74,5.15,4.74,5.15,0,0-3.98,4.69-3.64,6.51.34,1.81,5.77,4.89,5.77,4.89,0,0-3.03,5.3-2.35,7.03.68,1.73,6.61,3.79,6.61,3.79,0,0-1.94,5.75-.93,7.33,1.01,1.57,7.25,2.51,7.25,2.51,0,0-.72,6.01.6,7.36,1.32,1.34,7.63,1.04,7.63,1.04,0,0,.61,6.03,2.21,7.07,1.59,1.04,7.68-.58,7.68-.58,0,0,2.03,5.75,3.83,6.41,1.8.66,7.33-2.29,7.33-2.29,0,0,3.41,5.11,5.32,5.34,1.92.22,6.53-3.93,6.53-3.93,0,0,4.61,4.16,6.52,3.93,1.91-.23,5.33-5.34,5.33-5.34,0,0,5.52,2.96,7.32,2.3,1.8-.66,3.83-6.41,3.83-6.41,0,0,6.09,1.63,7.68.58,1.59-1.04,2.2-7.07,2.2-7.07,0,0,6.32.3,7.64-1.04,1.32-1.35.6-7.36.6-7.36,0,0,6.24-.93,7.25-2.51,1.01-1.57-.93-7.33-.93-7.33,0,0,5.94-2.07,6.61-3.79.68-1.73-2.35-7.03-2.35-7.03,0,0,5.43-3.08,5.77-4.9.34-1.82-3.64-6.51-3.64-6.51,0,0,4.59-3.26,4.74-5.15.16,1.89,4.74,5.15,4.74,5.15,0,0-3.98,4.69-3.64,6.51.34,1.81,5.77,4.89,5.77,4.89,0,0-3.03,5.3-2.35,7.03.68,1.73,6.61,3.79,6.61,3.79,0,0-1.94,5.75-.93,7.33s7.25,2.51,7.25,2.51c0,0-.72,6.01.6,7.36,1.32,1.34,7.63,1.04,7.63,1.04,0,0,.61,6.03,2.2,7.07,1.59,1.04,7.68-.58,7.68-.58,0,0,2.03,5.75,3.83,6.41,1.8.66,7.32-2.29,7.32-2.29,0,0,3.42,5.11,5.33,5.34,1.91.22,6.52-3.93,6.52-3.93,0,0,4.61,4.16,6.53,3.93,1.91-.23,5.32-5.34,5.32-5.34,0,0,5.53,2.96,7.32,2.3,1.8-.66,3.83-6.41,3.83-6.41,0,0,6.09,1.63,7.68.58,1.59-1.04,2.2-7.07,2.2-7.07,0,0,6.32.3,7.63-1.04,1.32-1.35.6-7.36.6-7.36,0,0,6.24-.93,7.25-2.51,1.01-1.57-.93-7.33-.93-7.33,0,0,5.93-2.07,6.61-3.79.68-1.73-2.35-7.03-2.35-7.03,0,0,5.44-3.08,5.77-4.9.34-1.82-3.64-6.51-3.64-6.51,0,0,4.59-3.26,4.75-5.15.15,1.89,4.74,5.15,4.74,5.15,0,0-3.98,4.69-3.64,6.51.34,1.81,5.77,4.89,5.77,4.89,0,0-3.03,5.3-2.35,7.03.68,1.73,6.61,3.79,6.61,3.79,0,0-1.94,5.75-.93,7.33,1.01,1.57,7.25,2.51,7.25,2.51,0,0-.72,6.01.6,7.36,1.32,1.34,7.63,1.04,7.63,1.04,0,0,.62,6.03,2.21,7.07,1.59,1.04,7.69-.58,7.69-.58,0,0,2.03,5.75,3.83,6.41,1.8.66,7.32-2.29,7.32-2.29,0,0,3.41,5.11,5.33,5.34,1.91.22,6.52-3.93,6.52-3.93,0,0,4.61,4.16,6.52,3.93,1.92-.23,5.33-5.34,5.33-5.34,0,0,5.53,2.96,7.32,2.3,1.8-.66,3.83-6.41,3.83-6.41,0,0,6.09,1.63,7.69.58,1.59-1.04,2.2-7.07,2.2-7.07,0,0,6.31.3,7.63-1.04,1.32-1.35.6-7.36.6-7.36,0,0,6.24-.93,7.25-2.51,1.01-1.57-.93-7.33-.93-7.33,0,0,5.93-2.07,6.61-3.79.68-1.73-2.35-7.03-2.35-7.03,0,0,5.44-3.08,5.78-4.9.34-1.82-3.64-6.51-3.64-6.51,0,0,4.59-3.26,4.74-5.15.16,1.89,4.74,5.15,4.74,5.15,0,0-3.98,4.69-3.64,6.51.34,1.81,5.77,4.89,5.77,4.89,0,0-3.03,5.3-2.35,7.03.68,1.73,6.62,3.79,6.62,3.79,0,0-1.94,5.75-.93,7.33,1.01,1.57,7.25,2.51,7.25,2.51,0,0-.72,6.01.6,7.36,1.32,1.34,7.63,1.04,7.63,1.04,0,0,.61,6.03,2.2,7.07,1.59,1.04,7.69-.58,7.69-.58,0,0,2.03,5.75,3.83,6.41,1.8.66,7.33-2.29,7.33-2.29,0,0,3.41,5.11,5.32,5.34,1.92.22,6.53-3.93,6.53-3.93,0,0,4.61,4.16,6.52,3.93,1.91-.23,5.32-5.34,5.32-5.34,0,0,5.53,2.96,7.33,2.3,1.8-.66,3.83-6.41,3.83-6.41,0,0,6.09,1.63,7.68.58,1.59-1.04,2.21-7.07,2.21-7.07,0,0,6.31.3,7.63-1.04,1.32-1.35.6-7.36.6-7.36,0,0,6.24-.93,7.25-2.51,1.01-1.57-.93-7.33-.93-7.33,0,0,5.94-2.07,6.61-3.79.68-1.73-2.35-7.03-2.35-7.03,0,0,5.43-3.08,5.77-4.9.34-1.82-3.64-6.51-3.64-6.51,0,0,4.59-3.26,4.74-5.15.16,1.89,4.75,5.15,4.75,5.15,0,0-3.98,4.69-3.64,6.51.34,1.81,5.77,4.89,5.77,4.89,0,0-3.03,5.3-2.35,7.03.68,1.73,6.61,3.79,6.61,3.79,0,0-1.94,5.75-.93,7.33,1.01,1.57,7.25,2.51,7.25,2.51,0,0-.72,6.01.6,7.36,1.32,1.34,7.63,1.04,7.63,1.04,0,0,.62,6.03,2.2,7.07,1.59,1.04,7.68-.58,7.68-.58,0,0,2.03,5.75,3.83,6.41,1.8.66,7.32-2.29,7.32-2.29l.57.8.62.83c.22.3.44.63,1.03.95,1.98,1.3,4.5,2.56,6.29,2.57,1.79.02,4.76-1.18,7.18-2.48,2.44-1.28,4.34-2.64,4.34-2.63,0,0,2.22.73,4.93,1.25,2.71.54,5.92.81,7.63.26,3.53-1.06,7.97-7.84,7.9-7.85,0,0,2.59-.07,5.55-.51,2.96-.41,6.28-1.23,7.63-2.22,2.78-1.99,3.32-8.77,3.28-8.75,0,0,2.53-.85,5.25-2.15,2.73-1.26,5.61-2.99,6.46-4.2,1.72-2.44-1.03-7.93-1.03-7.92,0,0,2.14-1.45,4.29-3.3,2.17-1.84,4.32-4.11,4.65-5.32.65-2.43-4.31-6.03-4.29-6.05.1.08,6.06-7.28,5.73-9.49-.23-2.11-6.39-3.83-6.36-3.88,0,0,.98-1.86,1.76-3.95.78-2.1,1.34-4.43.9-5.3-.89-1.67-7.4-1.85-7.38-1.92.1-.01,1.45-7.07.03-8.36-1.32-1.23-7.63-.41-7.61-.49.07-.02.08-5.76-1.51-6.86,1.66.98,6.87-1.41,6.87-1.49.06-.05,1.95,6.03,3.62,6.72,1.77.75,7.62-3.43,7.59-3.52.06-.05,2.92,5.81,4.82,5.92.98.04,2.86-1.45,4.45-3.04,1.59-1.58,2.87-3.26,2.87-3.26.03-.05,4.15,4.85,6.17,4.17,1.02-.35,2.69-2.58,3.99-4.81,1.31-2.22,2.26-4.41,2.26-4.41,0-.02,5.36,2.98,7.3,1.36.97-.81,2.13-3.74,2.9-6.49.79-2.75,1.2-5.31,1.2-5.31-.01,0,6.14.18,7.62-2.41.76-1.28,1.09-4.64,1.1-7.64.02-3.01-.27-5.66-.26-5.66,0,0,1.47-.79,3.04-2.04.79-.62,1.58-1.35,2.22-2.14.32-.39.6-.8.83-1.21.23-.43.39-.84.47-1,.66-1.8-2.29-7.33-2.29-7.33,0,0,5.11-3.41,5.34-5.33.22-1.91-3.94-6.52-3.94-6.52,0,0,4.16-4.61,3.94-6.52-.23-1.92-5.34-5.33-5.34-5.33,0,0,2.96-5.53,2.3-7.32-.66-1.8-6.41-3.83-6.41-3.83,0,0,1.63-6.09.58-7.68-1.04-1.59-7.07-2.21-7.07-2.21,0,0,.3-6.31-1.04-7.63-1.35-1.32-7.36-.6-7.36-.6,0,0-.93-6.24-2.51-7.25-1.57-1.01-7.33.93-7.33.93,0,0-2.07-5.94-3.79-6.61-1.73-.68-7.03,2.35-7.03,2.35,0,0-3.08-5.44-4.9-5.77-1.82-.34-6.51,3.64-6.51,3.64,0,0-3.26-4.59-5.15-4.75,1.89-.16,5.15-4.74,5.15-4.74,0,0,4.69,3.98,6.52,3.64,1.81-.34,4.89-5.77,4.89-5.77,0,0,5.3,3.03,7.03,2.35,1.72-.68,3.79-6.61,3.79-6.61,0,0,5.75,1.94,7.32.93,1.57-1.01,2.51-7.25,2.51-7.25,0,0,6.01.72,7.36-.6,1.34-1.32,1.04-7.63,1.04-7.63,0,0,6.03-.62,7.07-2.2,1.05-1.59-.58-7.69-.58-7.69,0,0,5.75-2.03,6.41-3.83.66-1.8-2.29-7.33-2.29-7.33,0,0,5.11-3.41,5.34-5.32.22-1.91-3.94-6.53-3.94-6.53,0,0,4.16-4.61,3.94-6.52-.23-1.91-5.34-5.32-5.34-5.32,0,0,2.96-5.53,2.3-7.33-.66-1.8-6.41-3.83-6.41-3.83,0,0,1.63-6.09.58-7.68-1.04-1.59-7.07-2.21-7.07-2.21,0,0,.3-6.31-1.04-7.63-1.35-1.32-7.36-.6-7.36-.6,0,0-.93-6.24-2.51-7.25-1.57-1.01-7.33.93-7.33.93,0,0-2.07-5.94-3.79-6.61-1.73-.68-7.03,2.35-7.03,2.35,0,0-3.08-5.44-4.9-5.77-1.82-.34-6.51,3.64-6.51,3.64,0,0-3.26-4.59-5.15-4.74,1.89-.16,5.15-4.75,5.15-4.75,0,0,4.69,3.98,6.52,3.64,1.81-.34,4.89-5.77,4.89-5.77,0,0,5.3,3.03,7.03,2.35,1.72-.68,3.79-6.62,3.79-6.62,0,0,5.75,1.94,7.32.93,1.57-1.01,2.51-7.25,2.51-7.25,0,0,6.01.72,7.36-.6,1.34-1.32,1.04-7.63,1.04-7.63,0,0,6.03-.62,7.07-2.21,1.05-1.59-.58-7.68-.58-7.68,0,0,5.75-2.03,6.41-3.83.66-1.8-2.29-7.32-2.29-7.32,0,0,5.11-3.41,5.34-5.33ZM64.3,167.81c1.79,0,3.24,1.51,3.24,3.38s-1.45,3.38-3.24,3.38-3.23-1.52-3.23-3.38,1.45-3.38,3.23-3.38ZM56.1,215.77l2.51-4.51c1.91-3.42,8.28-4.51,8.28-4.51v9.02h-10.79ZM66.89,220.28v9.02s-6.38-1.08-8.28-4.51l-2.51-4.51h10.79ZM63.98,179.82c0,1.87-1.45,3.38-3.24,3.38s-3.23-1.52-3.23-3.38,1.45-3.38,3.23-3.38,3.24,1.52,3.24,3.38ZM55.81,169.21c1.79,0,3.24,1.51,3.24,3.38s-1.45,3.38-3.24,3.38-3.24-1.51-3.24-3.38,1.45-3.38,3.24-3.38ZM65.74,194.6c-1,5.62-6.37,17.39-14.23,17.39s-13.23-11.77-14.23-17.39c-1.18-6.67,6.37-10.39,14.23-10.39s15.41,3.72,14.23,10.39ZM54.57,218.03c0,1.87-1.37,3.38-3.06,3.38s-3.06-1.51-3.06-3.38,1.37-3.38,3.06-3.38,3.06,1.52,3.06,3.38ZM47.12,172.27c1.79,0,3.24,1.51,3.24,3.38s-1.45,3.38-3.24,3.38-3.24-1.51-3.24-3.38,1.45-3.38,3.24-3.38ZM38.61,176.96c1.79,0,3.24,1.51,3.24,3.38s-1.45,3.38-3.24,3.38-3.24-1.51-3.24-3.38,1.45-3.38,3.24-3.38ZM31.08,183.22c1.79,0,3.24,1.52,3.24,3.39s-1.45,3.38-3.24,3.38-3.24-1.51-3.24-3.38,1.45-3.39,3.24-3.39ZM25.14,190.99c1.79,0,3.24,1.52,3.24,3.38s-1.45,3.38-3.24,3.38-3.24-1.51-3.24-3.38,1.45-3.38,3.24-3.38ZM20.53,199.71c1.79,0,3.24,1.52,3.24,3.38s-1.45,3.38-3.24,3.38-3.24-1.51-3.24-3.38,1.45-3.38,3.24-3.38ZM18.34,209.12c1.79,0,3.24,1.51,3.24,3.38s-1.45,3.38-3.24,3.38-3.24-1.51-3.24-3.38,1.45-3.38,3.24-3.38ZM15.21,222.11c0-1.87,1.45-3.38,3.24-3.38s3.23,1.52,3.23,3.38-1.45,3.38-3.23,3.38-3.24-1.51-3.24-3.38ZM17.55,231.46c0-1.87,1.45-3.38,3.23-3.38s3.24,1.51,3.24,3.38-1.45,3.38-3.24,3.38-3.23-1.52-3.23-3.38ZM21.5,240.29c0-1.87,1.45-3.38,3.24-3.38s3.23,1.52,3.23,3.38-1.45,3.38-3.23,3.38-3.24-1.52-3.24-3.38ZM30.13,251.68c-1.79,0-3.24-1.52-3.24-3.38s1.45-3.38,3.24-3.38,3.24,1.51,3.24,3.38-1.45,3.38-3.24,3.38ZM31.21,235.33c-.55.05-1.11,0-1.71-.27-2.62-1.23-3.66-3.12-3.82-5.2-.09-1.25.14-2.56.54-3.84.98-3.81,3.67-7.28,4.24-8-.58-.72-3.26-4.19-4.24-8-.4-1.28-.64-2.6-.54-3.84.15-2.08,1.19-3.97,3.82-5.2.59-.27,1.15-.32,1.71-.27,3.09-.23,5.29,4.28,7.74,8.88l.49.92.71,1.16c1.66,2.68,5.33,6.36,5.33,6.36,0,0-3.67,3.67-5.33,6.35l-.71,1.16-.49.92c-2.46,4.6-4.65,9.11-7.74,8.87ZM37.46,258.17c-1.79,0-3.24-1.51-3.24-3.38s1.45-3.38,3.24-3.38,3.24,1.51,3.24,3.38-1.45,3.38-3.24,3.38ZM45.82,263.11c-1.79,0-3.24-1.51-3.24-3.38s1.45-3.38,3.24-3.38,3.24,1.51,3.24,3.38-1.45,3.38-3.24,3.38ZM37.28,241.45c.99-5.62,6.37-17.39,14.23-17.39s13.23,11.77,14.23,17.39c1.18,6.66-6.37,10.39-14.23,10.39s-15.4-3.73-14.23-10.39ZM54.89,266.44c-1.79,0-3.24-1.52-3.24-3.38s1.45-3.38,3.24-3.38,3.24,1.51,3.24,3.38-1.45,3.38-3.24,3.38ZM57.51,256.23c0-1.87,1.45-3.38,3.23-3.38s3.24,1.52,3.24,3.38-1.45,3.38-3.24,3.38-3.23-1.51-3.23-3.38ZM64.36,268.11c-1.78,0-3.24-1.52-3.24-3.38s1.45-3.38,3.24-3.38,3.24,1.51,3.24,3.38-1.45,3.38-3.24,3.38ZM64.3,284.98c1.79,0,3.24,1.51,3.24,3.38s-1.45,3.38-3.24,3.38-3.23-1.51-3.23-3.38,1.45-3.38,3.23-3.38ZM56.1,332.95l2.51-4.51c1.91-3.42,8.28-4.51,8.28-4.51v9.02h-10.79ZM66.89,337.45v9.02s-6.38-1.08-8.28-4.51l-2.51-4.51h10.79ZM63.98,297c0,1.87-1.45,3.38-3.24,3.38s-3.23-1.52-3.23-3.38,1.45-3.38,3.23-3.38,3.24,1.51,3.24,3.38ZM55.81,286.38c1.79,0,3.24,1.52,3.24,3.38s-1.45,3.38-3.24,3.38-3.24-1.51-3.24-3.38,1.45-3.38,3.24-3.38ZM65.74,311.77c-1,5.62-6.37,17.39-14.23,17.39s-13.23-11.77-14.23-17.39c-1.18-6.66,6.37-10.39,14.23-10.39s15.41,3.73,14.23,10.39ZM54.57,335.2c0,1.87-1.37,3.38-3.06,3.38s-3.06-1.51-3.06-3.38,1.37-3.38,3.06-3.38,3.06,1.51,3.06,3.38ZM47.12,289.44c1.79,0,3.24,1.51,3.24,3.38s-1.45,3.38-3.24,3.38-3.24-1.52-3.24-3.38,1.45-3.38,3.24-3.38ZM38.61,294.13c1.79,0,3.24,1.52,3.24,3.38s-1.45,3.38-3.24,3.38-3.24-1.52-3.24-3.38,1.45-3.38,3.24-3.38ZM31.08,300.39c1.79,0,3.24,1.52,3.24,3.38s-1.45,3.38-3.24,3.38-3.24-1.52-3.24-3.38,1.45-3.38,3.24-3.38ZM25.14,308.17c1.79,0,3.24,1.52,3.24,3.38s-1.45,3.38-3.24,3.38-3.24-1.51-3.24-3.38,1.45-3.38,3.24-3.38ZM20.53,316.88c1.79,0,3.24,1.51,3.24,3.38s-1.45,3.38-3.24,3.38-3.24-1.51-3.24-3.38,1.45-3.38,3.24-3.38ZM18.34,326.3c1.79,0,3.24,1.51,3.24,3.38s-1.45,3.38-3.24,3.38-3.24-1.52-3.24-3.38,1.45-3.38,3.24-3.38ZM15.21,339.29c0-1.87,1.45-3.38,3.24-3.38s3.23,1.51,3.23,3.38-1.45,3.38-3.23,3.38-3.24-1.51-3.24-3.38ZM17.55,348.64c0-1.87,1.45-3.38,3.23-3.38s3.24,1.51,3.24,3.38-1.45,3.38-3.24,3.38-3.23-1.51-3.23-3.38ZM21.5,357.46c0-1.87,1.45-3.38,3.24-3.38s3.23,1.51,3.23,3.38-1.45,3.38-3.23,3.38-3.24-1.51-3.24-3.38ZM30.13,368.85c-1.79,0-3.24-1.52-3.24-3.38s1.45-3.38,3.24-3.38,3.24,1.52,3.24,3.38-1.45,3.38-3.24,3.38ZM31.21,352.51c-.55.06-1.11,0-1.71-.27-2.62-1.23-3.66-3.12-3.82-5.2-.09-1.25.14-2.56.54-3.84.98-3.81,3.67-7.28,4.24-8-.58-.72-3.26-4.19-4.24-8-.4-1.28-.64-2.6-.54-3.85.15-2.08,1.19-3.97,3.82-5.2.59-.28,1.15-.32,1.71-.27,3.09-.24,5.29,4.28,7.74,8.87l.49.92.71,1.16c1.66,2.68,5.33,6.35,5.33,6.35,0,0-3.67,3.68-5.33,6.35l-.71,1.16-.49.92c-2.46,4.6-4.65,9.11-7.74,8.87ZM37.46,375.35c-1.79,0-3.24-1.51-3.24-3.38s1.45-3.38,3.24-3.38,3.24,1.51,3.24,3.38-1.45,3.38-3.24,3.38ZM45.82,380.29c-1.79,0-3.24-1.51-3.24-3.38s1.45-3.38,3.24-3.38,3.24,1.51,3.24,3.38-1.45,3.38-3.24,3.38ZM37.28,358.63c.99-5.62,6.37-17.39,14.23-17.39s13.23,11.77,14.23,17.39c1.18,6.67-6.37,10.39-14.23,10.39s-15.4-3.72-14.23-10.39ZM54.89,383.61c-1.79,0-3.24-1.51-3.24-3.38s1.45-3.38,3.24-3.38,3.24,1.51,3.24,3.38-1.45,3.38-3.24,3.38ZM57.51,373.4c0-1.87,1.45-3.38,3.23-3.38s3.24,1.51,3.24,3.38-1.45,3.39-3.24,3.39-3.23-1.52-3.23-3.39ZM64.36,385.28c-1.78,0-3.24-1.51-3.24-3.38s1.45-3.38,3.24-3.38,3.24,1.51,3.24,3.38-1.45,3.38-3.24,3.38ZM840.7,316.6c-1.79,0-3.24-1.52-3.24-3.38s1.45-3.38,3.24-3.38,3.23,1.52,3.23,3.38-1.45,3.38-3.23,3.38ZM848.9,268.64l-2.51,4.51c-1.91,3.43-8.28,4.51-8.28,4.51v-9.02h10.79ZM838.11,264.13v-9.02s6.37,1.09,8.28,4.51l2.51,4.51h-10.79ZM841.02,304.59c0-1.86,1.45-3.38,3.24-3.38s3.23,1.52,3.23,3.38-1.45,3.38-3.23,3.38-3.24-1.51-3.24-3.38ZM849.19,315.2c-1.79,0-3.24-1.51-3.24-3.38s1.45-3.38,3.24-3.38,3.24,1.51,3.24,3.38-1.45,3.38-3.24,3.38ZM839.26,289.81c.99-5.62,6.37-17.39,14.23-17.39s13.23,11.77,14.23,17.39c1.18,6.67-6.37,10.39-14.23,10.39s-15.41-3.72-14.23-10.39ZM850.43,266.39c0-1.87,1.37-3.38,3.06-3.38s3.06,1.51,3.06,3.38-1.37,3.38-3.06,3.38-3.06-1.52-3.06-3.38ZM857.87,312.15c-1.79,0-3.23-1.51-3.23-3.38s1.45-3.38,3.23-3.38,3.24,1.51,3.24,3.38-1.45,3.38-3.24,3.38ZM866.38,307.46c-1.79,0-3.24-1.51-3.24-3.38s1.45-3.38,3.24-3.38,3.24,1.51,3.24,3.38-1.45,3.38-3.24,3.38ZM873.92,301.19c-1.79,0-3.24-1.51-3.24-3.38s1.45-3.38,3.24-3.38,3.24,1.51,3.24,3.38-1.45,3.38-3.24,3.38ZM879.86,293.42c-1.79,0-3.24-1.51-3.24-3.38s1.45-3.38,3.24-3.38,3.24,1.51,3.24,3.38-1.45,3.38-3.24,3.38ZM884.47,284.71c-1.79,0-3.24-1.51-3.24-3.38s1.45-3.38,3.24-3.38,3.23,1.51,3.23,3.38-1.45,3.38-3.23,3.38ZM886.66,275.29c-1.79,0-3.24-1.52-3.24-3.38s1.45-3.38,3.24-3.38,3.24,1.51,3.24,3.38-1.45,3.38-3.24,3.38ZM889.79,262.3c0,1.87-1.45,3.38-3.24,3.38s-3.24-1.51-3.24-3.38,1.45-3.38,3.24-3.38,3.24,1.52,3.24,3.38ZM887.44,252.95c0,1.87-1.45,3.38-3.24,3.38s-3.24-1.51-3.24-3.38,1.45-3.38,3.24-3.38,3.24,1.51,3.24,3.38ZM883.5,244.13c0,1.87-1.45,3.38-3.24,3.38s-3.24-1.51-3.24-3.38,1.45-3.38,3.24-3.38,3.24,1.52,3.24,3.38ZM874.87,232.74c1.79,0,3.24,1.51,3.24,3.38s-1.45,3.38-3.24,3.38-3.24-1.51-3.24-3.38,1.45-3.38,3.24-3.38ZM873.79,249.08c.55-.06,1.11,0,1.7.27,2.62,1.23,3.67,3.11,3.82,5.2.09,1.25-.14,2.56-.54,3.85-.98,3.8-3.67,7.28-4.24,8,.58.72,3.26,4.19,4.24,8,.4,1.28.63,2.6.54,3.85-.15,2.08-1.19,3.97-3.82,5.2-.59.27-1.15.32-1.7.27-3.09.24-5.29-4.28-7.74-8.87l-.49-.92-.71-1.16c-1.66-2.68-5.33-6.35-5.33-6.35,0,0,3.67-3.67,5.33-6.35l.71-1.16.49-.92c2.46-4.6,4.65-9.11,7.74-8.87ZM867.54,226.24c1.79,0,3.24,1.51,3.24,3.38s-1.45,3.38-3.24,3.38-3.24-1.51-3.24-3.38,1.45-3.38,3.24-3.38ZM859.18,221.3c1.78,0,3.24,1.51,3.24,3.38s-1.45,3.38-3.24,3.38-3.24-1.51-3.24-3.38,1.45-3.38,3.24-3.38ZM867.71,242.96c-.99,5.62-6.37,17.39-14.23,17.39s-13.23-11.77-14.23-17.39c-1.18-6.67,6.37-10.39,14.23-10.39s15.41,3.72,14.23,10.39ZM850.11,217.98c1.79,0,3.24,1.51,3.24,3.38s-1.45,3.38-3.24,3.38-3.24-1.51-3.24-3.38,1.45-3.38,3.24-3.38ZM847.49,228.18c0,1.86-1.45,3.38-3.23,3.38s-3.24-1.52-3.24-3.38,1.45-3.38,3.24-3.38,3.23,1.51,3.23,3.38ZM840.64,216.3c1.79,0,3.24,1.51,3.24,3.38s-1.45,3.38-3.24,3.38-3.24-1.51-3.24-3.38,1.45-3.38,3.24-3.38ZM889.79,145.13c0,1.87-1.45,3.38-3.24,3.38s-3.24-1.51-3.24-3.38,1.45-3.38,3.24-3.38,3.24,1.51,3.24,3.38ZM883.51,127.39c1.77-.21,3.52,2.21,3.71,5.42.2,3.21-1.24,5.8-3.03,5.81-1.79,0-3.25-2.42-3.44-5.42-.18-3,.98-5.6,2.75-5.81ZM877.13,113.82c1.73-.44,3.76,1.66,4.33,4.73.59,3.07-.52,5.76-2.28,5.99-1.78.23-3.52-1.91-4.07-4.78-.54-2.86.29-5.51,2.02-5.94ZM868.28,103.33c1.67-.64,3.88,1.1,4.78,3.94.9,2.84.09,5.53-1.64,5.96-1.74.44-3.7-1.38-4.53-4.01-.83-2.64-.27-5.25,1.4-5.89ZM857.78,97.36c1.6-.79,3.89.58,4.98,3.13,1.08,2.56.47,5.16-1.2,5.75-1.69.61-3.76-.86-4.76-3.22-1.01-2.35-.62-4.86.98-5.66ZM847.24,95.32c1.53-.9,3.82.14,4.99,2.39,1.15,2.26.66,4.73-.96,5.45-1.64.73-3.74-.41-4.8-2.49-1.07-2.07-.77-4.44.77-5.35ZM837.36,96.53c1.49-.98,3.71-.22,4.87,1.76,1.13,1.99.68,4.3-.92,5.1-1.6.8-3.66-.06-4.7-1.86-1.05-1.8-.75-4.01.75-5ZM828.44,100.21c1.47-1.01,3.59-.48,4.65,1.25,1.05,1.74.55,3.88-1.02,4.71-1.59.84-3.57.22-4.51-1.35-.95-1.56-.59-3.61.88-4.62ZM832.21,129.07c.37,2.13.63,4.29.78,6.45l-7.28.51c-.13-1.92-.37-3.82-.69-5.71l7.19-1.25ZM824.23,126.57c-.46-1.86-1-3.69-1.65-5.5l6.87-2.46c.73,2.04,1.35,4.11,1.87,6.22l-7.09,1.74ZM825.85,198.43h7.3v7.03h-7.3v-7.03ZM825.85,193.74v-7.03h7.3v7.03h-7.3ZM825.85,182.02v-7.03h7.3v7.03h-7.3ZM825.85,170.31v-7.03h7.3v7.03h-7.3ZM825.85,158.59v-7.03h7.3v7.03h-7.3ZM825.85,146.87v-7h7.29s0,7,0,7h-7.3ZM827.85,114.59l-6.69,2.93c-.77-1.75-1.63-3.47-2.57-5.14l6.35-3.6c1.07,1.89,2.04,3.83,2.91,5.81ZM765.78,459.26v7.3h-7.03v-7.3h7.03ZM754.06,459.26v7.3h-7.03v-7.3h7.03ZM741.63,474.43c1.87,0,3.38,1.45,3.38,3.24s-1.52,3.23-3.38,3.23-3.38-1.45-3.38-3.23,1.51-3.24,3.38-3.24ZM735.32,466.56v-7.3h7.03v7.3h-7.03ZM700.16,466.56v-7.3h7.03v7.3h-7.03ZM704.25,477.67c0,1.78-1.51,3.23-3.38,3.23s-3.38-1.45-3.38-3.23,1.52-3.24,3.38-3.24,3.38,1.45,3.38,3.24ZM695.47,459.26v7.3h-7.03v-7.3h7.03ZM683.75,459.26v7.3h-7.03v-7.3h7.03ZM660.41,471.53v10.79l-4.51-2.51c-3.43-1.91-4.51-8.28-4.51-8.28h9.02ZM653.29,466.56v-7.3h7.03v7.3h-7.03ZM662.67,483.85c1.87,0,3.38,1.37,3.38,3.06s-1.51,3.06-3.38,3.06-3.38-1.37-3.38-3.06,1.52-3.06,3.38-3.06ZM664.92,482.31v-10.79h9.02s-1.09,6.37-4.51,8.28l-4.51,2.51ZM665.01,466.56v-7.3h7.03v7.3h-7.03ZM648.6,459.26v7.3h-7.03v-7.3h7.03ZM636.89,459.26v7.3h-7.03v-7.3h7.03ZM624.46,474.43c1.86,0,3.38,1.45,3.38,3.24s-1.52,3.23-3.38,3.23-3.38-1.45-3.38-3.23,1.51-3.24,3.38-3.24ZM618.14,466.56v-7.3h7.03v7.3h-7.03ZM582.99,466.56v-7.3h7.03v7.3h-7.03ZM587.08,477.67c0,1.78-1.51,3.23-3.38,3.23s-3.38-1.45-3.38-3.23,1.52-3.24,3.38-3.24,3.38,1.45,3.38,3.24ZM578.3,459.26v7.3h-7.03v-7.3h7.03ZM566.58,459.26v7.3h-7.03v-7.3h7.03ZM543.24,471.53v10.79l-4.51-2.51c-3.42-1.91-4.51-8.28-4.51-8.28h9.02ZM536.12,466.56v-7.3h7.03v7.3h-7.03ZM545.49,483.85c1.87,0,3.38,1.37,3.38,3.06s-1.52,3.06-3.38,3.06-3.38-1.37-3.38-3.06,1.51-3.06,3.38-3.06ZM547.75,482.31v-10.79h9.02s-1.08,6.37-4.51,8.28l-4.51,2.51ZM547.84,466.56v-7.3h7.03v7.3h-7.03ZM531.43,459.26v7.3h-7.03v-7.3h7.03ZM519.71,459.26v7.3h-7.03v-7.3h7.03ZM507.29,474.43c1.86,0,3.38,1.45,3.38,3.24s-1.52,3.23-3.38,3.23-3.38-1.45-3.38-3.23,1.52-3.24,3.38-3.24ZM500.97,466.56v-7.3h7.03v7.3h-7.03ZM465.81,466.56v-7.3h7.03v7.3h-7.03ZM469.91,477.67c0,1.78-1.52,3.23-3.38,3.23s-3.38-1.45-3.38-3.23,1.52-3.24,3.38-3.24,3.38,1.45,3.38,3.24ZM461.12,459.26v7.3h-7.03v-7.3h7.03ZM449.41,459.26v7.3h-7.03v-7.3h7.03ZM426.06,471.53v10.79l-4.51-2.51c-3.42-1.91-4.51-8.28-4.51-8.28h9.02ZM418.94,466.56v-7.3h7.03v7.3h-7.03ZM428.32,483.85c1.87,0,3.38,1.37,3.38,3.06s-1.52,3.06-3.38,3.06-3.38-1.37-3.38-3.06,1.51-3.06,3.38-3.06ZM430.57,482.31v-10.79h9.02s-1.09,6.37-4.51,8.28l-4.51,2.51ZM430.66,466.56v-7.3h7.03v7.3h-7.03ZM414.26,459.26v7.3h-7.03v-7.3h7.03ZM402.54,459.26v7.3h-7.03v-7.3h7.03ZM390.11,474.43c1.87,0,3.38,1.45,3.38,3.24s-1.52,3.23-3.38,3.23-3.38-1.45-3.38-3.23,1.51-3.24,3.38-3.24ZM383.79,466.56v-7.3h7.03v7.3h-7.03ZM348.64,466.56v-7.3h7.03v7.3h-7.03ZM352.73,477.67c0,1.78-1.51,3.23-3.38,3.23s-3.38-1.45-3.38-3.23,1.51-3.24,3.38-3.24,3.38,1.45,3.38,3.24ZM343.95,459.26v7.3h-7.03v-7.3h7.03ZM332.24,459.26v7.3h-7.03v-7.3h7.03ZM308.89,471.53v10.79l-4.51-2.51c-3.43-1.91-4.51-8.28-4.51-8.28h9.02ZM301.77,466.56v-7.3h7.03v7.3h-7.03ZM311.15,483.85c1.87,0,3.38,1.37,3.38,3.06s-1.51,3.06-3.38,3.06-3.38-1.37-3.38-3.06,1.52-3.06,3.38-3.06ZM313.4,482.31v-10.79h9.02s-1.09,6.37-4.51,8.28l-4.51,2.51ZM313.49,466.56v-7.3h7.03v7.3h-7.03ZM297.08,459.26v7.3h-7.03v-7.3h7.03ZM285.37,459.26v7.3h-7.03v-7.3h7.03ZM272.94,474.43c1.86,0,3.38,1.45,3.38,3.24s-1.52,3.23-3.38,3.23-3.38-1.45-3.38-3.23,1.51-3.24,3.38-3.24ZM266.62,466.56v-7.3h7.03v7.3h-7.03ZM231.47,466.56v-7.3h7.03v7.3h-7.03ZM235.56,477.67c0,1.78-1.51,3.23-3.38,3.23s-3.38-1.45-3.38-3.23,1.52-3.24,3.38-3.24,3.38,1.45,3.38,3.24ZM226.78,459.26v7.3h-7.03v-7.3h7.03ZM215.06,459.26v7.3h-7.03v-7.3h7.03ZM191.72,471.53v10.79l-4.51-2.51c-3.42-1.91-4.51-8.28-4.51-8.28h9.02ZM184.6,466.56v-7.3h7.03v7.3h-7.03ZM193.97,483.85c1.87,0,3.38,1.37,3.38,3.06s-1.52,3.06-3.38,3.06-3.38-1.37-3.38-3.06,1.51-3.06,3.38-3.06ZM196.23,482.31v-10.79h9.02s-1.08,6.37-4.51,8.28l-4.51,2.51ZM196.32,466.56v-7.3h7.03v7.3h-7.03ZM179.91,459.26v7.3h-7.03v-7.3h7.03ZM168.19,459.26v7.3h-7.03v-7.3h7.03ZM155.77,474.43c1.87,0,3.38,1.45,3.38,3.24s-1.51,3.23-3.38,3.23-3.38-1.45-3.38-3.23,1.51-3.24,3.38-3.24ZM149.45,466.56v-7.3h7.03v7.3h-7.03ZM71.85,145.38l.02-6.91,7.29.17-.02,6.74h-7.3ZM79.15,150.07v7.03h-7.3v-7.03h7.3ZM72.12,134.14c.2-2.16.51-4.31.92-6.43l7.16,1.41c-.37,1.88-.64,3.78-.82,5.68l-7.27-.66ZM74.03,123.5c.56-2.09,1.23-4.15,2-6.17l6.81,2.61c-.68,1.79-1.27,3.61-1.77,5.46l-7.04-1.89ZM77.72,113.33c.91-1.96,1.92-3.88,3.03-5.74l6.27,3.73c-.98,1.65-1.87,3.34-2.68,5.08l-6.62-3.07ZM103.62,84.97l3.66,6.31c-1.66.96-3.27,2.01-4.83,3.14l-4.28-5.9c1.76-1.27,3.57-2.46,5.45-3.55ZM101.82,69.7c1.93-.92,4.07-.24,4.75,1.41.68,1.65-.21,3.59-1.95,4.42-1.73.83-3.8.32-4.67-1.25-.86-1.56-.05-3.66,1.87-4.58ZM107.44,82.93c1.94-.96,3.94-1.81,5.97-2.57l2.53,6.84c-1.8.66-3.56,1.42-5.28,2.27l-3.22-6.55ZM146.25,76.44v7.3h-7.03v-7.3h7.03ZM142.16,65.33c0-1.79,1.52-3.23,3.38-3.23s3.38,1.45,3.38,3.23-1.51,3.24-3.38,3.24-3.38-1.45-3.38-3.24ZM150.94,83.74v-7.3h7.03v7.3h-7.03ZM162.66,83.74v-7.3h7.03v7.3h-7.03ZM186,71.48v-10.79l4.51,2.51c3.43,1.91,4.51,8.28,4.51,8.28h-9.01ZM193.12,76.44v7.3h-7.03v-7.3h7.03ZM183.75,59.15c-1.87,0-3.38-1.37-3.38-3.06s1.51-3.06,3.38-3.06,3.38,1.37,3.38,3.06-1.52,3.06-3.38,3.06ZM181.49,60.69v10.79h-9.02s1.09-6.37,4.51-8.28l4.51-2.51ZM181.4,76.44v7.3h-7.03v-7.3h7.03ZM197.81,83.74v-7.3h7.03v7.3h-7.03ZM209.53,83.74v-7.3h7.03v7.3h-7.03ZM221.95,68.57c-1.86,0-3.38-1.45-3.38-3.24s1.52-3.23,3.38-3.23,3.38,1.45,3.38,3.23-1.51,3.24-3.38,3.24ZM228.27,76.44v7.3h-7.03v-7.3h7.03ZM263.42,76.44v7.3h-7.03v-7.3h7.03ZM259.33,65.33c0-1.79,1.51-3.23,3.38-3.23s3.38,1.45,3.38,3.23-1.52,3.24-3.38,3.24-3.38-1.45-3.38-3.24ZM268.11,83.74v-7.3h7.03v7.3h-7.03ZM279.83,83.74v-7.3h7.03v7.3h-7.03ZM303.17,71.48v-10.79l4.51,2.51c3.42,1.91,4.51,8.28,4.51,8.28h-9.02ZM310.29,76.44v7.3h-7.03v-7.3h7.03ZM300.92,59.15c-1.87,0-3.38-1.37-3.38-3.06s1.52-3.06,3.38-3.06,3.38,1.37,3.38,3.06-1.51,3.06-3.38,3.06ZM298.67,60.69v10.79h-9.02s1.09-6.37,4.51-8.28l4.51-2.51ZM298.58,76.44v7.3h-7.03v-7.3h7.03ZM314.98,83.74v-7.3h7.03v7.3h-7.03ZM326.7,83.74v-7.3h7.03v7.3h-7.03ZM339.12,68.57c-1.87,0-3.38-1.45-3.38-3.24s1.51-3.23,3.38-3.23,3.38,1.45,3.38,3.23-1.51,3.24-3.38,3.24ZM345.45,76.44v7.3h-7.03v-7.3h7.03ZM380.6,76.44v7.3h-7.03v-7.3h7.03ZM376.51,65.33c0-1.79,1.51-3.23,3.38-3.23s3.38,1.45,3.38,3.23-1.52,3.24-3.38,3.24-3.38-1.45-3.38-3.24ZM385.29,83.74v-7.3h7.03v7.3h-7.03ZM397,83.74v-7.3h7.03v7.3h-7.03ZM420.35,71.48v-10.79l4.51,2.51c3.43,1.91,4.51,8.28,4.51,8.28h-9.02ZM427.47,76.44v7.3h-7.03v-7.3h7.03ZM418.09,59.15c-1.86,0-3.38-1.37-3.38-3.06s1.52-3.06,3.38-3.06,3.38,1.37,3.38,3.06-1.52,3.06-3.38,3.06ZM415.84,60.69v10.79h-9.02s1.09-6.37,4.51-8.28l4.51-2.51ZM415.75,76.44v7.3h-7.03v-7.3h7.03ZM432.15,83.74v-7.3h7.03v7.3h-7.03ZM443.87,83.74v-7.3h7.03v7.3h-7.03ZM456.3,68.57c-1.87,0-3.38-1.45-3.38-3.24s1.52-3.23,3.38-3.23,3.38,1.45,3.38,3.23-1.51,3.24-3.38,3.24ZM462.62,76.44v7.3h-7.03v-7.3h7.03ZM497.77,76.44v7.3h-7.03v-7.3h7.03ZM493.68,65.33c0-1.79,1.51-3.23,3.38-3.23s3.38,1.45,3.38,3.23-1.51,3.24-3.38,3.24-3.38-1.45-3.38-3.24ZM502.46,83.74v-7.3h7.03v7.3h-7.03ZM514.17,83.74v-7.3h7.03v7.3h-7.03ZM537.52,71.48v-10.79l4.51,2.51c3.43,1.91,4.51,8.28,4.51,8.28h-9.02ZM544.64,76.44v7.3h-7.03v-7.3h7.03ZM535.27,59.15c-1.87,0-3.38-1.37-3.38-3.06s1.51-3.06,3.38-3.06,3.38,1.37,3.38,3.06-1.52,3.06-3.38,3.06ZM533.01,60.69v10.79h-9.02s1.08-6.37,4.51-8.28l4.51-2.51ZM532.92,76.44v7.3h-7.03v-7.3h7.03ZM549.33,83.74v-7.3h7.03v7.3h-7.03ZM561.04,83.74v-7.3h7.03v7.3h-7.03ZM573.47,68.57c-1.87,0-3.38-1.45-3.38-3.24s1.52-3.23,3.38-3.23,3.38,1.45,3.38,3.23-1.51,3.24-3.38,3.24ZM579.79,76.44v7.3h-7.03v-7.3h7.03ZM614.94,76.44v7.3h-7.03v-7.3h7.03ZM610.85,65.33c0-1.79,1.51-3.23,3.38-3.23s3.38,1.45,3.38,3.23-1.52,3.24-3.38,3.24-3.38-1.45-3.38-3.24ZM619.63,83.74v-7.3h7.03v7.3h-7.03ZM631.35,83.74v-7.3h7.03v7.3h-7.03ZM654.69,71.48v-10.79l4.51,2.51c3.43,1.91,4.51,8.28,4.51,8.28h-9.02ZM661.81,76.44v7.3h-7.03v-7.3h7.03ZM652.44,59.15c-1.87,0-3.38-1.37-3.38-3.06s1.51-3.06,3.38-3.06,3.38,1.37,3.38,3.06-1.51,3.06-3.38,3.06ZM650.18,60.69v10.79h-9.02s1.09-6.37,4.51-8.28l4.51-2.51ZM650.1,76.44v7.3h-7.03v-7.3h7.03ZM666.5,83.74v-7.3h7.03v7.3h-7.03ZM678.22,83.74v-7.3h7.03v7.3h-7.03ZM690.64,68.57c-1.86,0-3.38-1.45-3.38-3.24s1.52-3.23,3.38-3.23,3.38,1.45,3.38,3.23-1.52,3.24-3.38,3.24ZM696.97,76.44v7.3h-7.03v-7.3h7.03ZM732.12,76.44v7.3h-7.03v-7.3h7.03ZM728.02,65.33c0-1.79,1.52-3.23,3.38-3.23s3.38,1.45,3.38,3.23-1.52,3.24-3.38,3.24-3.38-1.45-3.38-3.24ZM736.81,83.74v-7.3h7.03v7.3h-7.03ZM748.52,83.74v-7.3h7.03v7.3h-7.03ZM771.54,83.77l.24-7.29c2.17.07,4.33.25,6.48.55l-.99,7.23c-1.9-.26-3.81-.42-5.73-.49ZM781.04,84.91l1.48-7.15c2.12.44,4.22.99,6.28,1.65l-2.21,6.95c-1.82-.58-3.68-1.07-5.55-1.46ZM795.43,90.03c-1.7-.88-3.44-1.68-5.22-2.39l2.68-6.78c2.01.8,3.99,1.7,5.91,2.7l-3.36,6.47ZM802.57,85.68c1.85,1.13,3.64,2.35,5.37,3.66l-4.41,5.81c-1.53-1.16-3.12-2.24-4.76-3.24l3.8-6.23ZM811.3,92.07c1.63,1.43,3.2,2.93,4.68,4.52l-5.33,4.99c-1.31-1.4-2.69-2.74-4.14-4l4.79-5.5ZM812.33,87.31c-1.42-1.16-1.77-3.2-.73-4.66,1.05-1.45,3.23-1.66,4.81-.37,1.58,1.28,1.82,3.46.62,4.78-1.21,1.32-3.28,1.39-4.7.24ZM812.07,78.61c-1.03,1.46-3.15,1.74-4.78.73-1.63-1.02-2.31-3.04-1.45-4.62.86-1.57,3.07-2.01,4.87-.88,1.82,1.13,2.39,3.31,1.36,4.77ZM809.26,66.07c-1.87,3.46-4.66,6.31-7.54,7.93-2.91,1.62-5.85,2-8.82.33-2.5-1.44-6.29-4.2-9.74-7.3-3.39-3.13-6.51-6.69-6.2-10.61.3-3.91,4.36-6.95,9.73-8.44,5.33-1.55,11.79-1.37,15.74-.45,4.72,1.04,7.54,4.12,8.5,7.61.99,3.52.18,7.5-1.68,10.94ZM777.15,63.57c3.67,2.3,3.65,8.85,3.65,8.83-2.96-.5-5.95-.78-8.94-.88l.35-10.79s3.28,1.75,4.94,2.83ZM769.61,59.15c-1.87,0-3.38-1.37-3.38-3.06s1.52-3.06,3.38-3.06c2.37,0,4.21,1.48,4.12,3.16-.1,1.69-1.94,2.96-4.12,2.95ZM767.36,60.69v10.79h-9.02s1.08-6.37,4.51-8.28l4.51-2.51ZM767.27,76.44v7.3h-7.03v-7.3h7.03ZM99.42,96.78c-1.47,1.23-2.89,2.54-4.23,3.91l-5.22-5.1c1.51-1.55,3.11-3.02,4.77-4.41l4.67,5.6ZM92.6,103.53c-1.25,1.46-2.42,2.99-3.51,4.56l-6-4.15c1.23-1.78,2.56-3.5,3.97-5.15l5.55,4.73ZM78.95,101.19l-8.88-6.12s3.25-1.81,5.05-2.63c3.92-1.84,9.42,1.71,9.4,1.7-2.01,2.23-3.87,4.58-5.57,7.05ZM91.82,438.53l-5.65,4.62c-1.37-1.68-2.65-3.43-3.85-5.24l6.09-4.02c1.06,1.6,2.2,3.15,3.41,4.64ZM83.84,425.48c.77,1.75,1.63,3.47,2.57,5.14l-6.35,3.6c-1.07-1.89-2.03-3.83-2.9-5.81l6.68-2.93ZM75.55,424.38c-.73-2.04-1.35-4.11-1.87-6.22l7.09-1.74c.45,1.86,1,3.69,1.65,5.5l-6.87,2.46ZM72.8,413.93c-.37-2.14-.63-4.29-.78-6.45l7.28-.51c.13,1.91.36,3.82.69,5.71l-7.19,1.25ZM71.85,403.15v-7.02h7.3v7.01h-7.3ZM74.56,456.19c1.43,1.64,1.69,3.86.49,5.05-1.2,1.18-3.53.77-5.09-1.02-1.56-1.78-1.66-4.15-.33-5.18,1.33-1.04,3.5-.49,4.94,1.15ZM74.03,453.2s-.84-3.62-1.12-5.59c-.68-4.28,4.26-8.57,4.24-8.56,1.58,2.55,3.33,4.98,5.23,7.31l-8.35,6.84ZM85.34,449.74c2.04,2.2,4.24,4.24,6.54,6.15.02-.01-4.9,4.3-9.04,3.06-1.9-.54-5.39-1.82-5.39-1.85l7.89-7.36ZM89.02,446.41l5.33-4.99c1.31,1.4,2.69,2.74,4.14,4l-4.79,5.5c-1.63-1.43-3.19-2.94-4.68-4.52ZM101.47,447.85c1.53,1.16,3.12,2.24,4.76,3.24l-3.8,6.23c-1.85-1.13-3.64-2.35-5.37-3.66l4.41-5.81ZM109.57,452.97c1.7.89,3.45,1.68,5.23,2.39l-2.68,6.79c-2.01-.8-3.98-1.7-5.91-2.7l3.36-6.48ZM110.08,473.25c.62-1.68,2.59-2.5,4.43-1.93,1.84.57,3.02,2.35,2.59,4.08-.42,1.73-2.44,2.73-4.49,2.1-2.04-.63-3.16-2.58-2.54-4.25ZM116.2,463.59l2.21-6.95c1.82.58,3.68,1.07,5.55,1.46l-1.48,7.15c-2.12-.44-4.21-.99-6.28-1.65ZM777.54,471.06l1.24,10.72s-3.51-1.25-5.31-2.07c-3.98-1.75-4.88-8.21-4.91-8.18,3,.02,6-.11,8.98-.46ZM770.31,459.25c1.92-.02,3.84-.14,5.75-.36l.83,7.25c-2.15.24-4.32.38-6.49.41l-.09-7.3ZM781.59,482.96c2.16-.32,4.17.66,4.52,2.31.35,1.65-1.26,3.38-3.62,3.73-2.35.35-4.4-.84-4.54-2.51-.15-1.68,1.49-3.21,3.64-3.53ZM779.85,458.33c1.88-.35,3.75-.79,5.59-1.33l2.05,7c-2.08.61-4.18,1.11-6.31,1.51l-1.32-7.18ZM783.93,481.02l-1.95-10.61c2.95-.55,5.86-1.27,8.71-2.2,0-.02,1,6.45-2.29,9.27-1.48,1.33-4.46,3.54-4.47,3.54ZM789.06,455.79c1.8-.66,3.56-1.42,5.28-2.27l3.22,6.55c-1.94.96-3.94,1.81-5.97,2.57l-2.53-6.84ZM802.54,448.58l4.28,5.9c-1.75,1.27-3.57,2.46-5.44,3.55l-3.66-6.31c1.66-.96,3.27-2.01,4.82-3.14ZM805.57,446.22c1.48-1.23,2.88-2.54,4.23-3.91l5.22,5.1c-1.51,1.55-3.11,3.02-4.77,4.41l-4.67-5.6ZM815.85,457.39c1.47-1.25,3.6-1.28,4.83.02,1.24,1.29.99,3.53-.64,4.91-1.62,1.39-3.88,1.27-4.95-.15-1.08-1.43-.71-3.53.75-4.78ZM819.5,453.53c-1.25-1.28-1.19-3.36.04-4.7,1.24-1.35,3.3-1.58,4.69-.44,1.38,1.13,1.46,3.32.09,4.82-1.37,1.5-3.57,1.61-4.81.32ZM817.95,444.21l-5.55-4.74c1.25-1.46,2.42-2.99,3.51-4.56l6,4.15c-1.23,1.78-2.55,3.5-3.96,5.15ZM822.68,105.09l-6.09,4.02c-1.06-1.6-2.19-3.15-3.41-4.64l5.65-4.61c1.37,1.68,2.65,3.43,3.85,5.24ZM821.49,79.68c-1.18,1.35-3.39,1.34-5.01.07-1.62-1.27-2.17-3.41-1.15-4.88,1.01-1.47,3.35-1.62,5.13-.22,1.79,1.39,2.21,3.69,1.04,5.03ZM824.14,70.6c-1.12,1.4-3.48,1.37-5.35.04-1.87-1.32-2.67-3.55-1.72-5.06.95-1.51,3.43-1.66,5.48-.21,2.03,1.46,2.71,3.85,1.6,5.24ZM821.78,54.67c2.33,1.43,3.32,3.88,2.3,5.35-1.02,1.47-3.53,1.49-5.69.17-2.15-1.32-3.27-3.57-2.42-5.15.84-1.57,3.48-1.8,5.81-.37ZM817.14,43.51c2.64,1.3,4,3.74,3.12,5.29-.89,1.56-3.53,1.72-5.99.52-2.45-1.21-3.92-3.42-3.23-5.06.7-1.65,3.46-2.05,6.09-.74ZM801.68,34.49c.5-1.71,3.33-2.39,6.26-1.33,2.93,1.05,4.68,3.37,3.98,5.01-.71,1.65-3.44,2.06-6.17,1.08-2.73-.99-4.58-3.04-4.07-4.76ZM795.07,24.66c3.16.69,5.3,2.8,4.81,4.52-.49,1.72-3.25,2.45-6.21,1.8-2.96-.66-5.15-2.48-4.86-4.25.28-1.76,3.1-2.78,6.26-2.07ZM779.23,20.07c3.27.26,5.72,2.06,5.48,3.83-.25,1.78-2.92,2.88-5.99,2.63-3.07-.24-5.52-1.75-5.48-3.55.04-1.78,2.72-3.17,5.99-2.91ZM765.53,19.8c1.87,0,3.38,1.45,3.38,3.24s-1.51,3.24-3.38,3.24-3.38-1.45-3.38-3.24,1.51-3.24,3.38-3.24ZM756.17,22.14c1.87,0,3.38,1.45,3.38,3.24s-1.52,3.24-3.38,3.24-3.38-1.45-3.38-3.24,1.51-3.24,3.38-3.24ZM752.57,34.1c1.23-2.62,3.12-3.67,5.2-3.82,1.25-.09,2.56.14,3.84.54,3.81.98,7.28,3.67,8,4.25,1.05-.57,6.47-3.27,12.65-3.51,2.07-.17,4.19-.09,6.15.34,3.25.71,6,2.42,7.19,5.43.27.68.19,1.24-.02,1.75-.46,3.08-7.49,3.47-14.18,5.18l-1.34.34-1.67.54c-3.92,1.27-8.81,4.92-8.77,4.93,0,0-3.68-3.67-6.36-5.33l-1.16-.71-.92-.49c-4.6-2.46-9.11-4.65-8.88-7.74-.05-.55,0-1.11.27-1.7ZM763.58,56.1c0,7.86-11.77,13.23-17.39,14.23-6.67,1.18-10.39-6.37-10.39-14.23s3.72-15.41,10.39-14.23c5.62.99,17.39,6.37,17.39,14.23ZM747.35,26.09c1.87,0,3.38,1.45,3.38,3.24s-1.51,3.24-3.38,3.24-3.38-1.45-3.38-3.24,1.51-3.24,3.38-3.24ZM739.34,31.48c1.87,0,3.38,1.45,3.38,3.24s-1.51,3.24-3.38,3.24-3.38-1.45-3.38-3.24,1.52-3.24,3.38-3.24ZM732.85,38.81c1.87,0,3.38,1.45,3.38,3.24s-1.51,3.24-3.38,3.24-3.38-1.45-3.38-3.24,1.52-3.24,3.38-3.24ZM727.91,47.17c1.87,0,3.38,1.45,3.38,3.24s-1.51,3.24-3.38,3.24-3.38-1.45-3.38-3.24,1.51-3.24,3.38-3.24ZM724.58,56.24c1.87,0,3.38,1.45,3.38,3.24s-1.52,3.24-3.38,3.24-3.38-1.45-3.38-3.24,1.51-3.24,3.38-3.24ZM722.91,65.71c1.87,0,3.38,1.45,3.38,3.24s-1.51,3.24-3.38,3.24-3.38-1.45-3.38-3.24,1.51-3.24,3.38-3.24ZM713.37,76.44h7.03v7.3h-7.03v-7.3ZM708.68,76.44v7.3h-7.03v-7.3h7.03ZM702.65,68.89c0,1.79-1.51,3.24-3.38,3.24s-3.38-1.45-3.38-3.24,1.51-3.23,3.38-3.23,3.38,1.45,3.38,3.23ZM701.25,60.4c0,1.79-1.51,3.24-3.38,3.24s-3.38-1.45-3.38-3.24,1.51-3.24,3.38-3.24,3.38,1.45,3.38,3.24ZM694.82,48.48c1.87,0,3.38,1.45,3.38,3.23s-1.51,3.24-3.38,3.24-3.38-1.45-3.38-3.24,1.51-3.23,3.38-3.23ZM690.13,39.96c1.87,0,3.38,1.45,3.38,3.24s-1.51,3.24-3.38,3.24-3.38-1.45-3.38-3.24,1.51-3.24,3.38-3.24ZM683.86,32.43c1.87,0,3.38,1.45,3.38,3.24s-1.51,3.24-3.38,3.24-3.38-1.45-3.38-3.24,1.51-3.24,3.38-3.24ZM676.09,26.49c1.87,0,3.38,1.45,3.38,3.24s-1.51,3.24-3.38,3.24-3.38-1.45-3.38-3.24,1.51-3.24,3.38-3.24ZM675.87,41.87c6.67-1.18,10.39,6.37,10.39,14.23s-3.72,15.41-10.39,14.23c-5.62-.99-17.39-6.37-17.39-14.23s11.77-13.23,17.39-14.23ZM667.38,21.89c1.87,0,3.38,1.45,3.38,3.23s-1.51,3.24-3.38,3.24-3.38-1.45-3.38-3.24,1.51-3.23,3.38-3.23ZM657.96,19.69c1.87,0,3.38,1.45,3.38,3.24s-1.52,3.24-3.38,3.24-3.38-1.45-3.38-3.24,1.52-3.24,3.38-3.24ZM648.35,19.8c1.87,0,3.38,1.45,3.38,3.24s-1.51,3.24-3.38,3.24-3.38-1.45-3.38-3.24,1.52-3.24,3.38-3.24ZM639,22.14c1.87,0,3.38,1.45,3.38,3.24s-1.51,3.24-3.38,3.24-3.38-1.45-3.38-3.24,1.52-3.24,3.38-3.24ZM635.4,34.1c1.23-2.62,3.12-3.67,5.2-3.82,1.25-.09,2.56.14,3.84.54,3.8.98,7.28,3.67,8,4.25.72-.58,4.19-3.26,8-4.25,1.28-.4,2.6-.63,3.85-.54,2.08.15,3.97,1.2,5.2,3.82.27.59.32,1.15.26,1.7.24,3.09-4.28,5.29-8.87,7.74l-.92.49-1.16.71c-2.68,1.66-6.35,5.33-6.35,5.33,0,0-3.67-3.67-6.35-5.33l-1.16-.71-.92-.49c-4.6-2.46-9.11-4.65-8.88-7.74-.06-.55,0-1.11.27-1.7ZM646.4,56.1c0,7.86-11.77,13.23-17.39,14.23-6.66,1.18-10.39-6.37-10.39-14.23s3.72-15.41,10.39-14.23c5.63.99,17.39,6.37,17.39,14.23ZM630.18,26.09c1.87,0,3.38,1.45,3.38,3.24s-1.51,3.24-3.38,3.24-3.38-1.45-3.38-3.24,1.52-3.24,3.38-3.24ZM622.17,31.48c1.87,0,3.38,1.45,3.38,3.24s-1.51,3.24-3.38,3.24-3.38-1.45-3.38-3.24,1.51-3.24,3.38-3.24ZM615.67,38.81c1.87,0,3.38,1.45,3.38,3.24s-1.52,3.24-3.38,3.24-3.38-1.45-3.38-3.24,1.51-3.24,3.38-3.24ZM610.73,47.17c1.87,0,3.38,1.45,3.38,3.24s-1.51,3.24-3.38,3.24-3.38-1.45-3.38-3.24,1.51-3.24,3.38-3.24ZM607.41,56.24c1.87,0,3.38,1.45,3.38,3.24s-1.51,3.24-3.38,3.24-3.38-1.45-3.38-3.24,1.51-3.24,3.38-3.24ZM605.74,65.71c1.87,0,3.38,1.45,3.38,3.24s-1.51,3.24-3.38,3.24-3.38-1.45-3.38-3.24,1.51-3.24,3.38-3.24ZM596.2,76.44h7.03v7.3h-7.03v-7.3ZM591.51,76.44v7.3h-7.03v-7.3h7.03ZM585.48,68.89c0,1.79-1.51,3.24-3.38,3.24s-3.38-1.45-3.38-3.24,1.51-3.23,3.38-3.23,3.38,1.45,3.38,3.23ZM584.08,60.4c0,1.79-1.51,3.24-3.38,3.24s-3.38-1.45-3.38-3.24,1.52-3.24,3.38-3.24,3.38,1.45,3.38,3.24ZM577.64,48.48c1.87,0,3.38,1.45,3.38,3.23s-1.51,3.24-3.38,3.24-3.38-1.45-3.38-3.24,1.51-3.23,3.38-3.23ZM572.95,39.96c1.87,0,3.38,1.45,3.38,3.24s-1.51,3.24-3.38,3.24-3.38-1.45-3.38-3.24,1.51-3.24,3.38-3.24ZM566.69,32.43c1.87,0,3.38,1.45,3.38,3.24s-1.51,3.24-3.38,3.24-3.38-1.45-3.38-3.24,1.52-3.24,3.38-3.24ZM558.92,26.49c1.87,0,3.38,1.45,3.38,3.24s-1.51,3.24-3.38,3.24-3.38-1.45-3.38-3.24,1.51-3.24,3.38-3.24ZM558.69,41.87c6.67-1.18,10.39,6.37,10.39,14.23s-3.72,15.41-10.39,14.23c-5.62-.99-17.39-6.37-17.39-14.23s11.77-13.23,17.39-14.23ZM550.21,21.89c1.87,0,3.38,1.45,3.38,3.23s-1.51,3.24-3.38,3.24-3.38-1.45-3.38-3.24,1.52-3.23,3.38-3.23ZM540.79,19.69c1.87,0,3.38,1.45,3.38,3.24s-1.51,3.24-3.38,3.24-3.38-1.45-3.38-3.24,1.51-3.24,3.38-3.24ZM531.18,19.8c1.87,0,3.38,1.45,3.38,3.24s-1.51,3.24-3.38,3.24-3.38-1.45-3.38-3.24,1.51-3.24,3.38-3.24ZM521.83,22.14c1.87,0,3.38,1.45,3.38,3.24s-1.51,3.24-3.38,3.24-3.38-1.45-3.38-3.24,1.51-3.24,3.38-3.24ZM518.22,34.1c1.23-2.62,3.12-3.67,5.2-3.82,1.25-.09,2.56.14,3.85.54,3.81.98,7.28,3.67,8,4.25.72-.58,4.19-3.26,8-4.25,1.28-.4,2.6-.63,3.84-.54,2.08.15,3.97,1.2,5.2,3.82.27.59.32,1.15.27,1.7.24,3.09-4.28,5.29-8.88,7.74l-.92.49-1.16.71c-2.68,1.66-6.35,5.33-6.35,5.33,0,0-3.67-3.67-6.35-5.33l-1.16-.71-.92-.49c-4.6-2.46-9.11-4.65-8.87-7.74-.06-.55,0-1.11.27-1.7ZM529.23,56.1c0,7.86-11.77,13.23-17.39,14.23-6.66,1.18-10.39-6.37-10.39-14.23s3.73-15.41,10.39-14.23c5.62.99,17.39,6.37,17.39,14.23ZM513.01,26.09c1.87,0,3.38,1.45,3.38,3.24s-1.51,3.24-3.38,3.24-3.38-1.45-3.38-3.24,1.52-3.24,3.38-3.24ZM505,31.48c1.87,0,3.38,1.45,3.38,3.24s-1.51,3.24-3.38,3.24-3.38-1.45-3.38-3.24,1.51-3.24,3.38-3.24ZM498.5,38.81c1.87,0,3.38,1.45,3.38,3.24s-1.51,3.24-3.38,3.24-3.38-1.45-3.38-3.24,1.51-3.24,3.38-3.24ZM493.56,47.17c1.87,0,3.38,1.45,3.38,3.24s-1.51,3.24-3.38,3.24-3.38-1.45-3.38-3.24,1.51-3.24,3.38-3.24ZM490.24,56.24c1.87,0,3.38,1.45,3.38,3.24s-1.51,3.24-3.38,3.24-3.38-1.45-3.38-3.24,1.51-3.24,3.38-3.24ZM488.57,65.71c1.87,0,3.38,1.45,3.38,3.24s-1.51,3.24-3.38,3.24-3.38-1.45-3.38-3.24,1.51-3.24,3.38-3.24ZM479.02,76.44h7.03v7.3h-7.03v-7.3ZM474.34,76.44v7.3h-7.03v-7.3h7.03ZM468.31,68.89c0,1.79-1.51,3.24-3.38,3.24s-3.38-1.45-3.38-3.24,1.52-3.23,3.38-3.23,3.38,1.45,3.38,3.23ZM466.9,60.4c0,1.79-1.51,3.24-3.38,3.24s-3.38-1.45-3.38-3.24,1.51-3.24,3.38-3.24,3.38,1.45,3.38,3.24ZM460.47,48.48c1.87,0,3.38,1.45,3.38,3.23s-1.51,3.24-3.38,3.24-3.38-1.45-3.38-3.24,1.52-3.23,3.38-3.23ZM455.78,39.96c1.87,0,3.38,1.45,3.38,3.24s-1.51,3.24-3.38,3.24-3.38-1.45-3.38-3.24,1.51-3.24,3.38-3.24ZM449.52,32.43c1.87,0,3.38,1.45,3.38,3.24s-1.52,3.24-3.38,3.24-3.38-1.45-3.38-3.24,1.52-3.24,3.38-3.24ZM441.74,26.49c1.87,0,3.38,1.45,3.38,3.24s-1.52,3.24-3.38,3.24-3.38-1.45-3.38-3.24,1.52-3.24,3.38-3.24ZM441.52,41.87c6.66-1.18,10.39,6.37,10.39,14.23s-3.72,15.41-10.39,14.23c-5.62-.99-17.39-6.37-17.39-14.23s11.77-13.23,17.39-14.23ZM433.03,21.89c1.87,0,3.38,1.45,3.38,3.23s-1.52,3.24-3.38,3.24-3.38-1.45-3.38-3.24,1.51-3.23,3.38-3.23ZM423.61,19.69c1.87,0,3.38,1.45,3.38,3.24s-1.51,3.24-3.38,3.24-3.38-1.45-3.38-3.24,1.51-3.24,3.38-3.24ZM414.01,19.8c1.87,0,3.38,1.45,3.38,3.24s-1.52,3.24-3.38,3.24-3.38-1.45-3.38-3.24,1.51-3.24,3.38-3.24ZM404.65,22.14c1.87,0,3.38,1.45,3.38,3.24s-1.51,3.24-3.38,3.24-3.38-1.45-3.38-3.24,1.51-3.24,3.38-3.24ZM401.05,34.1c1.23-2.62,3.12-3.67,5.19-3.82,1.25-.09,2.57.14,3.85.54,3.81.98,7.28,3.67,8,4.25.72-.58,4.19-3.26,8-4.25,1.28-.4,2.59-.63,3.84-.54,2.08.15,3.97,1.2,5.19,3.82.27.59.32,1.15.27,1.7.24,3.09-4.28,5.29-8.88,7.74l-.92.49-1.16.71c-2.68,1.66-6.36,5.33-6.36,5.33,0,0-3.67-3.67-6.35-5.33l-1.16-.71-.92-.49c-4.6-2.46-9.11-4.65-8.88-7.74-.05-.55,0-1.11.27-1.7ZM412.06,56.1c0,7.86-11.77,13.23-17.39,14.23-6.66,1.18-10.39-6.37-10.39-14.23s3.72-15.41,10.39-14.23c5.62.99,17.39,6.37,17.39,14.23ZM395.83,26.09c1.87,0,3.38,1.45,3.38,3.24s-1.51,3.24-3.38,3.24-3.38-1.45-3.38-3.24,1.51-3.24,3.38-3.24ZM387.82,31.48c1.87,0,3.38,1.45,3.38,3.24s-1.51,3.24-3.38,3.24-3.38-1.45-3.38-3.24,1.52-3.24,3.38-3.24ZM381.33,38.81c1.87,0,3.38,1.45,3.38,3.24s-1.51,3.24-3.38,3.24-3.38-1.45-3.38-3.24,1.52-3.24,3.38-3.24ZM376.38,47.17c1.87,0,3.38,1.45,3.38,3.24s-1.51,3.24-3.38,3.24-3.38-1.45-3.38-3.24,1.52-3.24,3.38-3.24ZM373.06,56.24c1.87,0,3.38,1.45,3.38,3.24s-1.52,3.24-3.38,3.24-3.38-1.45-3.38-3.24,1.52-3.24,3.38-3.24ZM371.39,65.71c1.87,0,3.38,1.45,3.38,3.24s-1.51,3.24-3.38,3.24-3.38-1.45-3.38-3.24,1.51-3.24,3.38-3.24ZM361.85,76.44h7.03v7.3h-7.03v-7.3ZM357.16,76.44v7.3h-7.03v-7.3h7.03ZM351.13,68.89c0,1.79-1.51,3.24-3.38,3.24s-3.38-1.45-3.38-3.24,1.51-3.23,3.38-3.23,3.38,1.45,3.38,3.23ZM349.73,60.4c0,1.79-1.52,3.24-3.38,3.24s-3.38-1.45-3.38-3.24,1.51-3.24,3.38-3.24,3.38,1.45,3.38,3.24ZM343.3,48.48c1.87,0,3.38,1.45,3.38,3.23s-1.51,3.24-3.38,3.24-3.38-1.45-3.38-3.24,1.52-3.23,3.38-3.23ZM338.61,39.96c1.86,0,3.38,1.45,3.38,3.24s-1.52,3.24-3.38,3.24-3.38-1.45-3.38-3.24,1.52-3.24,3.38-3.24ZM332.34,32.43c1.87,0,3.38,1.45,3.38,3.24s-1.52,3.24-3.38,3.24-3.38-1.45-3.38-3.24,1.51-3.24,3.38-3.24ZM324.57,26.49c1.86,0,3.38,1.45,3.38,3.24s-1.52,3.24-3.38,3.24-3.38-1.45-3.38-3.24,1.51-3.24,3.38-3.24ZM324.35,41.87c6.66-1.18,10.39,6.37,10.39,14.23s-3.73,15.41-10.39,14.23c-5.63-.99-17.39-6.37-17.39-14.23s11.77-13.23,17.39-14.23ZM315.86,21.89c1.87,0,3.38,1.45,3.38,3.23s-1.51,3.24-3.38,3.24-3.38-1.45-3.38-3.24,1.51-3.23,3.38-3.23ZM306.44,19.69c1.87,0,3.38,1.45,3.38,3.24s-1.51,3.24-3.38,3.24-3.38-1.45-3.38-3.24,1.52-3.24,3.38-3.24ZM296.83,19.8c1.87,0,3.38,1.45,3.38,3.24s-1.51,3.24-3.38,3.24-3.38-1.45-3.38-3.24,1.51-3.24,3.38-3.24ZM287.48,22.14c1.87,0,3.38,1.45,3.38,3.24s-1.51,3.24-3.38,3.24-3.38-1.45-3.38-3.24,1.51-3.24,3.38-3.24ZM283.88,34.1c1.23-2.62,3.12-3.67,5.2-3.82,1.25-.09,2.56.14,3.85.54,3.8.98,7.28,3.67,8,4.25.72-.58,4.19-3.26,8-4.25,1.28-.4,2.6-.63,3.85-.54,2.08.15,3.97,1.2,5.19,3.82.28.59.32,1.15.27,1.7.24,3.09-4.28,5.29-8.87,7.74l-.92.49-1.16.71c-2.68,1.66-6.35,5.33-6.35,5.33,0,0-3.68-3.67-6.35-5.33l-1.16-.71-.92-.49c-4.6-2.46-9.11-4.65-8.88-7.74-.05-.55,0-1.11.27-1.7ZM294.88,56.1c0,7.86-11.77,13.23-17.39,14.23-6.66,1.18-10.39-6.37-10.39-14.23s3.72-15.41,10.39-14.23c5.62.99,17.39,6.37,17.39,14.23ZM278.66,26.09c1.87,0,3.38,1.45,3.38,3.24s-1.51,3.24-3.38,3.24-3.38-1.45-3.38-3.24,1.51-3.24,3.38-3.24ZM270.65,31.48c1.87,0,3.38,1.45,3.38,3.24s-1.52,3.24-3.38,3.24-3.38-1.45-3.38-3.24,1.52-3.24,3.38-3.24ZM264.15,38.81c1.87,0,3.38,1.45,3.38,3.24s-1.52,3.24-3.38,3.24-3.38-1.45-3.38-3.24,1.51-3.24,3.38-3.24ZM259.21,47.17c1.87,0,3.38,1.45,3.38,3.24s-1.51,3.24-3.38,3.24-3.38-1.45-3.38-3.24,1.51-3.24,3.38-3.24ZM255.89,56.24c1.87,0,3.38,1.45,3.38,3.24s-1.51,3.24-3.38,3.24-3.38-1.45-3.38-3.24,1.51-3.24,3.38-3.24ZM254.22,65.71c1.87,0,3.38,1.45,3.38,3.24s-1.52,3.24-3.38,3.24-3.38-1.45-3.38-3.24,1.51-3.24,3.38-3.24ZM244.68,76.44h7.03v7.3h-7.03v-7.3ZM239.99,76.44v7.3h-7.03v-7.3h7.03ZM233.97,68.89c0,1.79-1.52,3.24-3.38,3.24s-3.38-1.45-3.38-3.24,1.51-3.23,3.38-3.23,3.38,1.45,3.38,3.23ZM232.56,60.4c0,1.79-1.51,3.24-3.38,3.24s-3.38-1.45-3.38-3.24,1.51-3.24,3.38-3.24,3.38,1.45,3.38,3.24ZM226.12,48.48c1.87,0,3.38,1.45,3.38,3.23s-1.52,3.24-3.38,3.24-3.38-1.45-3.38-3.24,1.51-3.23,3.38-3.23ZM221.43,39.96c1.87,0,3.38,1.45,3.38,3.24s-1.51,3.24-3.38,3.24-3.38-1.45-3.38-3.24,1.51-3.24,3.38-3.24ZM215.17,32.43c1.87,0,3.38,1.45,3.38,3.24s-1.51,3.24-3.38,3.24-3.38-1.45-3.38-3.24,1.51-3.24,3.38-3.24ZM207.4,26.49c1.87,0,3.38,1.45,3.38,3.24s-1.51,3.24-3.38,3.24-3.38-1.45-3.38-3.24,1.51-3.24,3.38-3.24ZM207.17,41.87c6.67-1.18,10.39,6.37,10.39,14.23s-3.72,15.41-10.39,14.23c-5.62-.99-17.39-6.37-17.39-14.23s11.77-13.23,17.39-14.23ZM198.69,21.89c1.87,0,3.38,1.45,3.38,3.23s-1.52,3.24-3.38,3.24-3.38-1.45-3.38-3.24,1.52-3.23,3.38-3.23ZM189.27,19.69c1.87,0,3.38,1.45,3.38,3.24s-1.51,3.24-3.38,3.24-3.38-1.45-3.38-3.24,1.51-3.24,3.38-3.24ZM179.66,19.8c1.87,0,3.38,1.45,3.38,3.24s-1.51,3.24-3.38,3.24-3.38-1.45-3.38-3.24,1.51-3.24,3.38-3.24ZM170.31,22.14c1.87,0,3.38,1.45,3.38,3.24s-1.51,3.24-3.38,3.24-3.38-1.45-3.38-3.24,1.51-3.24,3.38-3.24ZM166.71,34.1c1.23-2.62,3.12-3.67,5.19-3.82,1.25-.09,2.56.14,3.85.54,3.8.98,7.28,3.67,8,4.25.72-.58,4.19-3.26,8-4.25,1.28-.4,2.59-.63,3.84-.54,2.08.15,3.97,1.2,5.2,3.82.27.59.32,1.15.27,1.7.24,3.09-4.28,5.29-8.87,7.74l-.92.49-1.16.71c-2.68,1.66-6.35,5.33-6.35,5.33,0,0-3.67-3.67-6.35-5.33l-1.16-.71-.92-.49c-4.59-2.46-9.11-4.65-8.87-7.74-.06-.55,0-1.11.27-1.7ZM177.71,56.1c0,7.86-11.77,13.23-17.39,14.23-6.66,1.18-10.39-6.37-10.39-14.23s3.73-15.41,10.39-14.23c5.62.99,17.39,6.37,17.39,14.23ZM161.49,26.09c1.87,0,3.38,1.45,3.38,3.24s-1.51,3.24-3.38,3.24-3.38-1.45-3.38-3.24,1.52-3.24,3.38-3.24ZM153.48,31.48c1.87,0,3.38,1.45,3.38,3.24s-1.51,3.24-3.38,3.24-3.38-1.45-3.38-3.24,1.51-3.24,3.38-3.24ZM146.98,38.81c1.87,0,3.38,1.45,3.38,3.24s-1.51,3.24-3.38,3.24-3.38-1.45-3.38-3.24,1.51-3.24,3.38-3.24ZM142.04,47.17c1.87,0,3.38,1.45,3.38,3.24s-1.51,3.24-3.38,3.24-3.38-1.45-3.38-3.24,1.51-3.24,3.38-3.24ZM138.72,56.24c1.87,0,3.38,1.45,3.38,3.24s-1.51,3.24-3.38,3.24-3.37-1.45-3.39-3.24c.02-1.79,1.52-3.24,3.39-3.24ZM137.05,65.71c1.87,0,3.38,1.45,3.38,3.24s-1.51,3.24-3.38,3.24c-1.87,0-3.37-1.42-3.44-3.22-.08-1.78,1.61-3.27,3.44-3.26ZM134.6,76.45l.09,7.29c-1.92.02-3.84.14-5.74.36l-.83-7.25c2.15-.24,4.32-.38,6.49-.41ZM123.83,77.5l1.32,7.17c-1.88.35-3.75.79-5.58,1.33l-2.06-7c2.08-.61,4.18-1.11,6.31-1.5ZM116.38,71.47c.46,1.73-.59,3.51-2.32,4.09-1.74.58-3.65-.23-4.31-1.89-.66-1.66.34-3.61,2.27-4.26,1.93-.65,3.9.33,4.36,2.05ZM107.74,61.91c2.14-.76,4.31.11,4.81,1.83.5,1.72-.7,3.57-2.64,4.27-1.95.68-4.05,0-4.74-1.65-.7-1.65.43-3.7,2.58-4.45ZM101.03,55.18c2.32-.95,4.71-.23,5.29,1.46.58,1.69-.73,3.66-2.85,4.54-2.13.86-4.44.35-5.2-1.26-.77-1.61.44-3.8,2.77-4.73ZM91.58,50.08c2.46-1.2,5.07-.72,5.76.92.69,1.65-.64,3.78-2.91,4.9-2.27,1.11-4.77.85-5.65-.71-.88-1.56.35-3.91,2.8-5.11ZM79.67,48.01c2.51-1.52,5.3-1.37,6.13.21.84,1.58-.43,3.91-2.77,5.32-2.33,1.42-4.98,1.48-6,0-1.01-1.47.13-4.01,2.64-5.53ZM86.15,59.47c3.5,1.06,6.41,3.86,8.33,7.29,1.91,3.43,2.83,7.32,2.65,10.62-.2,3.31-1.44,6.02-4.46,7.61-2.56,1.33-6.92,3.04-11.39,4.27-4.46,1.16-9.14,1.85-12.27-.52-3.13-2.37-3.49-7.42-1.86-12.73,1.56-5.31,5.16-10.64,8.04-13.46,3.41-3.39,7.49-4.14,10.96-3.07ZM67.34,96.4c-1.18,1.84-3.24,2.7-4.72,1.88-1.46-.83-1.71-3.18-.43-5.18,1.29-1.99,3.52-2.75,4.89-1.76,1.37.99,1.44,3.23.26,5.06ZM66.04,50.19c2.44-1.89,5.33-2.12,6.34-.65,1.01,1.48-.1,3.99-2.38,5.77-2.29,1.76-5,2.2-6.18.85-1.17-1.34-.23-4.08,2.22-5.97ZM52.02,56.38c2.28-2.27,5.19-2.92,6.37-1.59,1.19,1.34.33,4.05-1.8,6.17-2.13,2.13-4.84,2.97-6.18,1.78-1.32-1.19-.66-4.09,1.6-6.36ZM50.95,70.85c.97-1.82,2.18-3.57,3.59-4.97,2.34-2.35,5.25-3.72,8.42-3.09.71.15,1.15.51,1.46.97,2.33,2.04-1.08,8.15-3.25,14.69l-.43,1.31-.45,1.7c-1.05,3.98-.63,10.08-.6,10.05.01-.04-5.71,2.13-8.9,4.74l-1.35,1.12-1.01.94c-5.05,4.71-9.19,10.41-12.01,9.14-.55-.09-1.06-.33-1.49-.92-1.89-2.62-1.85-5.87-.69-8.99.69-1.88,1.77-3.71,3.03-5.36,3.54-5.06,8.74-8.19,9.8-8.77.09-1.2.77-7.23,3.88-12.54ZM39.66,67.18c1.98-2.61,4.81-3.68,6.17-2.52,1.35,1.16.84,4-1.01,6.44-1.86,2.44-4.46,3.69-5.95,2.69-1.48-1-1.19-4.02.79-6.62ZM30.55,81.26c1.6-2.86,4.25-4.32,5.76-3.36,1.5.96,1.39,3.84-.11,6.53-1.51,2.68-3.91,4.29-5.52,3.5-1.61-.78-1.74-3.81-.13-6.67ZM25.71,96.9c1.18-3,3.59-4.77,5.21-4.02,1.63.75,1.92,3.58.82,6.39-1.1,2.81-3.25,4.68-4.95,4.13-1.69-.55-2.25-3.49-1.07-6.5ZM26.85,118.42c-1.75-.33-2.71-3.09-1.95-6.12.76-3.03,2.9-5.01,4.6-4.48,1.71.54,2.39,3.22,1.68,6.05-.72,2.82-2.58,4.88-4.34,4.54ZM34.21,126.89c-.35,2.74-1.96,4.87-3.75,4.74-1.78-.12-3.05-2.62-2.67-5.57.38-2.94,2.25-5.04,4-4.71,1.76.33,2.78,2.8,2.42,5.54ZM39.75,140.01c-.59.61-1.4.99-2.29.99s-1.71-.38-2.29-.99c-.57-.86-.94-2.13-.89-3.49.09-2.75,1.74-4.85,3.52-4.69,1.78.16,3.03,2.36,2.96,4.91-.05,1.28-.41,2.45-1.01,3.27ZM39.82,117.77c1.37-3.82,4.7-9.36,8.89-13.01,4.15-3.72,8.91-5.5,12.36-3.64,3.46,1.86,4.77,6.4,5.58,10.95.75,4.57,1.03,9.25.89,12.14-.18,3.4-2.11,5.67-5.03,7.25-2.92,1.55-6.83,2.35-10.75,2.06-3.91-.29-7.69-1.75-10.11-4.48-2.43-2.7-3.47-6.73-1.82-11.27ZM45.82,145.94c-1.79,0-3.24-1.51-3.24-3.38,0-.93.36-1.78.95-2.39.59-.69,1.41-1.27,2.3-1.23.9-.01,1.69.56,2.28,1.23.59.61.95,1.46.95,2.39,0,1.87-1.45,3.38-3.24,3.38ZM54.89,149.26c-1.79,0-3.24-1.51-3.24-3.38s1.45-3.38,3.24-3.38,3.24,1.51,3.24,3.38-1.45,3.38-3.24,3.38ZM57.52,138.94c.03-2.13,1.59-3.75,3.37-3.63,1.78.13,3.12,1.79,3.1,3.71-.03,1.94-1.46,3.41-3.25,3.42-1.78-.05-3.25-1.39-3.22-3.5ZM64.36,150.94c-1.78,0-3.24-1.51-3.24-3.38s1.45-3.38,3.24-3.38,3.24,1.51,3.24,3.38-1.45,3.38-3.24,3.38ZM66.97,105.14c0-1.98.27-5.69.29-5.69l9.27,5.53c-1.54,2.57-2.9,5.25-4.09,8,.02,0-5.5-3.5-5.47-7.84ZM71.85,262.55v-7.03h7.3v7.03h-7.3ZM79.15,267.24v7.03h-7.3v-7.03h7.3ZM71.85,250.83v-7.03h7.3v7.03h-7.3ZM71.85,239.12v-7.03h7.3v7.03h-7.3ZM71.85,227.4v-7.03h7.3v7.03h-7.3ZM71.85,215.68v-7.03h7.3v7.03h-7.3ZM71.85,203.96v-7.03h7.3v7.03h-7.3ZM71.85,192.25v-7.03h7.3v7.03h-7.3ZM71.85,180.53v-7.03h7.3v7.03h-7.3ZM71.85,168.81v-7.03h7.3v7.03h-7.3ZM71.85,379.73v-7.03h7.3v7.03h-7.3ZM79.15,384.41v7.03h-7.3v-7.03h7.3ZM71.85,368.01v-7.03h7.3v7.03h-7.3ZM71.85,356.29v-7.03h7.3v7.03h-7.3ZM71.85,344.57v-7.03h7.3v7.03h-7.3ZM71.85,332.85v-7.03h7.3v7.03h-7.3ZM71.85,321.14v-7.03h7.3v7.03h-7.3ZM71.85,309.42v-7.03h7.3v7.03h-7.3ZM71.85,297.7v-7.03h7.3v7.03h-7.3ZM71.85,285.99v-7.03h7.3v7.03h-7.3ZM64.3,402.16c1.79,0,3.22,1.52,3.29,3.35.06,1.83-1.25,3.44-3.02,3.61-1.78.17-3.38-1.34-3.45-3.38-.07-2.06,1.4-3.61,3.18-3.58ZM61.22,411.43c1.78-.18,3.38,1.22,3.7,3.12.3,1.9-.77,3.74-2.52,4.13-1.74.39-3.54-.98-3.87-3.09-.35-2.11.91-3.98,2.69-4.16ZM55.82,403.64c1.79,0,3.24,1.67,3.35,3.73.11,2.06-1.14,3.88-2.92,4.08-1.78.21-3.43-1.45-3.55-3.72-.13-2.26,1.32-4.09,3.11-4.09ZM47.25,407.62c1.79-.08,3.32,1.72,3.55,4,.24,2.28-.91,4.35-2.67,4.64-1.76.28-3.51-1.5-3.77-3.98-.25-2.49,1.11-4.58,2.89-4.65ZM53.64,421.82c3.84-.87,7.82-.66,10.94.44,3.13,1.12,5.38,3.08,6.06,6.42.57,2.83.99,7.5.93,12.13-.13,4.61-.75,9.29-3.9,11.65-3.14,2.35-8.1,1.3-12.76-1.75-4.68-2.98-8.79-7.95-10.71-11.52-2.31-4.24-1.88-8.38.11-11.42,1.99-3.07,5.5-5.08,9.33-5.95ZM39.31,414.63c1.78-.2,3.44,1.68,3.88,4.17.42,2.49-.53,4.82-2.27,5.23-1.74.4-3.66-1.44-4.11-4.14-.46-2.7.73-5.07,2.51-5.26ZM33.4,424.92c1.75-.36,3.62,1.52,4.34,4.17.7,2.65.02,5.21-1.68,5.77-1.69.56-3.82-1.25-4.58-4.1-.76-2.85.17-5.48,1.92-5.84ZM29.76,444.52c-1.14-2.89-.55-5.74,1.14-6.29,1.7-.56,3.82,1.22,4.88,3.92,1.07,2.7.73,5.44-.9,6.2-1.62.75-3.98-.93-5.13-3.82ZM31.84,459.78c-1.56-2.83-1.38-5.82.23-6.58,1.62-.77,3.98.82,5.44,3.46,1.45,2.65,1.52,5.49,0,6.44-1.51.95-4.13-.5-5.68-3.33ZM44.94,477.28c-1.37,1.14-4.18.03-6.14-2.59-1.95-2.63-2.21-5.65-.72-6.63,1.5-.98,4.08.3,5.92,2.77,1.83,2.46,2.31,5.3.93,6.45ZM56.21,489.03c-1.19,1.32-4.14.62-6.42-1.72-2.3-2.32-2.96-5.28-1.62-6.45,1.34-1.18,4.07-.27,6.23,1.91,2.15,2.19,3.01,4.93,1.81,6.26ZM69.91,497.04c-1.01,1.47-3.98,1.2-6.51-.77-2.54-1.96-3.55-4.76-2.38-6.11,1.17-1.35,3.96-.85,6.34.98,2.37,1.84,3.56,4.42,2.55,5.89ZM66.38,488.26c-1.6-1.17-3.04-2.73-4.28-4.38-3.85-4.8-5.42-10.64-5.67-11.83-1.13-.42-6.73-2.73-10.97-7.2-1.49-1.44-2.82-3.09-3.78-4.83-1.6-2.91-2.12-6.1-.65-8.97.33-.65.81-.96,1.34-1.14,2.61-1.67,7.54,3.33,13.22,7.23l1.14.78c.5.32,1,.62,1.51.91,3.53,2.1,9.5,3.4,9.49,3.36-.04-.02.45,6.07,2.06,9.85l.7,1.61.62,1.23c3.11,6.15,7.39,11.7,5.38,14.06-.24.5-.62.92-1.3,1.17-3.04,1.09-6.13.14-8.79-1.83ZM84.3,501.16c-.81,1.59-3.72,1.73-6.4.15-2.69-1.57-3.98-4.17-2.99-5.66.99-1.49,3.75-1.39,6.26.08,2.5,1.47,3.94,3.84,3.13,5.43ZM97.99,501.41c-.62,1.68-3.38,2.2-6.1.99-2.72-1.19-4.21-3.57-3.39-5.16.81-1.59,3.47-1.87,6-.77,2.53,1.12,4.12,3.26,3.5,4.93ZM98.63,489.95c-3.28,1.57-7.44,1.44-11.31-1.42-3.28-2.37-7.62-7.13-9.96-12.14-2.39-5.02-2.78-10.07-.03-12.87,2.75-2.81,7.48-2.81,12.06-2.32,4.61.54,9.16,1.61,11.9,2.54,3.21,1.13,4.85,3.62,5.54,6.87.67,3.23.34,7.21-1.04,10.89-1.39,3.67-3.85,6.88-7.16,8.45ZM109.41,497.45c-.46,1.73-3,2.56-5.63,1.68-2.64-.86-4.2-3.04-3.54-4.7.66-1.66,3.12-2.25,5.56-1.45,2.43.81,4.07,2.74,3.61,4.47ZM117.91,490.88c-.33,1.75-2.63,2.8-5.1,2.17-2.47-.62-4-2.62-3.47-4.32.54-1.71,2.78-2.53,5.04-1.96,2.26.57,3.85,2.35,3.52,4.11ZM123.51,482.65c-.25,1.77-2.29,2.95-4.54,2.49-2.25-.45-3.69-2.32-3.23-4.05.45-1.73,2.45-2.71,4.5-2.3,2.05.41,3.52,2.08,3.27,3.86ZM122.61,476.18c-2.01-.35-3.28-2.14-2.87-3.87.41-1.74,2.18-2.82,3.98-2.51,1.8.32,3.11,1.93,2.9,3.71-.2,1.77-2,3.02-4.01,2.67ZM133.22,466.52c-2.17-.07-4.33-.26-6.48-.55l.99-7.23c1.9.26,3.81.42,5.73.49l-.25,7.29ZM137.73,466.56v-7.3h7.03v7.3h-7.03ZM143.76,474.11c0-1.79,1.51-3.24,3.38-3.24s3.38,1.45,3.38,3.24-1.52,3.23-3.38,3.23-3.38-1.45-3.38-3.23ZM145.16,482.6c0-1.79,1.51-3.24,3.38-3.24s3.38,1.45,3.38,3.24-1.51,3.24-3.38,3.24-3.38-1.45-3.38-3.24ZM151.59,494.52c-1.87,0-3.38-1.45-3.38-3.24s1.51-3.23,3.38-3.23,3.38,1.45,3.38,3.23-1.52,3.24-3.38,3.24ZM156.28,503.04c-1.87,0-3.38-1.45-3.38-3.24s1.52-3.24,3.38-3.24,3.38,1.45,3.38,3.24-1.51,3.24-3.38,3.24ZM162.55,510.57c-1.87,0-3.38-1.45-3.38-3.24s1.52-3.24,3.38-3.24,3.38,1.45,3.38,3.24-1.51,3.24-3.38,3.24ZM170.32,516.51c-1.86,0-3.38-1.45-3.38-3.24s1.52-3.24,3.38-3.24,3.38,1.45,3.38,3.24-1.51,3.24-3.38,3.24ZM170.54,501.13c-6.66,1.18-10.39-6.37-10.39-14.23s3.73-15.41,10.39-14.23c5.62.99,17.39,6.37,17.39,14.23s-11.77,13.23-17.39,14.23ZM179.04,521.11c-1.87,0-3.38-1.45-3.38-3.23s1.52-3.24,3.38-3.24,3.38,1.45,3.38,3.24-1.51,3.23-3.38,3.23ZM188.45,523.31c-1.87,0-3.38-1.45-3.38-3.24s1.51-3.24,3.38-3.24,3.38,1.45,3.38,3.24-1.52,3.24-3.38,3.24ZM198.06,523.2c-1.87,0-3.38-1.45-3.38-3.24s1.52-3.24,3.38-3.24,3.38,1.45,3.38,3.24-1.52,3.24-3.38,3.24ZM207.41,520.86c-1.87,0-3.38-1.45-3.38-3.24s1.51-3.24,3.38-3.24,3.38,1.45,3.38,3.24-1.51,3.24-3.38,3.24ZM211.01,508.9c-1.23,2.62-3.12,3.67-5.2,3.82-1.25.09-2.56-.14-3.85-.54-3.8-.98-7.28-3.67-8-4.24-.72.58-4.19,3.26-8,4.24-1.28.4-2.6.63-3.85.54-2.08-.15-3.97-1.19-5.19-3.82-.28-.59-.32-1.15-.27-1.7-.24-3.09,4.28-5.29,8.87-7.74l.92-.49,1.16-.71c2.68-1.66,6.35-5.33,6.35-5.33,0,0,3.68,3.67,6.35,5.33l1.16.71.92.49c4.6,2.46,9.11,4.65,8.88,7.74.05.55,0,1.11-.27,1.7ZM200.01,486.9c0-7.86,11.77-13.23,17.39-14.23,6.66-1.18,10.39,6.37,10.39,14.23s-3.72,15.41-10.39,14.23c-5.62-.99-17.39-6.37-17.39-14.23ZM216.23,516.91c-1.87,0-3.38-1.45-3.38-3.24s1.51-3.24,3.38-3.24,3.38,1.45,3.38,3.24-1.52,3.24-3.38,3.24ZM224.24,511.52c-1.87,0-3.38-1.45-3.38-3.24s1.51-3.24,3.38-3.24,3.38,1.45,3.38,3.24-1.51,3.24-3.38,3.24ZM230.74,504.19c-1.87,0-3.38-1.45-3.38-3.24s1.52-3.24,3.38-3.24,3.38,1.45,3.38,3.24-1.51,3.24-3.38,3.24ZM235.68,495.83c-1.87,0-3.38-1.45-3.38-3.24s1.51-3.24,3.38-3.24,3.38,1.45,3.38,3.24-1.52,3.24-3.38,3.24ZM239,486.76c-1.87,0-3.38-1.45-3.38-3.24s1.51-3.24,3.38-3.24,3.38,1.45,3.38,3.24-1.51,3.24-3.38,3.24ZM240.67,477.29c-1.87,0-3.38-1.45-3.38-3.24s1.51-3.24,3.38-3.24,3.38,1.45,3.38,3.24-1.51,3.24-3.38,3.24ZM250.21,466.56h-7.03v-7.3h7.03v7.3ZM254.9,466.56v-7.3h7.03v7.3h-7.03ZM260.93,474.11c0-1.79,1.51-3.24,3.38-3.24s3.38,1.45,3.38,3.24-1.51,3.23-3.38,3.23-3.38-1.45-3.38-3.23ZM262.33,482.6c0-1.79,1.51-3.24,3.38-3.24s3.38,1.45,3.38,3.24-1.51,3.24-3.38,3.24-3.38-1.45-3.38-3.24ZM268.77,494.52c-1.87,0-3.38-1.45-3.38-3.24s1.51-3.23,3.38-3.23,3.38,1.45,3.38,3.23-1.51,3.24-3.38,3.24ZM273.46,503.04c-1.87,0-3.38-1.45-3.38-3.24s1.51-3.24,3.38-3.24,3.38,1.45,3.38,3.24-1.52,3.24-3.38,3.24ZM279.72,510.57c-1.87,0-3.38-1.45-3.38-3.24s1.51-3.24,3.38-3.24,3.38,1.45,3.38,3.24-1.51,3.24-3.38,3.24ZM287.49,516.51c-1.87,0-3.38-1.45-3.38-3.24s1.51-3.24,3.38-3.24,3.38,1.45,3.38,3.24-1.51,3.24-3.38,3.24ZM287.72,501.13c-6.67,1.18-10.39-6.37-10.39-14.23s3.72-15.41,10.39-14.23c5.62.99,17.39,6.37,17.39,14.23s-11.77,13.23-17.39,14.23ZM296.21,521.11c-1.87,0-3.38-1.45-3.38-3.23s1.51-3.24,3.38-3.24,3.38,1.45,3.38,3.24-1.52,3.23-3.38,3.23ZM305.62,523.31c-1.87,0-3.38-1.45-3.38-3.24s1.51-3.24,3.38-3.24,3.38,1.45,3.38,3.24-1.51,3.24-3.38,3.24ZM315.23,523.2c-1.87,0-3.38-1.45-3.38-3.24s1.51-3.24,3.38-3.24,3.38,1.45,3.38,3.24-1.51,3.24-3.38,3.24ZM324.58,520.86c-1.87,0-3.38-1.45-3.38-3.24s1.51-3.24,3.38-3.24,3.38,1.45,3.38,3.24-1.52,3.24-3.38,3.24ZM328.19,508.9c-1.23,2.62-3.12,3.67-5.19,3.82-1.25.09-2.56-.14-3.85-.54-3.81-.98-7.28-3.67-8-4.24-.72.58-4.19,3.26-8,4.24-1.28.4-2.59.63-3.84.54-2.08-.15-3.97-1.19-5.2-3.82-.27-.59-.32-1.15-.27-1.7-.24-3.09,4.27-5.29,8.87-7.74l.92-.49,1.16-.71c2.68-1.66,6.36-5.33,6.36-5.33,0,0,3.67,3.67,6.35,5.33l1.16.71.92.49c4.6,2.46,9.11,4.65,8.87,7.74.06.55,0,1.11-.27,1.7ZM317.18,486.9c0-7.86,11.77-13.23,17.39-14.23,6.66-1.18,10.39,6.37,10.39,14.23s-3.73,15.41-10.39,14.23c-5.63-.99-17.39-6.37-17.39-14.23ZM333.4,516.91c-1.87,0-3.38-1.45-3.38-3.24s1.51-3.24,3.38-3.24,3.38,1.45,3.38,3.24-1.52,3.24-3.38,3.24ZM341.41,511.52c-1.87,0-3.38-1.45-3.38-3.24s1.52-3.24,3.38-3.24,3.38,1.45,3.38,3.24-1.51,3.24-3.38,3.24ZM347.91,504.19c-1.87,0-3.38-1.45-3.38-3.24s1.51-3.24,3.38-3.24,3.38,1.45,3.38,3.24-1.51,3.24-3.38,3.24ZM352.86,495.83c-1.87,0-3.38-1.45-3.38-3.24s1.51-3.24,3.38-3.24,3.38,1.45,3.38,3.24-1.51,3.24-3.38,3.24ZM356.17,486.76c-1.87,0-3.38-1.45-3.38-3.24s1.51-3.24,3.38-3.24,3.38,1.45,3.38,3.24-1.51,3.24-3.38,3.24ZM357.85,477.29c-1.87,0-3.38-1.45-3.38-3.24s1.51-3.24,3.38-3.24,3.38,1.45,3.38,3.24-1.51,3.24-3.38,3.24ZM367.39,466.56h-7.03v-7.3h7.03v7.3ZM372.08,466.56v-7.3h7.03v7.3h-7.03ZM378.1,474.11c0-1.79,1.51-3.24,3.38-3.24s3.38,1.45,3.38,3.24-1.51,3.23-3.38,3.23-3.38-1.45-3.38-3.23ZM379.51,482.6c0-1.79,1.51-3.24,3.38-3.24s3.38,1.45,3.38,3.24-1.51,3.24-3.38,3.24-3.38-1.45-3.38-3.24ZM385.94,494.52c-1.87,0-3.38-1.45-3.38-3.24s1.52-3.23,3.38-3.23,3.38,1.45,3.38,3.23-1.52,3.24-3.38,3.24ZM390.63,503.04c-1.87,0-3.38-1.45-3.38-3.24s1.51-3.24,3.38-3.24,3.38,1.45,3.38,3.24-1.51,3.24-3.38,3.24ZM396.89,510.57c-1.87,0-3.38-1.45-3.38-3.24s1.51-3.24,3.38-3.24,3.38,1.45,3.38,3.24-1.52,3.24-3.38,3.24ZM404.67,516.51c-1.87,0-3.38-1.45-3.38-3.24s1.51-3.24,3.38-3.24,3.38,1.45,3.38,3.24-1.52,3.24-3.38,3.24ZM404.89,501.13c-6.66,1.18-10.39-6.37-10.39-14.23s3.73-15.41,10.39-14.23c5.62.99,17.39,6.37,17.39,14.23s-11.77,13.23-17.39,14.23ZM413.38,521.11c-1.87,0-3.38-1.45-3.38-3.23s1.51-3.24,3.38-3.24,3.38,1.45,3.38,3.24-1.51,3.23-3.38,3.23ZM422.8,523.31c-1.87,0-3.38-1.45-3.38-3.24s1.51-3.24,3.38-3.24,3.38,1.45,3.38,3.24-1.52,3.24-3.38,3.24ZM432.41,523.2c-1.87,0-3.38-1.45-3.38-3.24s1.51-3.24,3.38-3.24,3.38,1.45,3.38,3.24-1.51,3.24-3.38,3.24ZM441.76,520.86c-1.87,0-3.38-1.45-3.38-3.24s1.52-3.24,3.38-3.24,3.38,1.45,3.38,3.24-1.51,3.24-3.38,3.24ZM445.36,508.9c-1.23,2.62-3.12,3.67-5.2,3.82-1.25.09-2.56-.14-3.84-.54-3.81-.98-7.28-3.67-8-4.24-.72.58-4.19,3.26-8,4.24-1.28.4-2.6.63-3.85.54-2.08-.15-3.97-1.19-5.19-3.82-.28-.59-.32-1.15-.27-1.7-.24-3.09,4.28-5.29,8.87-7.74l.92-.49,1.16-.71c2.68-1.66,6.35-5.33,6.35-5.33,0,0,3.68,3.67,6.36,5.33l1.16.71.92.49c4.6,2.46,9.11,4.65,8.88,7.74.06.55,0,1.11-.27,1.7ZM434.35,486.9c0-7.86,11.77-13.23,17.39-14.23,6.66-1.18,10.39,6.37,10.39,14.23s-3.72,15.41-10.39,14.23c-5.62-.99-17.39-6.37-17.39-14.23ZM450.58,516.91c-1.87,0-3.38-1.45-3.38-3.24s1.52-3.24,3.38-3.24,3.38,1.45,3.38,3.24-1.51,3.24-3.38,3.24ZM458.59,511.52c-1.87,0-3.38-1.45-3.38-3.24s1.51-3.24,3.38-3.24,3.38,1.45,3.38,3.24-1.52,3.24-3.38,3.24ZM465.08,504.19c-1.87,0-3.38-1.45-3.38-3.24s1.51-3.24,3.38-3.24,3.38,1.45,3.38,3.24-1.52,3.24-3.38,3.24ZM470.03,495.83c-1.87,0-3.38-1.45-3.38-3.24s1.51-3.24,3.38-3.24,3.38,1.45,3.38,3.24-1.51,3.24-3.38,3.24ZM473.35,486.76c-1.87,0-3.38-1.45-3.38-3.24s1.52-3.24,3.38-3.24,3.38,1.45,3.38,3.24-1.51,3.24-3.38,3.24ZM475.02,477.29c-1.87,0-3.38-1.45-3.38-3.24s1.51-3.24,3.38-3.24,3.38,1.45,3.38,3.24-1.51,3.24-3.38,3.24ZM484.56,466.56h-7.03v-7.3h7.03v7.3ZM489.25,466.56v-7.3h7.03v7.3h-7.03ZM495.28,474.11c0-1.79,1.51-3.24,3.38-3.24s3.38,1.45,3.38,3.24-1.51,3.23-3.38,3.23-3.38-1.45-3.38-3.23ZM496.68,482.6c0-1.79,1.51-3.24,3.38-3.24s3.38,1.45,3.38,3.24-1.51,3.24-3.38,3.24-3.38-1.45-3.38-3.24ZM503.11,494.52c-1.87,0-3.38-1.45-3.38-3.24s1.51-3.23,3.38-3.23,3.38,1.45,3.38,3.23-1.52,3.24-3.38,3.24ZM507.8,503.04c-1.87,0-3.38-1.45-3.38-3.24s1.51-3.24,3.38-3.24,3.38,1.45,3.38,3.24-1.51,3.24-3.38,3.24ZM514.07,510.57c-1.87,0-3.38-1.45-3.38-3.24s1.51-3.24,3.38-3.24,3.38,1.45,3.38,3.24-1.51,3.24-3.38,3.24ZM521.84,516.51c-1.87,0-3.38-1.45-3.38-3.24s1.51-3.24,3.38-3.24,3.38,1.45,3.38,3.24-1.51,3.24-3.38,3.24ZM522.06,501.13c-6.67,1.18-10.39-6.37-10.39-14.23s3.72-15.41,10.39-14.23c5.62.99,17.39,6.37,17.39,14.23s-11.77,13.23-17.39,14.23ZM530.56,521.11c-1.87,0-3.38-1.45-3.38-3.23s1.51-3.24,3.38-3.24,3.38,1.45,3.38,3.24-1.51,3.23-3.38,3.23ZM539.97,523.31c-1.87,0-3.38-1.45-3.38-3.24s1.51-3.24,3.38-3.24,3.38,1.45,3.38,3.24-1.52,3.24-3.38,3.24ZM549.58,523.2c-1.87,0-3.38-1.45-3.38-3.24s1.51-3.24,3.38-3.24,3.38,1.45,3.38,3.24-1.51,3.24-3.38,3.24ZM558.93,520.86c-1.87,0-3.38-1.45-3.38-3.24s1.52-3.24,3.38-3.24,3.38,1.45,3.38,3.24-1.51,3.24-3.38,3.24ZM562.53,508.9c-1.23,2.62-3.12,3.67-5.2,3.82-1.25.09-2.56-.14-3.84-.54-3.81-.98-7.28-3.67-8-4.24-.72.58-4.19,3.26-8,4.24-1.28.4-2.6.63-3.85.54-2.08-.15-3.97-1.19-5.19-3.82-.28-.59-.32-1.15-.27-1.7-.24-3.09,4.28-5.29,8.87-7.74l.92-.49,1.16-.71c2.68-1.66,6.35-5.33,6.35-5.33,0,0,3.68,3.67,6.36,5.33l1.16.71.92.49c4.6,2.46,9.11,4.65,8.87,7.74.06.55,0,1.11-.27,1.7ZM551.53,486.9c0-7.86,11.77-13.23,17.39-14.23,6.67-1.18,10.39,6.37,10.39,14.23s-3.72,15.41-10.39,14.23c-5.62-.99-17.39-6.37-17.39-14.23ZM567.75,516.91c-1.87,0-3.38-1.45-3.38-3.24s1.51-3.24,3.38-3.24,3.38,1.45,3.38,3.24-1.51,3.24-3.38,3.24ZM575.76,511.52c-1.87,0-3.38-1.45-3.38-3.24s1.51-3.24,3.38-3.24,3.38,1.45,3.38,3.24-1.52,3.24-3.38,3.24ZM582.26,504.19c-1.87,0-3.38-1.45-3.38-3.24s1.51-3.24,3.38-3.24,3.38,1.45,3.38,3.24-1.51,3.24-3.38,3.24ZM587.2,495.83c-1.87,0-3.38-1.45-3.38-3.24s1.51-3.24,3.38-3.24,3.38,1.45,3.38,3.24-1.51,3.24-3.38,3.24ZM590.52,486.76c-1.87,0-3.38-1.45-3.38-3.24s1.51-3.24,3.38-3.24,3.38,1.45,3.38,3.24-1.52,3.24-3.38,3.24ZM592.19,477.29c-1.87,0-3.38-1.45-3.38-3.24s1.51-3.24,3.38-3.24,3.38,1.45,3.38,3.24-1.51,3.24-3.38,3.24ZM601.73,466.56h-7.03v-7.3h7.03v7.3ZM606.42,466.56v-7.3h7.03v7.3h-7.03ZM612.45,474.11c0-1.79,1.52-3.24,3.38-3.24s3.38,1.45,3.38,3.24-1.51,3.23-3.38,3.23-3.38-1.45-3.38-3.23ZM613.85,482.6c0-1.79,1.51-3.24,3.38-3.24s3.38,1.45,3.38,3.24-1.52,3.24-3.38,3.24-3.38-1.45-3.38-3.24ZM620.29,494.52c-1.87,0-3.38-1.45-3.38-3.24s1.51-3.23,3.38-3.23,3.38,1.45,3.38,3.23-1.51,3.24-3.38,3.24ZM624.98,503.04c-1.87,0-3.38-1.45-3.38-3.24s1.51-3.24,3.38-3.24,3.38,1.45,3.38,3.24-1.51,3.24-3.38,3.24ZM631.24,510.57c-1.87,0-3.38-1.45-3.38-3.24s1.51-3.24,3.38-3.24,3.38,1.45,3.38,3.24-1.51,3.24-3.38,3.24ZM639.01,516.51c-1.87,0-3.38-1.45-3.38-3.24s1.51-3.24,3.38-3.24,3.38,1.45,3.38,3.24-1.51,3.24-3.38,3.24ZM639.24,501.13c-6.66,1.18-10.39-6.37-10.39-14.23s3.72-15.41,10.39-14.23c5.62.99,17.39,6.37,17.39,14.23s-11.77,13.23-17.39,14.23ZM647.73,521.11c-1.87,0-3.38-1.45-3.38-3.23s1.51-3.24,3.38-3.24,3.38,1.45,3.38,3.24-1.51,3.23-3.38,3.23ZM657.14,523.31c-1.87,0-3.38-1.45-3.38-3.24s1.52-3.24,3.38-3.24,3.38,1.45,3.38,3.24-1.52,3.24-3.38,3.24ZM666.75,523.2c-1.87,0-3.38-1.45-3.38-3.24s1.51-3.24,3.38-3.24,3.38,1.45,3.38,3.24-1.52,3.24-3.38,3.24ZM676.1,520.86c-1.87,0-3.38-1.45-3.38-3.24s1.51-3.24,3.38-3.24,3.38,1.45,3.38,3.24-1.51,3.24-3.38,3.24ZM679.7,508.9c-1.23,2.62-3.11,3.67-5.19,3.82-1.25.09-2.56-.14-3.85-.54-3.8-.98-7.28-3.67-8-4.24-.72.58-4.19,3.26-8,4.24-1.28.4-2.6.63-3.85.54-2.08-.15-3.97-1.19-5.2-3.82-.27-.59-.32-1.15-.27-1.7-.23-3.09,4.28-5.29,8.88-7.74l.92-.49,1.16-.71c2.68-1.66,6.35-5.33,6.35-5.33,0,0,3.67,3.67,6.35,5.33l1.16.71.92.49c4.6,2.46,9.11,4.65,8.87,7.74.05.55,0,1.11-.27,1.7ZM668.7,486.9c0-7.86,11.77-13.23,17.39-14.23,6.67-1.18,10.39,6.37,10.39,14.23s-3.72,15.41-10.39,14.23c-5.63-.99-17.39-6.37-17.39-14.23ZM684.92,516.91c-1.87,0-3.38-1.45-3.38-3.24s1.51-3.24,3.38-3.24,3.38,1.45,3.38,3.24-1.52,3.24-3.38,3.24ZM692.94,511.52c-1.87,0-3.38-1.45-3.38-3.24s1.51-3.24,3.38-3.24,3.38,1.45,3.38,3.24-1.51,3.24-3.38,3.24ZM699.43,504.19c-1.87,0-3.38-1.45-3.38-3.24s1.51-3.24,3.38-3.24,3.38,1.45,3.38,3.24-1.51,3.24-3.38,3.24ZM704.37,495.83c-1.87,0-3.38-1.45-3.38-3.24s1.51-3.24,3.38-3.24,3.38,1.45,3.38,3.24-1.51,3.24-3.38,3.24ZM707.69,486.76c-1.87,0-3.38-1.45-3.38-3.24s1.51-3.24,3.38-3.24,3.38,1.45,3.38,3.24-1.51,3.24-3.38,3.24ZM709.36,477.29c-1.86,0-3.38-1.45-3.38-3.24s1.52-3.24,3.38-3.24,3.38,1.45,3.38,3.24-1.51,3.24-3.38,3.24ZM718.91,466.56h-7.03v-7.3h7.03v7.3ZM723.59,466.56v-7.3h7.03v7.3h-7.03ZM729.62,474.11c0-1.79,1.51-3.24,3.38-3.24s3.38,1.45,3.38,3.24-1.52,3.23-3.38,3.23-3.38-1.45-3.38-3.23ZM731.03,482.6c0-1.79,1.51-3.24,3.38-3.24s3.38,1.45,3.38,3.24-1.51,3.24-3.38,3.24-3.38-1.45-3.38-3.24ZM737.46,494.52c-1.87,0-3.38-1.45-3.38-3.24s1.51-3.23,3.38-3.23,3.38,1.45,3.38,3.23-1.52,3.24-3.38,3.24ZM742.15,503.04c-1.87,0-3.38-1.45-3.38-3.24s1.51-3.24,3.38-3.24,3.38,1.45,3.38,3.24-1.51,3.24-3.38,3.24ZM748.41,510.57c-1.87,0-3.38-1.45-3.38-3.24s1.52-3.24,3.38-3.24,3.38,1.45,3.38,3.24-1.52,3.24-3.38,3.24ZM756.19,516.51c-1.87,0-3.38-1.45-3.38-3.24s1.52-3.24,3.38-3.24,3.38,1.45,3.38,3.24-1.52,3.24-3.38,3.24ZM756.41,501.13c-6.66,1.18-10.39-6.37-10.39-14.23s3.72-15.41,10.39-14.23c2.81.5,7.16,2.09,10.81,4.54,3.44,2.5,7.31,5.63,7.5,9.53.12,1.96-.68,3.83-2.17,5.51-.74.85-1.66,1.61-2.7,2.34-.9.72-1.69,1.38-2.62,2-3.64,2.45-7.99,4.04-10.81,4.54ZM764.9,521.11c-1.87,0-3.38-1.45-3.38-3.23s1.52-3.24,3.38-3.24,3.38,1.45,3.38,3.24-1.51,3.23-3.38,3.23ZM777.81,523.03c-3.28.23-5.94-1.2-5.95-2.98-.02-1.79,2.45-3.27,5.52-3.48,3.06-.2,5.72.93,5.95,2.7.22,1.77-2.24,3.55-5.51,3.76ZM794.45,520.61c-3.23.68-6.08-.35-6.34-2.12-.27-1.77,1.98-3.58,5-4.22,3.02-.63,5.82.11,6.29,1.83.47,1.72-1.72,3.83-4.95,4.5ZM798.23,508.36c-6.16.68-11.96-1.17-13.09-1.58-.96.73-5.97,4.18-12.01,5.34-1.01.24-2.03.4-3.06.51-.98.11-1.38.14-2.08.09-2.08-.15-3.97-1.19-5.2-3.82-.27-.59-.32-1.15-.27-1.7-.11-1.55.95-2.87,2.63-4.11.84-.62,1.82-1.22,2.89-1.82.55-.3,1.05-.6,1.68-.9l2.39-.94,1.27-.54,1.58-.78c3.68-1.83,8.01-6.16,7.97-6.17-.04.02,5.37,2.9,9.44,3.57l1.74.29,1.38.14c6.89.69,13.88.03,14.8,3.01.29.47.45,1.02.28,1.73-.72,3.15-3.18,5.25-6.3,6.45-1.87.72-3.95,1.12-6.03,1.26ZM809.43,513.92c-3.04,1.1-5.96.45-6.47-1.26-.51-1.72,1.43-3.8,4.28-4.83,2.84-1.02,5.66-.65,6.36,1,.7,1.64-1.13,4-4.17,5.09ZM800.17,491.46c-5.54-.68-10.02-3.07-10.9-6.89-.88-3.83,1.67-7.81,4.56-11.41,2.94-3.58,6.27-6.88,8.54-8.68,2.68-2.1,5.65-2.16,8.77-.99,3.09,1.18,6.26,3.58,8.63,6.74,2.35,3.13,3.74,6.94,3.28,10.56-.43,3.6-2.76,7.04-7.25,8.78-3.77,1.49-10.11,2.63-15.62,1.9ZM821.52,504.38c-2.77,1.42-5.67,1.12-6.39-.51-.73-1.64.84-3.93,3.43-5.25,2.58-1.33,5.35-1.27,6.26.27.9,1.53-.53,4.06-3.3,5.48ZM829.94,493.17c-2.46,1.65-5.26,1.63-6.17.09-.91-1.54.27-3.93,2.56-5.47,2.28-1.53,4.94-1.72,6.02-.29,1.08,1.42.04,4.02-2.42,5.67ZM835.13,475.76c1.21,1.32.54,3.89-1.6,5.64-2.13,1.75-4.8,1.89-5.84.44-1.06-1.45-.23-3.84,1.75-5.45,1.98-1.62,4.48-1.94,5.69-.62ZM834.15,465.08c1.3,1.22.94,3.71-.9,5.45-1.84,1.74-4.35,1.95-5.49.58-1.15-1.37-.64-3.69,1.05-5.29,1.69-1.6,4.04-1.97,5.34-.74ZM830.24,455.93c1.36,1.16,1.24,3.51-.34,5.16-1.58,1.65-3.93,1.85-5.14.54-1.22-1.31-.96-3.52.48-5.03,1.45-1.5,3.65-1.83,5.01-.66ZM824.25,435.41l-6.27-3.73c.98-1.65,1.88-3.34,2.68-5.08l6.62,3.07c-.91,1.96-1.92,3.88-3.03,5.74ZM828.97,425.68l-6.81-2.61c.69-1.79,1.28-3.61,1.77-5.46l7.05,1.89c-.56,2.09-1.23,4.15-2.01,6.17ZM833.15,339.04v7.03h-7.3v-7.03h7.3ZM825.85,334.35v-7.03h7.3v7.03h-7.3ZM833.15,350.75v7.03h-7.3v-7.03h7.3ZM833.15,362.47v7.03h-7.3v-7.03h7.3ZM833.15,374.19v7.03h-7.3v-7.03h7.3ZM833.15,385.91v7.03h-7.3v-7.03h7.3ZM833.15,397.62l-.02,6.91-7.29-.17.02-6.74h7.3ZM832.87,408.86c-.19,2.16-.5,4.31-.92,6.43l-7.16-1.41c.37-1.88.64-3.78.82-5.68l7.26.66ZM848.9,385.81l-2.51,4.51c-1.91,3.42-8.28,4.51-8.28,4.51v-9.02h10.79ZM838.11,381.3v-9.02s6.37,1.08,8.28,4.51l2.51,4.51h-10.79ZM838.38,422.26c.52-1.85,2.27-3.07,4.02-2.69,1.75.38,2.79,2.38,2.21,4.44-.58,2.06-2.51,3.22-4.19,2.64-1.69-.58-2.56-2.53-2.04-4.39ZM846.58,433.59c-.84,2.11-2.93,3.16-4.55,2.41-1.62-.76-2.23-2.89-1.47-4.8.76-1.91,2.67-3.04,4.37-2.48,1.69.56,2.49,2.76,1.65,4.87ZM856.06,432.99c-.82,2.37-2.93,3.7-4.58,3.01-1.65-.69-2.28-2.96-1.53-5.14.76-2.17,2.66-3.57,4.38-3.08,1.72.48,2.56,2.84,1.73,5.2ZM866.13,429.24c-.71,2.65-2.79,4.3-4.49,3.73-1.69-.57-2.42-2.98-1.76-5.43.67-2.44,2.51-4.15,4.26-3.79,1.75.37,2.71,2.84,1.98,5.48ZM862.64,418.94c-3.1,1.94-7.13,2.29-10.97,1.47-3.84-.82-7.37-2.7-9.74-5-2.36-2.33-3.58-5.05-2.79-8.37,1.23-5.72,6.43-17.42,14.34-17.44,3.93,0,7.24,2.94,9.68,6.59,1.23,1.82,2.24,3.82,3,5.72.19.52.37.83.53,1.51l.41,1.88c.22,1.22.38,2.36.44,3.37.31,4.8-1.82,8.37-4.91,10.28ZM850.43,383.56c0-1.87,1.37-3.38,3.06-3.38s3.06,1.52,3.06,3.38-1.37,3.38-3.06,3.38-3.06-1.51-3.06-3.38ZM875.54,421.63c-.51,2.9-2.47,4.9-4.2,4.49-1.75-.41-2.65-2.91-2.17-5.6.47-2.7,2.17-4.73,3.95-4.52,1.77.2,2.93,2.74,2.43,5.64ZM879.19,415.11c-1.78-.21-2.94-2.71-2.77-5.59.18-2.88,1.64-5.21,3.43-5.2,1.79,0,3.22,2.5,3.03,5.59-.18,3.09-1.92,5.42-3.69,5.2ZM884.47,401.88c-1.79,0-3.24-1.51-3.24-3.38s1.45-3.38,3.24-3.38,3.23,1.51,3.23,3.38-1.45,3.38-3.23,3.38ZM886.66,392.46c-1.79,0-3.24-1.51-3.24-3.38s1.45-3.38,3.24-3.38,3.24,1.52,3.24,3.38-1.45,3.38-3.24,3.38ZM889.79,379.48c0,1.87-1.45,3.38-3.24,3.38s-3.24-1.51-3.24-3.38,1.45-3.38,3.24-3.38,3.24,1.51,3.24,3.38ZM887.44,370.12c0,1.87-1.45,3.38-3.24,3.38s-3.24-1.52-3.24-3.38,1.45-3.38,3.24-3.38,3.24,1.51,3.24,3.38ZM883.5,361.3c0,1.87-1.45,3.38-3.24,3.38s-3.24-1.51-3.24-3.38,1.45-3.38,3.24-3.38,3.24,1.51,3.24,3.38ZM874.87,349.91c1.79,0,3.24,1.51,3.24,3.38s-1.45,3.38-3.24,3.38-3.24-1.52-3.24-3.38,1.45-3.38,3.24-3.38ZM873.79,366.25c.55-.06,1.11,0,1.7.27,2.62,1.23,3.67,3.12,3.82,5.2.09,1.25-.14,2.56-.54,3.84-.98,3.81-3.67,7.28-4.24,8,.58.72,3.26,4.19,4.24,8,.4,1.28.63,2.6.54,3.85-.15,2.08-1.19,3.97-3.82,5.19-.59.28-1.15.32-1.7.27-3.09.24-5.29-4.28-7.74-8.87l-.49-.92-.71-1.16c-1.66-2.68-5.33-6.35-5.33-6.35,0,0,3.67-3.68,5.33-6.36l.71-1.16.49-.92c2.46-4.6,4.65-9.11,7.74-8.87ZM867.54,343.41c1.79,0,3.24,1.52,3.24,3.38s-1.45,3.38-3.24,3.38-3.24-1.51-3.24-3.38,1.45-3.38,3.24-3.38ZM859.18,338.47c1.78,0,3.24,1.51,3.24,3.38s-1.45,3.38-3.24,3.38-3.24-1.51-3.24-3.38,1.45-3.38,3.24-3.38ZM867.71,360.13c-.99,5.62-6.37,17.39-14.23,17.39s-13.23-11.77-14.23-17.39c-1.18-6.67,6.37-10.39,14.23-10.39s15.41,3.72,14.23,10.39ZM850.11,335.15c1.79,0,3.24,1.51,3.24,3.38s-1.45,3.38-3.24,3.38-3.24-1.51-3.24-3.38,1.45-3.38,3.24-3.38ZM847.49,345.36c0,1.86-1.45,3.38-3.23,3.38s-3.24-1.52-3.24-3.38,1.45-3.39,3.24-3.39,3.23,1.52,3.23,3.39ZM840.64,333.48c1.79,0,3.24,1.51,3.24,3.38s-1.45,3.38-3.24,3.38-3.24-1.51-3.24-3.38,1.45-3.38,3.24-3.38ZM836.41,427.34c1.68.6,2.49,2.64,1.7,4.52-.79,1.88-2.82,2.72-4.42,1.93-1.61-.79-2.26-2.77-1.54-4.45.71-1.68,2.58-2.59,4.27-2ZM833.15,221.86v7.03h-7.3v-7.03h7.3ZM825.85,217.17v-7.03h7.3v7.03h-7.3ZM833.15,233.58v7.03h-7.3v-7.03h7.3ZM833.15,245.3v7.03h-7.3v-7.03h7.3ZM833.15,257.01v7.03h-7.3v-7.03h7.3ZM833.15,268.73v7.03h-7.3v-7.03h7.3ZM833.15,280.45v7.03h-7.3v-7.03h7.3ZM833.15,292.17v7.03h-7.3v-7.03h7.3ZM833.15,303.88v7.03h-7.3v-7.03h7.3ZM833.15,315.6v7.03h-7.3v-7.03h7.3ZM834.76,110.76c-.79-1.76-.23-3.81,1.37-4.64,1.57-.83,3.66.04,4.54,1.98.87,1.95.14,4.08-1.52,4.72-1.67.64-3.59-.3-4.38-2.06ZM839.3,117c1.99-2.63,5.2-5.02,8.88-6.4,3.68-1.39,7.71-1.65,11.07-.19,3.34,1.43,5.98,4.65,6.39,9.46.38,4.04-.33,10.46-2.58,15.51-2.25,5.47-5.68,7.62-9.57,7.8-3.96,0-7.17-2.87-9.78-6.85-2.62-3.83-4.83-7.95-5.93-10.63-1.27-3.16-.47-6.03,1.51-8.69ZM856.54,149.21c0,1.87-1.37,3.38-3.06,3.38s-3.06-1.52-3.06-3.38,1.37-3.38,3.06-3.38,3.06,1.51,3.06,3.38ZM838.11,146.96c-.02-3,.03-6.02-.03-9.01,0,0,1.61.21,3.45.92,1.85.73,3.92,1.89,4.87,3.59l2.51,4.51h-10.79ZM848.9,151.47l-2.51,4.51c-1.91,3.43-8.28,4.51-8.28,4.51v-9.02h10.79ZM840.7,199.43c-1.79,0-3.24-1.51-3.24-3.38s1.45-3.38,3.24-3.38,3.23,1.52,3.23,3.38-1.45,3.38-3.23,3.38ZM841.02,187.42c0-1.87,1.45-3.38,3.24-3.38s3.23,1.52,3.23,3.38-1.45,3.38-3.23,3.38-3.24-1.51-3.24-3.38ZM849.19,198.03c-1.79,0-3.24-1.51-3.24-3.38s1.45-3.38,3.24-3.38,3.24,1.51,3.24,3.38-1.45,3.38-3.24,3.38ZM839.26,172.64c.99-5.62,6.37-17.39,14.23-17.39s13.23,11.77,14.23,17.39c1.18,6.66-6.37,10.39-14.23,10.39s-15.41-3.72-14.23-10.39ZM857.87,194.97c-1.79,0-3.23-1.51-3.23-3.38s1.45-3.38,3.23-3.38,3.24,1.51,3.24,3.38-1.45,3.38-3.24,3.38ZM866.38,190.28c-1.79,0-3.24-1.51-3.24-3.38s1.45-3.38,3.24-3.38,3.24,1.51,3.24,3.38-1.45,3.38-3.24,3.38ZM866.04,157.65l-.49-.92-.71-1.16c-1.66-2.68-5.33-6.36-5.33-6.36,0,0,3.67-3.67,5.33-6.35l.71-1.16.49-.92c.16-.3.31-.55.46-.88l.44-1.2.84-2.36c.55-1.54,1.05-3,1.58-4.26,1.04-2.52,2.15-4.28,3.71-4.28.53-.15,1.1-.14,1.74.21,2.83,1.58,4.14,4.52,4.41,7.83.18,1.87-.06,4.44-.46,5.38-.98,3.81-3.67,7.28-4.24,8,.58.72,3.26,4.19,4.24,8,.4,1.28.63,2.6.54,3.84-.15,2.08-1.19,3.97-3.82,5.2-.59.27-1.15.32-1.7.27-3.09.24-5.29-4.28-7.74-8.88ZM873.92,184.02c-1.79,0-3.24-1.52-3.24-3.39s1.45-3.38,3.24-3.38,3.24,1.52,3.24,3.38-1.45,3.39-3.24,3.39ZM879.86,176.25c-1.79,0-3.24-1.52-3.24-3.38s1.45-3.38,3.24-3.38,3.24,1.51,3.24,3.38-1.45,3.38-3.24,3.38ZM884.47,167.53c-1.79,0-3.24-1.52-3.24-3.38s1.45-3.38,3.24-3.38,3.23,1.51,3.23,3.38-1.45,3.38-3.23,3.38ZM886.66,158.12c-1.79,0-3.24-1.51-3.24-3.38s1.45-3.38,3.24-3.38,3.24,1.51,3.24,3.38-1.45,3.38-3.24,3.38Z"/></svg>